solid OpenSCAD_Model
  facet normal -0.991445 -0.130526 -0
    outer loop
      vertex 0 1 0
      vertex 0.034074 0.741181 0
      vertex 0 1 10
    endloop
  endfacet
  facet normal -0.991445 -0.130526 0
    outer loop
      vertex 0 1 10
      vertex 0.034074 0.741181 0
      vertex 0.034074 0.741181 10
    endloop
  endfacet
  facet normal -0 -0 -1
    outer loop
      vertex 0 1 0
      vertex 0 27 0
      vertex 0.034074 0.741181 0
    endloop
  endfacet
  facet normal 0 0 -1
    outer loop
      vertex 0.034074 0.741181 0
      vertex 0 27 0
      vertex 0.034074 27.2588 0
    endloop
  endfacet
  facet normal 0 -0 -1
    outer loop
      vertex 0.034074 0.741181 0
      vertex 0.034074 27.2588 0
      vertex 0.133975 27.5 0
    endloop
  endfacet
  facet normal 0 0 -1
    outer loop
      vertex 0.034074 0.741181 0
      vertex 0.133975 27.5 0
      vertex 0.292893 27.7071 0
    endloop
  endfacet
  facet normal 0 0 -1
    outer loop
      vertex 0.034074 0.741181 0
      vertex 0.292893 27.7071 0
      vertex 0.5 27.866 0
    endloop
  endfacet
  facet normal 0 0 -1
    outer loop
      vertex 0.034074 0.741181 0
      vertex 0.5 27.866 0
      vertex 0.741181 27.9659 0
    endloop
  endfacet
  facet normal 0 0 -1
    outer loop
      vertex 0.034074 0.741181 0
      vertex 0.741181 27.9659 0
      vertex 1 28 0
    endloop
  endfacet
  facet normal 0 -0 -1
    outer loop
      vertex 13.5355 26.2022 0
      vertex 1 28 0
      vertex 28 28 0
    endloop
  endfacet
  facet normal 0 0 -1
    outer loop
      vertex 24 24 0
      vertex 28 28 0
      vertex 28.2588 27.9659 0
    endloop
  endfacet
  facet normal 0 0 -1
    outer loop
      vertex 24 16 0
      vertex 39 25 0
      vertex 39 22 0
    endloop
  endfacet
  facet normal 0 0 -1
    outer loop
      vertex 24 16 0
      vertex 39 22 0
      vertex 47.8 22 0
    endloop
  endfacet
  facet normal 0 0 -1
    outer loop
      vertex 24 16 0
      vertex 38.866 25.5 0
      vertex 38.9659 25.2588 0
    endloop
  endfacet
  facet normal 0 0 -1
    outer loop
      vertex 24 24 0
      vertex 38.2588 25.9659 0
      vertex 38.5 25.866 0
    endloop
  endfacet
  facet normal 0 0 -1
    outer loop
      vertex 24 24 0
      vertex 38.5 25.866 0
      vertex 38.7071 25.7071 0
    endloop
  endfacet
  facet normal -0 0 -1
    outer loop
      vertex 24 24 0
      vertex 38.866 25.5 0
      vertex 24 16 0
    endloop
  endfacet
  facet normal -0 0 -1
    outer loop
      vertex 24 16 0
      vertex 47.8 22 0
      vertex 58.6274 16 0
    endloop
  endfacet
  facet normal 0 0 -1
    outer loop
      vertex 24 16 0
      vertex 38.9659 25.2588 0
      vertex 39 25 0
    endloop
  endfacet
  facet normal -0 0 -1
    outer loop
      vertex 47.8 24.4 0
      vertex 49 25.6274 0
      vertex 47.8 22 0
    endloop
  endfacet
  facet normal -0 0 -1
    outer loop
      vertex 47.8 22 0
      vertex 49 25.6274 0
      vertex 58.6274 16 0
    endloop
  endfacet
  facet normal 0 0 -1
    outer loop
      vertex 24 24 0
      vertex 28.2588 27.9659 0
      vertex 38.2588 25.9659 0
    endloop
  endfacet
  facet normal -0 0 -1
    outer loop
      vertex 15.7377 24 0
      vertex 28 28 0
      vertex 24 24 0
    endloop
  endfacet
  facet normal 0 0 -1
    outer loop
      vertex 1.7978 13.5355 0
      vertex 4 24 0
      vertex 4 15.7377 0
    endloop
  endfacet
  facet normal 0 -0 -1
    outer loop
      vertex 11.3333 24 0
      vertex 1 28 0
      vertex 13.5355 26.2022 0
    endloop
  endfacet
  facet normal 0 -0 -1
    outer loop
      vertex 15.7377 24 0
      vertex 13.5355 26.2022 0
      vertex 28 28 0
    endloop
  endfacet
  facet normal -0 -0 -1
    outer loop
      vertex 4 24 0
      vertex 1 28 0
      vertex 11.3333 24 0
    endloop
  endfacet
  facet normal 0 -0 -1
    outer loop
      vertex 1.7978 13.5355 0
      vertex 1 28 0
      vertex 4 24 0
    endloop
  endfacet
  facet normal 0 0 -1
    outer loop
      vertex 0.034074 0.741181 0
      vertex 1 28 0
      vertex 1.7978 13.5355 0
    endloop
  endfacet
  facet normal 0 0 -1
    outer loop
      vertex 4 11.3333 0
      vertex 0.034074 0.741181 0
      vertex 1.7978 13.5355 0
    endloop
  endfacet
  facet normal 0 0 -1
    outer loop
      vertex 4 4 0
      vertex 0.034074 0.741181 0
      vertex 4 11.3333 0
    endloop
  endfacet
  facet normal 0 0 -1
    outer loop
      vertex 12.2623 4 0
      vertex 0.034074 0.741181 0
      vertex 4 4 0
    endloop
  endfacet
  facet normal 0 0 -1
    outer loop
      vertex 24 4 0
      vertex 14.4645 1.7978 0
      vertex 16.6667 4 0
    endloop
  endfacet
  facet normal 0 0 -1
    outer loop
      vertex 24 24 0
      vertex 38.7071 25.7071 0
      vertex 38.866 25.5 0
    endloop
  endfacet
  facet normal 0 0 -1
    outer loop
      vertex 39 3 0
      vertex 24 4 0
      vertex 39 6 0
    endloop
  endfacet
  facet normal -0 0 -1
    outer loop
      vertex 47.8 4.2 0
      vertex 58 12 0
      vertex 49 3 0
    endloop
  endfacet
  facet normal -0 0 -1
    outer loop
      vertex 47.8 6 0
      vertex 58 12 0
      vertex 47.8 4.2 0
    endloop
  endfacet
  facet normal 0 -0 -1
    outer loop
      vertex 38.866 2.5 0
      vertex 14.4645 1.7978 0
      vertex 38.9659 2.74118 0
    endloop
  endfacet
  facet normal -0 0 -1
    outer loop
      vertex 39 6 0
      vertex 58 12 0
      vertex 47.8 6 0
    endloop
  endfacet
  facet normal 0 0 -1
    outer loop
      vertex 24 4 0
      vertex 58 12 0
      vertex 39 6 0
    endloop
  endfacet
  facet normal 0 0 -1
    outer loop
      vertex 38.866 2.5 0
      vertex 0.034074 0.741181 0
      vertex 14.4645 1.7978 0
    endloop
  endfacet
  facet normal 0 0 -1
    outer loop
      vertex 24 4 0
      vertex 39 3 0
      vertex 14.4645 1.7978 0
    endloop
  endfacet
  facet normal 0 0 -1
    outer loop
      vertex 39 3 0
      vertex 38.9659 2.74118 0
      vertex 14.4645 1.7978 0
    endloop
  endfacet
  facet normal 0 0 -1
    outer loop
      vertex 0.034074 0.741181 0
      vertex 38.866 2.5 0
      vertex 38.7071 2.29289 0
    endloop
  endfacet
  facet normal 0 0 -1
    outer loop
      vertex 0.034074 0.741181 0
      vertex 38.7071 2.29289 0
      vertex 38.5 2.13397 0
    endloop
  endfacet
  facet normal 0 0 -1
    outer loop
      vertex 0.034074 0.741181 0
      vertex 38.5 2.13397 0
      vertex 38.2588 2.03407 0
    endloop
  endfacet
  facet normal -0 0 -1
    outer loop
      vertex 0.034074 0.741181 0
      vertex 38.2588 2.03407 0
      vertex 28.2588 0.034074 0
    endloop
  endfacet
  facet normal 0 0 -1
    outer loop
      vertex 0.034074 0.741181 0
      vertex 28.2588 0.034074 0
      vertex 28 0 0
    endloop
  endfacet
  facet normal 0 0 -1
    outer loop
      vertex 0.034074 0.741181 0
      vertex 28 0 0
      vertex 1 0 0
    endloop
  endfacet
  facet normal 0 0 -1
    outer loop
      vertex 0.034074 0.741181 0
      vertex 1 0 0
      vertex 0.741181 0.034074 0
    endloop
  endfacet
  facet normal 0 0 -1
    outer loop
      vertex 0.034074 0.741181 0
      vertex 0.741181 0.034074 0
      vertex 0.5 0.133975 0
    endloop
  endfacet
  facet normal 0 0 -1
    outer loop
      vertex 0.034074 0.741181 0
      vertex 0.5 0.133975 0
      vertex 0.292893 0.292893 0
    endloop
  endfacet
  facet normal 0 0 -1
    outer loop
      vertex 0.034074 0.741181 0
      vertex 0.292893 0.292893 0
      vertex 0.133975 0.5 0
    endloop
  endfacet
  facet normal 0 0 -1
    outer loop
      vertex 49 25.6274 0
      vertex 47.8 24.4 0
      vertex 47.7726 24.4 0
    endloop
  endfacet
  facet normal 0 0 -1
    outer loop
      vertex 14.4645 1.7978 0
      vertex 0.034074 0.741181 0
      vertex 12.2623 4 0
    endloop
  endfacet
  facet normal 0 0 -1
    outer loop
      vertex 58 12 0
      vertex 24 4 0
      vertex 24 12 0
    endloop
  endfacet
  facet normal -1 -0 -0
    outer loop
      vertex 0 1 0
      vertex 0 1 10
      vertex 0 27 0
    endloop
  endfacet
  facet normal -1 0 0
    outer loop
      vertex 0 27 0
      vertex 0 1 10
      vertex 0 27 10
    endloop
  endfacet
  facet normal 0 -0 1
    outer loop
      vertex 0 27 10
      vertex 0 1 10
      vertex 0.034074 0.741181 10
    endloop
  endfacet
  facet normal 0 0 1
    outer loop
      vertex 0.292893 0.292893 10
      vertex 0 27 10
      vertex 0.133975 0.5 10
    endloop
  endfacet
  facet normal 0 0 1
    outer loop
      vertex 0.133975 0.5 10
      vertex 0 27 10
      vertex 0.034074 0.741181 10
    endloop
  endfacet
  facet normal 0 0 1
    outer loop
      vertex 0.5 0.133975 10
      vertex 0 27 10
      vertex 0.292893 0.292893 10
    endloop
  endfacet
  facet normal 0 0 1
    outer loop
      vertex 0.741181 0.034074 10
      vertex 0 27 10
      vertex 0.5 0.133975 10
    endloop
  endfacet
  facet normal 0 0 1
    outer loop
      vertex 1 0 10
      vertex 0 27 10
      vertex 0.741181 0.034074 10
    endloop
  endfacet
  facet normal -0 0 1
    outer loop
      vertex 1.7978 13.5355 10
      vertex 0 27 10
      vertex 1 0 10
    endloop
  endfacet
  facet normal -0 0 1
    outer loop
      vertex 14.4645 1.7978 10
      vertex 12.2623 4 10
      vertex 1 0 10
    endloop
  endfacet
  facet normal 0 -0 1
    outer loop
      vertex 24 4 10
      vertex 16.6667 4 10
      vertex 28 0 10
    endloop
  endfacet
  facet normal -0 0 1
    outer loop
      vertex 38.9659 2.74118 10
      vertex 24 12 10
      vertex 38.866 2.5 10
    endloop
  endfacet
  facet normal -0 0 1
    outer loop
      vertex 28.2588 0.034074 10
      vertex 24 4 10
      vertex 28 0 10
    endloop
  endfacet
  facet normal -0 0 1
    outer loop
      vertex 4 11.3333 10
      vertex 1.7978 13.5355 10
      vertex 4 4 10
    endloop
  endfacet
  facet normal -0 0 1
    outer loop
      vertex 28 0 10
      vertex 14.4645 1.7978 10
      vertex 1 0 10
    endloop
  endfacet
  facet normal 0 0 1
    outer loop
      vertex 28 0 10
      vertex 16.6667 4 10
      vertex 14.4645 1.7978 10
    endloop
  endfacet
  facet normal 0 0 1
    outer loop
      vertex 12.2623 4 10
      vertex 4 4 10
      vertex 1 0 10
    endloop
  endfacet
  facet normal 0 0 1
    outer loop
      vertex 1.7978 13.5355 10
      vertex 4 15.7377 10
      vertex 0 27 10
    endloop
  endfacet
  facet normal -0 0 1
    outer loop
      vertex 4 4 10
      vertex 1.7978 13.5355 10
      vertex 1 0 10
    endloop
  endfacet
  facet normal 0 0 1
    outer loop
      vertex 4 24 10
      vertex 11.3333 24 10
      vertex 0 27 10
    endloop
  endfacet
  facet normal 0 0 1
    outer loop
      vertex 4 15.7377 10
      vertex 4 24 10
      vertex 0 27 10
    endloop
  endfacet
  facet normal -0 0 1
    outer loop
      vertex 13.5355 26.2022 10
      vertex 0 27 10
      vertex 11.3333 24 10
    endloop
  endfacet
  facet normal 0 0 1
    outer loop
      vertex 39 25 10
      vertex 0 27 10
      vertex 13.5355 26.2022 10
    endloop
  endfacet
  facet normal 0 0 1
    outer loop
      vertex 24 16 10
      vertex 39 16 10
      vertex 24 24 10
    endloop
  endfacet
  facet normal -0 0 1
    outer loop
      vertex 39 25 10
      vertex 13.5355 26.2022 10
      vertex 24 24 10
    endloop
  endfacet
  facet normal 0 0 1
    outer loop
      vertex 24 12 10
      vertex 38.7071 2.29289 10
      vertex 38.866 2.5 10
    endloop
  endfacet
  facet normal 0 0 1
    outer loop
      vertex 15.7377 24 10
      vertex 24 24 10
      vertex 13.5355 26.2022 10
    endloop
  endfacet
  facet normal 0 0 1
    outer loop
      vertex 39 25 10
      vertex 24 24 10
      vertex 39 16 10
    endloop
  endfacet
  facet normal -0 -0 1
    outer loop
      vertex 38.9659 25.2588 10
      vertex 0 27 10
      vertex 39 25 10
    endloop
  endfacet
  facet normal -0 -0 1
    outer loop
      vertex 38.866 25.5 10
      vertex 0 27 10
      vertex 38.9659 25.2588 10
    endloop
  endfacet
  facet normal -0 -0 1
    outer loop
      vertex 38.7071 25.7071 10
      vertex 0 27 10
      vertex 38.866 25.5 10
    endloop
  endfacet
  facet normal -0 -0 1
    outer loop
      vertex 38.5 25.866 10
      vertex 0 27 10
      vertex 38.7071 25.7071 10
    endloop
  endfacet
  facet normal -0 -0 1
    outer loop
      vertex 38.2588 25.9659 10
      vertex 0 27 10
      vertex 38.5 25.866 10
    endloop
  endfacet
  facet normal 0 -0 1
    outer loop
      vertex 28.2588 27.9659 10
      vertex 0 27 10
      vertex 38.2588 25.9659 10
    endloop
  endfacet
  facet normal 0 -0 1
    outer loop
      vertex 28 28 10
      vertex 0 27 10
      vertex 28.2588 27.9659 10
    endloop
  endfacet
  facet normal 0 -0 1
    outer loop
      vertex 1 28 10
      vertex 0 27 10
      vertex 28 28 10
    endloop
  endfacet
  facet normal 0 -0 1
    outer loop
      vertex 0.741181 27.9659 10
      vertex 0 27 10
      vertex 1 28 10
    endloop
  endfacet
  facet normal 0 -0 1
    outer loop
      vertex 0.5 27.866 10
      vertex 0 27 10
      vertex 0.741181 27.9659 10
    endloop
  endfacet
  facet normal 0 -0 1
    outer loop
      vertex 0.292893 27.7071 10
      vertex 0 27 10
      vertex 0.5 27.866 10
    endloop
  endfacet
  facet normal 0 -0 1
    outer loop
      vertex 0.133975 27.5 10
      vertex 0 27 10
      vertex 0.292893 27.7071 10
    endloop
  endfacet
  facet normal 0 -0 1
    outer loop
      vertex 0.034074 27.2588 10
      vertex 0 27 10
      vertex 0.133975 27.5 10
    endloop
  endfacet
  facet normal 0 0 1
    outer loop
      vertex 39 12 10
      vertex 38.9659 2.74118 10
      vertex 39 3 10
    endloop
  endfacet
  facet normal 0 0 1
    outer loop
      vertex 39 12 10
      vertex 24 12 10
      vertex 38.9659 2.74118 10
    endloop
  endfacet
  facet normal 0 0 1
    outer loop
      vertex 24 12 10
      vertex 38.5 2.13397 10
      vertex 38.7071 2.29289 10
    endloop
  endfacet
  facet normal 0 0 1
    outer loop
      vertex 24 12 10
      vertex 38.2588 2.03407 10
      vertex 38.5 2.13397 10
    endloop
  endfacet
  facet normal 0 0 1
    outer loop
      vertex 24 12 10
      vertex 28.2588 0.034074 10
      vertex 38.2588 2.03407 10
    endloop
  endfacet
  facet normal 0 -0 1
    outer loop
      vertex 24 12 10
      vertex 24 4 10
      vertex 28.2588 0.034074 10
    endloop
  endfacet
  facet normal -0.923879 -0.382685 -0
    outer loop
      vertex 0.034074 0.741181 0
      vertex 0.133975 0.5 0
      vertex 0.034074 0.741181 10
    endloop
  endfacet
  facet normal -0.923879 -0.382685 0
    outer loop
      vertex 0.034074 0.741181 10
      vertex 0.133975 0.5 0
      vertex 0.133975 0.5 10
    endloop
  endfacet
  facet normal -0.793355 -0.60876 -0
    outer loop
      vertex 0.133975 0.5 0
      vertex 0.292893 0.292893 0
      vertex 0.133975 0.5 10
    endloop
  endfacet
  facet normal -0.793355 -0.60876 0
    outer loop
      vertex 0.133975 0.5 10
      vertex 0.292893 0.292893 0
      vertex 0.292893 0.292893 10
    endloop
  endfacet
  facet normal -0.60876 -0.793355 0
    outer loop
      vertex 0.292893 0.292893 10
      vertex 0.292893 0.292893 0
      vertex 0.5 0.133975 0
    endloop
  endfacet
  facet normal -0.60876 -0.793355 0
    outer loop
      vertex 0.5 0.133975 10
      vertex 0.292893 0.292893 10
      vertex 0.5 0.133975 0
    endloop
  endfacet
  facet normal -0.382685 -0.923879 0
    outer loop
      vertex 0.5 0.133975 10
      vertex 0.5 0.133975 0
      vertex 0.741181 0.034074 0
    endloop
  endfacet
  facet normal -0.382685 -0.923879 0
    outer loop
      vertex 0.741181 0.034074 10
      vertex 0.5 0.133975 10
      vertex 0.741181 0.034074 0
    endloop
  endfacet
  facet normal -0.130526 -0.991445 0
    outer loop
      vertex 0.741181 0.034074 10
      vertex 0.741181 0.034074 0
      vertex 1 0 0
    endloop
  endfacet
  facet normal -0.130526 -0.991445 0
    outer loop
      vertex 1 0 10
      vertex 0.741181 0.034074 10
      vertex 1 0 0
    endloop
  endfacet
  facet normal 0 -1 0
    outer loop
      vertex 1 0 10
      vertex 1 0 0
      vertex 28 0 0
    endloop
  endfacet
  facet normal 0 -1 0
    outer loop
      vertex 28 0 10
      vertex 1 0 10
      vertex 28 0 0
    endloop
  endfacet
  facet normal 0.130526 -0.991445 0
    outer loop
      vertex 28 0 10
      vertex 28 0 0
      vertex 28.2588 0.034074 0
    endloop
  endfacet
  facet normal 0.130526 -0.991445 0
    outer loop
      vertex 28.2588 0.034074 10
      vertex 28 0 10
      vertex 28.2588 0.034074 0
    endloop
  endfacet
  facet normal 0.196116 -0.980581 0
    outer loop
      vertex 28.2588 0.034074 10
      vertex 28.2588 0.034074 0
      vertex 38.2588 2.03407 0
    endloop
  endfacet
  facet normal 0.196116 -0.980581 0
    outer loop
      vertex 38.2588 2.03407 10
      vertex 28.2588 0.034074 10
      vertex 38.2588 2.03407 0
    endloop
  endfacet
  facet normal 0.382685 -0.923879 0
    outer loop
      vertex 38.2588 2.03407 10
      vertex 38.2588 2.03407 0
      vertex 38.5 2.13397 0
    endloop
  endfacet
  facet normal 0.382685 -0.923879 0
    outer loop
      vertex 38.5 2.13397 10
      vertex 38.2588 2.03407 10
      vertex 38.5 2.13397 0
    endloop
  endfacet
  facet normal 0.60876 -0.793355 0
    outer loop
      vertex 38.5 2.13397 10
      vertex 38.5 2.13397 0
      vertex 38.7071 2.29289 0
    endloop
  endfacet
  facet normal 0.60876 -0.793355 0
    outer loop
      vertex 38.7071 2.29289 10
      vertex 38.5 2.13397 10
      vertex 38.7071 2.29289 0
    endloop
  endfacet
  facet normal 0.793355 -0.60876 0
    outer loop
      vertex 38.7071 2.29289 10
      vertex 38.7071 2.29289 0
      vertex 38.866 2.5 0
    endloop
  endfacet
  facet normal 0.793355 -0.60876 0
    outer loop
      vertex 38.866 2.5 10
      vertex 38.7071 2.29289 10
      vertex 38.866 2.5 0
    endloop
  endfacet
  facet normal 0.923879 -0.382685 0
    outer loop
      vertex 38.866 2.5 10
      vertex 38.866 2.5 0
      vertex 38.9659 2.74118 0
    endloop
  endfacet
  facet normal 0.923879 -0.382685 0
    outer loop
      vertex 38.9659 2.74118 10
      vertex 38.866 2.5 10
      vertex 38.9659 2.74118 0
    endloop
  endfacet
  facet normal 0.991445 -0.130526 0
    outer loop
      vertex 38.9659 2.74118 10
      vertex 38.9659 2.74118 0
      vertex 39 3 0
    endloop
  endfacet
  facet normal 0.991445 -0.130526 0
    outer loop
      vertex 39 3 10
      vertex 38.9659 2.74118 10
      vertex 39 3 0
    endloop
  endfacet
  facet normal 1 0 -0
    outer loop
      vertex 39 3 10
      vertex 39 3 0
      vertex 39 6 0
    endloop
  endfacet
  facet normal 0 0 0
    outer loop
      vertex 39 12 10
      vertex 39 3 10
      vertex 39 6 10
    endloop
  endfacet
  facet normal 1 0 0
    outer loop
      vertex 39 6 10
      vertex 39 3 10
      vertex 39 6 0
    endloop
  endfacet
  facet normal 0 -1 0
    outer loop
      vertex 39 6 10
      vertex 39 6 0
      vertex 47.8 6 0
    endloop
  endfacet
  facet normal 0 -1 0
    outer loop
      vertex 47.8 6 10
      vertex 39 6 10
      vertex 47.8 6 0
    endloop
  endfacet
  facet normal -1 0 0
    outer loop
      vertex 47.8 6 10
      vertex 47.8 6 0
      vertex 47.8 4.2 10
    endloop
  endfacet
  facet normal -1 0 0
    outer loop
      vertex 47.8 4.2 10
      vertex 47.8 6 0
      vertex 47.8 4.2 0
    endloop
  endfacet
  facet normal -0.707107 -0.707107 0
    outer loop
      vertex 47.8 4.2 10
      vertex 47.8 4.2 0
      vertex 49 3 0
    endloop
  endfacet
  facet normal -0.707107 -0.707107 0
    outer loop
      vertex 49 3 10
      vertex 47.8 4.2 10
      vertex 49 3 0
    endloop
  endfacet
  facet normal 0.707107 -0.707107 0
    outer loop
      vertex 49 3 10
      vertex 49 3 0
      vertex 58 12 0
    endloop
  endfacet
  facet normal 0.707107 -0.707107 0
    outer loop
      vertex 58 12 10
      vertex 49 3 10
      vertex 58 12 0
    endloop
  endfacet
  facet normal 0 1 0
    outer loop
      vertex 58 12 0
      vertex 39 12 10
      vertex 58 12 10
    endloop
  endfacet
  facet normal 0 1 0
    outer loop
      vertex 24 12 10
      vertex 39 12 10
      vertex 58 12 0
    endloop
  endfacet
  facet normal 0 1 -0
    outer loop
      vertex 24 12 10
      vertex 58 12 0
      vertex 24 12 0
    endloop
  endfacet
  facet normal -1 0 0
    outer loop
      vertex 24 12 10
      vertex 24 12 0
      vertex 24 4 10
    endloop
  endfacet
  facet normal -1 0 0
    outer loop
      vertex 24 4 10
      vertex 24 12 0
      vertex 24 4 0
    endloop
  endfacet
  facet normal 0 1 0
    outer loop
      vertex 24 4 10
      vertex 24 4 0
      vertex 16.6667 4 10
    endloop
  endfacet
  facet normal 0 1 -0
    outer loop
      vertex 16.6667 4 10
      vertex 24 4 0
      vertex 16.6667 4 0
    endloop
  endfacet
  facet normal -0.707107 0.707107 0
    outer loop
      vertex 16.6667 4 10
      vertex 16.6667 4 0
      vertex 14.4645 1.7978 10
    endloop
  endfacet
  facet normal -0.707107 0.707107 0
    outer loop
      vertex 14.4645 1.7978 10
      vertex 16.6667 4 0
      vertex 14.4645 1.7978 0
    endloop
  endfacet
  facet normal 0.707107 0.707107 0
    outer loop
      vertex 12.2623 4 10
      vertex 14.4645 1.7978 10
      vertex 14.4645 1.7978 0
    endloop
  endfacet
  facet normal 0.707107 0.707107 0
    outer loop
      vertex 12.2623 4 0
      vertex 12.2623 4 10
      vertex 14.4645 1.7978 0
    endloop
  endfacet
  facet normal 0 1 0
    outer loop
      vertex 12.2623 4 10
      vertex 12.2623 4 0
      vertex 4 4 10
    endloop
  endfacet
  facet normal 0 1 -0
    outer loop
      vertex 4 4 10
      vertex 12.2623 4 0
      vertex 4 4 0
    endloop
  endfacet
  facet normal 1 0 0
    outer loop
      vertex 4 11.3333 0
      vertex 4 11.3333 10
      vertex 4 4 10
    endloop
  endfacet
  facet normal 1 0 0
    outer loop
      vertex 4 4 0
      vertex 4 11.3333 0
      vertex 4 4 10
    endloop
  endfacet
  facet normal 0.707107 0.707107 -0
    outer loop
      vertex 4 11.3333 10
      vertex 4 11.3333 0
      vertex 1.7978 13.5355 10
    endloop
  endfacet
  facet normal 0.707107 0.707107 -0
    outer loop
      vertex 1.7978 13.5355 10
      vertex 4 11.3333 0
      vertex 1.7978 13.5355 0
    endloop
  endfacet
  facet normal 0.707107 -0.707107 0
    outer loop
      vertex 4 15.7377 0
      vertex 4 15.7377 10
      vertex 1.7978 13.5355 10
    endloop
  endfacet
  facet normal 0.707107 -0.707107 0
    outer loop
      vertex 1.7978 13.5355 0
      vertex 4 15.7377 0
      vertex 1.7978 13.5355 10
    endloop
  endfacet
  facet normal 1 0 0
    outer loop
      vertex 4 24 0
      vertex 4 24 10
      vertex 4 15.7377 10
    endloop
  endfacet
  facet normal 1 0 0
    outer loop
      vertex 4 15.7377 0
      vertex 4 24 0
      vertex 4 15.7377 10
    endloop
  endfacet
  facet normal 0 -1 0
    outer loop
      vertex 11.3333 24 0
      vertex 11.3333 24 10
      vertex 4 24 10
    endloop
  endfacet
  facet normal -0 -1 -0
    outer loop
      vertex 4 24 0
      vertex 11.3333 24 0
      vertex 4 24 10
    endloop
  endfacet
  facet normal 0.707107 -0.707107 0
    outer loop
      vertex 13.5355 26.2022 0
      vertex 13.5355 26.2022 10
      vertex 11.3333 24 10
    endloop
  endfacet
  facet normal 0.707107 -0.707107 0
    outer loop
      vertex 11.3333 24 0
      vertex 13.5355 26.2022 0
      vertex 11.3333 24 10
    endloop
  endfacet
  facet normal -0.707107 -0.707107 0
    outer loop
      vertex 15.7377 24 10
      vertex 13.5355 26.2022 10
      vertex 15.7377 24 0
    endloop
  endfacet
  facet normal -0.707107 -0.707107 0
    outer loop
      vertex 15.7377 24 0
      vertex 13.5355 26.2022 10
      vertex 13.5355 26.2022 0
    endloop
  endfacet
  facet normal 0 -1 0
    outer loop
      vertex 24 24 0
      vertex 24 24 10
      vertex 15.7377 24 10
    endloop
  endfacet
  facet normal -0 -1 -0
    outer loop
      vertex 15.7377 24 0
      vertex 24 24 0
      vertex 15.7377 24 10
    endloop
  endfacet
  facet normal -1 0 0
    outer loop
      vertex 24 24 10
      vertex 24 24 0
      vertex 24 16 10
    endloop
  endfacet
  facet normal -1 0 0
    outer loop
      vertex 24 16 10
      vertex 24 24 0
      vertex 24 16 0
    endloop
  endfacet
  facet normal 0 -1 0
    outer loop
      vertex 58.6274 16 0
      vertex 58.6274 16 10
      vertex 39 16 10
    endloop
  endfacet
  facet normal 0 -1 0
    outer loop
      vertex 24 16 10
      vertex 58.6274 16 0
      vertex 39 16 10
    endloop
  endfacet
  facet normal 0 -1 0
    outer loop
      vertex 24 16 10
      vertex 24 16 0
      vertex 58.6274 16 0
    endloop
  endfacet
  facet normal 0.707107 0.707107 0
    outer loop
      vertex 49 25.6274 0
      vertex 49 25.6274 10
      vertex 58.6274 16 0
    endloop
  endfacet
  facet normal 0.707107 0.707107 0
    outer loop
      vertex 58.6274 16 0
      vertex 49 25.6274 10
      vertex 58.6274 16 10
    endloop
  endfacet
  facet normal -0.707107 0.707107 0
    outer loop
      vertex 47.7726 24.4 0
      vertex 47.7726 24.4 10
      vertex 49 25.6274 0
    endloop
  endfacet
  facet normal -0.707107 0.707107 0
    outer loop
      vertex 49 25.6274 0
      vertex 47.7726 24.4 10
      vertex 49 25.6274 10
    endloop
  endfacet
  facet normal 0 -1 0
    outer loop
      vertex 47.8 24.4 0
      vertex 47.8 24.4 10
      vertex 47.7726 24.4 10
    endloop
  endfacet
  facet normal -0 -1 -0
    outer loop
      vertex 47.7726 24.4 0
      vertex 47.8 24.4 0
      vertex 47.7726 24.4 10
    endloop
  endfacet
  facet normal -1 0 0
    outer loop
      vertex 47.8 24.4 10
      vertex 47.8 24.4 0
      vertex 47.8 22 10
    endloop
  endfacet
  facet normal -1 0 0
    outer loop
      vertex 47.8 22 10
      vertex 47.8 24.4 0
      vertex 47.8 22 0
    endloop
  endfacet
  facet normal 0 1 0
    outer loop
      vertex 39 22 0
      vertex 39 22 10
      vertex 47.8 22 0
    endloop
  endfacet
  facet normal 0 1 0
    outer loop
      vertex 47.8 22 0
      vertex 39 22 10
      vertex 47.8 22 10
    endloop
  endfacet
  facet normal 0 0 0
    outer loop
      vertex 39 25 10
      vertex 39 16 10
      vertex 39 22 10
    endloop
  endfacet
  facet normal 1 0 0
    outer loop
      vertex 39 22 0
      vertex 39 25 0
      vertex 39 22 10
    endloop
  endfacet
  facet normal 1 0 0
    outer loop
      vertex 39 25 0
      vertex 39 25 10
      vertex 39 22 10
    endloop
  endfacet
  facet normal 0.991445 0.130526 0
    outer loop
      vertex 39 25 0
      vertex 38.9659 25.2588 0
      vertex 38.9659 25.2588 10
    endloop
  endfacet
  facet normal 0.991445 0.130526 -0
    outer loop
      vertex 39 25 10
      vertex 39 25 0
      vertex 38.9659 25.2588 10
    endloop
  endfacet
  facet normal 0.923879 0.382685 0
    outer loop
      vertex 38.9659 25.2588 0
      vertex 38.866 25.5 0
      vertex 38.866 25.5 10
    endloop
  endfacet
  facet normal 0.923879 0.382685 -0
    outer loop
      vertex 38.9659 25.2588 10
      vertex 38.9659 25.2588 0
      vertex 38.866 25.5 10
    endloop
  endfacet
  facet normal 0.793355 0.60876 0
    outer loop
      vertex 38.866 25.5 0
      vertex 38.7071 25.7071 0
      vertex 38.7071 25.7071 10
    endloop
  endfacet
  facet normal 0.793355 0.60876 -0
    outer loop
      vertex 38.866 25.5 10
      vertex 38.866 25.5 0
      vertex 38.7071 25.7071 10
    endloop
  endfacet
  facet normal 0.60876 0.793355 0
    outer loop
      vertex 38.5 25.866 0
      vertex 38.5 25.866 10
      vertex 38.7071 25.7071 0
    endloop
  endfacet
  facet normal 0.60876 0.793355 0
    outer loop
      vertex 38.7071 25.7071 0
      vertex 38.5 25.866 10
      vertex 38.7071 25.7071 10
    endloop
  endfacet
  facet normal 0.382685 0.923879 0
    outer loop
      vertex 38.2588 25.9659 0
      vertex 38.2588 25.9659 10
      vertex 38.5 25.866 0
    endloop
  endfacet
  facet normal 0.382685 0.923879 0
    outer loop
      vertex 38.5 25.866 0
      vertex 38.2588 25.9659 10
      vertex 38.5 25.866 10
    endloop
  endfacet
  facet normal 0.196116 0.980581 0
    outer loop
      vertex 28.2588 27.9659 0
      vertex 28.2588 27.9659 10
      vertex 38.2588 25.9659 0
    endloop
  endfacet
  facet normal 0.196116 0.980581 0
    outer loop
      vertex 38.2588 25.9659 0
      vertex 28.2588 27.9659 10
      vertex 38.2588 25.9659 10
    endloop
  endfacet
  facet normal 0.130526 0.991445 0
    outer loop
      vertex 28 28 0
      vertex 28 28 10
      vertex 28.2588 27.9659 0
    endloop
  endfacet
  facet normal 0.130526 0.991445 0
    outer loop
      vertex 28.2588 27.9659 0
      vertex 28 28 10
      vertex 28.2588 27.9659 10
    endloop
  endfacet
  facet normal 0 1 0
    outer loop
      vertex 1 28 0
      vertex 1 28 10
      vertex 28 28 0
    endloop
  endfacet
  facet normal 0 1 0
    outer loop
      vertex 28 28 0
      vertex 1 28 10
      vertex 28 28 10
    endloop
  endfacet
  facet normal -0.130526 0.991445 0
    outer loop
      vertex 0.741181 27.9659 0
      vertex 0.741181 27.9659 10
      vertex 1 28 0
    endloop
  endfacet
  facet normal -0.130526 0.991445 0
    outer loop
      vertex 1 28 0
      vertex 0.741181 27.9659 10
      vertex 1 28 10
    endloop
  endfacet
  facet normal -0.382685 0.923879 0
    outer loop
      vertex 0.5 27.866 0
      vertex 0.5 27.866 10
      vertex 0.741181 27.9659 0
    endloop
  endfacet
  facet normal -0.382685 0.923879 0
    outer loop
      vertex 0.741181 27.9659 0
      vertex 0.5 27.866 10
      vertex 0.741181 27.9659 10
    endloop
  endfacet
  facet normal -0.60876 0.793355 0
    outer loop
      vertex 0.292893 27.7071 0
      vertex 0.292893 27.7071 10
      vertex 0.5 27.866 0
    endloop
  endfacet
  facet normal -0.60876 0.793355 0
    outer loop
      vertex 0.5 27.866 0
      vertex 0.292893 27.7071 10
      vertex 0.5 27.866 10
    endloop
  endfacet
  facet normal -0.793355 0.60876 0
    outer loop
      vertex 0.133975 27.5 0
      vertex 0.133975 27.5 10
      vertex 0.292893 27.7071 0
    endloop
  endfacet
  facet normal -0.793355 0.60876 0
    outer loop
      vertex 0.292893 27.7071 0
      vertex 0.133975 27.5 10
      vertex 0.292893 27.7071 10
    endloop
  endfacet
  facet normal -0.923879 0.382685 0
    outer loop
      vertex 0.034074 27.2588 0
      vertex 0.034074 27.2588 10
      vertex 0.133975 27.5 0
    endloop
  endfacet
  facet normal -0.923879 0.382685 0
    outer loop
      vertex 0.133975 27.5 0
      vertex 0.034074 27.2588 10
      vertex 0.133975 27.5 10
    endloop
  endfacet
  facet normal -0.991445 0.130526 0
    outer loop
      vertex 0 27 0
      vertex 0 27 10
      vertex 0.034074 27.2588 0
    endloop
  endfacet
  facet normal -0.991445 0.130526 0
    outer loop
      vertex 0.034074 27.2588 0
      vertex 0 27 10
      vertex 0.034074 27.2588 10
    endloop
  endfacet
  facet normal 0 0 1
    outer loop
      vertex 47.8 4.2 10
      vertex 49 3 10
      vertex 47.8 6 10
    endloop
  endfacet
  facet normal 0 -0 1
    outer loop
      vertex 39 12 10
      vertex 39 6 10
      vertex 47.8 6 10
    endloop
  endfacet
  facet normal 0 0 1
    outer loop
      vertex 58 12 10
      vertex 39 12 10
      vertex 47.8 6 10
    endloop
  endfacet
  facet normal 0 0 1
    outer loop
      vertex 49 3 10
      vertex 58 12 10
      vertex 47.8 6 10
    endloop
  endfacet
  facet normal 0 -0 1
    outer loop
      vertex 39 22 10
      vertex 39 16 10
      vertex 58.6274 16 10
    endloop
  endfacet
  facet normal 0 -0 1
    outer loop
      vertex 47.8 22 10
      vertex 39 22 10
      vertex 58.6274 16 10
    endloop
  endfacet
  facet normal 0 -0 1
    outer loop
      vertex 49 25.6274 10
      vertex 47.8 24.4 10
      vertex 58.6274 16 10
    endloop
  endfacet
  facet normal 0 0 1
    outer loop
      vertex 49 25.6274 10
      vertex 47.7726 24.4 10
      vertex 47.8 24.4 10
    endloop
  endfacet
  facet normal 0 -0 1
    outer loop
      vertex 47.8 24.4 10
      vertex 47.8 22 10
      vertex 58.6274 16 10
    endloop
  endfacet
endsolid OpenSCAD_Model
