solid OpenSCAD_Model
  facet normal -1 0 -0
    outer loop
      vertex -9.5 152.5 12.75
      vertex -9.5 -2.5 30
      vertex -9.5 182.5 30
    endloop
  endfacet
  facet normal -1 0 -0
    outer loop
      vertex -9.5 -2.5 5
      vertex -9.5 -2.5 30
      vertex -9.5 24.75 10
    endloop
  endfacet
  facet normal -1 0 0
    outer loop
      vertex -9.5 -2.5 5
      vertex -9.5 24.75 10
      vertex -9.5 25.1184 8.625
    endloop
  endfacet
  facet normal -1 0 0
    outer loop
      vertex -9.5 -2.5 5
      vertex -9.5 25.1184 8.625
      vertex -9.5 26.125 7.61843
    endloop
  endfacet
  facet normal -1 0 0
    outer loop
      vertex -9.5 -2.5 5
      vertex -9.5 26.125 7.61843
      vertex -9.5 27.5 7.25
    endloop
  endfacet
  facet normal -1 -0 0
    outer loop
      vertex -9.5 -2.5 5
      vertex -9.5 27.5 7.25
      vertex -9.5 182.5 5
    endloop
  endfacet
  facet normal -1 0 0
    outer loop
      vertex -9.5 29.8816 8.625
      vertex -9.5 182.5 5
      vertex -9.5 28.875 7.61843
    endloop
  endfacet
  facet normal -1 0 0
    outer loop
      vertex -9.5 30.25 10
      vertex -9.5 182.5 5
      vertex -9.5 29.8816 8.625
    endloop
  endfacet
  facet normal -1 0 0
    outer loop
      vertex -9.5 150.118 8.625
      vertex -9.5 -2.5 30
      vertex -9.5 149.75 10
    endloop
  endfacet
  facet normal -1 0 -0
    outer loop
      vertex -9.5 26.125 12.3816
      vertex -9.5 -2.5 30
      vertex -9.5 27.5 12.75
    endloop
  endfacet
  facet normal -1 -0 -0
    outer loop
      vertex -9.5 30.25 10
      vertex -9.5 29.8816 11.375
      vertex -9.5 182.5 5
    endloop
  endfacet
  facet normal -1 -0 -0
    outer loop
      vertex -9.5 27.5 12.75
      vertex -9.5 -2.5 30
      vertex -9.5 28.875 12.3816
    endloop
  endfacet
  facet normal -1 -0 -0
    outer loop
      vertex -9.5 29.8816 11.375
      vertex -9.5 28.875 12.3816
      vertex -9.5 182.5 5
    endloop
  endfacet
  facet normal -1 0 -0
    outer loop
      vertex -9.5 25.1184 11.375
      vertex -9.5 -2.5 30
      vertex -9.5 26.125 12.3816
    endloop
  endfacet
  facet normal -1 0 -0
    outer loop
      vertex -9.5 24.75 10
      vertex -9.5 -2.5 30
      vertex -9.5 25.1184 11.375
    endloop
  endfacet
  facet normal -1 -0 -0
    outer loop
      vertex -9.5 28.875 12.3816
      vertex -9.5 -2.5 30
      vertex -9.5 150.118 8.625
    endloop
  endfacet
  facet normal -1 0 0
    outer loop
      vertex -9.5 28.875 12.3816
      vertex -9.5 150.118 8.625
      vertex -9.5 151.125 7.61843
    endloop
  endfacet
  facet normal -1 0 0
    outer loop
      vertex -9.5 28.875 12.3816
      vertex -9.5 151.125 7.61843
      vertex -9.5 152.5 7.25
    endloop
  endfacet
  facet normal -1 0 0
    outer loop
      vertex -9.5 28.875 12.3816
      vertex -9.5 152.5 7.25
      vertex -9.5 182.5 5
    endloop
  endfacet
  facet normal -1 0 0
    outer loop
      vertex -9.5 154.882 8.625
      vertex -9.5 182.5 5
      vertex -9.5 153.875 7.61843
    endloop
  endfacet
  facet normal -1 0 0
    outer loop
      vertex -9.5 153.875 7.61843
      vertex -9.5 182.5 5
      vertex -9.5 152.5 7.25
    endloop
  endfacet
  facet normal -1 0 0
    outer loop
      vertex -9.5 155.25 10
      vertex -9.5 182.5 5
      vertex -9.5 154.882 8.625
    endloop
  endfacet
  facet normal -1 -0 0
    outer loop
      vertex -9.5 152.5 12.75
      vertex -9.5 182.5 30
      vertex -9.5 153.875 12.3816
    endloop
  endfacet
  facet normal -1 0 0
    outer loop
      vertex -9.5 182.5 5
      vertex -9.5 155.25 10
      vertex -9.5 182.5 30
    endloop
  endfacet
  facet normal -1 0 -0
    outer loop
      vertex -9.5 155.25 10
      vertex -9.5 154.882 11.375
      vertex -9.5 182.5 30
    endloop
  endfacet
  facet normal -1 0 -0
    outer loop
      vertex -9.5 154.882 11.375
      vertex -9.5 153.875 12.3816
      vertex -9.5 182.5 30
    endloop
  endfacet
  facet normal -1 0 -0
    outer loop
      vertex -9.5 151.125 12.3816
      vertex -9.5 -2.5 30
      vertex -9.5 152.5 12.75
    endloop
  endfacet
  facet normal -1 0 -0
    outer loop
      vertex -9.5 150.118 11.375
      vertex -9.5 -2.5 30
      vertex -9.5 151.125 12.3816
    endloop
  endfacet
  facet normal -1 0 -0
    outer loop
      vertex -9.5 149.75 10
      vertex -9.5 -2.5 30
      vertex -9.5 150.118 11.375
    endloop
  endfacet
  facet normal -1 0 0
    outer loop
      vertex -9.5 28.875 7.61843
      vertex -9.5 182.5 5
      vertex -9.5 27.5 7.25
    endloop
  endfacet
  facet normal 0 -1 0
    outer loop
      vertex 10 -2.5 15.01
      vertex -9.5 -2.5 5
      vertex 85 -2.5 5
    endloop
  endfacet
  facet normal 0 -1 0
    outer loop
      vertex 10 -2.5 15.01
      vertex 0 -2.5 30
      vertex -9.5 -2.5 30
    endloop
  endfacet
  facet normal 0 -1 0
    outer loop
      vertex 85 -2.5 30.01
      vertex 75 -2.5 15.01
      vertex 85 -2.5 5
    endloop
  endfacet
  facet normal 0 -1 0
    outer loop
      vertex -9.5 -2.5 30
      vertex -9.5 -2.5 5
      vertex 10 -2.5 15.01
    endloop
  endfacet
  facet normal 0 -1 0
    outer loop
      vertex 75 -2.5 15.01
      vertex 10 -2.5 15.01
      vertex 85 -2.5 5
    endloop
  endfacet
  facet normal 0 -1 0
    outer loop
      vertex 0 -2.5 30.01
      vertex 0 -2.5 30
      vertex 10 -2.5 30.01
    endloop
  endfacet
  facet normal 0 -1 0
    outer loop
      vertex 75 -2.5 30.01
      vertex 75 -2.5 15.01
      vertex 85 -2.5 30.01
    endloop
  endfacet
  facet normal 0 -1 0
    outer loop
      vertex 10 -2.5 15.01
      vertex 10 -2.5 30.01
      vertex 0 -2.5 30
    endloop
  endfacet
  facet normal -0 -0 -1
    outer loop
      vertex -9.5 -2.5 5
      vertex -9.5 182.5 5
      vertex 85 -2.5 5
    endloop
  endfacet
  facet normal 0 0 -1
    outer loop
      vertex 85 -2.5 5
      vertex -9.5 182.5 5
      vertex 85 182.5 5
    endloop
  endfacet
  facet normal 0 -0 -1
    outer loop
      vertex 85 -2.5 5
      vertex 85 182.5 5
      vertex 86.25 182.165 5
    endloop
  endfacet
  facet normal 0 0 -1
    outer loop
      vertex 85 -2.5 5
      vertex 86.25 182.165 5
      vertex 87.1651 181.25 5
    endloop
  endfacet
  facet normal 0 0 -1
    outer loop
      vertex 85 -2.5 5
      vertex 87.1651 181.25 5
      vertex 87.5 180 5
    endloop
  endfacet
  facet normal 0 0 -1
    outer loop
      vertex 85 -2.5 5
      vertex 87.5 180 5
      vertex 87.5 0 5
    endloop
  endfacet
  facet normal 0 0 -1
    outer loop
      vertex 85 -2.5 5
      vertex 87.5 0 5
      vertex 87.1651 -1.25 5
    endloop
  endfacet
  facet normal 0 0 -1
    outer loop
      vertex 85 -2.5 5
      vertex 87.1651 -1.25 5
      vertex 86.25 -2.16506 5
    endloop
  endfacet
  facet normal 0 1 -0
    outer loop
      vertex 75 182.5 15.01
      vertex 85 182.5 5
      vertex 10 182.5 15.01
    endloop
  endfacet
  facet normal 0 1 0
    outer loop
      vertex -9.5 182.5 5
      vertex -9.5 182.5 30
      vertex 10 182.5 15.01
    endloop
  endfacet
  facet normal 0 1 0
    outer loop
      vertex -9.5 182.5 5
      vertex 10 182.5 15.01
      vertex 85 182.5 5
    endloop
  endfacet
  facet normal 0 1 0
    outer loop
      vertex 85 182.5 5
      vertex 75 182.5 15.01
      vertex 75 182.5 30.01
    endloop
  endfacet
  facet normal 0 1 0
    outer loop
      vertex 85 182.5 5
      vertex 75 182.5 30.01
      vertex 85 182.5 30.01
    endloop
  endfacet
  facet normal 0 1 0
    outer loop
      vertex 10 182.5 15.01
      vertex -9.5 182.5 30
      vertex 0 182.5 30
    endloop
  endfacet
  facet normal 0 1 0
    outer loop
      vertex 10 182.5 15.01
      vertex 0 182.5 30
      vertex 0 182.5 30.01
    endloop
  endfacet
  facet normal 0 1 0
    outer loop
      vertex 10 182.5 15.01
      vertex 0 182.5 30.01
      vertex 10 182.5 30.01
    endloop
  endfacet
  facet normal 0 -0 1
    outer loop
      vertex -1.25 -2.16506 30
      vertex -9.5 -2.5 30
      vertex 0 -2.5 30
    endloop
  endfacet
  facet normal 0 -0 1
    outer loop
      vertex -2.16506 -1.25 30
      vertex -9.5 -2.5 30
      vertex -1.25 -2.16506 30
    endloop
  endfacet
  facet normal 0 -0 1
    outer loop
      vertex -2.5 0 30
      vertex -9.5 -2.5 30
      vertex -2.16506 -1.25 30
    endloop
  endfacet
  facet normal 0 -0 1
    outer loop
      vertex -9.5 182.5 30
      vertex -9.5 -2.5 30
      vertex -2.5 0 30
    endloop
  endfacet
  facet normal -0 0 1
    outer loop
      vertex -2.16506 181.25 30
      vertex -9.5 182.5 30
      vertex -2.5 180 30
    endloop
  endfacet
  facet normal -0 0 1
    outer loop
      vertex -1.25 182.165 30
      vertex -9.5 182.5 30
      vertex -2.16506 181.25 30
    endloop
  endfacet
  facet normal 0 0 1
    outer loop
      vertex 0 182.5 30
      vertex -9.5 182.5 30
      vertex -1.25 182.165 30
    endloop
  endfacet
  facet normal 0 0 1
    outer loop
      vertex -2.5 0 30
      vertex -2.5 180 30
      vertex -9.5 182.5 30
    endloop
  endfacet
  facet normal 9.99467e-17 0.965926 -0.258819
    outer loop
      vertex -4.9 25.1184 11.375
      vertex -4.9 24.75 10
      vertex -9.5 25.1184 11.375
    endloop
  endfacet
  facet normal 1.00902e-16 0.965926 -0.258819
    outer loop
      vertex -9.5 25.1184 11.375
      vertex -4.9 24.75 10
      vertex -9.5 24.75 10
    endloop
  endfacet
  facet normal -9.99467e-17 0.965926 0.258819
    outer loop
      vertex -4.9 25.1184 8.625
      vertex -9.5 25.1184 8.625
      vertex -4.9 24.75 10
    endloop
  endfacet
  facet normal -9.99467e-17 0.965926 0.258819
    outer loop
      vertex -4.9 24.75 10
      vertex -9.5 25.1184 8.625
      vertex -9.5 24.75 10
    endloop
  endfacet
  facet normal 2.7306e-16 0.707107 -0.707107
    outer loop
      vertex -4.9 26.125 12.3816
      vertex -4.9 25.1184 11.375
      vertex -9.5 26.125 12.3816
    endloop
  endfacet
  facet normal 2.69073e-16 0.707107 -0.707107
    outer loop
      vertex -9.5 26.125 12.3816
      vertex -4.9 25.1184 11.375
      vertex -9.5 25.1184 11.375
    endloop
  endfacet
  facet normal 3.73006e-16 0.258819 -0.965926
    outer loop
      vertex -4.9 27.5 12.75
      vertex -4.9 26.125 12.3816
      vertex -9.5 27.5 12.75
    endloop
  endfacet
  facet normal 3.81187e-16 0.258819 -0.965926
    outer loop
      vertex -9.5 27.5 12.75
      vertex -4.9 26.125 12.3816
      vertex -9.5 26.125 12.3816
    endloop
  endfacet
  facet normal 3.73006e-16 -0.258819 -0.965926
    outer loop
      vertex -4.9 28.875 12.3816
      vertex -4.9 27.5 12.75
      vertex -9.5 28.875 12.3816
    endloop
  endfacet
  facet normal 3.69976e-16 -0.258819 -0.965926
    outer loop
      vertex -9.5 28.875 12.3816
      vertex -4.9 27.5 12.75
      vertex -9.5 27.5 12.75
    endloop
  endfacet
  facet normal 2.7306e-16 -0.707107 -0.707107
    outer loop
      vertex -9.5 29.8816 11.375
      vertex -4.9 29.8816 11.375
      vertex -4.9 28.875 12.3816
    endloop
  endfacet
  facet normal 2.7306e-16 -0.707107 -0.707107
    outer loop
      vertex -9.5 28.875 12.3816
      vertex -9.5 29.8816 11.375
      vertex -4.9 28.875 12.3816
    endloop
  endfacet
  facet normal 9.99467e-17 -0.965926 -0.258819
    outer loop
      vertex -9.5 30.25 10
      vertex -4.9 30.25 10
      vertex -4.9 29.8816 11.375
    endloop
  endfacet
  facet normal 9.99467e-17 -0.965926 -0.258819
    outer loop
      vertex -9.5 29.8816 11.375
      vertex -9.5 30.25 10
      vertex -4.9 29.8816 11.375
    endloop
  endfacet
  facet normal -1.00902e-16 -0.965926 0.258819
    outer loop
      vertex -4.9 29.8816 8.625
      vertex -4.9 30.25 10
      vertex -9.5 30.25 10
    endloop
  endfacet
  facet normal -9.99467e-17 -0.965926 0.258819
    outer loop
      vertex -9.5 29.8816 8.625
      vertex -4.9 29.8816 8.625
      vertex -9.5 30.25 10
    endloop
  endfacet
  facet normal -2.69073e-16 -0.707107 0.707107
    outer loop
      vertex -4.9 28.875 7.61843
      vertex -4.9 29.8816 8.625
      vertex -9.5 29.8816 8.625
    endloop
  endfacet
  facet normal -1.3653e-16 -0.707107 0.707107
    outer loop
      vertex -9.5 28.875 7.61843
      vertex -4.9 28.875 7.61843
      vertex -9.5 29.8816 8.625
    endloop
  endfacet
  facet normal -1.90594e-16 -0.258819 0.965926
    outer loop
      vertex -4.9 27.5 7.25
      vertex -4.9 28.875 7.61843
      vertex -9.5 28.875 7.61843
    endloop
  endfacet
  facet normal -1.86503e-16 -0.258819 0.965926
    outer loop
      vertex -9.5 27.5 7.25
      vertex -4.9 27.5 7.25
      vertex -9.5 28.875 7.61843
    endloop
  endfacet
  facet normal -1.90594e-16 0.258819 0.965926
    outer loop
      vertex -4.9 26.125 7.61843
      vertex -4.9 27.5 7.25
      vertex -9.5 27.5 7.25
    endloop
  endfacet
  facet normal -1.86503e-16 0.258819 0.965926
    outer loop
      vertex -9.5 26.125 7.61843
      vertex -4.9 26.125 7.61843
      vertex -9.5 27.5 7.25
    endloop
  endfacet
  facet normal -1.3653e-16 0.707107 0.707107
    outer loop
      vertex -4.9 26.125 7.61843
      vertex -9.5 26.125 7.61843
      vertex -4.9 25.1184 8.625
    endloop
  endfacet
  facet normal -2.7306e-16 0.707107 0.707107
    outer loop
      vertex -4.9 25.1184 8.625
      vertex -9.5 26.125 7.61843
      vertex -9.5 25.1184 8.625
    endloop
  endfacet
  facet normal 9.99467e-17 0.965926 -0.258819
    outer loop
      vertex -4.9 150.118 11.375
      vertex -4.9 149.75 10
      vertex -9.5 150.118 11.375
    endloop
  endfacet
  facet normal 1.00902e-16 0.965926 -0.258819
    outer loop
      vertex -9.5 150.118 11.375
      vertex -4.9 149.75 10
      vertex -9.5 149.75 10
    endloop
  endfacet
  facet normal -9.99467e-17 0.965926 0.258819
    outer loop
      vertex -4.9 150.118 8.625
      vertex -9.5 150.118 8.625
      vertex -4.9 149.75 10
    endloop
  endfacet
  facet normal -9.99467e-17 0.965926 0.258819
    outer loop
      vertex -4.9 149.75 10
      vertex -9.5 150.118 8.625
      vertex -9.5 149.75 10
    endloop
  endfacet
  facet normal 2.7306e-16 0.707107 -0.707107
    outer loop
      vertex -4.9 151.125 12.3816
      vertex -4.9 150.118 11.375
      vertex -9.5 151.125 12.3816
    endloop
  endfacet
  facet normal 2.91496e-16 0.707107 -0.707107
    outer loop
      vertex -9.5 151.125 12.3816
      vertex -4.9 150.118 11.375
      vertex -9.5 150.118 11.375
    endloop
  endfacet
  facet normal 3.73006e-16 0.258819 -0.965926
    outer loop
      vertex -4.9 152.5 12.75
      vertex -4.9 151.125 12.3816
      vertex -9.5 152.5 12.75
    endloop
  endfacet
  facet normal 3.81187e-16 0.258819 -0.965926
    outer loop
      vertex -9.5 152.5 12.75
      vertex -4.9 151.125 12.3816
      vertex -9.5 151.125 12.3816
    endloop
  endfacet
  facet normal 3.73006e-16 -0.258819 -0.965926
    outer loop
      vertex -4.9 153.875 12.3816
      vertex -4.9 152.5 12.75
      vertex -9.5 153.875 12.3816
    endloop
  endfacet
  facet normal 3.69976e-16 -0.258819 -0.965926
    outer loop
      vertex -9.5 153.875 12.3816
      vertex -4.9 152.5 12.75
      vertex -9.5 152.5 12.75
    endloop
  endfacet
  facet normal 2.7306e-16 -0.707107 -0.707107
    outer loop
      vertex -9.5 154.882 11.375
      vertex -4.9 154.882 11.375
      vertex -4.9 153.875 12.3816
    endloop
  endfacet
  facet normal 2.7306e-16 -0.707107 -0.707107
    outer loop
      vertex -9.5 153.875 12.3816
      vertex -9.5 154.882 11.375
      vertex -4.9 153.875 12.3816
    endloop
  endfacet
  facet normal 9.99467e-17 -0.965926 -0.258819
    outer loop
      vertex -9.5 155.25 10
      vertex -4.9 155.25 10
      vertex -4.9 154.882 11.375
    endloop
  endfacet
  facet normal 9.99467e-17 -0.965926 -0.258819
    outer loop
      vertex -9.5 154.882 11.375
      vertex -9.5 155.25 10
      vertex -4.9 154.882 11.375
    endloop
  endfacet
  facet normal -1.00902e-16 -0.965926 0.258819
    outer loop
      vertex -4.9 154.882 8.625
      vertex -4.9 155.25 10
      vertex -9.5 155.25 10
    endloop
  endfacet
  facet normal -9.99467e-17 -0.965926 0.258819
    outer loop
      vertex -9.5 154.882 8.625
      vertex -4.9 154.882 8.625
      vertex -9.5 155.25 10
    endloop
  endfacet
  facet normal -2.69073e-16 -0.707107 0.707107
    outer loop
      vertex -4.9 153.875 7.61843
      vertex -4.9 154.882 8.625
      vertex -9.5 154.882 8.625
    endloop
  endfacet
  facet normal -1.3653e-16 -0.707107 0.707107
    outer loop
      vertex -9.5 153.875 7.61843
      vertex -4.9 153.875 7.61843
      vertex -9.5 154.882 8.625
    endloop
  endfacet
  facet normal -1.90594e-16 -0.258819 0.965926
    outer loop
      vertex -4.9 152.5 7.25
      vertex -4.9 153.875 7.61843
      vertex -9.5 153.875 7.61843
    endloop
  endfacet
  facet normal -1.86503e-16 -0.258819 0.965926
    outer loop
      vertex -9.5 152.5 7.25
      vertex -4.9 152.5 7.25
      vertex -9.5 153.875 7.61843
    endloop
  endfacet
  facet normal -1.90594e-16 0.258819 0.965926
    outer loop
      vertex -4.9 151.125 7.61843
      vertex -4.9 152.5 7.25
      vertex -9.5 152.5 7.25
    endloop
  endfacet
  facet normal -1.86503e-16 0.258819 0.965926
    outer loop
      vertex -9.5 151.125 7.61843
      vertex -4.9 151.125 7.61843
      vertex -9.5 152.5 7.25
    endloop
  endfacet
  facet normal -1.3653e-16 0.707107 0.707107
    outer loop
      vertex -4.9 151.125 7.61843
      vertex -9.5 151.125 7.61843
      vertex -4.9 150.118 8.625
    endloop
  endfacet
  facet normal -2.7306e-16 0.707107 0.707107
    outer loop
      vertex -4.9 150.118 8.625
      vertex -9.5 151.125 7.61843
      vertex -9.5 150.118 8.625
    endloop
  endfacet
  facet normal -0.258819 -0.965926 0
    outer loop
      vertex -1.25 -2.16506 30.01
      vertex -1.25 -2.16506 30
      vertex 0 -2.5 30
    endloop
  endfacet
  facet normal -0.258819 -0.965926 0
    outer loop
      vertex 0 -2.5 30.01
      vertex -1.25 -2.16506 30.01
      vertex 0 -2.5 30
    endloop
  endfacet
  facet normal 0 -0 1
    outer loop
      vertex -2.5 180 30.01
      vertex -2.5 0 30.01
      vertex -2.16506 -1.25 30.01
    endloop
  endfacet
  facet normal 0 0 1
    outer loop
      vertex 0 -2.5 30.01
      vertex -2.5 180 30.01
      vertex -1.25 -2.16506 30.01
    endloop
  endfacet
  facet normal 0 0 1
    outer loop
      vertex -1.25 -2.16506 30.01
      vertex -2.5 180 30.01
      vertex -2.16506 -1.25 30.01
    endloop
  endfacet
  facet normal -0 0 1
    outer loop
      vertex 0 2.5 30.01
      vertex -2.5 180 30.01
      vertex 0 -2.5 30.01
    endloop
  endfacet
  facet normal 0 0 1
    outer loop
      vertex 0 2.5 30.01
      vertex 0 177.7 30.01
      vertex -2.5 180 30.01
    endloop
  endfacet
  facet normal -0 0 1
    outer loop
      vertex 10 -2.5 30.01
      vertex 0 2.5 30.01
      vertex 0 -2.5 30.01
    endloop
  endfacet
  facet normal -0 0 1
    outer loop
      vertex 12.5 177.7 30.01
      vertex -2.5 180 30.01
      vertex 0 177.7 30.01
    endloop
  endfacet
  facet normal 0 0 1
    outer loop
      vertex 12.5 180 30.01
      vertex -2.5 180 30.01
      vertex 12.5 177.7 30.01
    endloop
  endfacet
  facet normal 0 -0 1
    outer loop
      vertex 12.1651 181.25 30.01
      vertex -2.5 180 30.01
      vertex 12.5 180 30.01
    endloop
  endfacet
  facet normal 0 -0 1
    outer loop
      vertex 11.25 182.165 30.01
      vertex -2.5 180 30.01
      vertex 12.1651 181.25 30.01
    endloop
  endfacet
  facet normal 0 -0 1
    outer loop
      vertex 10 182.5 30.01
      vertex -2.5 180 30.01
      vertex 11.25 182.165 30.01
    endloop
  endfacet
  facet normal 0 -0 1
    outer loop
      vertex 0 182.5 30.01
      vertex -2.5 180 30.01
      vertex 10 182.5 30.01
    endloop
  endfacet
  facet normal 0 -0 1
    outer loop
      vertex -1.25 182.165 30.01
      vertex -2.5 180 30.01
      vertex 0 182.5 30.01
    endloop
  endfacet
  facet normal 0 -0 1
    outer loop
      vertex -2.16506 181.25 30.01
      vertex -2.5 180 30.01
      vertex -1.25 182.165 30.01
    endloop
  endfacet
  facet normal 0 0 1
    outer loop
      vertex 12.5 2.5 30.01
      vertex 12.1651 -1.25 30.01
      vertex 12.5 0 30.01
    endloop
  endfacet
  facet normal 0 0 1
    outer loop
      vertex 12.5 2.5 30.01
      vertex 11.25 -2.16506 30.01
      vertex 12.1651 -1.25 30.01
    endloop
  endfacet
  facet normal 0 0 1
    outer loop
      vertex 12.5 2.5 30.01
      vertex 10 -2.5 30.01
      vertex 11.25 -2.16506 30.01
    endloop
  endfacet
  facet normal 0 0 1
    outer loop
      vertex 12.5 2.5 30.01
      vertex 0 2.5 30.01
      vertex 10 -2.5 30.01
    endloop
  endfacet
  facet normal 0.258819 -0.965926 0
    outer loop
      vertex 10 -2.5 30.01
      vertex 10 -2.5 15.01
      vertex 11.25 -2.16506 15.01
    endloop
  endfacet
  facet normal 0.258819 -0.965926 0
    outer loop
      vertex 11.25 -2.16506 30.01
      vertex 10 -2.5 30.01
      vertex 11.25 -2.16506 15.01
    endloop
  endfacet
  facet normal 0 -0 1
    outer loop
      vertex 11.25 -2.16506 15.01
      vertex 10 -2.5 15.01
      vertex 75 -2.5 15.01
    endloop
  endfacet
  facet normal 0 -0 1
    outer loop
      vertex 72.8349 -1.25 15.01
      vertex 11.25 -2.16506 15.01
      vertex 73.75 -2.16506 15.01
    endloop
  endfacet
  facet normal 0 -0 1
    outer loop
      vertex 73.75 -2.16506 15.01
      vertex 11.25 -2.16506 15.01
      vertex 75 -2.5 15.01
    endloop
  endfacet
  facet normal 0 -0 1
    outer loop
      vertex 72.5 0 15.01
      vertex 11.25 -2.16506 15.01
      vertex 72.8349 -1.25 15.01
    endloop
  endfacet
  facet normal 0 0 1
    outer loop
      vertex 72.5 2.5 15.01
      vertex 11.25 -2.16506 15.01
      vertex 72.5 0 15.01
    endloop
  endfacet
  facet normal 0 -0 1
    outer loop
      vertex 12.1651 -1.25 15.01
      vertex 11.25 -2.16506 15.01
      vertex 72.5 2.5 15.01
    endloop
  endfacet
  facet normal 0 -0 1
    outer loop
      vertex 12.5 2.5 15.01
      vertex 12.5 0 15.01
      vertex 72.5 2.5 15.01
    endloop
  endfacet
  facet normal 0 -0 1
    outer loop
      vertex 12.5 0 15.01
      vertex 12.1651 -1.25 15.01
      vertex 72.5 2.5 15.01
    endloop
  endfacet
  facet normal -0.258819 -0.965926 0
    outer loop
      vertex 73.75 -2.16506 30.01
      vertex 73.75 -2.16506 15.01
      vertex 75 -2.5 15.01
    endloop
  endfacet
  facet normal -0.258819 -0.965926 0
    outer loop
      vertex 75 -2.5 30.01
      vertex 73.75 -2.16506 30.01
      vertex 75 -2.5 15.01
    endloop
  endfacet
  facet normal 0 -0 1
    outer loop
      vertex 72.5 2.5 30.01
      vertex 72.5 0 30.01
      vertex 72.8349 -1.25 30.01
    endloop
  endfacet
  facet normal 0 0 1
    outer loop
      vertex 75 -2.5 30.01
      vertex 72.5 2.5 30.01
      vertex 73.75 -2.16506 30.01
    endloop
  endfacet
  facet normal 0 0 1
    outer loop
      vertex 73.75 -2.16506 30.01
      vertex 72.5 2.5 30.01
      vertex 72.8349 -1.25 30.01
    endloop
  endfacet
  facet normal -0 0 1
    outer loop
      vertex 85 -2.5 30.01
      vertex 72.5 2.5 30.01
      vertex 75 -2.5 30.01
    endloop
  endfacet
  facet normal -0 0 1
    outer loop
      vertex 86.25 -2.16506 30.01
      vertex 72.5 2.5 30.01
      vertex 85 -2.5 30.01
    endloop
  endfacet
  facet normal -0 0 1
    outer loop
      vertex 87.1651 -1.25 30.01
      vertex 72.5 2.5 30.01
      vertex 86.25 -2.16506 30.01
    endloop
  endfacet
  facet normal -0 0 1
    outer loop
      vertex 87.5 0 30.01
      vertex 72.5 2.5 30.01
      vertex 87.1651 -1.25 30.01
    endloop
  endfacet
  facet normal 0 -0 1
    outer loop
      vertex 85.2 2.5 30.01
      vertex 72.5 2.5 30.01
      vertex 87.5 0 30.01
    endloop
  endfacet
  facet normal 0 0 1
    outer loop
      vertex 85.2 177.7 30.01
      vertex 87.1651 181.25 30.01
      vertex 86.25 182.165 30.01
    endloop
  endfacet
  facet normal 0 0 1
    outer loop
      vertex 85.2 177.7 30.01
      vertex 87.5 180 30.01
      vertex 87.1651 181.25 30.01
    endloop
  endfacet
  facet normal 0 -0 1
    outer loop
      vertex 85.2 177.7 30.01
      vertex 85.2 2.5 30.01
      vertex 87.5 180 30.01
    endloop
  endfacet
  facet normal 0 -0 1
    outer loop
      vertex 72.5 180 30.01
      vertex 72.5 177.7 30.01
      vertex 72.8349 181.25 30.01
    endloop
  endfacet
  facet normal 0 0 1
    outer loop
      vertex 85 182.5 30.01
      vertex 85.2 177.7 30.01
      vertex 86.25 182.165 30.01
    endloop
  endfacet
  facet normal 0 0 1
    outer loop
      vertex 87.5 180 30.01
      vertex 85.2 2.5 30.01
      vertex 87.5 0 30.01
    endloop
  endfacet
  facet normal 0 0 1
    outer loop
      vertex 72.5 177.7 30.01
      vertex 73.75 182.165 30.01
      vertex 72.8349 181.25 30.01
    endloop
  endfacet
  facet normal 0 0 1
    outer loop
      vertex 72.5 177.7 30.01
      vertex 75 182.5 30.01
      vertex 73.75 182.165 30.01
    endloop
  endfacet
  facet normal 0 0 1
    outer loop
      vertex 72.5 177.7 30.01
      vertex 85 182.5 30.01
      vertex 75 182.5 30.01
    endloop
  endfacet
  facet normal 0 0 1
    outer loop
      vertex 72.5 177.7 30.01
      vertex 85.2 177.7 30.01
      vertex 85 182.5 30.01
    endloop
  endfacet
  facet normal 0.258819 -0.965926 0
    outer loop
      vertex 85 -2.5 30.01
      vertex 85 -2.5 5
      vertex 86.25 -2.16506 5
    endloop
  endfacet
  facet normal 0.258819 -0.965926 0
    outer loop
      vertex 86.25 -2.16506 30.01
      vertex 85 -2.5 30.01
      vertex 86.25 -2.16506 5
    endloop
  endfacet
  facet normal 0.707107 -0.707107 0
    outer loop
      vertex 86.25 -2.16506 30.01
      vertex 86.25 -2.16506 5
      vertex 87.1651 -1.25 5
    endloop
  endfacet
  facet normal 0.707107 -0.707107 0
    outer loop
      vertex 87.1651 -1.25 30.01
      vertex 86.25 -2.16506 30.01
      vertex 87.1651 -1.25 5
    endloop
  endfacet
  facet normal 0.965926 -0.258819 0
    outer loop
      vertex 87.1651 -1.25 30.01
      vertex 87.1651 -1.25 5
      vertex 87.5 0 5
    endloop
  endfacet
  facet normal 0.965926 -0.258819 0
    outer loop
      vertex 87.5 0 30.01
      vertex 87.1651 -1.25 30.01
      vertex 87.5 0 5
    endloop
  endfacet
  facet normal 1 0 -0
    outer loop
      vertex 87.5 27.5 7.25
      vertex 87.5 0 5
      vertex 87.5 180 5
    endloop
  endfacet
  facet normal 1 0 0
    outer loop
      vertex 87.5 151.125 12.3816
      vertex 87.5 152.5 12.75
      vertex 87.5 180 30.01
    endloop
  endfacet
  facet normal 1 -0 0
    outer loop
      vertex 87.5 27.5 7.25
      vertex 87.5 26.125 7.61843
      vertex 87.5 0 5
    endloop
  endfacet
  facet normal 1 0 -0
    outer loop
      vertex 87.5 0 30.01
      vertex 87.5 0 5
      vertex 87.5 25.1184 8.625
    endloop
  endfacet
  facet normal 1 0 -0
    outer loop
      vertex 87.5 29.8816 8.625
      vertex 87.5 28.875 7.61843
      vertex 87.5 180 5
    endloop
  endfacet
  facet normal 1 0 0
    outer loop
      vertex 87.5 0 30.01
      vertex 87.5 25.1184 8.625
      vertex 87.5 24.75 10
    endloop
  endfacet
  facet normal 1 0 -0
    outer loop
      vertex 87.5 30.25 10
      vertex 87.5 29.8816 8.625
      vertex 87.5 180 5
    endloop
  endfacet
  facet normal 1 0 0
    outer loop
      vertex 87.5 0 30.01
      vertex 87.5 24.75 10
      vertex 87.5 25.1184 11.375
    endloop
  endfacet
  facet normal 1 0 0
    outer loop
      vertex 87.5 29.8816 11.375
      vertex 87.5 30.25 10
      vertex 87.5 180 5
    endloop
  endfacet
  facet normal 1 0 0
    outer loop
      vertex 87.5 0 30.01
      vertex 87.5 25.1184 11.375
      vertex 87.5 26.125 12.3816
    endloop
  endfacet
  facet normal 1 -0 -0
    outer loop
      vertex 87.5 152.5 7.25
      vertex 87.5 27.5 12.75
      vertex 87.5 180 5
    endloop
  endfacet
  facet normal 1 0 0
    outer loop
      vertex 87.5 0 30.01
      vertex 87.5 26.125 12.3816
      vertex 87.5 27.5 12.75
    endloop
  endfacet
  facet normal 1 0 0
    outer loop
      vertex 87.5 27.5 12.75
      vertex 87.5 28.875 12.3816
      vertex 87.5 180 5
    endloop
  endfacet
  facet normal 1 0 -0
    outer loop
      vertex 87.5 28.875 7.61843
      vertex 87.5 27.5 7.25
      vertex 87.5 180 5
    endloop
  endfacet
  facet normal 1 0 0
    outer loop
      vertex 87.5 151.125 7.61843
      vertex 87.5 150.118 8.625
      vertex 87.5 27.5 12.75
    endloop
  endfacet
  facet normal 1 0 -0
    outer loop
      vertex 87.5 25.1184 8.625
      vertex 87.5 0 5
      vertex 87.5 26.125 7.61843
    endloop
  endfacet
  facet normal 1 0 0
    outer loop
      vertex 87.5 0 30.01
      vertex 87.5 27.5 12.75
      vertex 87.5 150.118 8.625
    endloop
  endfacet
  facet normal 1 0 -0
    outer loop
      vertex 87.5 154.882 8.625
      vertex 87.5 153.875 7.61843
      vertex 87.5 180 5
    endloop
  endfacet
  facet normal 1 -0 0
    outer loop
      vertex 87.5 150.118 11.375
      vertex 87.5 0 30.01
      vertex 87.5 149.75 10
    endloop
  endfacet
  facet normal 1 -0 0
    outer loop
      vertex 87.5 151.125 12.3816
      vertex 87.5 0 30.01
      vertex 87.5 150.118 11.375
    endloop
  endfacet
  facet normal 1 0 0
    outer loop
      vertex 87.5 152.5 12.75
      vertex 87.5 153.875 12.3816
      vertex 87.5 180 30.01
    endloop
  endfacet
  facet normal 1 0 0
    outer loop
      vertex 87.5 180 30.01
      vertex 87.5 0 30.01
      vertex 87.5 151.125 12.3816
    endloop
  endfacet
  facet normal 1 0 -0
    outer loop
      vertex 87.5 155.25 10
      vertex 87.5 154.882 8.625
      vertex 87.5 180 5
    endloop
  endfacet
  facet normal 1 0 0
    outer loop
      vertex 87.5 180 30.01
      vertex 87.5 153.875 12.3816
      vertex 87.5 180 5
    endloop
  endfacet
  facet normal 1 0 0
    outer loop
      vertex 87.5 153.875 12.3816
      vertex 87.5 154.882 11.375
      vertex 87.5 180 5
    endloop
  endfacet
  facet normal 1 0 0
    outer loop
      vertex 87.5 154.882 11.375
      vertex 87.5 155.25 10
      vertex 87.5 180 5
    endloop
  endfacet
  facet normal 1 0 -0
    outer loop
      vertex 87.5 153.875 7.61843
      vertex 87.5 152.5 7.25
      vertex 87.5 180 5
    endloop
  endfacet
  facet normal 1 -0 -0
    outer loop
      vertex 87.5 151.125 7.61843
      vertex 87.5 27.5 12.75
      vertex 87.5 152.5 7.25
    endloop
  endfacet
  facet normal 1 0 0
    outer loop
      vertex 87.5 28.875 12.3816
      vertex 87.5 29.8816 11.375
      vertex 87.5 180 5
    endloop
  endfacet
  facet normal 1 0 0
    outer loop
      vertex 87.5 150.118 8.625
      vertex 87.5 149.75 10
      vertex 87.5 0 30.01
    endloop
  endfacet
  facet normal 0.965926 0.258819 0
    outer loop
      vertex 87.5 180 5
      vertex 87.1651 181.25 5
      vertex 87.1651 181.25 30.01
    endloop
  endfacet
  facet normal 0.965926 0.258819 -0
    outer loop
      vertex 87.5 180 30.01
      vertex 87.5 180 5
      vertex 87.1651 181.25 30.01
    endloop
  endfacet
  facet normal 0.707107 0.707107 0
    outer loop
      vertex 86.25 182.165 5
      vertex 86.25 182.165 30.01
      vertex 87.1651 181.25 5
    endloop
  endfacet
  facet normal 0.707107 0.707107 0
    outer loop
      vertex 87.1651 181.25 5
      vertex 86.25 182.165 30.01
      vertex 87.1651 181.25 30.01
    endloop
  endfacet
  facet normal 0.258819 0.965926 0
    outer loop
      vertex 85 182.5 5
      vertex 85 182.5 30.01
      vertex 86.25 182.165 5
    endloop
  endfacet
  facet normal 0.258819 0.965926 0
    outer loop
      vertex 86.25 182.165 5
      vertex 85 182.5 30.01
      vertex 86.25 182.165 30.01
    endloop
  endfacet
  facet normal -0.258819 0.965926 0
    outer loop
      vertex 73.75 182.165 15.01
      vertex 73.75 182.165 30.01
      vertex 75 182.5 15.01
    endloop
  endfacet
  facet normal -0.258819 0.965926 0
    outer loop
      vertex 75 182.5 15.01
      vertex 73.75 182.165 30.01
      vertex 75 182.5 30.01
    endloop
  endfacet
  facet normal 0 -0 1
    outer loop
      vertex 12.5 180 15.01
      vertex 12.5 177.7 15.01
      vertex 75 182.5 15.01
    endloop
  endfacet
  facet normal 0 0 1
    outer loop
      vertex 75 182.5 15.01
      vertex 10 182.5 15.01
      vertex 11.25 182.165 15.01
    endloop
  endfacet
  facet normal 0 0 1
    outer loop
      vertex 12.1651 181.25 15.01
      vertex 75 182.5 15.01
      vertex 11.25 182.165 15.01
    endloop
  endfacet
  facet normal 0 0 1
    outer loop
      vertex 12.1651 181.25 15.01
      vertex 12.5 180 15.01
      vertex 75 182.5 15.01
    endloop
  endfacet
  facet normal 0 0 1
    outer loop
      vertex 12.5 177.7 15.01
      vertex 72.5 177.7 15.01
      vertex 72.5 180 15.01
    endloop
  endfacet
  facet normal 0 0 1
    outer loop
      vertex 12.5 177.7 15.01
      vertex 72.5 180 15.01
      vertex 72.8349 181.25 15.01
    endloop
  endfacet
  facet normal 0 0 1
    outer loop
      vertex 12.5 177.7 15.01
      vertex 73.75 182.165 15.01
      vertex 75 182.5 15.01
    endloop
  endfacet
  facet normal 0 0 1
    outer loop
      vertex 12.5 177.7 15.01
      vertex 72.8349 181.25 15.01
      vertex 73.75 182.165 15.01
    endloop
  endfacet
  facet normal 0.258819 0.965926 0
    outer loop
      vertex 10 182.5 15.01
      vertex 10 182.5 30.01
      vertex 11.25 182.165 15.01
    endloop
  endfacet
  facet normal 0.258819 0.965926 0
    outer loop
      vertex 11.25 182.165 15.01
      vertex 10 182.5 30.01
      vertex 11.25 182.165 30.01
    endloop
  endfacet
  facet normal -0.258819 0.965926 0
    outer loop
      vertex -1.25 182.165 30
      vertex -1.25 182.165 30.01
      vertex 0 182.5 30
    endloop
  endfacet
  facet normal -0.258819 0.965926 0
    outer loop
      vertex 0 182.5 30
      vertex -1.25 182.165 30.01
      vertex 0 182.5 30.01
    endloop
  endfacet
  facet normal -0.707107 0.707107 0
    outer loop
      vertex -2.16506 181.25 30
      vertex -2.16506 181.25 30.01
      vertex -1.25 182.165 30
    endloop
  endfacet
  facet normal -0.707107 0.707107 0
    outer loop
      vertex -1.25 182.165 30
      vertex -2.16506 181.25 30.01
      vertex -1.25 182.165 30.01
    endloop
  endfacet
  facet normal -0.965926 0.258819 0
    outer loop
      vertex -2.5 180 30
      vertex -2.5 180 30.01
      vertex -2.16506 181.25 30
    endloop
  endfacet
  facet normal -0.965926 0.258819 0
    outer loop
      vertex -2.16506 181.25 30
      vertex -2.5 180 30.01
      vertex -2.16506 181.25 30.01
    endloop
  endfacet
  facet normal -1 -0 -0
    outer loop
      vertex -2.5 0 30
      vertex -2.5 0 30.01
      vertex -2.5 180 30
    endloop
  endfacet
  facet normal -1 0 0
    outer loop
      vertex -2.5 180 30
      vertex -2.5 0 30.01
      vertex -2.5 180 30.01
    endloop
  endfacet
  facet normal -0.965926 -0.258819 -0
    outer loop
      vertex -2.5 0 30
      vertex -2.16506 -1.25 30
      vertex -2.5 0 30.01
    endloop
  endfacet
  facet normal -0.965926 -0.258819 0
    outer loop
      vertex -2.5 0 30.01
      vertex -2.16506 -1.25 30
      vertex -2.16506 -1.25 30.01
    endloop
  endfacet
  facet normal -0.707107 -0.707107 0
    outer loop
      vertex -2.16506 -1.25 30.01
      vertex -2.16506 -1.25 30
      vertex -1.25 -2.16506 30
    endloop
  endfacet
  facet normal -0.707107 -0.707107 0
    outer loop
      vertex -1.25 -2.16506 30.01
      vertex -2.16506 -1.25 30.01
      vertex -1.25 -2.16506 30
    endloop
  endfacet
  facet normal 1 -5.70953e-16 5.70953e-16
    outer loop
      vertex -4.9 25.375 13.6806
      vertex -4.9 23.8194 12.125
      vertex -4.9 23.25 10
    endloop
  endfacet
  facet normal 1 6.58849e-16 1.29435e-16
    outer loop
      vertex -4.9 24.75 10
      vertex -4.9 25.375 13.6806
      vertex -4.9 23.8194 7.875
    endloop
  endfacet
  facet normal 1 -2.08983e-16 3.61969e-16
    outer loop
      vertex -4.9 23.8194 7.875
      vertex -4.9 25.375 13.6806
      vertex -4.9 23.25 10
    endloop
  endfacet
  facet normal 1 -5.59407e-16 3.22974e-16
    outer loop
      vertex -4.9 26.125 7.61843
      vertex -4.9 25.1184 8.625
      vertex -4.9 25.375 6.31939
    endloop
  endfacet
  facet normal 1 -0 0
    outer loop
      vertex -4.9 27.5 7.25
      vertex -4.9 26.125 7.61843
      vertex -4.9 27.5 5.75
    endloop
  endfacet
  facet normal 1 5.59407e-16 3.22974e-16
    outer loop
      vertex -4.9 29.8816 8.625
      vertex -4.9 28.875 7.61843
      vertex -4.9 29.625 6.31939
    endloop
  endfacet
  facet normal 1 0 -0
    outer loop
      vertex -4.9 29.625 13.6806
      vertex -4.9 25.375 13.6806
      vertex -4.9 31.1806 12.125
    endloop
  endfacet
  facet normal 1 0 -0
    outer loop
      vertex -4.9 27.5 14.25
      vertex -4.9 25.375 13.6806
      vertex -4.9 29.625 13.6806
    endloop
  endfacet
  facet normal 1 -5.92119e-16 1.58658e-16
    outer loop
      vertex -4.9 30.25 10
      vertex -4.9 29.8816 8.625
      vertex -4.9 31.1806 7.875
    endloop
  endfacet
  facet normal 1 0 0
    outer loop
      vertex -4.9 31.1806 12.125
      vertex -4.9 25.375 13.6806
      vertex -4.9 27.5 12.75
    endloop
  endfacet
  facet normal 1 4.79411e-17 4.30812e-16
    outer loop
      vertex -4.9 31.1806 12.125
      vertex -4.9 28.875 12.3816
      vertex -4.9 31.75 10
    endloop
  endfacet
  facet normal 1 0 0
    outer loop
      vertex -4.9 31.1806 12.125
      vertex -4.9 27.5 12.75
      vertex -4.9 28.875 12.3816
    endloop
  endfacet
  facet normal 1 2.45886e-15 3.34124e-15
    outer loop
      vertex -4.9 28.875 12.3816
      vertex -4.9 29.8816 11.375
      vertex -4.9 31.75 10
    endloop
  endfacet
  facet normal 1 -0 4.17966e-16
    outer loop
      vertex -4.9 31.75 10
      vertex -4.9 30.25 10
      vertex -4.9 31.1806 7.875
    endloop
  endfacet
  facet normal 1 0 0
    outer loop
      vertex -4.9 29.8816 11.375
      vertex -4.9 30.25 10
      vertex -4.9 31.75 10
    endloop
  endfacet
  facet normal 1 -4.33461e-16 4.33461e-16
    outer loop
      vertex -4.9 31.1806 7.875
      vertex -4.9 29.8816 8.625
      vertex -4.9 29.625 6.31939
    endloop
  endfacet
  facet normal 1 -0 0
    outer loop
      vertex -4.9 29.625 6.31939
      vertex -4.9 28.875 7.61843
      vertex -4.9 27.5 5.75
    endloop
  endfacet
  facet normal 1 0 0
    outer loop
      vertex -4.9 28.875 7.61843
      vertex -4.9 27.5 7.25
      vertex -4.9 27.5 5.75
    endloop
  endfacet
  facet normal 1 0 0
    outer loop
      vertex -4.9 27.5 5.75
      vertex -4.9 26.125 7.61843
      vertex -4.9 25.375 6.31939
    endloop
  endfacet
  facet normal 1 4.33461e-16 4.33461e-16
    outer loop
      vertex -4.9 25.375 6.31939
      vertex -4.9 25.1184 8.625
      vertex -4.9 23.8194 7.875
    endloop
  endfacet
  facet normal 1 5.92119e-16 1.58658e-16
    outer loop
      vertex -4.9 25.1184 8.625
      vertex -4.9 24.75 10
      vertex -4.9 23.8194 7.875
    endloop
  endfacet
  facet normal 1 -2.45886e-15 6.58849e-16
    outer loop
      vertex -4.9 25.1184 11.375
      vertex -4.9 25.375 13.6806
      vertex -4.9 24.75 10
    endloop
  endfacet
  facet normal 1 5.59407e-16 3.22974e-16
    outer loop
      vertex -4.9 25.1184 11.375
      vertex -4.9 26.125 12.3816
      vertex -4.9 25.375 13.6806
    endloop
  endfacet
  facet normal 1 0 0
    outer loop
      vertex -4.9 26.125 12.3816
      vertex -4.9 27.5 12.75
      vertex -4.9 25.375 13.6806
    endloop
  endfacet
  facet normal 1 -5.70953e-16 5.70953e-16
    outer loop
      vertex -4.9 150.375 13.6806
      vertex -4.9 148.819 12.125
      vertex -4.9 148.25 10
    endloop
  endfacet
  facet normal 1 6.58849e-16 1.29435e-16
    outer loop
      vertex -4.9 149.75 10
      vertex -4.9 150.375 13.6806
      vertex -4.9 148.819 7.875
    endloop
  endfacet
  facet normal 1 -2.08983e-16 3.61969e-16
    outer loop
      vertex -4.9 148.819 7.875
      vertex -4.9 150.375 13.6806
      vertex -4.9 148.25 10
    endloop
  endfacet
  facet normal 1 -5.59407e-16 3.22974e-16
    outer loop
      vertex -4.9 151.125 7.61843
      vertex -4.9 150.118 8.625
      vertex -4.9 150.375 6.31939
    endloop
  endfacet
  facet normal 1 -0 0
    outer loop
      vertex -4.9 152.5 7.25
      vertex -4.9 151.125 7.61843
      vertex -4.9 152.5 5.75
    endloop
  endfacet
  facet normal 1 5.59407e-16 3.22974e-16
    outer loop
      vertex -4.9 154.882 8.625
      vertex -4.9 153.875 7.61843
      vertex -4.9 154.625 6.31939
    endloop
  endfacet
  facet normal 1 0 -0
    outer loop
      vertex -4.9 154.625 13.6806
      vertex -4.9 150.375 13.6806
      vertex -4.9 156.181 12.125
    endloop
  endfacet
  facet normal 1 0 -0
    outer loop
      vertex -4.9 152.5 14.25
      vertex -4.9 150.375 13.6806
      vertex -4.9 154.625 13.6806
    endloop
  endfacet
  facet normal 1 -5.92119e-16 1.58658e-16
    outer loop
      vertex -4.9 155.25 10
      vertex -4.9 154.882 8.625
      vertex -4.9 156.181 7.875
    endloop
  endfacet
  facet normal 1 0 0
    outer loop
      vertex -4.9 156.181 12.125
      vertex -4.9 150.375 13.6806
      vertex -4.9 152.5 12.75
    endloop
  endfacet
  facet normal 1 4.79411e-17 4.30812e-16
    outer loop
      vertex -4.9 156.181 12.125
      vertex -4.9 153.875 12.3816
      vertex -4.9 156.75 10
    endloop
  endfacet
  facet normal 1 0 0
    outer loop
      vertex -4.9 156.181 12.125
      vertex -4.9 152.5 12.75
      vertex -4.9 153.875 12.3816
    endloop
  endfacet
  facet normal 1 2.45886e-15 3.34124e-15
    outer loop
      vertex -4.9 153.875 12.3816
      vertex -4.9 154.882 11.375
      vertex -4.9 156.75 10
    endloop
  endfacet
  facet normal 1 -0 4.17966e-16
    outer loop
      vertex -4.9 156.75 10
      vertex -4.9 155.25 10
      vertex -4.9 156.181 7.875
    endloop
  endfacet
  facet normal 1 0 0
    outer loop
      vertex -4.9 154.882 11.375
      vertex -4.9 155.25 10
      vertex -4.9 156.75 10
    endloop
  endfacet
  facet normal 1 -4.33461e-16 4.33461e-16
    outer loop
      vertex -4.9 156.181 7.875
      vertex -4.9 154.882 8.625
      vertex -4.9 154.625 6.31939
    endloop
  endfacet
  facet normal 1 -0 0
    outer loop
      vertex -4.9 154.625 6.31939
      vertex -4.9 153.875 7.61843
      vertex -4.9 152.5 5.75
    endloop
  endfacet
  facet normal 1 0 0
    outer loop
      vertex -4.9 153.875 7.61843
      vertex -4.9 152.5 7.25
      vertex -4.9 152.5 5.75
    endloop
  endfacet
  facet normal 1 0 0
    outer loop
      vertex -4.9 152.5 5.75
      vertex -4.9 151.125 7.61843
      vertex -4.9 150.375 6.31939
    endloop
  endfacet
  facet normal 1 4.33461e-16 4.33461e-16
    outer loop
      vertex -4.9 150.375 6.31939
      vertex -4.9 150.118 8.625
      vertex -4.9 148.819 7.875
    endloop
  endfacet
  facet normal 1 5.92119e-16 1.58658e-16
    outer loop
      vertex -4.9 150.118 8.625
      vertex -4.9 149.75 10
      vertex -4.9 148.819 7.875
    endloop
  endfacet
  facet normal 1 -2.45886e-15 6.58849e-16
    outer loop
      vertex -4.9 150.118 11.375
      vertex -4.9 150.375 13.6806
      vertex -4.9 149.75 10
    endloop
  endfacet
  facet normal 1 5.59407e-16 3.22974e-16
    outer loop
      vertex -4.9 150.118 11.375
      vertex -4.9 151.125 12.3816
      vertex -4.9 150.375 13.6806
    endloop
  endfacet
  facet normal 1 0 0
    outer loop
      vertex -4.9 151.125 12.3816
      vertex -4.9 152.5 12.75
      vertex -4.9 150.375 13.6806
    endloop
  endfacet
  facet normal 0.707107 0.707107 0
    outer loop
      vertex 11.25 182.165 15.01
      vertex 11.25 182.165 30.01
      vertex 12.1651 181.25 15.01
    endloop
  endfacet
  facet normal 0.707107 0.707107 0
    outer loop
      vertex 12.1651 181.25 15.01
      vertex 11.25 182.165 30.01
      vertex 12.1651 181.25 30.01
    endloop
  endfacet
  facet normal 0.965926 0.258819 0
    outer loop
      vertex 12.5 180 15.01
      vertex 12.1651 181.25 15.01
      vertex 12.1651 181.25 30.01
    endloop
  endfacet
  facet normal 0.965926 0.258819 -0
    outer loop
      vertex 12.5 180 30.01
      vertex 12.5 180 15.01
      vertex 12.1651 181.25 30.01
    endloop
  endfacet
  facet normal 1 0 -0
    outer loop
      vertex 12.5 177.7 30.01
      vertex 12.5 177.7 15.01
      vertex 12.5 180 15.01
    endloop
  endfacet
  facet normal 1 0 0
    outer loop
      vertex 12.5 180 30.01
      vertex 12.5 177.7 30.01
      vertex 12.5 180 15.01
    endloop
  endfacet
  facet normal 0 -1 0
    outer loop
      vertex 85.2 177.7 10
      vertex 85.2 177.7 30.01
      vertex 72.5 177.7 30.01
    endloop
  endfacet
  facet normal 0 -1 0
    outer loop
      vertex 12.5 177.7 15.01
      vertex 85.2 177.7 10
      vertex 72.5 177.7 15.01
    endloop
  endfacet
  facet normal -0 -1 -0
    outer loop
      vertex 72.5 177.7 15.01
      vertex 85.2 177.7 10
      vertex 72.5 177.7 30.01
    endloop
  endfacet
  facet normal -0 -1 0
    outer loop
      vertex 0 177.7 10
      vertex 85.2 177.7 10
      vertex 12.5 177.7 15.01
    endloop
  endfacet
  facet normal 0 -1 0
    outer loop
      vertex 0 177.7 30.01
      vertex 12.5 177.7 15.01
      vertex 12.5 177.7 30.01
    endloop
  endfacet
  facet normal -0 -1 -0
    outer loop
      vertex 0 177.7 30
      vertex 12.5 177.7 15.01
      vertex 0 177.7 30.01
    endloop
  endfacet
  facet normal 0 -1 -0
    outer loop
      vertex 0 177.7 10
      vertex 12.5 177.7 15.01
      vertex 0 177.7 30
    endloop
  endfacet
  facet normal 1 0 0
    outer loop
      vertex 0 177.7 30
      vertex 0 177.7 30.01
      vertex 0 2.5 30.01
    endloop
  endfacet
  facet normal 1 0 0
    outer loop
      vertex 0 2.5 30
      vertex 0 177.7 30
      vertex 0 2.5 30.01
    endloop
  endfacet
  facet normal 0 1 -0
    outer loop
      vertex 0 2.5 30.01
      vertex 12.5 2.5 30.01
      vertex 0 2.5 30
    endloop
  endfacet
  facet normal 0 1 0
    outer loop
      vertex 0 2.5 30
      vertex 12.5 2.5 30.01
      vertex 12.5 2.5 15.01
    endloop
  endfacet
  facet normal 0 1 0
    outer loop
      vertex 72.5 2.5 15.01
      vertex 72.5 2.5 30.01
      vertex 85.2 2.5 30.01
    endloop
  endfacet
  facet normal 0 1 0
    outer loop
      vertex 72.5 2.5 15.01
      vertex 85.2 2.5 30.01
      vertex 85.2 2.5 10
    endloop
  endfacet
  facet normal 0 1 -0
    outer loop
      vertex 72.5 2.5 15.01
      vertex 85.2 2.5 10
      vertex 12.5 2.5 15.01
    endloop
  endfacet
  facet normal 0 1 -0
    outer loop
      vertex 12.5 2.5 15.01
      vertex 85.2 2.5 10
      vertex 0 2.5 10
    endloop
  endfacet
  facet normal -0 1 0
    outer loop
      vertex 12.5 2.5 15.01
      vertex 0 2.5 10
      vertex 0 2.5 30
    endloop
  endfacet
  facet normal 1 0 -0
    outer loop
      vertex 12.5 0 30.01
      vertex 12.5 0 15.01
      vertex 12.5 2.5 15.01
    endloop
  endfacet
  facet normal 1 0 0
    outer loop
      vertex 12.5 2.5 30.01
      vertex 12.5 0 30.01
      vertex 12.5 2.5 15.01
    endloop
  endfacet
  facet normal 0.965926 -0.258819 0
    outer loop
      vertex 12.1651 -1.25 30.01
      vertex 12.1651 -1.25 15.01
      vertex 12.5 0 15.01
    endloop
  endfacet
  facet normal 0.965926 -0.258819 0
    outer loop
      vertex 12.5 0 30.01
      vertex 12.1651 -1.25 30.01
      vertex 12.5 0 15.01
    endloop
  endfacet
  facet normal 0.707107 -0.707107 0
    outer loop
      vertex 11.25 -2.16506 30.01
      vertex 11.25 -2.16506 15.01
      vertex 12.1651 -1.25 15.01
    endloop
  endfacet
  facet normal 0.707107 -0.707107 0
    outer loop
      vertex 12.1651 -1.25 30.01
      vertex 11.25 -2.16506 30.01
      vertex 12.1651 -1.25 15.01
    endloop
  endfacet
  facet normal -1 -0 -0
    outer loop
      vertex 72.5 0 15.01
      vertex 72.5 0 30.01
      vertex 72.5 2.5 15.01
    endloop
  endfacet
  facet normal -1 0 0
    outer loop
      vertex 72.5 2.5 15.01
      vertex 72.5 0 30.01
      vertex 72.5 2.5 30.01
    endloop
  endfacet
  facet normal -0.965926 -0.258819 -0
    outer loop
      vertex 72.5 0 15.01
      vertex 72.8349 -1.25 15.01
      vertex 72.5 0 30.01
    endloop
  endfacet
  facet normal -0.965926 -0.258819 0
    outer loop
      vertex 72.5 0 30.01
      vertex 72.8349 -1.25 15.01
      vertex 72.8349 -1.25 30.01
    endloop
  endfacet
  facet normal -0.707107 -0.707107 0
    outer loop
      vertex 72.8349 -1.25 30.01
      vertex 72.8349 -1.25 15.01
      vertex 73.75 -2.16506 15.01
    endloop
  endfacet
  facet normal -0.707107 -0.707107 0
    outer loop
      vertex 73.75 -2.16506 30.01
      vertex 72.8349 -1.25 30.01
      vertex 73.75 -2.16506 15.01
    endloop
  endfacet
  facet normal -1 0 0
    outer loop
      vertex 85.2 177.7 30.01
      vertex 85.2 177.7 10
      vertex 85.2 2.5 30.01
    endloop
  endfacet
  facet normal -1 0 0
    outer loop
      vertex 85.2 154.882 11.375
      vertex 85.2 177.7 10
      vertex 85.2 155.25 10
    endloop
  endfacet
  facet normal -1 0 0
    outer loop
      vertex 85.2 153.875 12.3816
      vertex 85.2 177.7 10
      vertex 85.2 154.882 11.375
    endloop
  endfacet
  facet normal -1 0 0
    outer loop
      vertex 85.2 152.5 12.75
      vertex 85.2 177.7 10
      vertex 85.2 153.875 12.3816
    endloop
  endfacet
  facet normal -1 0 0
    outer loop
      vertex 85.2 2.5 30.01
      vertex 85.2 177.7 10
      vertex 85.2 152.5 12.75
    endloop
  endfacet
  facet normal -1 0 -0
    outer loop
      vertex 85.2 150.118 11.375
      vertex 85.2 2.5 30.01
      vertex 85.2 151.125 12.3816
    endloop
  endfacet
  facet normal -1 0 -0
    outer loop
      vertex 85.2 149.75 10
      vertex 85.2 2.5 30.01
      vertex 85.2 150.118 11.375
    endloop
  endfacet
  facet normal -1 -0 -0
    outer loop
      vertex 85.2 27.5 12.75
      vertex 85.2 2.5 30.01
      vertex 85.2 28.875 12.3816
    endloop
  endfacet
  facet normal -1 0 0
    outer loop
      vertex 85.2 29.8816 11.375
      vertex 85.2 149.75 10
      vertex 85.2 30.25 10
    endloop
  endfacet
  facet normal -1 0 0
    outer loop
      vertex 85.2 28.875 12.3816
      vertex 85.2 149.75 10
      vertex 85.2 29.8816 11.375
    endloop
  endfacet
  facet normal -1 0 0
    outer loop
      vertex 85.2 2.5 30.01
      vertex 85.2 149.75 10
      vertex 85.2 28.875 12.3816
    endloop
  endfacet
  facet normal -1 0 -0
    outer loop
      vertex 85.2 26.125 12.3816
      vertex 85.2 2.5 30.01
      vertex 85.2 27.5 12.75
    endloop
  endfacet
  facet normal -1 0 0
    outer loop
      vertex 85.2 2.5 30.01
      vertex 85.2 26.125 12.3816
      vertex 85.2 25.1184 11.375
    endloop
  endfacet
  facet normal -1 0 0
    outer loop
      vertex 85.2 25.1184 11.375
      vertex 85.2 24.75 10
      vertex 85.2 2.5 30.01
    endloop
  endfacet
  facet normal -1 0 0
    outer loop
      vertex 85.2 2.5 30.01
      vertex 85.2 24.75 10
      vertex 85.2 2.5 10
    endloop
  endfacet
  facet normal -1 0 -0
    outer loop
      vertex 85.2 151.125 12.3816
      vertex 85.2 2.5 30.01
      vertex 85.2 152.5 12.75
    endloop
  endfacet
  facet normal -1 -0 -0
    outer loop
      vertex 72.5 177.7 15.01
      vertex 72.5 177.7 30.01
      vertex 72.5 180 15.01
    endloop
  endfacet
  facet normal -1 0 0
    outer loop
      vertex 72.5 180 15.01
      vertex 72.5 177.7 30.01
      vertex 72.5 180 30.01
    endloop
  endfacet
  facet normal -0.965926 0.258819 0
    outer loop
      vertex 72.5 180 15.01
      vertex 72.5 180 30.01
      vertex 72.8349 181.25 15.01
    endloop
  endfacet
  facet normal -0.965926 0.258819 0
    outer loop
      vertex 72.8349 181.25 15.01
      vertex 72.5 180 30.01
      vertex 72.8349 181.25 30.01
    endloop
  endfacet
  facet normal -0.707107 0.707107 0
    outer loop
      vertex 72.8349 181.25 15.01
      vertex 72.8349 181.25 30.01
      vertex 73.75 182.165 15.01
    endloop
  endfacet
  facet normal -0.707107 0.707107 0
    outer loop
      vertex 73.75 182.165 15.01
      vertex 72.8349 181.25 30.01
      vertex 73.75 182.165 30.01
    endloop
  endfacet
  facet normal -1.52436e-16 0.707107 0.707107
    outer loop
      vertex 87.5 26.125 7.61843
      vertex 5.1 26.125 7.61843
      vertex 87.5 25.1184 8.625
    endloop
  endfacet
  facet normal -1.52436e-16 0.707107 0.707107
    outer loop
      vertex 87.5 25.1184 8.625
      vertex 5.1 26.125 7.61843
      vertex 5.1 25.1184 8.625
    endloop
  endfacet
  facet normal -5.06909e-16 0.965926 0.258819
    outer loop
      vertex 85.2 24.75 10
      vertex 87.5 24.75 10
      vertex 87.5 25.1184 8.625
    endloop
  endfacet
  facet normal -5.63395e-17 0.965926 0.258819
    outer loop
      vertex 85.2 24.75 10
      vertex 87.5 25.1184 8.625
      vertex 5.1 25.1184 8.625
    endloop
  endfacet
  facet normal -4.28422e-17 0.965926 0.258819
    outer loop
      vertex 85.2 24.75 10
      vertex 5.1 25.1184 8.625
      vertex 5.1 24.75 10
    endloop
  endfacet
  facet normal -2.08675e-16 0.258819 0.965926
    outer loop
      vertex 87.5 26.125 7.61843
      vertex 87.5 27.5 7.25
      vertex 5.1 27.5 7.25
    endloop
  endfacet
  facet normal -2.08232e-16 0.258819 0.965926
    outer loop
      vertex 5.1 26.125 7.61843
      vertex 87.5 26.125 7.61843
      vertex 5.1 27.5 7.25
    endloop
  endfacet
  facet normal -2.08232e-16 -0.258819 0.965926
    outer loop
      vertex 5.1 27.5 7.25
      vertex 87.5 27.5 7.25
      vertex 87.5 28.875 7.61843
    endloop
  endfacet
  facet normal -2.08232e-16 -0.258819 0.965926
    outer loop
      vertex 5.1 28.875 7.61843
      vertex 5.1 27.5 7.25
      vertex 87.5 28.875 7.61843
    endloop
  endfacet
  facet normal -1.52436e-16 -0.707107 0.707107
    outer loop
      vertex 5.1 28.875 7.61843
      vertex 87.5 28.875 7.61843
      vertex 87.5 29.8816 8.625
    endloop
  endfacet
  facet normal -1.52436e-16 -0.707107 0.707107
    outer loop
      vertex 5.1 29.8816 8.625
      vertex 5.1 28.875 7.61843
      vertex 87.5 29.8816 8.625
    endloop
  endfacet
  facet normal -5.57955e-17 -0.965926 0.258819
    outer loop
      vertex 5.1 29.8816 8.625
      vertex 87.5 29.8816 8.625
      vertex 87.5 30.25 10
    endloop
  endfacet
  facet normal 9.85116e-16 -0.965926 0.258819
    outer loop
      vertex 85.2 30.25 10
      vertex 5.1 29.8816 8.625
      vertex 87.5 30.25 10
    endloop
  endfacet
  facet normal -4.28422e-17 -0.965926 0.258819
    outer loop
      vertex 85.2 30.25 10
      vertex 5.1 30.25 10
      vertex 5.1 29.8816 8.625
    endloop
  endfacet
  facet normal -0 -0.965926 -0.258819
    outer loop
      vertex 85.2 30.25 10
      vertex 87.5 30.25 10
      vertex 87.5 29.8816 11.375
    endloop
  endfacet
  facet normal -0 -0.965926 -0.258819
    outer loop
      vertex 85.2 29.8816 11.375
      vertex 85.2 30.25 10
      vertex 87.5 29.8816 11.375
    endloop
  endfacet
  facet normal -0 -0.707107 -0.707107
    outer loop
      vertex 85.2 29.8816 11.375
      vertex 87.5 29.8816 11.375
      vertex 87.5 28.875 12.3816
    endloop
  endfacet
  facet normal -0 -0.707107 -0.707107
    outer loop
      vertex 85.2 28.875 12.3816
      vertex 85.2 29.8816 11.375
      vertex 87.5 28.875 12.3816
    endloop
  endfacet
  facet normal 0 -0.258819 -0.965926
    outer loop
      vertex 87.5 28.875 12.3816
      vertex 87.5 27.5 12.75
      vertex 85.2 28.875 12.3816
    endloop
  endfacet
  facet normal 0 -0.258819 -0.965926
    outer loop
      vertex 85.2 28.875 12.3816
      vertex 87.5 27.5 12.75
      vertex 85.2 27.5 12.75
    endloop
  endfacet
  facet normal 0 0.258819 -0.965926
    outer loop
      vertex 87.5 27.5 12.75
      vertex 87.5 26.125 12.3816
      vertex 85.2 27.5 12.75
    endloop
  endfacet
  facet normal 0 0.258819 -0.965926
    outer loop
      vertex 85.2 27.5 12.75
      vertex 87.5 26.125 12.3816
      vertex 85.2 26.125 12.3816
    endloop
  endfacet
  facet normal 0 0.707107 -0.707107
    outer loop
      vertex 87.5 26.125 12.3816
      vertex 87.5 25.1184 11.375
      vertex 85.2 26.125 12.3816
    endloop
  endfacet
  facet normal 0 0.707107 -0.707107
    outer loop
      vertex 85.2 26.125 12.3816
      vertex 87.5 25.1184 11.375
      vertex 85.2 25.1184 11.375
    endloop
  endfacet
  facet normal 0 0.965926 -0.258819
    outer loop
      vertex 87.5 25.1184 11.375
      vertex 87.5 24.75 10
      vertex 85.2 25.1184 11.375
    endloop
  endfacet
  facet normal 0 0.965926 -0.258819
    outer loop
      vertex 85.2 25.1184 11.375
      vertex 87.5 24.75 10
      vertex 85.2 24.75 10
    endloop
  endfacet
  facet normal -1.52436e-16 0.707107 0.707107
    outer loop
      vertex 87.5 151.125 7.61843
      vertex 5.1 151.125 7.61843
      vertex 87.5 150.118 8.625
    endloop
  endfacet
  facet normal -1.52436e-16 0.707107 0.707107
    outer loop
      vertex 87.5 150.118 8.625
      vertex 5.1 151.125 7.61843
      vertex 5.1 150.118 8.625
    endloop
  endfacet
  facet normal -1.99893e-15 0.965926 0.258819
    outer loop
      vertex 85.2 149.75 10
      vertex 87.5 149.75 10
      vertex 87.5 150.118 8.625
    endloop
  endfacet
  facet normal -5.63395e-17 0.965926 0.258819
    outer loop
      vertex 85.2 149.75 10
      vertex 87.5 150.118 8.625
      vertex 5.1 150.118 8.625
    endloop
  endfacet
  facet normal -0 0.965926 0.258819
    outer loop
      vertex 85.2 149.75 10
      vertex 5.1 150.118 8.625
      vertex 5.1 149.75 10
    endloop
  endfacet
  facet normal -2.08675e-16 0.258819 0.965926
    outer loop
      vertex 87.5 151.125 7.61843
      vertex 87.5 152.5 7.25
      vertex 5.1 152.5 7.25
    endloop
  endfacet
  facet normal -2.08232e-16 0.258819 0.965926
    outer loop
      vertex 5.1 151.125 7.61843
      vertex 87.5 151.125 7.61843
      vertex 5.1 152.5 7.25
    endloop
  endfacet
  facet normal -2.08232e-16 -0.258819 0.965926
    outer loop
      vertex 5.1 152.5 7.25
      vertex 87.5 152.5 7.25
      vertex 87.5 153.875 7.61843
    endloop
  endfacet
  facet normal -2.08232e-16 -0.258819 0.965926
    outer loop
      vertex 5.1 153.875 7.61843
      vertex 5.1 152.5 7.25
      vertex 87.5 153.875 7.61843
    endloop
  endfacet
  facet normal -1.52436e-16 -0.707107 0.707107
    outer loop
      vertex 5.1 153.875 7.61843
      vertex 87.5 153.875 7.61843
      vertex 87.5 154.882 8.625
    endloop
  endfacet
  facet normal -1.52436e-16 -0.707107 0.707107
    outer loop
      vertex 5.1 154.882 8.625
      vertex 5.1 153.875 7.61843
      vertex 87.5 154.882 8.625
    endloop
  endfacet
  facet normal -5.57955e-17 -0.965926 0.258819
    outer loop
      vertex 5.1 154.882 8.625
      vertex 87.5 154.882 8.625
      vertex 87.5 155.25 10
    endloop
  endfacet
  facet normal 9.93727e-15 -0.965926 0.258819
    outer loop
      vertex 85.2 155.25 10
      vertex 5.1 154.882 8.625
      vertex 87.5 155.25 10
    endloop
  endfacet
  facet normal 0 -0.965926 0.258819
    outer loop
      vertex 85.2 155.25 10
      vertex 5.1 155.25 10
      vertex 5.1 154.882 8.625
    endloop
  endfacet
  facet normal -0 -0.965926 -0.258819
    outer loop
      vertex 85.2 155.25 10
      vertex 87.5 155.25 10
      vertex 87.5 154.882 11.375
    endloop
  endfacet
  facet normal -0 -0.965926 -0.258819
    outer loop
      vertex 85.2 154.882 11.375
      vertex 85.2 155.25 10
      vertex 87.5 154.882 11.375
    endloop
  endfacet
  facet normal -0 -0.707107 -0.707107
    outer loop
      vertex 85.2 154.882 11.375
      vertex 87.5 154.882 11.375
      vertex 87.5 153.875 12.3816
    endloop
  endfacet
  facet normal -0 -0.707107 -0.707107
    outer loop
      vertex 85.2 153.875 12.3816
      vertex 85.2 154.882 11.375
      vertex 87.5 153.875 12.3816
    endloop
  endfacet
  facet normal 0 -0.258819 -0.965926
    outer loop
      vertex 87.5 153.875 12.3816
      vertex 87.5 152.5 12.75
      vertex 85.2 153.875 12.3816
    endloop
  endfacet
  facet normal 0 -0.258819 -0.965926
    outer loop
      vertex 85.2 153.875 12.3816
      vertex 87.5 152.5 12.75
      vertex 85.2 152.5 12.75
    endloop
  endfacet
  facet normal 0 0.258819 -0.965926
    outer loop
      vertex 87.5 152.5 12.75
      vertex 87.5 151.125 12.3816
      vertex 85.2 152.5 12.75
    endloop
  endfacet
  facet normal 0 0.258819 -0.965926
    outer loop
      vertex 85.2 152.5 12.75
      vertex 87.5 151.125 12.3816
      vertex 85.2 151.125 12.3816
    endloop
  endfacet
  facet normal 0 0.707107 -0.707107
    outer loop
      vertex 87.5 151.125 12.3816
      vertex 87.5 150.118 11.375
      vertex 85.2 151.125 12.3816
    endloop
  endfacet
  facet normal 0 0.707107 -0.707107
    outer loop
      vertex 85.2 151.125 12.3816
      vertex 87.5 150.118 11.375
      vertex 85.2 150.118 11.375
    endloop
  endfacet
  facet normal 0 0.965926 -0.258819
    outer loop
      vertex 87.5 150.118 11.375
      vertex 87.5 149.75 10
      vertex 85.2 150.118 11.375
    endloop
  endfacet
  facet normal 0 0.965926 -0.258819
    outer loop
      vertex 85.2 150.118 11.375
      vertex 87.5 149.75 10
      vertex 85.2 149.75 10
    endloop
  endfacet
  facet normal 2.56342e-16 0.707107 -0.707107
    outer loop
      vertex 0 23.8194 12.125
      vertex -4.9 23.8194 12.125
      vertex 0 25.375 13.6806
    endloop
  endfacet
  facet normal 2.56342e-16 0.707107 -0.707107
    outer loop
      vertex 0 25.375 13.6806
      vertex -4.9 23.8194 12.125
      vertex -4.9 25.375 13.6806
    endloop
  endfacet
  facet normal 3.50169e-16 0.258819 -0.965926
    outer loop
      vertex 0 25.375 13.6806
      vertex -4.9 25.375 13.6806
      vertex 0 27.5 14.25
    endloop
  endfacet
  facet normal 3.50169e-16 0.258819 -0.965926
    outer loop
      vertex 0 27.5 14.25
      vertex -4.9 25.375 13.6806
      vertex -4.9 27.5 14.25
    endloop
  endfacet
  facet normal 3.50169e-16 -0.258819 -0.965926
    outer loop
      vertex 0 29.625 13.6806
      vertex 0 27.5 14.25
      vertex -4.9 29.625 13.6806
    endloop
  endfacet
  facet normal 3.55467e-16 -0.258819 -0.965926
    outer loop
      vertex -4.9 29.625 13.6806
      vertex 0 27.5 14.25
      vertex -4.9 27.5 14.25
    endloop
  endfacet
  facet normal 2.56342e-16 -0.707107 -0.707107
    outer loop
      vertex -4.9 31.1806 12.125
      vertex 0 31.1806 12.125
      vertex 0 29.625 13.6806
    endloop
  endfacet
  facet normal 2.56342e-16 -0.707107 -0.707107
    outer loop
      vertex -4.9 29.625 13.6806
      vertex -4.9 31.1806 12.125
      vertex 0 29.625 13.6806
    endloop
  endfacet
  facet normal 9.38275e-17 -0.965926 -0.258819
    outer loop
      vertex -4.9 31.75 10
      vertex 0 31.75 10
      vertex 0 31.1806 12.125
    endloop
  endfacet
  facet normal 9.38275e-17 -0.965926 -0.258819
    outer loop
      vertex -4.9 31.1806 12.125
      vertex -4.9 31.75 10
      vertex 0 31.1806 12.125
    endloop
  endfacet
  facet normal -6.89632e-17 -0.965926 0.258819
    outer loop
      vertex -4.9 31.1806 7.875
      vertex 5.1 31.1806 7.875
      vertex 5.1 31.75 10
    endloop
  endfacet
  facet normal 0 -0.965926 0.258819
    outer loop
      vertex 0 31.75 10
      vertex -4.9 31.1806 7.875
      vertex 5.1 31.75 10
    endloop
  endfacet
  facet normal -9.38275e-17 -0.965926 0.258819
    outer loop
      vertex -4.9 31.75 10
      vertex -4.9 31.1806 7.875
      vertex 0 31.75 10
    endloop
  endfacet
  facet normal -1.25607e-16 -0.707107 0.707107
    outer loop
      vertex -4.9 29.625 6.31939
      vertex 5.1 29.625 6.31939
      vertex 5.1 31.1806 7.875
    endloop
  endfacet
  facet normal -1.88411e-16 -0.707107 0.707107
    outer loop
      vertex -4.9 31.1806 7.875
      vertex -4.9 29.625 6.31939
      vertex 5.1 31.1806 7.875
    endloop
  endfacet
  facet normal -2.57374e-16 -0.258819 0.965926
    outer loop
      vertex -4.9 27.5 5.75
      vertex 5.1 27.5 5.75
      vertex 5.1 29.625 6.31939
    endloop
  endfacet
  facet normal -1.71583e-16 -0.258819 0.965926
    outer loop
      vertex -4.9 29.625 6.31939
      vertex -4.9 27.5 5.75
      vertex 5.1 29.625 6.31939
    endloop
  endfacet
  facet normal -2.52328e-16 0.258819 0.965926
    outer loop
      vertex 5.1 25.375 6.31939
      vertex 5.1 27.5 5.75
      vertex -4.9 27.5 5.75
    endloop
  endfacet
  facet normal -1.71583e-16 0.258819 0.965926
    outer loop
      vertex -4.9 25.375 6.31939
      vertex 5.1 25.375 6.31939
      vertex -4.9 27.5 5.75
    endloop
  endfacet
  facet normal -1.25607e-16 0.707107 0.707107
    outer loop
      vertex 5.1 25.375 6.31939
      vertex -4.9 25.375 6.31939
      vertex 5.1 23.8194 7.875
    endloop
  endfacet
  facet normal -1.88411e-16 0.707107 0.707107
    outer loop
      vertex 5.1 23.8194 7.875
      vertex -4.9 25.375 6.31939
      vertex -4.9 23.8194 7.875
    endloop
  endfacet
  facet normal 0 0.965926 0.258819
    outer loop
      vertex 0 23.25 10
      vertex 5.1 23.25 10
      vertex 5.1 23.8194 7.875
    endloop
  endfacet
  facet normal -6.56305e-17 0.965926 0.258819
    outer loop
      vertex 0 23.25 10
      vertex 5.1 23.8194 7.875
      vertex -4.9 23.8194 7.875
    endloop
  endfacet
  facet normal -9.27305e-17 0.965926 0.258819
    outer loop
      vertex -4.9 23.8194 7.875
      vertex -4.9 23.25 10
      vertex 0 23.25 10
    endloop
  endfacet
  facet normal 9.38275e-17 0.965926 -0.258819
    outer loop
      vertex 0 23.25 10
      vertex -4.9 23.25 10
      vertex 0 23.8194 12.125
    endloop
  endfacet
  facet normal 9.38275e-17 0.965926 -0.258819
    outer loop
      vertex 0 23.8194 12.125
      vertex -4.9 23.25 10
      vertex -4.9 23.8194 12.125
    endloop
  endfacet
  facet normal 2.56342e-16 0.707107 -0.707107
    outer loop
      vertex 0 148.819 12.125
      vertex -4.9 148.819 12.125
      vertex 0 150.375 13.6806
    endloop
  endfacet
  facet normal 2.56342e-16 0.707107 -0.707107
    outer loop
      vertex 0 150.375 13.6806
      vertex -4.9 148.819 12.125
      vertex -4.9 150.375 13.6806
    endloop
  endfacet
  facet normal 3.50169e-16 0.258819 -0.965926
    outer loop
      vertex 0 150.375 13.6806
      vertex -4.9 150.375 13.6806
      vertex 0 152.5 14.25
    endloop
  endfacet
  facet normal 3.50169e-16 0.258819 -0.965926
    outer loop
      vertex 0 152.5 14.25
      vertex -4.9 150.375 13.6806
      vertex -4.9 152.5 14.25
    endloop
  endfacet
  facet normal 3.50169e-16 -0.258819 -0.965926
    outer loop
      vertex 0 154.625 13.6806
      vertex 0 152.5 14.25
      vertex -4.9 154.625 13.6806
    endloop
  endfacet
  facet normal 3.55467e-16 -0.258819 -0.965926
    outer loop
      vertex -4.9 154.625 13.6806
      vertex 0 152.5 14.25
      vertex -4.9 152.5 14.25
    endloop
  endfacet
  facet normal 2.56342e-16 -0.707107 -0.707107
    outer loop
      vertex -4.9 156.181 12.125
      vertex 0 156.181 12.125
      vertex 0 154.625 13.6806
    endloop
  endfacet
  facet normal 2.56342e-16 -0.707107 -0.707107
    outer loop
      vertex -4.9 154.625 13.6806
      vertex -4.9 156.181 12.125
      vertex 0 154.625 13.6806
    endloop
  endfacet
  facet normal 9.38275e-17 -0.965926 -0.258819
    outer loop
      vertex -4.9 156.75 10
      vertex 0 156.75 10
      vertex 0 156.181 12.125
    endloop
  endfacet
  facet normal 9.38275e-17 -0.965926 -0.258819
    outer loop
      vertex -4.9 156.181 12.125
      vertex -4.9 156.75 10
      vertex 0 156.181 12.125
    endloop
  endfacet
  facet normal -6.89632e-17 -0.965926 0.258819
    outer loop
      vertex -4.9 156.181 7.875
      vertex 5.1 156.181 7.875
      vertex 5.1 156.75 10
    endloop
  endfacet
  facet normal 0 -0.965926 0.258819
    outer loop
      vertex 0 156.75 10
      vertex -4.9 156.181 7.875
      vertex 5.1 156.75 10
    endloop
  endfacet
  facet normal -9.38275e-17 -0.965926 0.258819
    outer loop
      vertex -4.9 156.75 10
      vertex -4.9 156.181 7.875
      vertex 0 156.75 10
    endloop
  endfacet
  facet normal -1.25607e-16 -0.707107 0.707107
    outer loop
      vertex -4.9 154.625 6.31939
      vertex 5.1 154.625 6.31939
      vertex 5.1 156.181 7.875
    endloop
  endfacet
  facet normal -1.88411e-16 -0.707107 0.707107
    outer loop
      vertex -4.9 156.181 7.875
      vertex -4.9 154.625 6.31939
      vertex 5.1 156.181 7.875
    endloop
  endfacet
  facet normal -2.57374e-16 -0.258819 0.965926
    outer loop
      vertex -4.9 152.5 5.75
      vertex 5.1 152.5 5.75
      vertex 5.1 154.625 6.31939
    endloop
  endfacet
  facet normal -1.71583e-16 -0.258819 0.965926
    outer loop
      vertex -4.9 154.625 6.31939
      vertex -4.9 152.5 5.75
      vertex 5.1 154.625 6.31939
    endloop
  endfacet
  facet normal -2.52328e-16 0.258819 0.965926
    outer loop
      vertex 5.1 150.375 6.31939
      vertex 5.1 152.5 5.75
      vertex -4.9 152.5 5.75
    endloop
  endfacet
  facet normal -1.71583e-16 0.258819 0.965926
    outer loop
      vertex -4.9 150.375 6.31939
      vertex 5.1 150.375 6.31939
      vertex -4.9 152.5 5.75
    endloop
  endfacet
  facet normal -1.25607e-16 0.707107 0.707107
    outer loop
      vertex 5.1 150.375 6.31939
      vertex -4.9 150.375 6.31939
      vertex 5.1 148.819 7.875
    endloop
  endfacet
  facet normal -1.88411e-16 0.707107 0.707107
    outer loop
      vertex 5.1 148.819 7.875
      vertex -4.9 150.375 6.31939
      vertex -4.9 148.819 7.875
    endloop
  endfacet
  facet normal 0 0.965926 0.258819
    outer loop
      vertex 0 148.25 10
      vertex 5.1 148.25 10
      vertex 5.1 148.819 7.875
    endloop
  endfacet
  facet normal -6.56305e-17 0.965926 0.258819
    outer loop
      vertex 0 148.25 10
      vertex 5.1 148.819 7.875
      vertex -4.9 148.819 7.875
    endloop
  endfacet
  facet normal -9.27305e-17 0.965926 0.258819
    outer loop
      vertex -4.9 148.819 7.875
      vertex -4.9 148.25 10
      vertex 0 148.25 10
    endloop
  endfacet
  facet normal 9.38275e-17 0.965926 -0.258819
    outer loop
      vertex 0 148.25 10
      vertex -4.9 148.25 10
      vertex 0 148.819 12.125
    endloop
  endfacet
  facet normal 9.38275e-17 0.965926 -0.258819
    outer loop
      vertex 0 148.819 12.125
      vertex -4.9 148.25 10
      vertex -4.9 148.819 12.125
    endloop
  endfacet
  facet normal 0 -0 1
    outer loop
      vertex 5.1 156.75 10
      vertex 5.1 155.25 10
      vertex 85.2 155.25 10
    endloop
  endfacet
  facet normal 0 0 1
    outer loop
      vertex 0 177.7 10
      vertex 5.1 156.75 10
      vertex 85.2 177.7 10
    endloop
  endfacet
  facet normal 0 0 1
    outer loop
      vertex 85.2 177.7 10
      vertex 5.1 156.75 10
      vertex 85.2 155.25 10
    endloop
  endfacet
  facet normal 0 0 1
    outer loop
      vertex 0 156.75 10
      vertex 5.1 156.75 10
      vertex 0 177.7 10
    endloop
  endfacet
  facet normal 1 0 0
    outer loop
      vertex 0 2.5 30
      vertex 0 23.25 10
      vertex 0 23.8194 12.125
    endloop
  endfacet
  facet normal 1 -0 0
    outer loop
      vertex 0 27.5 14.25
      vertex 0 2.5 30
      vertex 0 25.375 13.6806
    endloop
  endfacet
  facet normal 1 -0 0
    outer loop
      vertex 0 25.375 13.6806
      vertex 0 2.5 30
      vertex 0 23.8194 12.125
    endloop
  endfacet
  facet normal 1 0 0
    outer loop
      vertex 0 29.625 13.6806
      vertex 0 148.25 10
      vertex 0 27.5 14.25
    endloop
  endfacet
  facet normal 1 0 0
    outer loop
      vertex 0 31.1806 12.125
      vertex 0 148.25 10
      vertex 0 29.625 13.6806
    endloop
  endfacet
  facet normal 1 0 0
    outer loop
      vertex 0 31.75 10
      vertex 0 148.25 10
      vertex 0 31.1806 12.125
    endloop
  endfacet
  facet normal 1 0 0
    outer loop
      vertex 0 148.25 10
      vertex 0 148.819 12.125
      vertex 0 27.5 14.25
    endloop
  endfacet
  facet normal 1 0 0
    outer loop
      vertex 0 148.819 12.125
      vertex 0 150.375 13.6806
      vertex 0 27.5 14.25
    endloop
  endfacet
  facet normal 1 0 0
    outer loop
      vertex 0 150.375 13.6806
      vertex 0 152.5 14.25
      vertex 0 27.5 14.25
    endloop
  endfacet
  facet normal 1 -0 0
    outer loop
      vertex 0 152.5 14.25
      vertex 0 177.7 30
      vertex 0 27.5 14.25
    endloop
  endfacet
  facet normal 1 0 0
    outer loop
      vertex 0 154.625 13.6806
      vertex 0 177.7 10
      vertex 0 152.5 14.25
    endloop
  endfacet
  facet normal 1 0 0
    outer loop
      vertex 0 156.181 12.125
      vertex 0 177.7 10
      vertex 0 154.625 13.6806
    endloop
  endfacet
  facet normal 1 0 0
    outer loop
      vertex 0 156.75 10
      vertex 0 177.7 10
      vertex 0 156.181 12.125
    endloop
  endfacet
  facet normal 1 0 0
    outer loop
      vertex 0 177.7 10
      vertex 0 177.7 30
      vertex 0 152.5 14.25
    endloop
  endfacet
  facet normal 1 0 0
    outer loop
      vertex 0 177.7 30
      vertex 0 2.5 30
      vertex 0 27.5 14.25
    endloop
  endfacet
  facet normal 1 0 -0
    outer loop
      vertex 0 2.5 30
      vertex 0 2.5 10
      vertex 0 23.25 10
    endloop
  endfacet
  facet normal 0 0 1
    outer loop
      vertex 85.2 2.5 10
      vertex 85.2 24.75 10
      vertex 5.1 24.75 10
    endloop
  endfacet
  facet normal 0 0 1
    outer loop
      vertex 0 23.25 10
      vertex 85.2 2.5 10
      vertex 5.1 23.25 10
    endloop
  endfacet
  facet normal 0 0 1
    outer loop
      vertex 5.1 23.25 10
      vertex 85.2 2.5 10
      vertex 5.1 24.75 10
    endloop
  endfacet
  facet normal 0 0 1
    outer loop
      vertex 0 2.5 10
      vertex 85.2 2.5 10
      vertex 0 23.25 10
    endloop
  endfacet
  facet normal 0 -0 1
    outer loop
      vertex 5.1 31.75 10
      vertex 5.1 30.25 10
      vertex 85.2 30.25 10
    endloop
  endfacet
  facet normal 0 -0 1
    outer loop
      vertex 5.1 148.25 10
      vertex 5.1 31.75 10
      vertex 85.2 149.75 10
    endloop
  endfacet
  facet normal 0 0 1
    outer loop
      vertex 85.2 149.75 10
      vertex 5.1 31.75 10
      vertex 85.2 30.25 10
    endloop
  endfacet
  facet normal 0 0 1
    outer loop
      vertex 0 148.25 10
      vertex 5.1 31.75 10
      vertex 5.1 148.25 10
    endloop
  endfacet
  facet normal 0 -0 1
    outer loop
      vertex 5.1 149.75 10
      vertex 5.1 148.25 10
      vertex 85.2 149.75 10
    endloop
  endfacet
  facet normal 0 0 1
    outer loop
      vertex 0 31.75 10
      vertex 5.1 31.75 10
      vertex 0 148.25 10
    endloop
  endfacet
  facet normal -1 0 -0
    outer loop
      vertex 5.1 27.5 5.75
      vertex 5.1 26.125 7.61843
      vertex 5.1 29.625 6.31939
    endloop
  endfacet
  facet normal -1 0 -0
    outer loop
      vertex 5.1 29.625 6.31939
      vertex 5.1 27.5 7.25
      vertex 5.1 31.1806 7.875
    endloop
  endfacet
  facet normal -1 4.79411e-17 -4.30812e-16
    outer loop
      vertex 5.1 31.1806 7.875
      vertex 5.1 28.875 7.61843
      vertex 5.1 31.75 10
    endloop
  endfacet
  facet normal -1 0 0
    outer loop
      vertex 5.1 31.75 10
      vertex 5.1 29.8816 8.625
      vertex 5.1 30.25 10
    endloop
  endfacet
  facet normal -1 2.45886e-15 -3.34124e-15
    outer loop
      vertex 5.1 28.875 7.61843
      vertex 5.1 29.8816 8.625
      vertex 5.1 31.75 10
    endloop
  endfacet
  facet normal -1 0 0
    outer loop
      vertex 5.1 27.5 7.25
      vertex 5.1 28.875 7.61843
      vertex 5.1 31.1806 7.875
    endloop
  endfacet
  facet normal -1 0 0
    outer loop
      vertex 5.1 26.125 7.61843
      vertex 5.1 27.5 7.25
      vertex 5.1 29.625 6.31939
    endloop
  endfacet
  facet normal -1 3.34124e-15 2.45886e-15
    outer loop
      vertex 5.1 25.1184 8.625
      vertex 5.1 26.125 7.61843
      vertex 5.1 27.5 5.75
    endloop
  endfacet
  facet normal -1 -1.06393e-16 -3.97065e-16
    outer loop
      vertex 5.1 25.1184 8.625
      vertex 5.1 27.5 5.75
      vertex 5.1 25.375 6.31939
    endloop
  endfacet
  facet normal -1 -2.45886e-15 -6.58849e-16
    outer loop
      vertex 5.1 25.1184 8.625
      vertex 5.1 25.375 6.31939
      vertex 5.1 24.75 10
    endloop
  endfacet
  facet normal -1 -2.90672e-16 -2.90672e-16
    outer loop
      vertex 5.1 25.375 6.31939
      vertex 5.1 23.8194 7.875
      vertex 5.1 24.75 10
    endloop
  endfacet
  facet normal -1 0 -4.17966e-16
    outer loop
      vertex 5.1 23.8194 7.875
      vertex 5.1 23.25 10
      vertex 5.1 24.75 10
    endloop
  endfacet
  facet normal -1 0 -0
    outer loop
      vertex 5.1 152.5 5.75
      vertex 5.1 151.125 7.61843
      vertex 5.1 154.625 6.31939
    endloop
  endfacet
  facet normal -1 0 -0
    outer loop
      vertex 5.1 154.625 6.31939
      vertex 5.1 152.5 7.25
      vertex 5.1 156.181 7.875
    endloop
  endfacet
  facet normal -1 4.79411e-17 -4.30812e-16
    outer loop
      vertex 5.1 156.181 7.875
      vertex 5.1 153.875 7.61843
      vertex 5.1 156.75 10
    endloop
  endfacet
  facet normal -1 0 0
    outer loop
      vertex 5.1 156.75 10
      vertex 5.1 154.882 8.625
      vertex 5.1 155.25 10
    endloop
  endfacet
  facet normal -1 2.45886e-15 -3.34124e-15
    outer loop
      vertex 5.1 153.875 7.61843
      vertex 5.1 154.882 8.625
      vertex 5.1 156.75 10
    endloop
  endfacet
  facet normal -1 0 0
    outer loop
      vertex 5.1 152.5 7.25
      vertex 5.1 153.875 7.61843
      vertex 5.1 156.181 7.875
    endloop
  endfacet
  facet normal -1 0 0
    outer loop
      vertex 5.1 151.125 7.61843
      vertex 5.1 152.5 7.25
      vertex 5.1 154.625 6.31939
    endloop
  endfacet
  facet normal -1 3.34124e-15 2.45886e-15
    outer loop
      vertex 5.1 150.118 8.625
      vertex 5.1 151.125 7.61843
      vertex 5.1 152.5 5.75
    endloop
  endfacet
  facet normal -1 -1.06393e-16 -3.97065e-16
    outer loop
      vertex 5.1 150.118 8.625
      vertex 5.1 152.5 5.75
      vertex 5.1 150.375 6.31939
    endloop
  endfacet
  facet normal -1 -2.45886e-15 -6.58849e-16
    outer loop
      vertex 5.1 150.118 8.625
      vertex 5.1 150.375 6.31939
      vertex 5.1 149.75 10
    endloop
  endfacet
  facet normal -1 -2.90672e-16 -2.90672e-16
    outer loop
      vertex 5.1 150.375 6.31939
      vertex 5.1 148.819 7.875
      vertex 5.1 149.75 10
    endloop
  endfacet
  facet normal -1 0 -4.17966e-16
    outer loop
      vertex 5.1 148.819 7.875
      vertex 5.1 148.25 10
      vertex 5.1 149.75 10
    endloop
  endfacet
endsolid OpenSCAD_Model
