solid OpenSCAD_Model
  facet normal -1 -0 -0
    outer loop
      vertex -1 0 -0.005
      vertex -1 0 3.005
      vertex -1 49.4 -0.005
    endloop
  endfacet
  facet normal -1 0 0
    outer loop
      vertex -1 49.4 -0.005
      vertex -1 0 3.005
      vertex -1 40.4 3.005
    endloop
  endfacet
  facet normal -1 0 0
    outer loop
      vertex -1 49.4 -0.005
      vertex -1 40.4 3.005
      vertex -1 40.4 13.15
    endloop
  endfacet
  facet normal -1 0 0
    outer loop
      vertex -1 49.4 -0.005
      vertex -1 40.4 13.15
      vertex -1 49.4 13.15
    endloop
  endfacet
  facet normal -0.965926 -0.25882 -0
    outer loop
      vertex -1 0 -0.005
      vertex -0.866025 -0.5 -0.005
      vertex -1 0 3.005
    endloop
  endfacet
  facet normal -0.965926 -0.25882 0
    outer loop
      vertex -1 0 3.005
      vertex -0.866025 -0.5 -0.005
      vertex -0.866025 -0.5 3.005
    endloop
  endfacet
  facet normal -0 -0 -1
    outer loop
      vertex -1 0 -0.005
      vertex -1 49.4 -0.005
      vertex -0.866025 -0.5 -0.005
    endloop
  endfacet
  facet normal 0 0 -1
    outer loop
      vertex -0.866025 -0.5 -0.005
      vertex -1 49.4 -0.005
      vertex -0.866025 49.9 -0.005
    endloop
  endfacet
  facet normal 0 -0 -1
    outer loop
      vertex -0.866025 -0.5 -0.005
      vertex -0.866025 49.9 -0.005
      vertex -0.5 50.266 -0.005
    endloop
  endfacet
  facet normal 0 0 -1
    outer loop
      vertex -0.866025 -0.5 -0.005
      vertex -0.5 50.266 -0.005
      vertex 0 50.4 -0.005
    endloop
  endfacet
  facet normal 0 -0 -1
    outer loop
      vertex 5.38372 45.7837 -0.005
      vertex 0 50.4 -0.005
      vertex 25.4 50.4 -0.005
    endloop
  endfacet
  facet normal -0 0 -1
    outer loop
      vertex 22.1498 9.5 -0.005
      vertex 26.4 49.4 -0.005
      vertex 26.4 0 -0.005
    endloop
  endfacet
  facet normal -0 0 -1
    outer loop
      vertex -0.866025 -0.5 -0.005
      vertex 26.4 0 -0.005
      vertex 26.266 -0.5 -0.005
    endloop
  endfacet
  facet normal 0 0 -1
    outer loop
      vertex -0.866025 -0.5 -0.005
      vertex 26.266 -0.5 -0.005
      vertex 25.9 -0.866025 -0.005
    endloop
  endfacet
  facet normal 0 0 -1
    outer loop
      vertex -0.866025 -0.5 -0.005
      vertex 25.9 -0.866025 -0.005
      vertex 25.4 -1 -0.005
    endloop
  endfacet
  facet normal 0 0 -1
    outer loop
      vertex -0.866025 -0.5 -0.005
      vertex 25.4 -1 -0.005
      vertex 0 -1 -0.005
    endloop
  endfacet
  facet normal 0 0 -1
    outer loop
      vertex -0.866025 -0.5 -0.005
      vertex 0 -1 -0.005
      vertex -0.5 -0.866025 -0.005
    endloop
  endfacet
  facet normal 0 0 -1
    outer loop
      vertex -0.866025 -0.5 -0.005
      vertex 0 50.4 -0.005
      vertex 2.65 34.1 -0.005
    endloop
  endfacet
  facet normal 0 -0 -1
    outer loop
      vertex 9.75 34.1 -0.005
      vertex 2.65 34.1 -0.005
      vertex 25.4 50.4 -0.005
    endloop
  endfacet
  facet normal -0 0 -1
    outer loop
      vertex 9.75 34.1 -0.005
      vertex 26.4 49.4 -0.005
      vertex 9.75 5 -0.005
    endloop
  endfacet
  facet normal 0 0 -1
    outer loop
      vertex -0.866025 -0.5 -0.005
      vertex 2.65 5 -0.005
      vertex 26.4 0 -0.005
    endloop
  endfacet
  facet normal 0 0 -1
    outer loop
      vertex 2.65 5 -0.005
      vertex 9.75 5 -0.005
      vertex 26.4 0 -0.005
    endloop
  endfacet
  facet normal 0 -0 -1
    outer loop
      vertex 2.65 34.1 -0.005
      vertex 0 50.4 -0.005
      vertex 3.25023 44.9 -0.005
    endloop
  endfacet
  facet normal 0 0 -1
    outer loop
      vertex 2.65 34.1 -0.005
      vertex 3.25023 44.9 -0.005
      vertex 3.25875 44.8353 -0.005
    endloop
  endfacet
  facet normal 0 0 -1
    outer loop
      vertex 2.65 34.1 -0.005
      vertex 3.25875 44.8353 -0.005
      vertex 3.29282 44.5765 -0.005
    endloop
  endfacet
  facet normal 0 0 -1
    outer loop
      vertex 2.65 34.1 -0.005
      vertex 3.29282 44.5765 -0.005
      vertex 3.3178 44.5162 -0.005
    endloop
  endfacet
  facet normal 0 0 -1
    outer loop
      vertex 2.65 34.1 -0.005
      vertex 3.3178 44.5162 -0.005
      vertex 3.41767 44.2751 -0.005
    endloop
  endfacet
  facet normal 0 0 -1
    outer loop
      vertex 2.65 34.1 -0.005
      vertex 3.41767 44.2751 -0.005
      vertex 3.45741 44.2233 -0.005
    endloop
  endfacet
  facet normal 0 0 -1
    outer loop
      vertex 2.65 34.1 -0.005
      vertex 3.45741 44.2233 -0.005
      vertex 3.61628 44.0163 -0.005
    endloop
  endfacet
  facet normal 0 0 -1
    outer loop
      vertex 2.65 34.1 -0.005
      vertex 3.61628 44.0163 -0.005
      vertex 3.66807 43.9765 -0.005
    endloop
  endfacet
  facet normal 0 0 -1
    outer loop
      vertex 2.65 34.1 -0.005
      vertex 3.66807 43.9765 -0.005
      vertex 3.87512 43.8177 -0.005
    endloop
  endfacet
  facet normal 0 0 -1
    outer loop
      vertex 2.65 34.1 -0.005
      vertex 3.87512 43.8177 -0.005
      vertex 3.93543 43.7927 -0.005
    endloop
  endfacet
  facet normal 0 0 -1
    outer loop
      vertex 2.65 34.1 -0.005
      vertex 3.93543 43.7927 -0.005
      vertex 4.17654 43.6928 -0.005
    endloop
  endfacet
  facet normal 0 0 -1
    outer loop
      vertex 2.65 34.1 -0.005
      vertex 4.17654 43.6928 -0.005
      vertex 4.24126 43.6843 -0.005
    endloop
  endfacet
  facet normal 0 0 -1
    outer loop
      vertex 2.65 34.1 -0.005
      vertex 4.24126 43.6843 -0.005
      vertex 4.5 43.6502 -0.005
    endloop
  endfacet
  facet normal 0 0 -1
    outer loop
      vertex 2.65 34.1 -0.005
      vertex 4.5 43.6502 -0.005
      vertex 4.56473 43.6588 -0.005
    endloop
  endfacet
  facet normal 0 0 -1
    outer loop
      vertex 2.65 34.1 -0.005
      vertex 4.56473 43.6588 -0.005
      vertex 4.82346 43.6928 -0.005
    endloop
  endfacet
  facet normal 0 0 -1
    outer loop
      vertex 2.65 34.1 -0.005
      vertex 4.82346 43.6928 -0.005
      vertex 25.4 50.4 -0.005
    endloop
  endfacet
  facet normal 0 0 -1
    outer loop
      vertex 4.82346 43.6928 -0.005
      vertex 4.88378 43.7178 -0.005
      vertex 25.4 50.4 -0.005
    endloop
  endfacet
  facet normal 0 0 -1
    outer loop
      vertex 4.88378 43.7178 -0.005
      vertex 5.12488 43.8177 -0.005
      vertex 25.4 50.4 -0.005
    endloop
  endfacet
  facet normal -0 0 -1
    outer loop
      vertex 5.38372 44.0163 -0.005
      vertex 25.4 50.4 -0.005
      vertex 5.17668 43.8574 -0.005
    endloop
  endfacet
  facet normal -0 0 -1
    outer loop
      vertex 5.42346 44.0681 -0.005
      vertex 25.4 50.4 -0.005
      vertex 5.38372 44.0163 -0.005
    endloop
  endfacet
  facet normal -0 0 -1
    outer loop
      vertex 5.58233 44.2751 -0.005
      vertex 25.4 50.4 -0.005
      vertex 5.42346 44.0681 -0.005
    endloop
  endfacet
  facet normal -0 0 -1
    outer loop
      vertex 5.60731 44.3354 -0.005
      vertex 25.4 50.4 -0.005
      vertex 5.58233 44.2751 -0.005
    endloop
  endfacet
  facet normal -0 0 -1
    outer loop
      vertex 5.70718 44.5765 -0.005
      vertex 25.4 50.4 -0.005
      vertex 5.60731 44.3354 -0.005
    endloop
  endfacet
  facet normal -0 0 -1
    outer loop
      vertex 5.7157 44.6413 -0.005
      vertex 25.4 50.4 -0.005
      vertex 5.70718 44.5765 -0.005
    endloop
  endfacet
  facet normal -0 0 -1
    outer loop
      vertex 5.74977 44.9 -0.005
      vertex 25.4 50.4 -0.005
      vertex 5.7157 44.6413 -0.005
    endloop
  endfacet
  facet normal -0 0 -1
    outer loop
      vertex 5.74125 44.9647 -0.005
      vertex 25.4 50.4 -0.005
      vertex 5.74977 44.9 -0.005
    endloop
  endfacet
  facet normal -0 0 -1
    outer loop
      vertex 5.70718 45.2235 -0.005
      vertex 25.4 50.4 -0.005
      vertex 5.74125 44.9647 -0.005
    endloop
  endfacet
  facet normal -0 0 -1
    outer loop
      vertex 5.58233 45.5249 -0.005
      vertex 25.4 50.4 -0.005
      vertex 5.6822 45.2838 -0.005
    endloop
  endfacet
  facet normal 0 -0 -1
    outer loop
      vertex 5.70718 45.2235 -0.005
      vertex 5.6822 45.2838 -0.005
      vertex 25.4 50.4 -0.005
    endloop
  endfacet
  facet normal 0 0 -1
    outer loop
      vertex 20.2751 8.41767 -0.005
      vertex 26.4 0 -0.005
      vertex 20.0681 8.57654 -0.005
    endloop
  endfacet
  facet normal -0 -0 -1
    outer loop
      vertex 4.82346 46.1072 -0.005
      vertex 0 50.4 -0.005
      vertex 5.06457 46.0073 -0.005
    endloop
  endfacet
  facet normal 0 -0 -1
    outer loop
      vertex 5.58233 45.5249 -0.005
      vertex 5.54259 45.5767 -0.005
      vertex 25.4 50.4 -0.005
    endloop
  endfacet
  facet normal -0 -0 -1
    outer loop
      vertex 5.33193 45.8235 -0.005
      vertex 0 50.4 -0.005
      vertex 5.38372 45.7837 -0.005
    endloop
  endfacet
  facet normal 0 -0 -1
    outer loop
      vertex 5.54259 45.5767 -0.005
      vertex 5.38372 45.7837 -0.005
      vertex 25.4 50.4 -0.005
    endloop
  endfacet
  facet normal -0 -0 -1
    outer loop
      vertex 5.12488 45.9823 -0.005
      vertex 0 50.4 -0.005
      vertex 5.33193 45.8235 -0.005
    endloop
  endfacet
  facet normal -0 -0 -1
    outer loop
      vertex 5.06457 46.0073 -0.005
      vertex 0 50.4 -0.005
      vertex 5.12488 45.9823 -0.005
    endloop
  endfacet
  facet normal -0 -0 -1
    outer loop
      vertex 4.75874 46.1157 -0.005
      vertex 0 50.4 -0.005
      vertex 4.82346 46.1072 -0.005
    endloop
  endfacet
  facet normal -0 -0 -1
    outer loop
      vertex 4.5 46.1498 -0.005
      vertex 0 50.4 -0.005
      vertex 4.75874 46.1157 -0.005
    endloop
  endfacet
  facet normal 0 -0 -1
    outer loop
      vertex 4.43527 46.1412 -0.005
      vertex 0 50.4 -0.005
      vertex 4.5 46.1498 -0.005
    endloop
  endfacet
  facet normal 0 -0 -1
    outer loop
      vertex 4.17654 46.1072 -0.005
      vertex 0 50.4 -0.005
      vertex 4.43527 46.1412 -0.005
    endloop
  endfacet
  facet normal 0 -0 -1
    outer loop
      vertex 4.11622 46.0822 -0.005
      vertex 0 50.4 -0.005
      vertex 4.17654 46.1072 -0.005
    endloop
  endfacet
  facet normal 0 -0 -1
    outer loop
      vertex 3.87512 45.9823 -0.005
      vertex 0 50.4 -0.005
      vertex 4.11622 46.0822 -0.005
    endloop
  endfacet
  facet normal 0 -0 -1
    outer loop
      vertex 3.82332 45.9426 -0.005
      vertex 0 50.4 -0.005
      vertex 3.87512 45.9823 -0.005
    endloop
  endfacet
  facet normal 0 -0 -1
    outer loop
      vertex 3.61628 45.7837 -0.005
      vertex 0 50.4 -0.005
      vertex 3.82332 45.9426 -0.005
    endloop
  endfacet
  facet normal 0 -0 -1
    outer loop
      vertex 3.57654 45.7319 -0.005
      vertex 0 50.4 -0.005
      vertex 3.61628 45.7837 -0.005
    endloop
  endfacet
  facet normal 0 -0 -1
    outer loop
      vertex 3.41767 45.5249 -0.005
      vertex 0 50.4 -0.005
      vertex 3.57654 45.7319 -0.005
    endloop
  endfacet
  facet normal 0 -0 -1
    outer loop
      vertex 3.39269 45.4646 -0.005
      vertex 0 50.4 -0.005
      vertex 3.41767 45.5249 -0.005
    endloop
  endfacet
  facet normal 0 -0 -1
    outer loop
      vertex 3.29282 45.2235 -0.005
      vertex 0 50.4 -0.005
      vertex 3.39269 45.4646 -0.005
    endloop
  endfacet
  facet normal 0 -0 -1
    outer loop
      vertex 3.25023 44.9 -0.005
      vertex 0 50.4 -0.005
      vertex 3.29282 45.2235 -0.005
    endloop
  endfacet
  facet normal 0 0 -8.14165e-08
    outer loop
      vertex 3.25023 44.9 -0.005
      vertex 3.29282 45.2235 -0.005
      vertex 3.2843 45.1587 -0.005
    endloop
  endfacet
  facet normal 0 0 -1
    outer loop
      vertex 9.75 5 -0.005
      vertex 19.6502 9.5 -0.005
      vertex 19.6588 9.43527 -0.005
    endloop
  endfacet
  facet normal 0 0 -1
    outer loop
      vertex 9.75 5 -0.005
      vertex 19.6588 9.43527 -0.005
      vertex 19.6928 9.17654 -0.005
    endloop
  endfacet
  facet normal 0 0 -1
    outer loop
      vertex 9.75 5 -0.005
      vertex 19.6928 9.17654 -0.005
      vertex 19.7178 9.11622 -0.005
    endloop
  endfacet
  facet normal 0 0 -1
    outer loop
      vertex 9.75 5 -0.005
      vertex 19.7178 9.11622 -0.005
      vertex 19.8177 8.87512 -0.005
    endloop
  endfacet
  facet normal -0 0 -1
    outer loop
      vertex 9.75 5 -0.005
      vertex 19.8177 8.87512 -0.005
      vertex 26.4 0 -0.005
    endloop
  endfacet
  facet normal 0 0 -1
    outer loop
      vertex 19.8177 8.87512 -0.005
      vertex 19.8574 8.82332 -0.005
      vertex 26.4 0 -0.005
    endloop
  endfacet
  facet normal 0 0 -1
    outer loop
      vertex 19.8574 8.82332 -0.005
      vertex 20.0163 8.61628 -0.005
      vertex 26.4 0 -0.005
    endloop
  endfacet
  facet normal 0 0 -1
    outer loop
      vertex 20.0163 8.61628 -0.005
      vertex 20.0681 8.57654 -0.005
      vertex 26.4 0 -0.005
    endloop
  endfacet
  facet normal 0 0 -1
    outer loop
      vertex 20.5765 8.29282 -0.005
      vertex 26.4 0 -0.005
      vertex 20.3354 8.39269 -0.005
    endloop
  endfacet
  facet normal 0 0 -1
    outer loop
      vertex 20.2751 8.41767 -0.005
      vertex 20.3354 8.39269 -0.005
      vertex 26.4 0 -0.005
    endloop
  endfacet
  facet normal 0 0 -1
    outer loop
      vertex 19.6928 9.82346 -0.005
      vertex 26.4 49.4 -0.005
      vertex 19.7927 10.0646 -0.005
    endloop
  endfacet
  facet normal -0 0 -1
    outer loop
      vertex 22.1412 9.56473 -0.005
      vertex 26.4 49.4 -0.005
      vertex 22.1498 9.5 -0.005
    endloop
  endfacet
  facet normal 0 0 -1
    outer loop
      vertex 20.5765 8.29282 -0.005
      vertex 20.6413 8.2843 -0.005
      vertex 26.4 0 -0.005
    endloop
  endfacet
  facet normal -0 0 -1
    outer loop
      vertex 20.9 10.7498 -0.005
      vertex 26.4 49.4 -0.005
      vertex 21.1587 10.7157 -0.005
    endloop
  endfacet
  facet normal 0 0 -1
    outer loop
      vertex 20.6413 8.2843 -0.005
      vertex 20.9 8.25023 -0.005
      vertex 26.4 0 -0.005
    endloop
  endfacet
  facet normal -0 0 -1
    outer loop
      vertex 20.9 8.25023 -0.005
      vertex 20.9647 8.25875 -0.005
      vertex 26.4 0 -0.005
    endloop
  endfacet
  facet normal -0 0 -1
    outer loop
      vertex 21.2235 10.7072 -0.005
      vertex 26.4 49.4 -0.005
      vertex 21.4646 10.6073 -0.005
    endloop
  endfacet
  facet normal -0 0 -1
    outer loop
      vertex 20.9647 8.25875 -0.005
      vertex 21.2235 8.29282 -0.005
      vertex 26.4 0 -0.005
    endloop
  endfacet
  facet normal -0 0 -1
    outer loop
      vertex 21.4646 10.6073 -0.005
      vertex 26.4 49.4 -0.005
      vertex 21.5249 10.5823 -0.005
    endloop
  endfacet
  facet normal -0 0 -1
    outer loop
      vertex 21.2235 8.29282 -0.005
      vertex 21.2838 8.3178 -0.005
      vertex 26.4 0 -0.005
    endloop
  endfacet
  facet normal -0 0 -1
    outer loop
      vertex 21.5249 10.5823 -0.005
      vertex 26.4 49.4 -0.005
      vertex 21.7319 10.4235 -0.005
    endloop
  endfacet
  facet normal -0 0 -1
    outer loop
      vertex 21.2838 8.3178 -0.005
      vertex 21.5249 8.41767 -0.005
      vertex 26.4 0 -0.005
    endloop
  endfacet
  facet normal -0 0 -1
    outer loop
      vertex 21.7319 10.4235 -0.005
      vertex 26.4 49.4 -0.005
      vertex 21.7837 10.3837 -0.005
    endloop
  endfacet
  facet normal -0 0 -1
    outer loop
      vertex 21.5249 8.41767 -0.005
      vertex 21.5767 8.45741 -0.005
      vertex 26.4 0 -0.005
    endloop
  endfacet
  facet normal -0 0 -1
    outer loop
      vertex 21.7837 10.3837 -0.005
      vertex 26.4 49.4 -0.005
      vertex 21.9426 10.1767 -0.005
    endloop
  endfacet
  facet normal -0 0 -1
    outer loop
      vertex 21.5767 8.45741 -0.005
      vertex 21.7837 8.61628 -0.005
      vertex 26.4 0 -0.005
    endloop
  endfacet
  facet normal -0 0 -1
    outer loop
      vertex 21.9426 10.1767 -0.005
      vertex 26.4 49.4 -0.005
      vertex 21.9823 10.1249 -0.005
    endloop
  endfacet
  facet normal -0 0 -1
    outer loop
      vertex 21.7837 8.61628 -0.005
      vertex 21.8235 8.66807 -0.005
      vertex 26.4 0 -0.005
    endloop
  endfacet
  facet normal -0 0 -1
    outer loop
      vertex 21.9823 10.1249 -0.005
      vertex 26.4 49.4 -0.005
      vertex 22.0822 9.88378 -0.005
    endloop
  endfacet
  facet normal -0 0 -1
    outer loop
      vertex 21.8235 8.66807 -0.005
      vertex 21.9823 8.87512 -0.005
      vertex 26.4 0 -0.005
    endloop
  endfacet
  facet normal -0 0 -1
    outer loop
      vertex 21.9823 8.87512 -0.005
      vertex 22.0073 8.93543 -0.005
      vertex 26.4 0 -0.005
    endloop
  endfacet
  facet normal -0 0 -1
    outer loop
      vertex 22.0822 9.88378 -0.005
      vertex 26.4 49.4 -0.005
      vertex 22.1072 9.82346 -0.005
    endloop
  endfacet
  facet normal -0 0 -1
    outer loop
      vertex 22.0073 8.93543 -0.005
      vertex 22.1072 9.17654 -0.005
      vertex 26.4 0 -0.005
    endloop
  endfacet
  facet normal -0 0 -1
    outer loop
      vertex 22.1072 9.17654 -0.005
      vertex 22.1157 9.24126 -0.005
      vertex 26.4 0 -0.005
    endloop
  endfacet
  facet normal -0 0 -1
    outer loop
      vertex 22.1157 9.24126 -0.005
      vertex 22.1498 9.5 -0.005
      vertex 26.4 0 -0.005
    endloop
  endfacet
  facet normal -0 0 -1
    outer loop
      vertex 22.1072 9.82346 -0.005
      vertex 26.4 49.4 -0.005
      vertex 22.1412 9.56473 -0.005
    endloop
  endfacet
  facet normal -0 0 -1
    outer loop
      vertex 21.1587 10.7157 -0.005
      vertex 26.4 49.4 -0.005
      vertex 21.2235 10.7072 -0.005
    endloop
  endfacet
  facet normal 0 0 -1
    outer loop
      vertex 20.8353 10.7412 -0.005
      vertex 26.4 49.4 -0.005
      vertex 20.9 10.7498 -0.005
    endloop
  endfacet
  facet normal 0 0 -1
    outer loop
      vertex 20.5765 10.7072 -0.005
      vertex 26.4 49.4 -0.005
      vertex 20.8353 10.7412 -0.005
    endloop
  endfacet
  facet normal 0 0 -1
    outer loop
      vertex 20.5162 10.6822 -0.005
      vertex 26.4 49.4 -0.005
      vertex 20.5765 10.7072 -0.005
    endloop
  endfacet
  facet normal 0 0 -1
    outer loop
      vertex 20.2751 10.5823 -0.005
      vertex 26.4 49.4 -0.005
      vertex 20.5162 10.6822 -0.005
    endloop
  endfacet
  facet normal 0 0 -1
    outer loop
      vertex 20.2233 10.5426 -0.005
      vertex 26.4 49.4 -0.005
      vertex 20.2751 10.5823 -0.005
    endloop
  endfacet
  facet normal 0 0 -1
    outer loop
      vertex 20.0163 10.3837 -0.005
      vertex 26.4 49.4 -0.005
      vertex 20.2233 10.5426 -0.005
    endloop
  endfacet
  facet normal 0 0 -1
    outer loop
      vertex 19.9765 10.3319 -0.005
      vertex 26.4 49.4 -0.005
      vertex 20.0163 10.3837 -0.005
    endloop
  endfacet
  facet normal 0 0 -1
    outer loop
      vertex 19.8177 10.1249 -0.005
      vertex 26.4 49.4 -0.005
      vertex 19.9765 10.3319 -0.005
    endloop
  endfacet
  facet normal 0 0 -1
    outer loop
      vertex 19.7927 10.0646 -0.005
      vertex 26.4 49.4 -0.005
      vertex 19.8177 10.1249 -0.005
    endloop
  endfacet
  facet normal 0 0 -1
    outer loop
      vertex 9.75 5 -0.005
      vertex 26.4 49.4 -0.005
      vertex 19.6928 9.82346 -0.005
    endloop
  endfacet
  facet normal 0 0 -1
    outer loop
      vertex 9.75 5 -0.005
      vertex 19.6928 9.82346 -0.005
      vertex 19.6502 9.5 -0.005
    endloop
  endfacet
  facet normal 0 0 -8.14165e-08
    outer loop
      vertex 19.6928 9.82346 -0.005
      vertex 19.6843 9.75874 -0.005
      vertex 19.6502 9.5 -0.005
    endloop
  endfacet
  facet normal 0 0 -1
    outer loop
      vertex 2.65 5 -0.005
      vertex -0.866025 -0.5 -0.005
      vertex 2.65 34.1 -0.005
    endloop
  endfacet
  facet normal 0 0 -1
    outer loop
      vertex 9.75 34.1 -0.005
      vertex 25.4 50.4 -0.005
      vertex 25.9 50.266 -0.005
    endloop
  endfacet
  facet normal 0 0 -1
    outer loop
      vertex 9.75 34.1 -0.005
      vertex 25.9 50.266 -0.005
      vertex 26.266 49.9 -0.005
    endloop
  endfacet
  facet normal 0 0 -1
    outer loop
      vertex 9.75 34.1 -0.005
      vertex 26.266 49.9 -0.005
      vertex 26.4 49.4 -0.005
    endloop
  endfacet
  facet normal -0 0 -1
    outer loop
      vertex 5.17668 43.8574 -0.005
      vertex 25.4 50.4 -0.005
      vertex 5.12488 43.8177 -0.005
    endloop
  endfacet
  facet normal -0.965926 0.25882 0
    outer loop
      vertex -1 49.4 -0.005
      vertex -1 49.4 13.15
      vertex -0.866025 49.9 -0.005
    endloop
  endfacet
  facet normal -0.965926 0.25882 0
    outer loop
      vertex -0.866025 49.9 -0.005
      vertex -1 49.4 13.15
      vertex -0.866025 49.9 13.15
    endloop
  endfacet
  facet normal 0 -0 1
    outer loop
      vertex -1 49.4 13.15
      vertex -1 40.4 13.15
      vertex -0.866025 39.9 13.15
    endloop
  endfacet
  facet normal 0 0 1
    outer loop
      vertex 0 39.4 13.15
      vertex -1 49.4 13.15
      vertex -0.5 39.534 13.15
    endloop
  endfacet
  facet normal 0 0 1
    outer loop
      vertex -0.5 39.534 13.15
      vertex -1 49.4 13.15
      vertex -0.866025 39.9 13.15
    endloop
  endfacet
  facet normal -0 0 1
    outer loop
      vertex 2.63705 44.8883 13.15
      vertex -1 49.4 13.15
      vertex 0 39.4 13.15
    endloop
  endfacet
  facet normal 0 0 1
    outer loop
      vertex 6.11469 45.8322 13.15
      vertex 6.29644 45.3935 13.15
      vertex 10 40.4 13.15
    endloop
  endfacet
  facet normal 0 -0 1
    outer loop
      vertex 9.86602 49.9 13.15
      vertex -1 49.4 13.15
      vertex 10 49.4 13.15
    endloop
  endfacet
  facet normal 0 -0 1
    outer loop
      vertex 9.5 50.266 13.15
      vertex -1 49.4 13.15
      vertex 9.86602 49.9 13.15
    endloop
  endfacet
  facet normal 0 -0 1
    outer loop
      vertex 9 50.4 13.15
      vertex -1 49.4 13.15
      vertex 9.5 50.266 13.15
    endloop
  endfacet
  facet normal 0 -0 1
    outer loop
      vertex 0 50.4 13.15
      vertex -1 49.4 13.15
      vertex 9 50.4 13.15
    endloop
  endfacet
  facet normal 0 -0 1
    outer loop
      vertex -0.5 50.266 13.15
      vertex -1 49.4 13.15
      vertex 0 50.4 13.15
    endloop
  endfacet
  facet normal 0 -0 1
    outer loop
      vertex -0.866025 49.9 13.15
      vertex -1 49.4 13.15
      vertex -0.5 50.266 13.15
    endloop
  endfacet
  facet normal -0 0 1
    outer loop
      vertex 2.69904 44.4174 13.15
      vertex 2.63705 44.8883 13.15
      vertex 0 39.4 13.15
    endloop
  endfacet
  facet normal -0 -0 1
    outer loop
      vertex 2.63551 44.9 13.15
      vertex -1 49.4 13.15
      vertex 2.63705 44.8883 13.15
    endloop
  endfacet
  facet normal -0 0 1
    outer loop
      vertex 2.69751 45.3709 13.15
      vertex -1 49.4 13.15
      vertex 2.63551 44.9 13.15
    endloop
  endfacet
  facet normal -0 0 1
    outer loop
      vertex 2.69904 45.3826 13.15
      vertex -1 49.4 13.15
      vertex 2.69751 45.3709 13.15
    endloop
  endfacet
  facet normal 0 0 1
    outer loop
      vertex 2.88531 45.8322 13.15
      vertex 3.17443 46.209 13.15
      vertex -1 49.4 13.15
    endloop
  endfacet
  facet normal -0 0 1
    outer loop
      vertex 2.88531 45.8322 13.15
      vertex -1 49.4 13.15
      vertex 2.88079 45.8213 13.15
    endloop
  endfacet
  facet normal 0 0 1
    outer loop
      vertex 6.30096 45.3826 13.15
      vertex 6.36295 44.9117 13.15
      vertex 10 40.4 13.15
    endloop
  endfacet
  facet normal -0 0 1
    outer loop
      vertex 3.18161 46.2184 13.15
      vertex -1 49.4 13.15
      vertex 3.17443 46.209 13.15
    endloop
  endfacet
  facet normal -0 0 1
    outer loop
      vertex 3.5584 46.5075 13.15
      vertex -1 49.4 13.15
      vertex 3.18161 46.2184 13.15
    endloop
  endfacet
  facet normal -0 0 1
    outer loop
      vertex 3.56776 46.5147 13.15
      vertex -1 49.4 13.15
      vertex 3.5584 46.5075 13.15
    endloop
  endfacet
  facet normal 0 0 1
    outer loop
      vertex 10 49.4 13.15
      vertex -1 49.4 13.15
      vertex 3.56776 46.5147 13.15
    endloop
  endfacet
  facet normal 0 0 1
    outer loop
      vertex 10 49.4 13.15
      vertex 4.00654 46.6964 13.15
      vertex 4.01744 46.701 13.15
    endloop
  endfacet
  facet normal 0 -0 1
    outer loop
      vertex 6.11469 43.9678 13.15
      vertex 5.82557 43.591 13.15
      vertex 10 40.4 13.15
    endloop
  endfacet
  facet normal 0 0 1
    outer loop
      vertex 5.81839 43.5816 13.15
      vertex 9.5 39.534 13.15
      vertex 9.86602 39.9 13.15
    endloop
  endfacet
  facet normal 0 0 1
    outer loop
      vertex 10 49.4 13.15
      vertex 4.48831 46.7629 13.15
      vertex 4.5 46.7645 13.15
    endloop
  endfacet
  facet normal 0 0 1
    outer loop
      vertex 10 49.4 13.15
      vertex 4.5 46.7645 13.15
      vertex 4.97087 46.7025 13.15
    endloop
  endfacet
  facet normal 0 -0 1
    outer loop
      vertex 6.36449 44.9 13.15
      vertex 6.30249 44.4291 13.15
      vertex 10 40.4 13.15
    endloop
  endfacet
  facet normal 0 0 1
    outer loop
      vertex 10 49.4 13.15
      vertex 4.97087 46.7025 13.15
      vertex 4.98256 46.701 13.15
    endloop
  endfacet
  facet normal 0 -0 1
    outer loop
      vertex 5.81839 43.5816 13.15
      vertex 5.4416 43.2925 13.15
      vertex 9.5 39.534 13.15
    endloop
  endfacet
  facet normal 0 0 1
    outer loop
      vertex 10 49.4 13.15
      vertex 4.98256 46.701 13.15
      vertex 5.42135 46.5192 13.15
    endloop
  endfacet
  facet normal 0 0 1
    outer loop
      vertex 10 49.4 13.15
      vertex 5.42135 46.5192 13.15
      vertex 5.43224 46.5147 13.15
    endloop
  endfacet
  facet normal 0 0 1
    outer loop
      vertex 10 49.4 13.15
      vertex 5.43224 46.5147 13.15
      vertex 5.80904 46.2256 13.15
    endloop
  endfacet
  facet normal 0 0 1
    outer loop
      vertex 10 49.4 13.15
      vertex 5.80904 46.2256 13.15
      vertex 5.81839 46.2184 13.15
    endloop
  endfacet
  facet normal 0 0 1
    outer loop
      vertex 10 49.4 13.15
      vertex 5.81839 46.2184 13.15
      vertex 6.10751 45.8416 13.15
    endloop
  endfacet
  facet normal 0 0 1
    outer loop
      vertex 10 49.4 13.15
      vertex 6.11469 45.8322 13.15
      vertex 10 40.4 13.15
    endloop
  endfacet
  facet normal 0 0 1
    outer loop
      vertex 10 49.4 13.15
      vertex 6.10751 45.8416 13.15
      vertex 6.11469 45.8322 13.15
    endloop
  endfacet
  facet normal 0 0 1
    outer loop
      vertex 6.29644 45.3935 13.15
      vertex 6.30096 45.3826 13.15
      vertex 10 40.4 13.15
    endloop
  endfacet
  facet normal 0 0 1
    outer loop
      vertex 6.36295 44.9117 13.15
      vertex 6.36449 44.9 13.15
      vertex 10 40.4 13.15
    endloop
  endfacet
  facet normal 0 -0 1
    outer loop
      vertex 6.30249 44.4291 13.15
      vertex 6.30096 44.4174 13.15
      vertex 10 40.4 13.15
    endloop
  endfacet
  facet normal 0 -0 1
    outer loop
      vertex 6.30096 44.4174 13.15
      vertex 6.11921 43.9787 13.15
      vertex 10 40.4 13.15
    endloop
  endfacet
  facet normal 0 -0 1
    outer loop
      vertex 6.11921 43.9787 13.15
      vertex 6.11469 43.9678 13.15
      vertex 10 40.4 13.15
    endloop
  endfacet
  facet normal -0 0 1
    outer loop
      vertex 10 40.4 13.15
      vertex 5.82557 43.591 13.15
      vertex 9.86602 39.9 13.15
    endloop
  endfacet
  facet normal 0 0 1
    outer loop
      vertex 3.56776 46.5147 13.15
      vertex 4.00654 46.6964 13.15
      vertex 10 49.4 13.15
    endloop
  endfacet
  facet normal 0 -0 1
    outer loop
      vertex 5.82557 43.591 13.15
      vertex 5.81839 43.5816 13.15
      vertex 9.86602 39.9 13.15
    endloop
  endfacet
  facet normal 0 0 1
    outer loop
      vertex 4.01744 46.701 13.15
      vertex 4.48831 46.7629 13.15
      vertex 10 49.4 13.15
    endloop
  endfacet
  facet normal -0 0 1
    outer loop
      vertex 9.5 39.534 13.15
      vertex 5.4416 43.2925 13.15
      vertex 9 39.4 13.15
    endloop
  endfacet
  facet normal 0 -0 1
    outer loop
      vertex 5.4416 43.2925 13.15
      vertex 5.43224 43.2853 13.15
      vertex 9 39.4 13.15
    endloop
  endfacet
  facet normal 0 -0 1
    outer loop
      vertex 5.43224 43.2853 13.15
      vertex 4.99346 43.1036 13.15
      vertex 9 39.4 13.15
    endloop
  endfacet
  facet normal 0 0 1
    outer loop
      vertex 9 39.4 13.15
      vertex 4.99346 43.1036 13.15
      vertex 4.98256 43.099 13.15
    endloop
  endfacet
  facet normal -0 0 1
    outer loop
      vertex 9 39.4 13.15
      vertex 4.51169 43.0371 13.15
      vertex 0 39.4 13.15
    endloop
  endfacet
  facet normal 0 0 1
    outer loop
      vertex 4.51169 43.0371 13.15
      vertex 4.5 43.0355 13.15
      vertex 0 39.4 13.15
    endloop
  endfacet
  facet normal -0 0 1
    outer loop
      vertex 4.5 43.0355 13.15
      vertex 4.02913 43.0975 13.15
      vertex 0 39.4 13.15
    endloop
  endfacet
  facet normal -0 0 1
    outer loop
      vertex 4.02913 43.0975 13.15
      vertex 4.01744 43.099 13.15
      vertex 0 39.4 13.15
    endloop
  endfacet
  facet normal -0 0 1
    outer loop
      vertex 4.01744 43.099 13.15
      vertex 3.57865 43.2808 13.15
      vertex 0 39.4 13.15
    endloop
  endfacet
  facet normal -0 0 1
    outer loop
      vertex 3.57865 43.2808 13.15
      vertex 3.56776 43.2853 13.15
      vertex 0 39.4 13.15
    endloop
  endfacet
  facet normal -0 0 1
    outer loop
      vertex 3.56776 43.2853 13.15
      vertex 3.19096 43.5744 13.15
      vertex 0 39.4 13.15
    endloop
  endfacet
  facet normal -0 0 1
    outer loop
      vertex 3.19096 43.5744 13.15
      vertex 3.18161 43.5816 13.15
      vertex 0 39.4 13.15
    endloop
  endfacet
  facet normal -0 0 1
    outer loop
      vertex 3.18161 43.5816 13.15
      vertex 2.89249 43.9584 13.15
      vertex 0 39.4 13.15
    endloop
  endfacet
  facet normal -0 0 1
    outer loop
      vertex 2.89249 43.9584 13.15
      vertex 2.88531 43.9678 13.15
      vertex 0 39.4 13.15
    endloop
  endfacet
  facet normal -0 0 1
    outer loop
      vertex 2.88531 43.9678 13.15
      vertex 2.70356 44.4065 13.15
      vertex 0 39.4 13.15
    endloop
  endfacet
  facet normal -0 0 1
    outer loop
      vertex 2.70356 44.4065 13.15
      vertex 2.69904 44.4174 13.15
      vertex 0 39.4 13.15
    endloop
  endfacet
  facet normal 0 -0 1
    outer loop
      vertex 4.98256 43.099 13.15
      vertex 4.51169 43.0371 13.15
      vertex 9 39.4 13.15
    endloop
  endfacet
  facet normal 0 0 1
    outer loop
      vertex 2.69904 45.3826 13.15
      vertex 2.88079 45.8213 13.15
      vertex -1 49.4 13.15
    endloop
  endfacet
  facet normal -0.965926 -0.25882 -0
    outer loop
      vertex -1 40.4 3.005
      vertex -0.866025 39.9 3.005
      vertex -1 40.4 13.15
    endloop
  endfacet
  facet normal -0.965926 -0.25882 0
    outer loop
      vertex -1 40.4 13.15
      vertex -0.866025 39.9 3.005
      vertex -0.866025 39.9 13.15
    endloop
  endfacet
  facet normal 0 -0 1
    outer loop
      vertex -1 40.4 3.005
      vertex -1 0 3.005
      vertex -0.866025 -0.5 3.005
    endloop
  endfacet
  facet normal 0 0 1
    outer loop
      vertex 0 -1 3.005
      vertex -1 40.4 3.005
      vertex -0.5 -0.866025 3.005
    endloop
  endfacet
  facet normal 0 0 1
    outer loop
      vertex -0.5 -0.866025 3.005
      vertex -1 40.4 3.005
      vertex -0.866025 -0.5 3.005
    endloop
  endfacet
  facet normal -0 -0 1
    outer loop
      vertex -0.866025 39.9 3.005
      vertex -1 40.4 3.005
      vertex 0 -1 3.005
    endloop
  endfacet
  facet normal 0 0 1
    outer loop
      vertex 9.75 34.1 3.005
      vertex 15.4 5 3.005
      vertex 15.4 14 3.005
    endloop
  endfacet
  facet normal 0 0 1
    outer loop
      vertex 10 49.4 3.005
      vertex 25.9 50.266 3.005
      vertex 25.4 50.4 3.005
    endloop
  endfacet
  facet normal 0 0 1
    outer loop
      vertex 26.4 5 3.005
      vertex 26.266 4.5 3.005
      vertex 26.4 0 3.005
    endloop
  endfacet
  facet normal 0 0 1
    outer loop
      vertex 10 49.4 3.005
      vertex 26.266 49.9 3.005
      vertex 25.9 50.266 3.005
    endloop
  endfacet
  facet normal 0 -0 1
    outer loop
      vertex 26.266 4.5 3.005
      vertex 25.9 4.13397 3.005
      vertex 26.4 0 3.005
    endloop
  endfacet
  facet normal 0 0 1
    outer loop
      vertex 10 49.4 3.005
      vertex 26.4 49.4 3.005
      vertex 26.266 49.9 3.005
    endloop
  endfacet
  facet normal 0 -0 1
    outer loop
      vertex 25.9 4.13397 3.005
      vertex 25.4 4 3.005
      vertex 26.4 0 3.005
    endloop
  endfacet
  facet normal 0 -0 1
    outer loop
      vertex 10 49.4 3.005
      vertex 10 40.4 3.005
      vertex 26.4 49.4 3.005
    endloop
  endfacet
  facet normal -0 0 1
    outer loop
      vertex 25.4 -1 3.005
      vertex 16.4 4 3.005
      vertex 0 -1 3.005
    endloop
  endfacet
  facet normal -0 0 1
    outer loop
      vertex 16.4 4 3.005
      vertex 15.9 4.13397 3.005
      vertex 0 -1 3.005
    endloop
  endfacet
  facet normal -0 0 1
    outer loop
      vertex 15.9 4.13397 3.005
      vertex 15.534 4.5 3.005
      vertex 0 -1 3.005
    endloop
  endfacet
  facet normal 0 0 1
    outer loop
      vertex 2.65 5 3.005
      vertex 2.65 34.1 3.005
      vertex -0.5 39.534 3.005
    endloop
  endfacet
  facet normal 0 0 1
    outer loop
      vertex 9.75 34.1 3.005
      vertex 16.4 15 3.005
      vertex 25.4 15 3.005
    endloop
  endfacet
  facet normal 0 0 1
    outer loop
      vertex 2.65 34.1 3.005
      vertex 9.75 34.1 3.005
      vertex 0 39.4 3.005
    endloop
  endfacet
  facet normal 0 0 1
    outer loop
      vertex 2.65 34.1 3.005
      vertex 0 39.4 3.005
      vertex -0.5 39.534 3.005
    endloop
  endfacet
  facet normal 0 -0 1
    outer loop
      vertex 15.4 5 3.005
      vertex 9.75 5 3.005
      vertex 15.534 4.5 3.005
    endloop
  endfacet
  facet normal 0 -0 1
    outer loop
      vertex 9.75 34.1 3.005
      vertex 9.75 5 3.005
      vertex 15.4 5 3.005
    endloop
  endfacet
  facet normal 0 0 1
    outer loop
      vertex 26.4 49.4 3.005
      vertex 25.9 14.866 3.005
      vertex 26.266 14.5 3.005
    endloop
  endfacet
  facet normal 0 0 1
    outer loop
      vertex 26.4 49.4 3.005
      vertex 26.266 14.5 3.005
      vertex 26.4 14 3.005
    endloop
  endfacet
  facet normal 0 0 1
    outer loop
      vertex 9.75 34.1 3.005
      vertex 25.4 15 3.005
      vertex 25.9 14.866 3.005
    endloop
  endfacet
  facet normal 0 -0 1
    outer loop
      vertex 9 39.4 3.005
      vertex 0 39.4 3.005
      vertex 9.75 34.1 3.005
    endloop
  endfacet
  facet normal 0 0 1
    outer loop
      vertex 9 50.4 3.005
      vertex 9.5 50.266 3.005
      vertex 25.4 50.4 3.005
    endloop
  endfacet
  facet normal 0 0 1
    outer loop
      vertex 9.5 50.266 3.005
      vertex 9.86602 49.9 3.005
      vertex 25.4 50.4 3.005
    endloop
  endfacet
  facet normal 0 0 1
    outer loop
      vertex 9.86602 49.9 3.005
      vertex 10 49.4 3.005
      vertex 25.4 50.4 3.005
    endloop
  endfacet
  facet normal 0 0 1
    outer loop
      vertex 26.4 49.4 3.005
      vertex 10 40.4 3.005
      vertex 25.9 14.866 3.005
    endloop
  endfacet
  facet normal 0 -0 1
    outer loop
      vertex 10 40.4 3.005
      vertex 9.86602 39.9 3.005
      vertex 25.9 14.866 3.005
    endloop
  endfacet
  facet normal 0 -0 1
    outer loop
      vertex 9.86602 39.9 3.005
      vertex 9.5 39.534 3.005
      vertex 25.9 14.866 3.005
    endloop
  endfacet
  facet normal 0 -0 1
    outer loop
      vertex 9.5 39.534 3.005
      vertex 9 39.4 3.005
      vertex 25.9 14.866 3.005
    endloop
  endfacet
  facet normal -0 0 1
    outer loop
      vertex 2.65 5 3.005
      vertex -0.866025 39.9 3.005
      vertex 0 -1 3.005
    endloop
  endfacet
  facet normal -0 0 1
    outer loop
      vertex 15.534 4.5 3.005
      vertex 2.65 5 3.005
      vertex 0 -1 3.005
    endloop
  endfacet
  facet normal 0 0 1
    outer loop
      vertex 9 39.4 3.005
      vertex 9.75 34.1 3.005
      vertex 25.9 14.866 3.005
    endloop
  endfacet
  facet normal 0 0 1
    outer loop
      vertex 15.534 4.5 3.005
      vertex 9.75 5 3.005
      vertex 2.65 5 3.005
    endloop
  endfacet
  facet normal 0 0 1
    outer loop
      vertex 9.75 34.1 3.005
      vertex 15.4 14 3.005
      vertex 15.534 14.5 3.005
    endloop
  endfacet
  facet normal 0 0 1
    outer loop
      vertex 9.75 34.1 3.005
      vertex 15.9 14.866 3.005
      vertex 16.4 15 3.005
    endloop
  endfacet
  facet normal 0 0 1
    outer loop
      vertex 9.75 34.1 3.005
      vertex 15.534 14.5 3.005
      vertex 15.9 14.866 3.005
    endloop
  endfacet
  facet normal 0 0 1
    outer loop
      vertex 2.65 5 3.005
      vertex -0.5 39.534 3.005
      vertex -0.866025 39.9 3.005
    endloop
  endfacet
  facet normal 0 0 1
    outer loop
      vertex 25.4 4 3.005
      vertex 26.266 -0.5 3.005
      vertex 26.4 0 3.005
    endloop
  endfacet
  facet normal 0 0 1
    outer loop
      vertex 25.4 4 3.005
      vertex 25.9 -0.866025 3.005
      vertex 26.266 -0.5 3.005
    endloop
  endfacet
  facet normal 0 -0 1
    outer loop
      vertex 25.4 4 3.005
      vertex 25.4 -1 3.005
      vertex 25.9 -0.866025 3.005
    endloop
  endfacet
  facet normal 0 0 1
    outer loop
      vertex 25.4 4 3.005
      vertex 16.4 4 3.005
      vertex 25.4 -1 3.005
    endloop
  endfacet
  facet normal -0.707107 -0.707107 0
    outer loop
      vertex -0.866025 -0.5 3.005
      vertex -0.866025 -0.5 -0.005
      vertex -0.5 -0.866025 -0.005
    endloop
  endfacet
  facet normal -0.707107 -0.707107 0
    outer loop
      vertex -0.5 -0.866025 3.005
      vertex -0.866025 -0.5 3.005
      vertex -0.5 -0.866025 -0.005
    endloop
  endfacet
  facet normal -0.25882 -0.965926 0
    outer loop
      vertex -0.5 -0.866025 3.005
      vertex -0.5 -0.866025 -0.005
      vertex 0 -1 -0.005
    endloop
  endfacet
  facet normal -0.25882 -0.965926 0
    outer loop
      vertex 0 -1 3.005
      vertex -0.5 -0.866025 3.005
      vertex 0 -1 -0.005
    endloop
  endfacet
  facet normal 0 -1 0
    outer loop
      vertex 0 -1 3.005
      vertex 0 -1 -0.005
      vertex 25.4 -1 -0.005
    endloop
  endfacet
  facet normal 0 -1 0
    outer loop
      vertex 25.4 -1 3.005
      vertex 0 -1 3.005
      vertex 25.4 -1 -0.005
    endloop
  endfacet
  facet normal 0.25882 -0.965926 0
    outer loop
      vertex 25.4 -1 3.005
      vertex 25.4 -1 -0.005
      vertex 25.9 -0.866025 -0.005
    endloop
  endfacet
  facet normal 0.25882 -0.965926 0
    outer loop
      vertex 25.9 -0.866025 3.005
      vertex 25.4 -1 3.005
      vertex 25.9 -0.866025 -0.005
    endloop
  endfacet
  facet normal 0.707107 -0.707107 0
    outer loop
      vertex 25.9 -0.866025 3.005
      vertex 25.9 -0.866025 -0.005
      vertex 26.266 -0.5 -0.005
    endloop
  endfacet
  facet normal 0.707107 -0.707107 0
    outer loop
      vertex 26.266 -0.5 3.005
      vertex 25.9 -0.866025 3.005
      vertex 26.266 -0.5 -0.005
    endloop
  endfacet
  facet normal 0.965926 -0.25882 0
    outer loop
      vertex 26.266 -0.5 3.005
      vertex 26.266 -0.5 -0.005
      vertex 26.4 0 -0.005
    endloop
  endfacet
  facet normal 0.965926 -0.25882 0
    outer loop
      vertex 26.4 0 3.005
      vertex 26.266 -0.5 3.005
      vertex 26.4 0 -0.005
    endloop
  endfacet
  facet normal 1 0 -0
    outer loop
      vertex 26.4 0 3.005
      vertex 26.4 0 -0.005
      vertex 26.4 49.4 -0.005
    endloop
  endfacet
  facet normal 1 0 -0
    outer loop
      vertex 26.4 5 3.005
      vertex 26.4 0 3.005
      vertex 26.4 49.4 -0.005
    endloop
  endfacet
  facet normal 1 0 -0
    outer loop
      vertex 26.4 14 3.005
      vertex 26.4 5 3.005
      vertex 26.4 49.4 -0.005
    endloop
  endfacet
  facet normal 1 0 0
    outer loop
      vertex 26.4 49.4 3.005
      vertex 26.4 14 3.005
      vertex 26.4 49.4 -0.005
    endloop
  endfacet
  facet normal 1 0 0
    outer loop
      vertex 26.4 14 13.15
      vertex 26.4 5 3.005
      vertex 26.4 14 3.005
    endloop
  endfacet
  facet normal 1 0 -0
    outer loop
      vertex 26.4 5 13.15
      vertex 26.4 5 3.005
      vertex 26.4 14 13.15
    endloop
  endfacet
  facet normal 0.965926 0.25882 0
    outer loop
      vertex 26.4 49.4 -0.005
      vertex 26.266 49.9 -0.005
      vertex 26.266 49.9 3.005
    endloop
  endfacet
  facet normal 0.965926 0.25882 -0
    outer loop
      vertex 26.4 49.4 3.005
      vertex 26.4 49.4 -0.005
      vertex 26.266 49.9 3.005
    endloop
  endfacet
  facet normal 0.707107 0.707107 0
    outer loop
      vertex 25.9 50.266 -0.005
      vertex 25.9 50.266 3.005
      vertex 26.266 49.9 -0.005
    endloop
  endfacet
  facet normal 0.707107 0.707107 0
    outer loop
      vertex 26.266 49.9 -0.005
      vertex 25.9 50.266 3.005
      vertex 26.266 49.9 3.005
    endloop
  endfacet
  facet normal 0.25882 0.965926 0
    outer loop
      vertex 25.4 50.4 -0.005
      vertex 25.4 50.4 3.005
      vertex 25.9 50.266 -0.005
    endloop
  endfacet
  facet normal 0.25882 0.965926 0
    outer loop
      vertex 25.9 50.266 -0.005
      vertex 25.4 50.4 3.005
      vertex 25.9 50.266 3.005
    endloop
  endfacet
  facet normal 0 1 0
    outer loop
      vertex 25.4 50.4 3.005
      vertex 25.4 50.4 -0.005
      vertex 9 50.4 3.005
    endloop
  endfacet
  facet normal 0 1 0
    outer loop
      vertex 0 50.4 -0.005
      vertex 0 50.4 13.15
      vertex 9 50.4 3.005
    endloop
  endfacet
  facet normal 0 1 0
    outer loop
      vertex 0 50.4 -0.005
      vertex 9 50.4 3.005
      vertex 25.4 50.4 -0.005
    endloop
  endfacet
  facet normal 0 1 0
    outer loop
      vertex 9 50.4 3.005
      vertex 0 50.4 13.15
      vertex 9 50.4 13.15
    endloop
  endfacet
  facet normal -0.25882 0.965926 0
    outer loop
      vertex -0.5 50.266 -0.005
      vertex -0.5 50.266 13.15
      vertex 0 50.4 -0.005
    endloop
  endfacet
  facet normal -0.25882 0.965926 0
    outer loop
      vertex 0 50.4 -0.005
      vertex -0.5 50.266 13.15
      vertex 0 50.4 13.15
    endloop
  endfacet
  facet normal -0.707107 0.707107 0
    outer loop
      vertex -0.866025 49.9 -0.005
      vertex -0.866025 49.9 13.15
      vertex -0.5 50.266 -0.005
    endloop
  endfacet
  facet normal -0.707107 0.707107 0
    outer loop
      vertex -0.5 50.266 -0.005
      vertex -0.866025 49.9 13.15
      vertex -0.5 50.266 13.15
    endloop
  endfacet
  facet normal 1 0 0
    outer loop
      vertex 2.65 34.1 -0.005
      vertex 2.65 34.1 3.005
      vertex 2.65 5 3.005
    endloop
  endfacet
  facet normal 1 0 0
    outer loop
      vertex 2.65 5 -0.005
      vertex 2.65 34.1 -0.005
      vertex 2.65 5 3.005
    endloop
  endfacet
  facet normal 0 -1 0
    outer loop
      vertex 9.75 34.1 -0.005
      vertex 9.75 34.1 3.005
      vertex 2.65 34.1 3.005
    endloop
  endfacet
  facet normal -0 -1 -0
    outer loop
      vertex 2.65 34.1 -0.005
      vertex 9.75 34.1 -0.005
      vertex 2.65 34.1 3.005
    endloop
  endfacet
  facet normal -1 0 0
    outer loop
      vertex 9.75 34.1 3.005
      vertex 9.75 34.1 -0.005
      vertex 9.75 5 3.005
    endloop
  endfacet
  facet normal -1 0 0
    outer loop
      vertex 9.75 5 3.005
      vertex 9.75 34.1 -0.005
      vertex 9.75 5 -0.005
    endloop
  endfacet
  facet normal 0 1 0
    outer loop
      vertex 9.75 5 3.005
      vertex 9.75 5 -0.005
      vertex 2.65 5 3.005
    endloop
  endfacet
  facet normal 0 1 -0
    outer loop
      vertex 2.65 5 3.005
      vertex 9.75 5 -0.005
      vertex 2.65 5 -0.005
    endloop
  endfacet
  facet normal 0.990383 -0.130386 0.0462796
    outer loop
      vertex 3.25023 44.9 -0.005
      vertex 3.2843 45.1587 -0.005
      vertex 2.69751 45.3709 13.15
    endloop
  endfacet
  facet normal 0.990383 -0.130386 0.0462796
    outer loop
      vertex 2.63551 44.9 13.15
      vertex 3.25023 44.9 -0.005
      vertex 2.69751 45.3709 13.15
    endloop
  endfacet
  facet normal 0.990383 0.130385 0.0462796
    outer loop
      vertex 2.63705 44.8883 13.15
      vertex 3.25875 44.8353 -0.005
      vertex 3.25023 44.9 -0.005
    endloop
  endfacet
  facet normal 0.990383 0.130385 0.0462796
    outer loop
      vertex 2.63551 44.9 13.15
      vertex 2.63705 44.8883 13.15
      vertex 3.25023 44.9 -0.005
    endloop
  endfacet
  facet normal 0.990383 -0.130385 0.0462796
    outer loop
      vertex 3.2843 45.1587 -0.005
      vertex 3.29282 45.2235 -0.005
      vertex 2.69904 45.3826 13.15
    endloop
  endfacet
  facet normal 0.990383 -0.130385 0.0462796
    outer loop
      vertex 2.69751 45.3709 13.15
      vertex 3.2843 45.1587 -0.005
      vertex 2.69904 45.3826 13.15
    endloop
  endfacet
  facet normal 0.92289 -0.382274 0.0462796
    outer loop
      vertex 3.29282 45.2235 -0.005
      vertex 3.39269 45.4646 -0.005
      vertex 2.88079 45.8213 13.15
    endloop
  endfacet
  facet normal 0.92289 -0.382274 0.0462796
    outer loop
      vertex 2.69904 45.3826 13.15
      vertex 3.29282 45.2235 -0.005
      vertex 2.88079 45.8213 13.15
    endloop
  endfacet
  facet normal 0.92289 -0.382273 0.0462796
    outer loop
      vertex 3.39269 45.4646 -0.005
      vertex 3.41767 45.5249 -0.005
      vertex 2.88531 45.8322 13.15
    endloop
  endfacet
  facet normal 0.92289 -0.382273 0.0462796
    outer loop
      vertex 2.88079 45.8213 13.15
      vertex 3.39269 45.4646 -0.005
      vertex 2.88531 45.8322 13.15
    endloop
  endfacet
  facet normal 0.792504 -0.608108 0.0462796
    outer loop
      vertex 3.41767 45.5249 -0.005
      vertex 3.57654 45.7319 -0.005
      vertex 3.17443 46.209 13.15
    endloop
  endfacet
  facet normal 0.792504 -0.608108 0.0462796
    outer loop
      vertex 2.88531 45.8322 13.15
      vertex 3.41767 45.5249 -0.005
      vertex 3.17443 46.209 13.15
    endloop
  endfacet
  facet normal 0.7925 -0.608114 0.0462796
    outer loop
      vertex 3.57654 45.7319 -0.005
      vertex 3.61628 45.7837 -0.005
      vertex 3.18161 46.2184 13.15
    endloop
  endfacet
  facet normal 0.7925 -0.608114 0.0462796
    outer loop
      vertex 3.17443 46.209 13.15
      vertex 3.57654 45.7319 -0.005
      vertex 3.18161 46.2184 13.15
    endloop
  endfacet
  facet normal 0.608108 -0.792504 0.0462796
    outer loop
      vertex 3.61628 45.7837 -0.005
      vertex 3.82332 45.9426 -0.005
      vertex 3.5584 46.5075 13.15
    endloop
  endfacet
  facet normal 0.608108 -0.792504 0.0462796
    outer loop
      vertex 3.18161 46.2184 13.15
      vertex 3.61628 45.7837 -0.005
      vertex 3.5584 46.5075 13.15
    endloop
  endfacet
  facet normal 0.608114 -0.7925 0.0462795
    outer loop
      vertex 3.82332 45.9426 -0.005
      vertex 3.87512 45.9823 -0.005
      vertex 3.56776 46.5147 13.15
    endloop
  endfacet
  facet normal 0.608114 -0.7925 0.0462795
    outer loop
      vertex 3.5584 46.5075 13.15
      vertex 3.82332 45.9426 -0.005
      vertex 3.56776 46.5147 13.15
    endloop
  endfacet
  facet normal 0.382274 -0.92289 0.0462796
    outer loop
      vertex 3.87512 45.9823 -0.005
      vertex 4.11622 46.0822 -0.005
      vertex 4.00654 46.6964 13.15
    endloop
  endfacet
  facet normal 0.382274 -0.92289 0.0462796
    outer loop
      vertex 3.56776 46.5147 13.15
      vertex 3.87512 45.9823 -0.005
      vertex 4.00654 46.6964 13.15
    endloop
  endfacet
  facet normal 0.382273 -0.92289 0.0462796
    outer loop
      vertex 4.11622 46.0822 -0.005
      vertex 4.17654 46.1072 -0.005
      vertex 4.01744 46.701 13.15
    endloop
  endfacet
  facet normal 0.382273 -0.92289 0.0462796
    outer loop
      vertex 4.00654 46.6964 13.15
      vertex 4.11622 46.0822 -0.005
      vertex 4.01744 46.701 13.15
    endloop
  endfacet
  facet normal 0.130386 -0.990383 0.0462796
    outer loop
      vertex 4.17654 46.1072 -0.005
      vertex 4.43527 46.1412 -0.005
      vertex 4.48831 46.7629 13.15
    endloop
  endfacet
  facet normal 0.130386 -0.990383 0.0462796
    outer loop
      vertex 4.01744 46.701 13.15
      vertex 4.17654 46.1072 -0.005
      vertex 4.48831 46.7629 13.15
    endloop
  endfacet
  facet normal 0.130385 -0.990383 0.0462796
    outer loop
      vertex 4.5 46.1498 -0.005
      vertex 4.5 46.7645 13.15
      vertex 4.48831 46.7629 13.15
    endloop
  endfacet
  facet normal 0.130385 -0.990383 0.0462796
    outer loop
      vertex 4.43527 46.1412 -0.005
      vertex 4.5 46.1498 -0.005
      vertex 4.48831 46.7629 13.15
    endloop
  endfacet
  facet normal -0.130386 -0.990383 0.0462796
    outer loop
      vertex 4.75874 46.1157 -0.005
      vertex 4.97087 46.7025 13.15
      vertex 4.5 46.7645 13.15
    endloop
  endfacet
  facet normal -0.130386 -0.990383 0.0462796
    outer loop
      vertex 4.5 46.1498 -0.005
      vertex 4.75874 46.1157 -0.005
      vertex 4.5 46.7645 13.15
    endloop
  endfacet
  facet normal -0.130385 -0.990383 0.0462796
    outer loop
      vertex 4.82346 46.1072 -0.005
      vertex 4.98256 46.701 13.15
      vertex 4.97087 46.7025 13.15
    endloop
  endfacet
  facet normal -0.130385 -0.990383 0.0462796
    outer loop
      vertex 4.75874 46.1157 -0.005
      vertex 4.82346 46.1072 -0.005
      vertex 4.97087 46.7025 13.15
    endloop
  endfacet
  facet normal -0.382274 -0.92289 0.0462796
    outer loop
      vertex 5.06457 46.0073 -0.005
      vertex 5.42135 46.5192 13.15
      vertex 4.98256 46.701 13.15
    endloop
  endfacet
  facet normal -0.382274 -0.92289 0.0462796
    outer loop
      vertex 4.82346 46.1072 -0.005
      vertex 5.06457 46.0073 -0.005
      vertex 4.98256 46.701 13.15
    endloop
  endfacet
  facet normal -0.382273 -0.92289 0.0462796
    outer loop
      vertex 5.12488 45.9823 -0.005
      vertex 5.43224 46.5147 13.15
      vertex 5.42135 46.5192 13.15
    endloop
  endfacet
  facet normal -0.382273 -0.92289 0.0462796
    outer loop
      vertex 5.06457 46.0073 -0.005
      vertex 5.12488 45.9823 -0.005
      vertex 5.42135 46.5192 13.15
    endloop
  endfacet
  facet normal -0.608108 -0.792504 0.0462796
    outer loop
      vertex 5.33193 45.8235 -0.005
      vertex 5.80904 46.2256 13.15
      vertex 5.43224 46.5147 13.15
    endloop
  endfacet
  facet normal -0.608108 -0.792504 0.0462796
    outer loop
      vertex 5.12488 45.9823 -0.005
      vertex 5.33193 45.8235 -0.005
      vertex 5.43224 46.5147 13.15
    endloop
  endfacet
  facet normal -0.608114 -0.7925 0.0462796
    outer loop
      vertex 5.38372 45.7837 -0.005
      vertex 5.81839 46.2184 13.15
      vertex 5.80904 46.2256 13.15
    endloop
  endfacet
  facet normal -0.608114 -0.7925 0.0462796
    outer loop
      vertex 5.33193 45.8235 -0.005
      vertex 5.38372 45.7837 -0.005
      vertex 5.80904 46.2256 13.15
    endloop
  endfacet
  facet normal -0.792504 -0.608108 0.0462796
    outer loop
      vertex 6.10751 45.8416 13.15
      vertex 5.81839 46.2184 13.15
      vertex 5.54259 45.5767 -0.005
    endloop
  endfacet
  facet normal -0.792504 -0.608108 0.0462796
    outer loop
      vertex 5.54259 45.5767 -0.005
      vertex 5.81839 46.2184 13.15
      vertex 5.38372 45.7837 -0.005
    endloop
  endfacet
  facet normal -0.7925 -0.608114 0.0462795
    outer loop
      vertex 6.11469 45.8322 13.15
      vertex 6.10751 45.8416 13.15
      vertex 5.58233 45.5249 -0.005
    endloop
  endfacet
  facet normal -0.7925 -0.608114 0.0462795
    outer loop
      vertex 5.58233 45.5249 -0.005
      vertex 6.10751 45.8416 13.15
      vertex 5.54259 45.5767 -0.005
    endloop
  endfacet
  facet normal -0.92289 -0.382274 0.0462796
    outer loop
      vertex 6.29644 45.3935 13.15
      vertex 6.11469 45.8322 13.15
      vertex 5.6822 45.2838 -0.005
    endloop
  endfacet
  facet normal -0.92289 -0.382274 0.0462796
    outer loop
      vertex 5.6822 45.2838 -0.005
      vertex 6.11469 45.8322 13.15
      vertex 5.58233 45.5249 -0.005
    endloop
  endfacet
  facet normal -0.92289 -0.382273 0.0462796
    outer loop
      vertex 6.30096 45.3826 13.15
      vertex 6.29644 45.3935 13.15
      vertex 5.70718 45.2235 -0.005
    endloop
  endfacet
  facet normal -0.92289 -0.382273 0.0462796
    outer loop
      vertex 5.70718 45.2235 -0.005
      vertex 6.29644 45.3935 13.15
      vertex 5.6822 45.2838 -0.005
    endloop
  endfacet
  facet normal -0.990383 -0.130386 0.0462796
    outer loop
      vertex 6.36295 44.9117 13.15
      vertex 6.30096 45.3826 13.15
      vertex 5.74125 44.9647 -0.005
    endloop
  endfacet
  facet normal -0.990383 -0.130386 0.0462796
    outer loop
      vertex 5.74125 44.9647 -0.005
      vertex 6.30096 45.3826 13.15
      vertex 5.70718 45.2235 -0.005
    endloop
  endfacet
  facet normal -0.990383 -0.130385 0.0462796
    outer loop
      vertex 6.36449 44.9 13.15
      vertex 6.36295 44.9117 13.15
      vertex 5.74977 44.9 -0.005
    endloop
  endfacet
  facet normal -0.990383 -0.130385 0.0462796
    outer loop
      vertex 5.74977 44.9 -0.005
      vertex 6.36295 44.9117 13.15
      vertex 5.74125 44.9647 -0.005
    endloop
  endfacet
  facet normal -0.990383 0.130386 0.0462796
    outer loop
      vertex 6.36449 44.9 13.15
      vertex 5.74977 44.9 -0.005
      vertex 6.30249 44.4291 13.15
    endloop
  endfacet
  facet normal -0.990383 0.130386 0.0462796
    outer loop
      vertex 6.30249 44.4291 13.15
      vertex 5.74977 44.9 -0.005
      vertex 5.7157 44.6413 -0.005
    endloop
  endfacet
  facet normal -0.990383 0.130385 0.0462796
    outer loop
      vertex 6.30249 44.4291 13.15
      vertex 5.7157 44.6413 -0.005
      vertex 6.30096 44.4174 13.15
    endloop
  endfacet
  facet normal -0.990383 0.130385 0.0462796
    outer loop
      vertex 6.30096 44.4174 13.15
      vertex 5.7157 44.6413 -0.005
      vertex 5.70718 44.5765 -0.005
    endloop
  endfacet
  facet normal -0.92289 0.382274 0.0462796
    outer loop
      vertex 6.30096 44.4174 13.15
      vertex 5.70718 44.5765 -0.005
      vertex 6.11921 43.9787 13.15
    endloop
  endfacet
  facet normal -0.92289 0.382274 0.0462796
    outer loop
      vertex 6.11921 43.9787 13.15
      vertex 5.70718 44.5765 -0.005
      vertex 5.60731 44.3354 -0.005
    endloop
  endfacet
  facet normal -0.92289 0.382273 0.0462796
    outer loop
      vertex 6.11921 43.9787 13.15
      vertex 5.60731 44.3354 -0.005
      vertex 6.11469 43.9678 13.15
    endloop
  endfacet
  facet normal -0.92289 0.382273 0.0462796
    outer loop
      vertex 6.11469 43.9678 13.15
      vertex 5.60731 44.3354 -0.005
      vertex 5.58233 44.2751 -0.005
    endloop
  endfacet
  facet normal -0.792504 0.608108 0.0462796
    outer loop
      vertex 6.11469 43.9678 13.15
      vertex 5.58233 44.2751 -0.005
      vertex 5.82557 43.591 13.15
    endloop
  endfacet
  facet normal -0.792504 0.608108 0.0462796
    outer loop
      vertex 5.82557 43.591 13.15
      vertex 5.58233 44.2751 -0.005
      vertex 5.42346 44.0681 -0.005
    endloop
  endfacet
  facet normal -0.7925 0.608114 0.0462796
    outer loop
      vertex 5.82557 43.591 13.15
      vertex 5.42346 44.0681 -0.005
      vertex 5.81839 43.5816 13.15
    endloop
  endfacet
  facet normal -0.7925 0.608114 0.0462796
    outer loop
      vertex 5.81839 43.5816 13.15
      vertex 5.42346 44.0681 -0.005
      vertex 5.38372 44.0163 -0.005
    endloop
  endfacet
  facet normal -0.608108 0.792504 0.0462796
    outer loop
      vertex 5.81839 43.5816 13.15
      vertex 5.38372 44.0163 -0.005
      vertex 5.4416 43.2925 13.15
    endloop
  endfacet
  facet normal -0.608108 0.792504 0.0462796
    outer loop
      vertex 5.4416 43.2925 13.15
      vertex 5.38372 44.0163 -0.005
      vertex 5.17668 43.8574 -0.005
    endloop
  endfacet
  facet normal -0.608114 0.7925 0.0462795
    outer loop
      vertex 5.4416 43.2925 13.15
      vertex 5.17668 43.8574 -0.005
      vertex 5.43224 43.2853 13.15
    endloop
  endfacet
  facet normal -0.608114 0.7925 0.0462795
    outer loop
      vertex 5.43224 43.2853 13.15
      vertex 5.17668 43.8574 -0.005
      vertex 5.12488 43.8177 -0.005
    endloop
  endfacet
  facet normal -0.382274 0.92289 0.0462796
    outer loop
      vertex 5.43224 43.2853 13.15
      vertex 5.12488 43.8177 -0.005
      vertex 4.99346 43.1036 13.15
    endloop
  endfacet
  facet normal -0.382274 0.92289 0.0462796
    outer loop
      vertex 4.99346 43.1036 13.15
      vertex 5.12488 43.8177 -0.005
      vertex 4.88378 43.7178 -0.005
    endloop
  endfacet
  facet normal -0.382273 0.92289 0.0462796
    outer loop
      vertex 4.99346 43.1036 13.15
      vertex 4.88378 43.7178 -0.005
      vertex 4.98256 43.099 13.15
    endloop
  endfacet
  facet normal -0.382273 0.92289 0.0462796
    outer loop
      vertex 4.98256 43.099 13.15
      vertex 4.88378 43.7178 -0.005
      vertex 4.82346 43.6928 -0.005
    endloop
  endfacet
  facet normal -0.130386 0.990383 0.0462796
    outer loop
      vertex 4.82346 43.6928 -0.005
      vertex 4.56473 43.6588 -0.005
      vertex 4.98256 43.099 13.15
    endloop
  endfacet
  facet normal -0.130386 0.990383 0.0462796
    outer loop
      vertex 4.98256 43.099 13.15
      vertex 4.56473 43.6588 -0.005
      vertex 4.51169 43.0371 13.15
    endloop
  endfacet
  facet normal -0.130385 0.990383 0.0462796
    outer loop
      vertex 4.56473 43.6588 -0.005
      vertex 4.5 43.6502 -0.005
      vertex 4.51169 43.0371 13.15
    endloop
  endfacet
  facet normal -0.130385 0.990383 0.0462796
    outer loop
      vertex 4.51169 43.0371 13.15
      vertex 4.5 43.6502 -0.005
      vertex 4.5 43.0355 13.15
    endloop
  endfacet
  facet normal 0.130386 0.990383 0.0462796
    outer loop
      vertex 4.5 43.6502 -0.005
      vertex 4.24126 43.6843 -0.005
      vertex 4.5 43.0355 13.15
    endloop
  endfacet
  facet normal 0.130386 0.990383 0.0462796
    outer loop
      vertex 4.5 43.0355 13.15
      vertex 4.24126 43.6843 -0.005
      vertex 4.02913 43.0975 13.15
    endloop
  endfacet
  facet normal 0.130385 0.990383 0.0462796
    outer loop
      vertex 4.24126 43.6843 -0.005
      vertex 4.17654 43.6928 -0.005
      vertex 4.02913 43.0975 13.15
    endloop
  endfacet
  facet normal 0.130385 0.990383 0.0462796
    outer loop
      vertex 4.02913 43.0975 13.15
      vertex 4.17654 43.6928 -0.005
      vertex 4.01744 43.099 13.15
    endloop
  endfacet
  facet normal 0.382274 0.92289 0.0462796
    outer loop
      vertex 4.17654 43.6928 -0.005
      vertex 3.93543 43.7927 -0.005
      vertex 4.01744 43.099 13.15
    endloop
  endfacet
  facet normal 0.382274 0.92289 0.0462796
    outer loop
      vertex 4.01744 43.099 13.15
      vertex 3.93543 43.7927 -0.005
      vertex 3.57865 43.2808 13.15
    endloop
  endfacet
  facet normal 0.382273 0.92289 0.0462796
    outer loop
      vertex 3.93543 43.7927 -0.005
      vertex 3.87512 43.8177 -0.005
      vertex 3.57865 43.2808 13.15
    endloop
  endfacet
  facet normal 0.382273 0.92289 0.0462796
    outer loop
      vertex 3.57865 43.2808 13.15
      vertex 3.87512 43.8177 -0.005
      vertex 3.56776 43.2853 13.15
    endloop
  endfacet
  facet normal 0.608108 0.792504 0.0462796
    outer loop
      vertex 3.87512 43.8177 -0.005
      vertex 3.66807 43.9765 -0.005
      vertex 3.56776 43.2853 13.15
    endloop
  endfacet
  facet normal 0.608108 0.792504 0.0462796
    outer loop
      vertex 3.56776 43.2853 13.15
      vertex 3.66807 43.9765 -0.005
      vertex 3.19096 43.5744 13.15
    endloop
  endfacet
  facet normal 0.608114 0.7925 0.0462796
    outer loop
      vertex 3.66807 43.9765 -0.005
      vertex 3.61628 44.0163 -0.005
      vertex 3.19096 43.5744 13.15
    endloop
  endfacet
  facet normal 0.608114 0.7925 0.0462796
    outer loop
      vertex 3.19096 43.5744 13.15
      vertex 3.61628 44.0163 -0.005
      vertex 3.18161 43.5816 13.15
    endloop
  endfacet
  facet normal 0.792504 0.608108 0.0462796
    outer loop
      vertex 3.18161 43.5816 13.15
      vertex 3.61628 44.0163 -0.005
      vertex 3.45741 44.2233 -0.005
    endloop
  endfacet
  facet normal 0.792504 0.608108 0.0462796
    outer loop
      vertex 2.89249 43.9584 13.15
      vertex 3.18161 43.5816 13.15
      vertex 3.45741 44.2233 -0.005
    endloop
  endfacet
  facet normal 0.7925 0.608114 0.0462795
    outer loop
      vertex 2.89249 43.9584 13.15
      vertex 3.45741 44.2233 -0.005
      vertex 3.41767 44.2751 -0.005
    endloop
  endfacet
  facet normal 0.7925 0.608114 0.0462795
    outer loop
      vertex 2.88531 43.9678 13.15
      vertex 2.89249 43.9584 13.15
      vertex 3.41767 44.2751 -0.005
    endloop
  endfacet
  facet normal 0.92289 0.382274 0.0462796
    outer loop
      vertex 2.88531 43.9678 13.15
      vertex 3.41767 44.2751 -0.005
      vertex 3.3178 44.5162 -0.005
    endloop
  endfacet
  facet normal 0.92289 0.382274 0.0462796
    outer loop
      vertex 2.70356 44.4065 13.15
      vertex 2.88531 43.9678 13.15
      vertex 3.3178 44.5162 -0.005
    endloop
  endfacet
  facet normal 0.92289 0.382273 0.0462796
    outer loop
      vertex 2.70356 44.4065 13.15
      vertex 3.3178 44.5162 -0.005
      vertex 3.29282 44.5765 -0.005
    endloop
  endfacet
  facet normal 0.92289 0.382273 0.0462796
    outer loop
      vertex 2.69904 44.4174 13.15
      vertex 2.70356 44.4065 13.15
      vertex 3.29282 44.5765 -0.005
    endloop
  endfacet
  facet normal 0.990383 0.130386 0.0462796
    outer loop
      vertex 2.69904 44.4174 13.15
      vertex 3.29282 44.5765 -0.005
      vertex 3.25875 44.8353 -0.005
    endloop
  endfacet
  facet normal 0.990383 0.130386 0.0462796
    outer loop
      vertex 2.63705 44.8883 13.15
      vertex 2.69904 44.4174 13.15
      vertex 3.25875 44.8353 -0.005
    endloop
  endfacet
  facet normal 0.990383 -0.130386 0.0462796
    outer loop
      vertex 19.6502 9.5 -0.005
      vertex 19.6843 9.75874 -0.005
      vertex 19.0975 9.97087 13.15
    endloop
  endfacet
  facet normal 0.990383 -0.130386 0.0462796
    outer loop
      vertex 19.0355 9.5 13.15
      vertex 19.6502 9.5 -0.005
      vertex 19.0975 9.97087 13.15
    endloop
  endfacet
  facet normal 0.990383 0.130385 0.0462796
    outer loop
      vertex 19.0371 9.48831 13.15
      vertex 19.6588 9.43527 -0.005
      vertex 19.6502 9.5 -0.005
    endloop
  endfacet
  facet normal 0.990383 0.130385 0.0462796
    outer loop
      vertex 19.0355 9.5 13.15
      vertex 19.0371 9.48831 13.15
      vertex 19.6502 9.5 -0.005
    endloop
  endfacet
  facet normal 0.990383 -0.130385 0.0462796
    outer loop
      vertex 19.6843 9.75874 -0.005
      vertex 19.6928 9.82346 -0.005
      vertex 19.099 9.98256 13.15
    endloop
  endfacet
  facet normal 0.990383 -0.130385 0.0462796
    outer loop
      vertex 19.0975 9.97087 13.15
      vertex 19.6843 9.75874 -0.005
      vertex 19.099 9.98256 13.15
    endloop
  endfacet
  facet normal 0.92289 -0.382274 0.0462796
    outer loop
      vertex 19.6928 9.82346 -0.005
      vertex 19.7927 10.0646 -0.005
      vertex 19.2808 10.4213 13.15
    endloop
  endfacet
  facet normal 0.92289 -0.382274 0.0462796
    outer loop
      vertex 19.099 9.98256 13.15
      vertex 19.6928 9.82346 -0.005
      vertex 19.2808 10.4213 13.15
    endloop
  endfacet
  facet normal 0.92289 -0.382273 0.0462796
    outer loop
      vertex 19.7927 10.0646 -0.005
      vertex 19.8177 10.1249 -0.005
      vertex 19.2853 10.4322 13.15
    endloop
  endfacet
  facet normal 0.92289 -0.382273 0.0462796
    outer loop
      vertex 19.2808 10.4213 13.15
      vertex 19.7927 10.0646 -0.005
      vertex 19.2853 10.4322 13.15
    endloop
  endfacet
  facet normal 0.792504 -0.608108 0.0462796
    outer loop
      vertex 19.8177 10.1249 -0.005
      vertex 19.9765 10.3319 -0.005
      vertex 19.5744 10.809 13.15
    endloop
  endfacet
  facet normal 0.792504 -0.608108 0.0462796
    outer loop
      vertex 19.2853 10.4322 13.15
      vertex 19.8177 10.1249 -0.005
      vertex 19.5744 10.809 13.15
    endloop
  endfacet
  facet normal 0.7925 -0.608114 0.0462796
    outer loop
      vertex 19.9765 10.3319 -0.005
      vertex 20.0163 10.3837 -0.005
      vertex 19.5816 10.8184 13.15
    endloop
  endfacet
  facet normal 0.7925 -0.608114 0.0462796
    outer loop
      vertex 19.5744 10.809 13.15
      vertex 19.9765 10.3319 -0.005
      vertex 19.5816 10.8184 13.15
    endloop
  endfacet
  facet normal 0.608108 -0.792504 0.0462796
    outer loop
      vertex 20.0163 10.3837 -0.005
      vertex 20.2233 10.5426 -0.005
      vertex 19.9584 11.1075 13.15
    endloop
  endfacet
  facet normal 0.608108 -0.792504 0.0462796
    outer loop
      vertex 19.5816 10.8184 13.15
      vertex 20.0163 10.3837 -0.005
      vertex 19.9584 11.1075 13.15
    endloop
  endfacet
  facet normal 0.608114 -0.7925 0.0462795
    outer loop
      vertex 20.2233 10.5426 -0.005
      vertex 20.2751 10.5823 -0.005
      vertex 19.9678 11.1147 13.15
    endloop
  endfacet
  facet normal 0.608114 -0.7925 0.0462795
    outer loop
      vertex 19.9584 11.1075 13.15
      vertex 20.2233 10.5426 -0.005
      vertex 19.9678 11.1147 13.15
    endloop
  endfacet
  facet normal 0.382274 -0.92289 0.0462796
    outer loop
      vertex 20.2751 10.5823 -0.005
      vertex 20.5162 10.6822 -0.005
      vertex 20.4065 11.2964 13.15
    endloop
  endfacet
  facet normal 0.382274 -0.92289 0.0462796
    outer loop
      vertex 19.9678 11.1147 13.15
      vertex 20.2751 10.5823 -0.005
      vertex 20.4065 11.2964 13.15
    endloop
  endfacet
  facet normal 0.382273 -0.92289 0.0462796
    outer loop
      vertex 20.5162 10.6822 -0.005
      vertex 20.5765 10.7072 -0.005
      vertex 20.4174 11.301 13.15
    endloop
  endfacet
  facet normal 0.382273 -0.92289 0.0462796
    outer loop
      vertex 20.4065 11.2964 13.15
      vertex 20.5162 10.6822 -0.005
      vertex 20.4174 11.301 13.15
    endloop
  endfacet
  facet normal 0.130386 -0.990383 0.0462796
    outer loop
      vertex 20.5765 10.7072 -0.005
      vertex 20.8353 10.7412 -0.005
      vertex 20.8883 11.3629 13.15
    endloop
  endfacet
  facet normal 0.130386 -0.990383 0.0462796
    outer loop
      vertex 20.4174 11.301 13.15
      vertex 20.5765 10.7072 -0.005
      vertex 20.8883 11.3629 13.15
    endloop
  endfacet
  facet normal 0.130385 -0.990383 0.0462796
    outer loop
      vertex 20.9 10.7498 -0.005
      vertex 20.9 11.3645 13.15
      vertex 20.8883 11.3629 13.15
    endloop
  endfacet
  facet normal 0.130385 -0.990383 0.0462796
    outer loop
      vertex 20.8353 10.7412 -0.005
      vertex 20.9 10.7498 -0.005
      vertex 20.8883 11.3629 13.15
    endloop
  endfacet
  facet normal -0.130386 -0.990383 0.0462796
    outer loop
      vertex 21.1587 10.7157 -0.005
      vertex 21.3709 11.3025 13.15
      vertex 20.9 11.3645 13.15
    endloop
  endfacet
  facet normal -0.130386 -0.990383 0.0462796
    outer loop
      vertex 20.9 10.7498 -0.005
      vertex 21.1587 10.7157 -0.005
      vertex 20.9 11.3645 13.15
    endloop
  endfacet
  facet normal -0.130385 -0.990383 0.0462796
    outer loop
      vertex 21.2235 10.7072 -0.005
      vertex 21.3826 11.301 13.15
      vertex 21.3709 11.3025 13.15
    endloop
  endfacet
  facet normal -0.130385 -0.990383 0.0462796
    outer loop
      vertex 21.1587 10.7157 -0.005
      vertex 21.2235 10.7072 -0.005
      vertex 21.3709 11.3025 13.15
    endloop
  endfacet
  facet normal -0.382274 -0.92289 0.0462796
    outer loop
      vertex 21.4646 10.6073 -0.005
      vertex 21.8213 11.1192 13.15
      vertex 21.3826 11.301 13.15
    endloop
  endfacet
  facet normal -0.382274 -0.92289 0.0462796
    outer loop
      vertex 21.2235 10.7072 -0.005
      vertex 21.4646 10.6073 -0.005
      vertex 21.3826 11.301 13.15
    endloop
  endfacet
  facet normal -0.382273 -0.92289 0.0462796
    outer loop
      vertex 21.5249 10.5823 -0.005
      vertex 21.8322 11.1147 13.15
      vertex 21.8213 11.1192 13.15
    endloop
  endfacet
  facet normal -0.382273 -0.92289 0.0462796
    outer loop
      vertex 21.4646 10.6073 -0.005
      vertex 21.5249 10.5823 -0.005
      vertex 21.8213 11.1192 13.15
    endloop
  endfacet
  facet normal -0.608108 -0.792504 0.0462796
    outer loop
      vertex 21.7319 10.4235 -0.005
      vertex 22.209 10.8256 13.15
      vertex 21.8322 11.1147 13.15
    endloop
  endfacet
  facet normal -0.608108 -0.792504 0.0462796
    outer loop
      vertex 21.5249 10.5823 -0.005
      vertex 21.7319 10.4235 -0.005
      vertex 21.8322 11.1147 13.15
    endloop
  endfacet
  facet normal -0.608114 -0.7925 0.0462796
    outer loop
      vertex 21.7837 10.3837 -0.005
      vertex 22.2184 10.8184 13.15
      vertex 22.209 10.8256 13.15
    endloop
  endfacet
  facet normal -0.608114 -0.7925 0.0462796
    outer loop
      vertex 21.7319 10.4235 -0.005
      vertex 21.7837 10.3837 -0.005
      vertex 22.209 10.8256 13.15
    endloop
  endfacet
  facet normal -0.792504 -0.608108 0.0462796
    outer loop
      vertex 22.5075 10.4416 13.15
      vertex 22.2184 10.8184 13.15
      vertex 21.9426 10.1767 -0.005
    endloop
  endfacet
  facet normal -0.792504 -0.608108 0.0462796
    outer loop
      vertex 21.9426 10.1767 -0.005
      vertex 22.2184 10.8184 13.15
      vertex 21.7837 10.3837 -0.005
    endloop
  endfacet
  facet normal -0.7925 -0.608114 0.0462795
    outer loop
      vertex 22.5147 10.4322 13.15
      vertex 22.5075 10.4416 13.15
      vertex 21.9823 10.1249 -0.005
    endloop
  endfacet
  facet normal -0.7925 -0.608114 0.0462795
    outer loop
      vertex 21.9823 10.1249 -0.005
      vertex 22.5075 10.4416 13.15
      vertex 21.9426 10.1767 -0.005
    endloop
  endfacet
  facet normal -0.92289 -0.382274 0.0462796
    outer loop
      vertex 22.6964 9.99346 13.15
      vertex 22.5147 10.4322 13.15
      vertex 22.0822 9.88378 -0.005
    endloop
  endfacet
  facet normal -0.92289 -0.382274 0.0462796
    outer loop
      vertex 22.0822 9.88378 -0.005
      vertex 22.5147 10.4322 13.15
      vertex 21.9823 10.1249 -0.005
    endloop
  endfacet
  facet normal -0.92289 -0.382273 0.0462796
    outer loop
      vertex 22.701 9.98256 13.15
      vertex 22.6964 9.99346 13.15
      vertex 22.1072 9.82346 -0.005
    endloop
  endfacet
  facet normal -0.92289 -0.382273 0.0462796
    outer loop
      vertex 22.1072 9.82346 -0.005
      vertex 22.6964 9.99346 13.15
      vertex 22.0822 9.88378 -0.005
    endloop
  endfacet
  facet normal -0.990383 -0.130386 0.0462796
    outer loop
      vertex 22.7629 9.51169 13.15
      vertex 22.701 9.98256 13.15
      vertex 22.1412 9.56473 -0.005
    endloop
  endfacet
  facet normal -0.990383 -0.130386 0.0462796
    outer loop
      vertex 22.1412 9.56473 -0.005
      vertex 22.701 9.98256 13.15
      vertex 22.1072 9.82346 -0.005
    endloop
  endfacet
  facet normal -0.990383 -0.130385 0.0462796
    outer loop
      vertex 22.7645 9.5 13.15
      vertex 22.7629 9.51169 13.15
      vertex 22.1498 9.5 -0.005
    endloop
  endfacet
  facet normal -0.990383 -0.130385 0.0462796
    outer loop
      vertex 22.1498 9.5 -0.005
      vertex 22.7629 9.51169 13.15
      vertex 22.1412 9.56473 -0.005
    endloop
  endfacet
  facet normal -0.990383 0.130386 0.0462796
    outer loop
      vertex 22.7645 9.5 13.15
      vertex 22.1498 9.5 -0.005
      vertex 22.7025 9.02913 13.15
    endloop
  endfacet
  facet normal -0.990383 0.130386 0.0462796
    outer loop
      vertex 22.7025 9.02913 13.15
      vertex 22.1498 9.5 -0.005
      vertex 22.1157 9.24126 -0.005
    endloop
  endfacet
  facet normal -0.990383 0.130385 0.0462796
    outer loop
      vertex 22.7025 9.02913 13.15
      vertex 22.1157 9.24126 -0.005
      vertex 22.701 9.01744 13.15
    endloop
  endfacet
  facet normal -0.990383 0.130385 0.0462796
    outer loop
      vertex 22.701 9.01744 13.15
      vertex 22.1157 9.24126 -0.005
      vertex 22.1072 9.17654 -0.005
    endloop
  endfacet
  facet normal -0.92289 0.382274 0.0462796
    outer loop
      vertex 22.701 9.01744 13.15
      vertex 22.1072 9.17654 -0.005
      vertex 22.5192 8.57865 13.15
    endloop
  endfacet
  facet normal -0.92289 0.382274 0.0462796
    outer loop
      vertex 22.5192 8.57865 13.15
      vertex 22.1072 9.17654 -0.005
      vertex 22.0073 8.93543 -0.005
    endloop
  endfacet
  facet normal -0.92289 0.382273 0.0462796
    outer loop
      vertex 22.5192 8.57865 13.15
      vertex 22.0073 8.93543 -0.005
      vertex 22.5147 8.56776 13.15
    endloop
  endfacet
  facet normal -0.92289 0.382273 0.0462796
    outer loop
      vertex 22.5147 8.56776 13.15
      vertex 22.0073 8.93543 -0.005
      vertex 21.9823 8.87512 -0.005
    endloop
  endfacet
  facet normal -0.792504 0.608108 0.0462796
    outer loop
      vertex 22.5147 8.56776 13.15
      vertex 21.9823 8.87512 -0.005
      vertex 22.2256 8.19096 13.15
    endloop
  endfacet
  facet normal -0.792504 0.608108 0.0462796
    outer loop
      vertex 22.2256 8.19096 13.15
      vertex 21.9823 8.87512 -0.005
      vertex 21.8235 8.66807 -0.005
    endloop
  endfacet
  facet normal -0.7925 0.608114 0.0462796
    outer loop
      vertex 22.2256 8.19096 13.15
      vertex 21.8235 8.66807 -0.005
      vertex 22.2184 8.18161 13.15
    endloop
  endfacet
  facet normal -0.7925 0.608114 0.0462796
    outer loop
      vertex 22.2184 8.18161 13.15
      vertex 21.8235 8.66807 -0.005
      vertex 21.7837 8.61628 -0.005
    endloop
  endfacet
  facet normal -0.608108 0.792504 0.0462796
    outer loop
      vertex 22.2184 8.18161 13.15
      vertex 21.7837 8.61628 -0.005
      vertex 21.8416 7.89249 13.15
    endloop
  endfacet
  facet normal -0.608108 0.792504 0.0462796
    outer loop
      vertex 21.8416 7.89249 13.15
      vertex 21.7837 8.61628 -0.005
      vertex 21.5767 8.45741 -0.005
    endloop
  endfacet
  facet normal -0.608114 0.7925 0.0462795
    outer loop
      vertex 21.8416 7.89249 13.15
      vertex 21.5767 8.45741 -0.005
      vertex 21.8322 7.88531 13.15
    endloop
  endfacet
  facet normal -0.608114 0.7925 0.0462795
    outer loop
      vertex 21.8322 7.88531 13.15
      vertex 21.5767 8.45741 -0.005
      vertex 21.5249 8.41767 -0.005
    endloop
  endfacet
  facet normal -0.382274 0.92289 0.0462796
    outer loop
      vertex 21.8322 7.88531 13.15
      vertex 21.5249 8.41767 -0.005
      vertex 21.3935 7.70356 13.15
    endloop
  endfacet
  facet normal -0.382274 0.92289 0.0462796
    outer loop
      vertex 21.3935 7.70356 13.15
      vertex 21.5249 8.41767 -0.005
      vertex 21.2838 8.3178 -0.005
    endloop
  endfacet
  facet normal -0.382273 0.92289 0.0462796
    outer loop
      vertex 21.3935 7.70356 13.15
      vertex 21.2838 8.3178 -0.005
      vertex 21.3826 7.69904 13.15
    endloop
  endfacet
  facet normal -0.382273 0.92289 0.0462796
    outer loop
      vertex 21.3826 7.69904 13.15
      vertex 21.2838 8.3178 -0.005
      vertex 21.2235 8.29282 -0.005
    endloop
  endfacet
  facet normal -0.130386 0.990383 0.0462796
    outer loop
      vertex 21.2235 8.29282 -0.005
      vertex 20.9647 8.25875 -0.005
      vertex 21.3826 7.69904 13.15
    endloop
  endfacet
  facet normal -0.130386 0.990383 0.0462796
    outer loop
      vertex 21.3826 7.69904 13.15
      vertex 20.9647 8.25875 -0.005
      vertex 20.9117 7.63705 13.15
    endloop
  endfacet
  facet normal -0.130385 0.990383 0.0462796
    outer loop
      vertex 20.9647 8.25875 -0.005
      vertex 20.9 8.25023 -0.005
      vertex 20.9117 7.63705 13.15
    endloop
  endfacet
  facet normal -0.130385 0.990383 0.0462796
    outer loop
      vertex 20.9117 7.63705 13.15
      vertex 20.9 8.25023 -0.005
      vertex 20.9 7.63551 13.15
    endloop
  endfacet
  facet normal 0.130386 0.990383 0.0462796
    outer loop
      vertex 20.9 8.25023 -0.005
      vertex 20.6413 8.2843 -0.005
      vertex 20.9 7.63551 13.15
    endloop
  endfacet
  facet normal 0.130386 0.990383 0.0462796
    outer loop
      vertex 20.9 7.63551 13.15
      vertex 20.6413 8.2843 -0.005
      vertex 20.4291 7.69751 13.15
    endloop
  endfacet
  facet normal 0.130385 0.990383 0.0462796
    outer loop
      vertex 20.6413 8.2843 -0.005
      vertex 20.5765 8.29282 -0.005
      vertex 20.4291 7.69751 13.15
    endloop
  endfacet
  facet normal 0.130385 0.990383 0.0462796
    outer loop
      vertex 20.4291 7.69751 13.15
      vertex 20.5765 8.29282 -0.005
      vertex 20.4174 7.69904 13.15
    endloop
  endfacet
  facet normal 0.382274 0.92289 0.0462796
    outer loop
      vertex 20.5765 8.29282 -0.005
      vertex 20.3354 8.39269 -0.005
      vertex 20.4174 7.69904 13.15
    endloop
  endfacet
  facet normal 0.382274 0.92289 0.0462796
    outer loop
      vertex 20.4174 7.69904 13.15
      vertex 20.3354 8.39269 -0.005
      vertex 19.9787 7.88079 13.15
    endloop
  endfacet
  facet normal 0.382273 0.92289 0.0462796
    outer loop
      vertex 20.3354 8.39269 -0.005
      vertex 20.2751 8.41767 -0.005
      vertex 19.9787 7.88079 13.15
    endloop
  endfacet
  facet normal 0.382273 0.92289 0.0462796
    outer loop
      vertex 19.9787 7.88079 13.15
      vertex 20.2751 8.41767 -0.005
      vertex 19.9678 7.88531 13.15
    endloop
  endfacet
  facet normal 0.608108 0.792504 0.0462796
    outer loop
      vertex 20.2751 8.41767 -0.005
      vertex 20.0681 8.57654 -0.005
      vertex 19.9678 7.88531 13.15
    endloop
  endfacet
  facet normal 0.608108 0.792504 0.0462796
    outer loop
      vertex 19.9678 7.88531 13.15
      vertex 20.0681 8.57654 -0.005
      vertex 19.591 8.17443 13.15
    endloop
  endfacet
  facet normal 0.608114 0.7925 0.0462796
    outer loop
      vertex 20.0681 8.57654 -0.005
      vertex 20.0163 8.61628 -0.005
      vertex 19.591 8.17443 13.15
    endloop
  endfacet
  facet normal 0.608114 0.7925 0.0462796
    outer loop
      vertex 19.591 8.17443 13.15
      vertex 20.0163 8.61628 -0.005
      vertex 19.5816 8.18161 13.15
    endloop
  endfacet
  facet normal 0.792504 0.608108 0.0462796
    outer loop
      vertex 19.5816 8.18161 13.15
      vertex 20.0163 8.61628 -0.005
      vertex 19.8574 8.82332 -0.005
    endloop
  endfacet
  facet normal 0.792504 0.608108 0.0462796
    outer loop
      vertex 19.2925 8.5584 13.15
      vertex 19.5816 8.18161 13.15
      vertex 19.8574 8.82332 -0.005
    endloop
  endfacet
  facet normal 0.7925 0.608114 0.0462795
    outer loop
      vertex 19.2925 8.5584 13.15
      vertex 19.8574 8.82332 -0.005
      vertex 19.8177 8.87512 -0.005
    endloop
  endfacet
  facet normal 0.7925 0.608114 0.0462795
    outer loop
      vertex 19.2853 8.56776 13.15
      vertex 19.2925 8.5584 13.15
      vertex 19.8177 8.87512 -0.005
    endloop
  endfacet
  facet normal 0.92289 0.382274 0.0462796
    outer loop
      vertex 19.2853 8.56776 13.15
      vertex 19.8177 8.87512 -0.005
      vertex 19.7178 9.11622 -0.005
    endloop
  endfacet
  facet normal 0.92289 0.382274 0.0462796
    outer loop
      vertex 19.1036 9.00654 13.15
      vertex 19.2853 8.56776 13.15
      vertex 19.7178 9.11622 -0.005
    endloop
  endfacet
  facet normal 0.92289 0.382273 0.0462796
    outer loop
      vertex 19.1036 9.00654 13.15
      vertex 19.7178 9.11622 -0.005
      vertex 19.6928 9.17654 -0.005
    endloop
  endfacet
  facet normal 0.92289 0.382273 0.0462796
    outer loop
      vertex 19.099 9.01744 13.15
      vertex 19.1036 9.00654 13.15
      vertex 19.6928 9.17654 -0.005
    endloop
  endfacet
  facet normal 0.990383 0.130386 0.0462796
    outer loop
      vertex 19.099 9.01744 13.15
      vertex 19.6928 9.17654 -0.005
      vertex 19.6588 9.43527 -0.005
    endloop
  endfacet
  facet normal 0.990383 0.130386 0.0462796
    outer loop
      vertex 19.0371 9.48831 13.15
      vertex 19.099 9.01744 13.15
      vertex 19.6588 9.43527 -0.005
    endloop
  endfacet
  facet normal 0.25882 0.965926 0
    outer loop
      vertex 9 50.4 3.005
      vertex 9 50.4 13.15
      vertex 9.5 50.266 3.005
    endloop
  endfacet
  facet normal 0.25882 0.965926 0
    outer loop
      vertex 9.5 50.266 3.005
      vertex 9 50.4 13.15
      vertex 9.5 50.266 13.15
    endloop
  endfacet
  facet normal 0.707107 0.707107 0
    outer loop
      vertex 9.5 50.266 3.005
      vertex 9.5 50.266 13.15
      vertex 9.86602 49.9 3.005
    endloop
  endfacet
  facet normal 0.707107 0.707107 0
    outer loop
      vertex 9.86602 49.9 3.005
      vertex 9.5 50.266 13.15
      vertex 9.86602 49.9 13.15
    endloop
  endfacet
  facet normal 0.965926 0.25882 0
    outer loop
      vertex 10 49.4 3.005
      vertex 9.86602 49.9 3.005
      vertex 9.86602 49.9 13.15
    endloop
  endfacet
  facet normal 0.965926 0.25882 -0
    outer loop
      vertex 10 49.4 13.15
      vertex 10 49.4 3.005
      vertex 9.86602 49.9 13.15
    endloop
  endfacet
  facet normal 1 0 -0
    outer loop
      vertex 10 40.4 13.15
      vertex 10 40.4 3.005
      vertex 10 49.4 3.005
    endloop
  endfacet
  facet normal 1 0 0
    outer loop
      vertex 10 49.4 13.15
      vertex 10 40.4 13.15
      vertex 10 49.4 3.005
    endloop
  endfacet
  facet normal 0.965926 -0.25882 0
    outer loop
      vertex 9.86602 39.9 13.15
      vertex 9.86602 39.9 3.005
      vertex 10 40.4 3.005
    endloop
  endfacet
  facet normal 0.965926 -0.25882 0
    outer loop
      vertex 10 40.4 13.15
      vertex 9.86602 39.9 13.15
      vertex 10 40.4 3.005
    endloop
  endfacet
  facet normal 0.707107 -0.707107 0
    outer loop
      vertex 9.5 39.534 13.15
      vertex 9.5 39.534 3.005
      vertex 9.86602 39.9 3.005
    endloop
  endfacet
  facet normal 0.707107 -0.707107 0
    outer loop
      vertex 9.86602 39.9 13.15
      vertex 9.5 39.534 13.15
      vertex 9.86602 39.9 3.005
    endloop
  endfacet
  facet normal 0.25882 -0.965926 0
    outer loop
      vertex 9 39.4 13.15
      vertex 9 39.4 3.005
      vertex 9.5 39.534 3.005
    endloop
  endfacet
  facet normal 0.25882 -0.965926 0
    outer loop
      vertex 9.5 39.534 13.15
      vertex 9 39.4 13.15
      vertex 9.5 39.534 3.005
    endloop
  endfacet
  facet normal 0 -1 0
    outer loop
      vertex 0 39.4 13.15
      vertex 0 39.4 3.005
      vertex 9 39.4 3.005
    endloop
  endfacet
  facet normal 0 -1 0
    outer loop
      vertex 9 39.4 13.15
      vertex 0 39.4 13.15
      vertex 9 39.4 3.005
    endloop
  endfacet
  facet normal -0.25882 -0.965926 0
    outer loop
      vertex -0.5 39.534 13.15
      vertex -0.5 39.534 3.005
      vertex 0 39.4 3.005
    endloop
  endfacet
  facet normal -0.25882 -0.965926 0
    outer loop
      vertex 0 39.4 13.15
      vertex -0.5 39.534 13.15
      vertex 0 39.4 3.005
    endloop
  endfacet
  facet normal -0.707107 -0.707107 0
    outer loop
      vertex -0.866025 39.9 13.15
      vertex -0.866025 39.9 3.005
      vertex -0.5 39.534 3.005
    endloop
  endfacet
  facet normal -0.707107 -0.707107 0
    outer loop
      vertex -0.5 39.534 13.15
      vertex -0.866025 39.9 13.15
      vertex -0.5 39.534 3.005
    endloop
  endfacet
  facet normal 0.965926 0.25882 0
    outer loop
      vertex 26.4 14 3.005
      vertex 26.266 14.5 3.005
      vertex 26.266 14.5 13.15
    endloop
  endfacet
  facet normal 0.965926 0.25882 -0
    outer loop
      vertex 26.4 14 13.15
      vertex 26.4 14 3.005
      vertex 26.266 14.5 13.15
    endloop
  endfacet
  facet normal 0.707107 0.707107 0
    outer loop
      vertex 25.9 14.866 3.005
      vertex 25.9 14.866 13.15
      vertex 26.266 14.5 3.005
    endloop
  endfacet
  facet normal 0.707107 0.707107 0
    outer loop
      vertex 26.266 14.5 3.005
      vertex 25.9 14.866 13.15
      vertex 26.266 14.5 13.15
    endloop
  endfacet
  facet normal 0.25882 0.965926 0
    outer loop
      vertex 25.4 15 3.005
      vertex 25.4 15 13.15
      vertex 25.9 14.866 3.005
    endloop
  endfacet
  facet normal 0.25882 0.965926 0
    outer loop
      vertex 25.9 14.866 3.005
      vertex 25.4 15 13.15
      vertex 25.9 14.866 13.15
    endloop
  endfacet
  facet normal 0 1 0
    outer loop
      vertex 16.4 15 3.005
      vertex 16.4 15 13.15
      vertex 25.4 15 3.005
    endloop
  endfacet
  facet normal 0 1 0
    outer loop
      vertex 25.4 15 3.005
      vertex 16.4 15 13.15
      vertex 25.4 15 13.15
    endloop
  endfacet
  facet normal -0.25882 0.965926 0
    outer loop
      vertex 15.9 14.866 3.005
      vertex 15.9 14.866 13.15
      vertex 16.4 15 3.005
    endloop
  endfacet
  facet normal -0.25882 0.965926 0
    outer loop
      vertex 16.4 15 3.005
      vertex 15.9 14.866 13.15
      vertex 16.4 15 13.15
    endloop
  endfacet
  facet normal -0.707107 0.707107 0
    outer loop
      vertex 15.534 14.5 3.005
      vertex 15.534 14.5 13.15
      vertex 15.9 14.866 3.005
    endloop
  endfacet
  facet normal -0.707107 0.707107 0
    outer loop
      vertex 15.9 14.866 3.005
      vertex 15.534 14.5 13.15
      vertex 15.9 14.866 13.15
    endloop
  endfacet
  facet normal -0.965926 0.25882 0
    outer loop
      vertex 15.4 14 3.005
      vertex 15.4 14 13.15
      vertex 15.534 14.5 3.005
    endloop
  endfacet
  facet normal -0.965926 0.25882 0
    outer loop
      vertex 15.534 14.5 3.005
      vertex 15.4 14 13.15
      vertex 15.534 14.5 13.15
    endloop
  endfacet
  facet normal -1 -0 -0
    outer loop
      vertex 15.4 5 3.005
      vertex 15.4 5 13.15
      vertex 15.4 14 3.005
    endloop
  endfacet
  facet normal -1 0 0
    outer loop
      vertex 15.4 14 3.005
      vertex 15.4 5 13.15
      vertex 15.4 14 13.15
    endloop
  endfacet
  facet normal -0.965926 -0.25882 -0
    outer loop
      vertex 15.4 5 3.005
      vertex 15.534 4.5 3.005
      vertex 15.4 5 13.15
    endloop
  endfacet
  facet normal -0.965926 -0.25882 0
    outer loop
      vertex 15.4 5 13.15
      vertex 15.534 4.5 3.005
      vertex 15.534 4.5 13.15
    endloop
  endfacet
  facet normal -0.707107 -0.707107 0
    outer loop
      vertex 15.534 4.5 13.15
      vertex 15.534 4.5 3.005
      vertex 15.9 4.13397 3.005
    endloop
  endfacet
  facet normal -0.707107 -0.707107 0
    outer loop
      vertex 15.9 4.13397 13.15
      vertex 15.534 4.5 13.15
      vertex 15.9 4.13397 3.005
    endloop
  endfacet
  facet normal -0.25882 -0.965926 0
    outer loop
      vertex 15.9 4.13397 13.15
      vertex 15.9 4.13397 3.005
      vertex 16.4 4 3.005
    endloop
  endfacet
  facet normal -0.25882 -0.965926 0
    outer loop
      vertex 16.4 4 13.15
      vertex 15.9 4.13397 13.15
      vertex 16.4 4 3.005
    endloop
  endfacet
  facet normal 0 -1 0
    outer loop
      vertex 16.4 4 13.15
      vertex 16.4 4 3.005
      vertex 25.4 4 3.005
    endloop
  endfacet
  facet normal 0 -1 0
    outer loop
      vertex 25.4 4 13.15
      vertex 16.4 4 13.15
      vertex 25.4 4 3.005
    endloop
  endfacet
  facet normal 0.25882 -0.965926 0
    outer loop
      vertex 25.4 4 13.15
      vertex 25.4 4 3.005
      vertex 25.9 4.13397 3.005
    endloop
  endfacet
  facet normal 0.25882 -0.965926 0
    outer loop
      vertex 25.9 4.13397 13.15
      vertex 25.4 4 13.15
      vertex 25.9 4.13397 3.005
    endloop
  endfacet
  facet normal 0.707107 -0.707107 0
    outer loop
      vertex 25.9 4.13397 13.15
      vertex 25.9 4.13397 3.005
      vertex 26.266 4.5 3.005
    endloop
  endfacet
  facet normal 0.707107 -0.707107 0
    outer loop
      vertex 26.266 4.5 13.15
      vertex 25.9 4.13397 13.15
      vertex 26.266 4.5 3.005
    endloop
  endfacet
  facet normal 0.965926 -0.25882 0
    outer loop
      vertex 26.266 4.5 13.15
      vertex 26.266 4.5 3.005
      vertex 26.4 5 3.005
    endloop
  endfacet
  facet normal 0.965926 -0.25882 0
    outer loop
      vertex 26.4 5 13.15
      vertex 26.266 4.5 13.15
      vertex 26.4 5 3.005
    endloop
  endfacet
  facet normal 0 -0 1
    outer loop
      vertex 15.4 14 13.15
      vertex 15.4 5 13.15
      vertex 15.534 4.5 13.15
    endloop
  endfacet
  facet normal 0 0 1
    outer loop
      vertex 16.4 4 13.15
      vertex 15.4 14 13.15
      vertex 15.9 4.13397 13.15
    endloop
  endfacet
  facet normal 0 0 1
    outer loop
      vertex 15.9 4.13397 13.15
      vertex 15.4 14 13.15
      vertex 15.534 4.5 13.15
    endloop
  endfacet
  facet normal -0 0 1
    outer loop
      vertex 19.0371 9.48831 13.15
      vertex 15.4 14 13.15
      vertex 16.4 4 13.15
    endloop
  endfacet
  facet normal 0 0 1
    outer loop
      vertex 22.5147 10.4322 13.15
      vertex 22.6964 9.99346 13.15
      vertex 26.4 5 13.15
    endloop
  endfacet
  facet normal 0 -0 1
    outer loop
      vertex 26.266 14.5 13.15
      vertex 15.4 14 13.15
      vertex 26.4 14 13.15
    endloop
  endfacet
  facet normal 0 -0 1
    outer loop
      vertex 25.9 14.866 13.15
      vertex 15.4 14 13.15
      vertex 26.266 14.5 13.15
    endloop
  endfacet
  facet normal 0 -0 1
    outer loop
      vertex 25.4 15 13.15
      vertex 15.4 14 13.15
      vertex 25.9 14.866 13.15
    endloop
  endfacet
  facet normal 0 -0 1
    outer loop
      vertex 16.4 15 13.15
      vertex 15.4 14 13.15
      vertex 25.4 15 13.15
    endloop
  endfacet
  facet normal 0 -0 1
    outer loop
      vertex 15.9 14.866 13.15
      vertex 15.4 14 13.15
      vertex 16.4 15 13.15
    endloop
  endfacet
  facet normal 0 -0 1
    outer loop
      vertex 15.534 14.5 13.15
      vertex 15.4 14 13.15
      vertex 15.9 14.866 13.15
    endloop
  endfacet
  facet normal -0 0 1
    outer loop
      vertex 19.099 9.01744 13.15
      vertex 19.0371 9.48831 13.15
      vertex 16.4 4 13.15
    endloop
  endfacet
  facet normal -0 -0 1
    outer loop
      vertex 19.0355 9.5 13.15
      vertex 15.4 14 13.15
      vertex 19.0371 9.48831 13.15
    endloop
  endfacet
  facet normal -0 0 1
    outer loop
      vertex 19.0975 9.97087 13.15
      vertex 15.4 14 13.15
      vertex 19.0355 9.5 13.15
    endloop
  endfacet
  facet normal -0 0 1
    outer loop
      vertex 19.099 9.98256 13.15
      vertex 15.4 14 13.15
      vertex 19.0975 9.97087 13.15
    endloop
  endfacet
  facet normal 0 0 1
    outer loop
      vertex 19.2853 10.4322 13.15
      vertex 19.5744 10.809 13.15
      vertex 15.4 14 13.15
    endloop
  endfacet
  facet normal -0 0 1
    outer loop
      vertex 19.2853 10.4322 13.15
      vertex 15.4 14 13.15
      vertex 19.2808 10.4213 13.15
    endloop
  endfacet
  facet normal 0 0 1
    outer loop
      vertex 22.701 9.98256 13.15
      vertex 22.7629 9.51169 13.15
      vertex 26.4 5 13.15
    endloop
  endfacet
  facet normal -0 0 1
    outer loop
      vertex 19.5816 10.8184 13.15
      vertex 15.4 14 13.15
      vertex 19.5744 10.809 13.15
    endloop
  endfacet
  facet normal -0 0 1
    outer loop
      vertex 19.9584 11.1075 13.15
      vertex 15.4 14 13.15
      vertex 19.5816 10.8184 13.15
    endloop
  endfacet
  facet normal -0 0 1
    outer loop
      vertex 19.9678 11.1147 13.15
      vertex 15.4 14 13.15
      vertex 19.9584 11.1075 13.15
    endloop
  endfacet
  facet normal 0 0 1
    outer loop
      vertex 26.4 14 13.15
      vertex 15.4 14 13.15
      vertex 19.9678 11.1147 13.15
    endloop
  endfacet
  facet normal 0 0 1
    outer loop
      vertex 26.4 14 13.15
      vertex 20.4065 11.2964 13.15
      vertex 20.4174 11.301 13.15
    endloop
  endfacet
  facet normal 0 -0 1
    outer loop
      vertex 22.5147 8.56776 13.15
      vertex 22.2256 8.19096 13.15
      vertex 26.4 5 13.15
    endloop
  endfacet
  facet normal 0 0 1
    outer loop
      vertex 22.2184 8.18161 13.15
      vertex 25.9 4.13397 13.15
      vertex 26.266 4.5 13.15
    endloop
  endfacet
  facet normal 0 0 1
    outer loop
      vertex 26.4 14 13.15
      vertex 20.8883 11.3629 13.15
      vertex 20.9 11.3645 13.15
    endloop
  endfacet
  facet normal 0 0 1
    outer loop
      vertex 26.4 14 13.15
      vertex 20.9 11.3645 13.15
      vertex 21.3709 11.3025 13.15
    endloop
  endfacet
  facet normal 0 -0 1
    outer loop
      vertex 22.7645 9.5 13.15
      vertex 22.7025 9.02913 13.15
      vertex 26.4 5 13.15
    endloop
  endfacet
  facet normal 0 0 1
    outer loop
      vertex 26.4 14 13.15
      vertex 21.3709 11.3025 13.15
      vertex 21.3826 11.301 13.15
    endloop
  endfacet
  facet normal 0 -0 1
    outer loop
      vertex 22.2184 8.18161 13.15
      vertex 21.8416 7.89249 13.15
      vertex 25.9 4.13397 13.15
    endloop
  endfacet
  facet normal 0 0 1
    outer loop
      vertex 26.4 14 13.15
      vertex 21.3826 11.301 13.15
      vertex 21.8213 11.1192 13.15
    endloop
  endfacet
  facet normal 0 0 1
    outer loop
      vertex 26.4 14 13.15
      vertex 21.8213 11.1192 13.15
      vertex 21.8322 11.1147 13.15
    endloop
  endfacet
  facet normal 0 0 1
    outer loop
      vertex 26.4 14 13.15
      vertex 21.8322 11.1147 13.15
      vertex 22.209 10.8256 13.15
    endloop
  endfacet
  facet normal 0 0 1
    outer loop
      vertex 26.4 14 13.15
      vertex 22.209 10.8256 13.15
      vertex 22.2184 10.8184 13.15
    endloop
  endfacet
  facet normal 0 0 1
    outer loop
      vertex 26.4 14 13.15
      vertex 22.2184 10.8184 13.15
      vertex 22.5075 10.4416 13.15
    endloop
  endfacet
  facet normal 0 0 1
    outer loop
      vertex 26.4 14 13.15
      vertex 22.5147 10.4322 13.15
      vertex 26.4 5 13.15
    endloop
  endfacet
  facet normal 0 0 1
    outer loop
      vertex 26.4 14 13.15
      vertex 22.5075 10.4416 13.15
      vertex 22.5147 10.4322 13.15
    endloop
  endfacet
  facet normal 0 0 1
    outer loop
      vertex 22.6964 9.99346 13.15
      vertex 22.701 9.98256 13.15
      vertex 26.4 5 13.15
    endloop
  endfacet
  facet normal 0 0 1
    outer loop
      vertex 22.7629 9.51169 13.15
      vertex 22.7645 9.5 13.15
      vertex 26.4 5 13.15
    endloop
  endfacet
  facet normal 0 -0 1
    outer loop
      vertex 22.7025 9.02913 13.15
      vertex 22.701 9.01744 13.15
      vertex 26.4 5 13.15
    endloop
  endfacet
  facet normal 0 -0 1
    outer loop
      vertex 22.701 9.01744 13.15
      vertex 22.5192 8.57865 13.15
      vertex 26.4 5 13.15
    endloop
  endfacet
  facet normal 0 -0 1
    outer loop
      vertex 22.5192 8.57865 13.15
      vertex 22.5147 8.56776 13.15
      vertex 26.4 5 13.15
    endloop
  endfacet
  facet normal -0 0 1
    outer loop
      vertex 26.4 5 13.15
      vertex 22.2256 8.19096 13.15
      vertex 26.266 4.5 13.15
    endloop
  endfacet
  facet normal 0 0 1
    outer loop
      vertex 19.9678 11.1147 13.15
      vertex 20.4065 11.2964 13.15
      vertex 26.4 14 13.15
    endloop
  endfacet
  facet normal 0 -0 1
    outer loop
      vertex 22.2256 8.19096 13.15
      vertex 22.2184 8.18161 13.15
      vertex 26.266 4.5 13.15
    endloop
  endfacet
  facet normal 0 0 1
    outer loop
      vertex 20.4174 11.301 13.15
      vertex 20.8883 11.3629 13.15
      vertex 26.4 14 13.15
    endloop
  endfacet
  facet normal -0 0 1
    outer loop
      vertex 25.9 4.13397 13.15
      vertex 21.8416 7.89249 13.15
      vertex 25.4 4 13.15
    endloop
  endfacet
  facet normal 0 -0 1
    outer loop
      vertex 21.8416 7.89249 13.15
      vertex 21.8322 7.88531 13.15
      vertex 25.4 4 13.15
    endloop
  endfacet
  facet normal 0 -0 1
    outer loop
      vertex 21.8322 7.88531 13.15
      vertex 21.3935 7.70356 13.15
      vertex 25.4 4 13.15
    endloop
  endfacet
  facet normal 0 0 1
    outer loop
      vertex 25.4 4 13.15
      vertex 21.3935 7.70356 13.15
      vertex 21.3826 7.69904 13.15
    endloop
  endfacet
  facet normal -0 0 1
    outer loop
      vertex 25.4 4 13.15
      vertex 20.9117 7.63705 13.15
      vertex 16.4 4 13.15
    endloop
  endfacet
  facet normal 0 0 1
    outer loop
      vertex 20.9117 7.63705 13.15
      vertex 20.9 7.63551 13.15
      vertex 16.4 4 13.15
    endloop
  endfacet
  facet normal -0 0 1
    outer loop
      vertex 20.9 7.63551 13.15
      vertex 20.4291 7.69751 13.15
      vertex 16.4 4 13.15
    endloop
  endfacet
  facet normal -0 0 1
    outer loop
      vertex 20.4291 7.69751 13.15
      vertex 20.4174 7.69904 13.15
      vertex 16.4 4 13.15
    endloop
  endfacet
  facet normal -0 0 1
    outer loop
      vertex 20.4174 7.69904 13.15
      vertex 19.9787 7.88079 13.15
      vertex 16.4 4 13.15
    endloop
  endfacet
  facet normal -0 0 1
    outer loop
      vertex 19.9787 7.88079 13.15
      vertex 19.9678 7.88531 13.15
      vertex 16.4 4 13.15
    endloop
  endfacet
  facet normal -0 0 1
    outer loop
      vertex 19.9678 7.88531 13.15
      vertex 19.591 8.17443 13.15
      vertex 16.4 4 13.15
    endloop
  endfacet
  facet normal -0 0 1
    outer loop
      vertex 19.591 8.17443 13.15
      vertex 19.5816 8.18161 13.15
      vertex 16.4 4 13.15
    endloop
  endfacet
  facet normal -0 0 1
    outer loop
      vertex 19.5816 8.18161 13.15
      vertex 19.2925 8.5584 13.15
      vertex 16.4 4 13.15
    endloop
  endfacet
  facet normal -0 0 1
    outer loop
      vertex 19.2925 8.5584 13.15
      vertex 19.2853 8.56776 13.15
      vertex 16.4 4 13.15
    endloop
  endfacet
  facet normal -0 0 1
    outer loop
      vertex 19.2853 8.56776 13.15
      vertex 19.1036 9.00654 13.15
      vertex 16.4 4 13.15
    endloop
  endfacet
  facet normal -0 0 1
    outer loop
      vertex 19.1036 9.00654 13.15
      vertex 19.099 9.01744 13.15
      vertex 16.4 4 13.15
    endloop
  endfacet
  facet normal 0 -0 1
    outer loop
      vertex 21.3826 7.69904 13.15
      vertex 20.9117 7.63705 13.15
      vertex 25.4 4 13.15
    endloop
  endfacet
  facet normal 0 0 1
    outer loop
      vertex 19.099 9.98256 13.15
      vertex 19.2808 10.4213 13.15
      vertex 15.4 14 13.15
    endloop
  endfacet
endsolid OpenSCAD_Model
