solid OpenSCAD_Model
  facet normal -1 -0 -0
    outer loop
      vertex -1 0 -0.005
      vertex -1 0 3.005
      vertex -1 39.4 -0.005
    endloop
  endfacet
  facet normal -1 0 0
    outer loop
      vertex -1 39.4 -0.005
      vertex -1 0 3.005
      vertex -1 29.4 3.005
    endloop
  endfacet
  facet normal -1 0 0
    outer loop
      vertex -1 39.4 -0.005
      vertex -1 29.4 3.005
      vertex -1 29.4 10.15
    endloop
  endfacet
  facet normal -1 0 0
    outer loop
      vertex -1 39.4 -0.005
      vertex -1 29.4 10.15
      vertex -1 39.4 10.15
    endloop
  endfacet
  facet normal -0.965926 -0.25882 -0
    outer loop
      vertex -1 0 -0.005
      vertex -0.866025 -0.5 -0.005
      vertex -1 0 3.005
    endloop
  endfacet
  facet normal -0.965926 -0.25882 0
    outer loop
      vertex -1 0 3.005
      vertex -0.866025 -0.5 -0.005
      vertex -0.866025 -0.5 3.005
    endloop
  endfacet
  facet normal -0 -0 -1
    outer loop
      vertex -1 0 -0.005
      vertex -1 39.4 -0.005
      vertex -0.866025 -0.5 -0.005
    endloop
  endfacet
  facet normal 0 0 -1
    outer loop
      vertex -0.866025 -0.5 -0.005
      vertex -1 39.4 -0.005
      vertex -0.866025 39.9 -0.005
    endloop
  endfacet
  facet normal 0 -0 -1
    outer loop
      vertex -0.866025 -0.5 -0.005
      vertex -0.866025 39.9 -0.005
      vertex -0.5 40.266 -0.005
    endloop
  endfacet
  facet normal 0 0 -1
    outer loop
      vertex -0.866025 -0.5 -0.005
      vertex -0.5 40.266 -0.005
      vertex 0 40.4 -0.005
    endloop
  endfacet
  facet normal 0 -0 -1
    outer loop
      vertex 5.38368 35.2837 -0.005
      vertex 0 40.4 -0.005
      vertex 25.4 40.4 -0.005
    endloop
  endfacet
  facet normal -0 0 -1
    outer loop
      vertex 22.1497 5 -0.005
      vertex 26.4 39.4 -0.005
      vertex 26.4 0 -0.005
    endloop
  endfacet
  facet normal -0 0 -1
    outer loop
      vertex -0.866025 -0.5 -0.005
      vertex 26.4 0 -0.005
      vertex 26.266 -0.5 -0.005
    endloop
  endfacet
  facet normal 0 0 -1
    outer loop
      vertex -0.866025 -0.5 -0.005
      vertex 26.266 -0.5 -0.005
      vertex 25.9 -0.866025 -0.005
    endloop
  endfacet
  facet normal 0 0 -1
    outer loop
      vertex -0.866025 -0.5 -0.005
      vertex 25.9 -0.866025 -0.005
      vertex 25.4 -1 -0.005
    endloop
  endfacet
  facet normal 0 0 -1
    outer loop
      vertex -0.866025 -0.5 -0.005
      vertex 25.4 -1 -0.005
      vertex 0 -1 -0.005
    endloop
  endfacet
  facet normal 0 0 -1
    outer loop
      vertex -0.866025 -0.5 -0.005
      vertex 0 -1 -0.005
      vertex -0.5 -0.866025 -0.005
    endloop
  endfacet
  facet normal 0 0 -1
    outer loop
      vertex -0.866025 -0.5 -0.005
      vertex 0 40.4 -0.005
      vertex 2.65 18.1 -0.005
    endloop
  endfacet
  facet normal 0 0 -1
    outer loop
      vertex 12.75 5 -0.005
      vertex -0.866025 -0.5 -0.005
      vertex 2.65 5 -0.005
    endloop
  endfacet
  facet normal 0 0 -1
    outer loop
      vertex -0.866025 -0.5 -0.005
      vertex 2.65 18.1 -0.005
      vertex 2.65 5 -0.005
    endloop
  endfacet
  facet normal -0 0 -1
    outer loop
      vertex 12.75 18.1 -0.005
      vertex 26.4 39.4 -0.005
      vertex 12.75 5 -0.005
    endloop
  endfacet
  facet normal 0 0 -1
    outer loop
      vertex -0.866025 -0.5 -0.005
      vertex 12.75 5 -0.005
      vertex 26.4 0 -0.005
    endloop
  endfacet
  facet normal -0 0 -1
    outer loop
      vertex 5.38368 33.5163 -0.005
      vertex 25.4 40.4 -0.005
      vertex 5.17665 33.3575 -0.005
    endloop
  endfacet
  facet normal 0 -0 -1
    outer loop
      vertex 2.65 18.1 -0.005
      vertex 0 40.4 -0.005
      vertex 3.25029 34.4 -0.005
    endloop
  endfacet
  facet normal 0 0 -1
    outer loop
      vertex 2.65 18.1 -0.005
      vertex 3.25029 34.4 -0.005
      vertex 3.25881 34.3353 -0.005
    endloop
  endfacet
  facet normal 0 0 -1
    outer loop
      vertex 2.65 18.1 -0.005
      vertex 3.25881 34.3353 -0.005
      vertex 3.29287 34.0766 -0.005
    endloop
  endfacet
  facet normal 0 0 -1
    outer loop
      vertex 2.65 18.1 -0.005
      vertex 3.29287 34.0766 -0.005
      vertex 3.31785 34.0162 -0.005
    endloop
  endfacet
  facet normal 0 0 -1
    outer loop
      vertex 2.65 18.1 -0.005
      vertex 3.31785 34.0162 -0.005
      vertex 3.41772 33.7751 -0.005
    endloop
  endfacet
  facet normal 0 0 -1
    outer loop
      vertex 2.65 18.1 -0.005
      vertex 3.41772 33.7751 -0.005
      vertex 3.45746 33.7233 -0.005
    endloop
  endfacet
  facet normal 0 0 -1
    outer loop
      vertex 2.65 18.1 -0.005
      vertex 3.45746 33.7233 -0.005
      vertex 3.61632 33.5163 -0.005
    endloop
  endfacet
  facet normal 0 0 -1
    outer loop
      vertex 2.65 18.1 -0.005
      vertex 3.61632 33.5163 -0.005
      vertex 3.66812 33.4766 -0.005
    endloop
  endfacet
  facet normal 0 0 -1
    outer loop
      vertex 2.65 18.1 -0.005
      vertex 3.66812 33.4766 -0.005
      vertex 3.87514 33.3177 -0.005
    endloop
  endfacet
  facet normal 0 0 -1
    outer loop
      vertex 2.65 18.1 -0.005
      vertex 3.87514 33.3177 -0.005
      vertex 3.93546 33.2927 -0.005
    endloop
  endfacet
  facet normal 0 0 -1
    outer loop
      vertex 2.65 18.1 -0.005
      vertex 3.93546 33.2927 -0.005
      vertex 4.17655 33.1929 -0.005
    endloop
  endfacet
  facet normal 0 0 -1
    outer loop
      vertex 2.65 18.1 -0.005
      vertex 4.17655 33.1929 -0.005
      vertex 4.24128 33.1843 -0.005
    endloop
  endfacet
  facet normal 0 0 -1
    outer loop
      vertex 2.65 18.1 -0.005
      vertex 4.24128 33.1843 -0.005
      vertex 4.5 33.1503 -0.005
    endloop
  endfacet
  facet normal 0 0 -1
    outer loop
      vertex 2.65 18.1 -0.005
      vertex 4.5 33.1503 -0.005
      vertex 4.56473 33.1588 -0.005
    endloop
  endfacet
  facet normal 0 0 -1
    outer loop
      vertex 2.65 18.1 -0.005
      vertex 4.56473 33.1588 -0.005
      vertex 4.82345 33.1929 -0.005
    endloop
  endfacet
  facet normal 0 0 -1
    outer loop
      vertex 2.65 18.1 -0.005
      vertex 4.82345 33.1929 -0.005
      vertex 25.4 40.4 -0.005
    endloop
  endfacet
  facet normal 0 0 -1
    outer loop
      vertex 4.82345 33.1929 -0.005
      vertex 4.88377 33.2179 -0.005
      vertex 25.4 40.4 -0.005
    endloop
  endfacet
  facet normal 0 0 -1
    outer loop
      vertex 4.88377 33.2179 -0.005
      vertex 5.12486 33.3177 -0.005
      vertex 25.4 40.4 -0.005
    endloop
  endfacet
  facet normal 0 0 -1
    outer loop
      vertex 5.12486 33.3177 -0.005
      vertex 5.17665 33.3575 -0.005
      vertex 25.4 40.4 -0.005
    endloop
  endfacet
  facet normal -0 0 -1
    outer loop
      vertex 5.58228 33.7751 -0.005
      vertex 25.4 40.4 -0.005
      vertex 5.42343 33.5681 -0.005
    endloop
  endfacet
  facet normal 0 0 -1
    outer loop
      vertex 5.38368 33.5163 -0.005
      vertex 5.42343 33.5681 -0.005
      vertex 25.4 40.4 -0.005
    endloop
  endfacet
  facet normal -0 0 -1
    outer loop
      vertex 5.70713 34.0766 -0.005
      vertex 25.4 40.4 -0.005
      vertex 5.60727 33.8355 -0.005
    endloop
  endfacet
  facet normal 0 0 -1
    outer loop
      vertex 5.58228 33.7751 -0.005
      vertex 5.60727 33.8355 -0.005
      vertex 25.4 40.4 -0.005
    endloop
  endfacet
  facet normal -0 0 -1
    outer loop
      vertex 5.71565 34.1413 -0.005
      vertex 25.4 40.4 -0.005
      vertex 5.70713 34.0766 -0.005
    endloop
  endfacet
  facet normal -0 0 -1
    outer loop
      vertex 5.74971 34.4 -0.005
      vertex 25.4 40.4 -0.005
      vertex 5.71565 34.1413 -0.005
    endloop
  endfacet
  facet normal -0 0 -1
    outer loop
      vertex 5.74119 34.4647 -0.005
      vertex 25.4 40.4 -0.005
      vertex 5.74971 34.4 -0.005
    endloop
  endfacet
  facet normal -0 0 -1
    outer loop
      vertex 5.70713 34.7234 -0.005
      vertex 25.4 40.4 -0.005
      vertex 5.74119 34.4647 -0.005
    endloop
  endfacet
  facet normal -0 0 -1
    outer loop
      vertex 5.68215 34.7838 -0.005
      vertex 25.4 40.4 -0.005
      vertex 5.70713 34.7234 -0.005
    endloop
  endfacet
  facet normal -0 0 -1
    outer loop
      vertex 5.58228 35.0249 -0.005
      vertex 25.4 40.4 -0.005
      vertex 5.68215 34.7838 -0.005
    endloop
  endfacet
  facet normal -0 0 -1
    outer loop
      vertex 5.54254 35.0767 -0.005
      vertex 25.4 40.4 -0.005
      vertex 5.58228 35.0249 -0.005
    endloop
  endfacet
  facet normal 0 0 -1
    outer loop
      vertex 20.5766 3.79287 -0.005
      vertex 26.4 0 -0.005
      vertex 20.3355 3.89273 -0.005
    endloop
  endfacet
  facet normal -0 -0 -1
    outer loop
      vertex 5.06454 35.5073 -0.005
      vertex 0 40.4 -0.005
      vertex 5.12486 35.4823 -0.005
    endloop
  endfacet
  facet normal -0 -0 -1
    outer loop
      vertex 5.33188 35.3234 -0.005
      vertex 0 40.4 -0.005
      vertex 5.38368 35.2837 -0.005
    endloop
  endfacet
  facet normal 0 -0 -1
    outer loop
      vertex 5.54254 35.0767 -0.005
      vertex 5.38368 35.2837 -0.005
      vertex 25.4 40.4 -0.005
    endloop
  endfacet
  facet normal -0 -0 -1
    outer loop
      vertex 5.12486 35.4823 -0.005
      vertex 0 40.4 -0.005
      vertex 5.33188 35.3234 -0.005
    endloop
  endfacet
  facet normal -0 -0 -1
    outer loop
      vertex 4.82345 35.6071 -0.005
      vertex 0 40.4 -0.005
      vertex 5.06454 35.5073 -0.005
    endloop
  endfacet
  facet normal -0 -0 -1
    outer loop
      vertex 4.75872 35.6157 -0.005
      vertex 0 40.4 -0.005
      vertex 4.82345 35.6071 -0.005
    endloop
  endfacet
  facet normal -0 -0 -1
    outer loop
      vertex 4.5 35.6497 -0.005
      vertex 0 40.4 -0.005
      vertex 4.75872 35.6157 -0.005
    endloop
  endfacet
  facet normal 0 -0 -1
    outer loop
      vertex 4.43527 35.6412 -0.005
      vertex 0 40.4 -0.005
      vertex 4.5 35.6497 -0.005
    endloop
  endfacet
  facet normal 0 -0 -1
    outer loop
      vertex 4.17655 35.6071 -0.005
      vertex 0 40.4 -0.005
      vertex 4.43527 35.6412 -0.005
    endloop
  endfacet
  facet normal 0 -0 -1
    outer loop
      vertex 4.11623 35.5821 -0.005
      vertex 0 40.4 -0.005
      vertex 4.17655 35.6071 -0.005
    endloop
  endfacet
  facet normal 0 -0 -1
    outer loop
      vertex 3.87514 35.4823 -0.005
      vertex 0 40.4 -0.005
      vertex 4.11623 35.5821 -0.005
    endloop
  endfacet
  facet normal 0 -0 -1
    outer loop
      vertex 3.82335 35.4425 -0.005
      vertex 0 40.4 -0.005
      vertex 3.87514 35.4823 -0.005
    endloop
  endfacet
  facet normal 0 -0 -1
    outer loop
      vertex 3.61632 35.2837 -0.005
      vertex 0 40.4 -0.005
      vertex 3.82335 35.4425 -0.005
    endloop
  endfacet
  facet normal 0 -0 -1
    outer loop
      vertex 3.57657 35.2319 -0.005
      vertex 0 40.4 -0.005
      vertex 3.61632 35.2837 -0.005
    endloop
  endfacet
  facet normal 0 -0 -1
    outer loop
      vertex 3.41772 35.0249 -0.005
      vertex 0 40.4 -0.005
      vertex 3.57657 35.2319 -0.005
    endloop
  endfacet
  facet normal 0 -0 -1
    outer loop
      vertex 3.39273 34.9645 -0.005
      vertex 0 40.4 -0.005
      vertex 3.41772 35.0249 -0.005
    endloop
  endfacet
  facet normal 0 -0 -1
    outer loop
      vertex 3.29287 34.7234 -0.005
      vertex 0 40.4 -0.005
      vertex 3.39273 34.9645 -0.005
    endloop
  endfacet
  facet normal 0 -0 -1
    outer loop
      vertex 3.25029 34.4 -0.005
      vertex 0 40.4 -0.005
      vertex 3.29287 34.7234 -0.005
    endloop
  endfacet
  facet normal 0 0 -8.14235e-08
    outer loop
      vertex 3.25029 34.4 -0.005
      vertex 3.29287 34.7234 -0.005
      vertex 3.28435 34.6587 -0.005
    endloop
  endfacet
  facet normal 0 0 -1
    outer loop
      vertex 12.75 5 -0.005
      vertex 19.6503 5 -0.005
      vertex 19.6588 4.93527 -0.005
    endloop
  endfacet
  facet normal 0 0 -1
    outer loop
      vertex 12.75 5 -0.005
      vertex 19.6588 4.93527 -0.005
      vertex 19.6929 4.67655 -0.005
    endloop
  endfacet
  facet normal 0 0 -1
    outer loop
      vertex 12.75 5 -0.005
      vertex 19.6929 4.67655 -0.005
      vertex 19.7179 4.61623 -0.005
    endloop
  endfacet
  facet normal 0 0 -1
    outer loop
      vertex 12.75 5 -0.005
      vertex 19.7179 4.61623 -0.005
      vertex 19.8177 4.37514 -0.005
    endloop
  endfacet
  facet normal 0 0 -1
    outer loop
      vertex 12.75 5 -0.005
      vertex 19.8177 4.37514 -0.005
      vertex 19.8575 4.32335 -0.005
    endloop
  endfacet
  facet normal 0 0 -1
    outer loop
      vertex 12.75 5 -0.005
      vertex 19.8575 4.32335 -0.005
      vertex 20.0163 4.11632 -0.005
    endloop
  endfacet
  facet normal 0 0 -1
    outer loop
      vertex 12.75 5 -0.005
      vertex 20.0163 4.11632 -0.005
      vertex 20.0681 4.07657 -0.005
    endloop
  endfacet
  facet normal 0 0 -1
    outer loop
      vertex 12.75 5 -0.005
      vertex 20.0681 4.07657 -0.005
      vertex 20.2751 3.91772 -0.005
    endloop
  endfacet
  facet normal 0 0 -1
    outer loop
      vertex 12.75 5 -0.005
      vertex 20.2751 3.91772 -0.005
      vertex 26.4 0 -0.005
    endloop
  endfacet
  facet normal 0 0 -1
    outer loop
      vertex 20.2751 3.91772 -0.005
      vertex 20.3355 3.89273 -0.005
      vertex 26.4 0 -0.005
    endloop
  endfacet
  facet normal 0 0 -1
    outer loop
      vertex 20.9 3.75029 -0.005
      vertex 26.4 0 -0.005
      vertex 20.6413 3.78435 -0.005
    endloop
  endfacet
  facet normal 0 0 -1
    outer loop
      vertex 20.5766 3.79287 -0.005
      vertex 20.6413 3.78435 -0.005
      vertex 26.4 0 -0.005
    endloop
  endfacet
  facet normal 0 0 -1
    outer loop
      vertex 20.9647 3.75881 -0.005
      vertex 26.4 0 -0.005
      vertex 20.9 3.75029 -0.005
    endloop
  endfacet
  facet normal 0 0 -1
    outer loop
      vertex 21.2234 3.79287 -0.005
      vertex 26.4 0 -0.005
      vertex 20.9647 3.75881 -0.005
    endloop
  endfacet
  facet normal 0 0 -1
    outer loop
      vertex 21.2838 3.81785 -0.005
      vertex 26.4 0 -0.005
      vertex 21.2234 3.79287 -0.005
    endloop
  endfacet
  facet normal 0 0 -1
    outer loop
      vertex 19.6929 5.32345 -0.005
      vertex 26.4 39.4 -0.005
      vertex 19.7927 5.56454 -0.005
    endloop
  endfacet
  facet normal -0 0 -1
    outer loop
      vertex 22.1412 5.06473 -0.005
      vertex 26.4 39.4 -0.005
      vertex 22.1497 5 -0.005
    endloop
  endfacet
  facet normal -0 0 -1
    outer loop
      vertex 21.5249 6.08228 -0.005
      vertex 26.4 39.4 -0.005
      vertex 21.7319 5.92343 -0.005
    endloop
  endfacet
  facet normal -0 0 -1
    outer loop
      vertex 21.2838 3.81785 -0.005
      vertex 21.5249 3.91772 -0.005
      vertex 26.4 0 -0.005
    endloop
  endfacet
  facet normal -0 0 -1
    outer loop
      vertex 21.5249 3.91772 -0.005
      vertex 21.5767 3.95746 -0.005
      vertex 26.4 0 -0.005
    endloop
  endfacet
  facet normal -0 0 -1
    outer loop
      vertex 21.7837 5.88368 -0.005
      vertex 26.4 39.4 -0.005
      vertex 21.9425 5.67665 -0.005
    endloop
  endfacet
  facet normal -0 0 -1
    outer loop
      vertex 21.5767 3.95746 -0.005
      vertex 21.7837 4.11632 -0.005
      vertex 26.4 0 -0.005
    endloop
  endfacet
  facet normal -0 0 -1
    outer loop
      vertex 21.9425 5.67665 -0.005
      vertex 26.4 39.4 -0.005
      vertex 21.9823 5.62486 -0.005
    endloop
  endfacet
  facet normal -0 0 -1
    outer loop
      vertex 21.7837 4.11632 -0.005
      vertex 21.8234 4.16812 -0.005
      vertex 26.4 0 -0.005
    endloop
  endfacet
  facet normal -0 0 -1
    outer loop
      vertex 21.9823 5.62486 -0.005
      vertex 26.4 39.4 -0.005
      vertex 22.0821 5.38377 -0.005
    endloop
  endfacet
  facet normal -0 0 -1
    outer loop
      vertex 21.8234 4.16812 -0.005
      vertex 21.9823 4.37514 -0.005
      vertex 26.4 0 -0.005
    endloop
  endfacet
  facet normal -0 0 -1
    outer loop
      vertex 22.0821 5.38377 -0.005
      vertex 26.4 39.4 -0.005
      vertex 22.1071 5.32345 -0.005
    endloop
  endfacet
  facet normal -0 0 -1
    outer loop
      vertex 21.9823 4.37514 -0.005
      vertex 22.0073 4.43546 -0.005
      vertex 26.4 0 -0.005
    endloop
  endfacet
  facet normal -0 0 -1
    outer loop
      vertex 22.1071 5.32345 -0.005
      vertex 26.4 39.4 -0.005
      vertex 22.1412 5.06473 -0.005
    endloop
  endfacet
  facet normal -0 0 -1
    outer loop
      vertex 22.0073 4.43546 -0.005
      vertex 22.1071 4.67655 -0.005
      vertex 26.4 0 -0.005
    endloop
  endfacet
  facet normal -0 0 -1
    outer loop
      vertex 22.1071 4.67655 -0.005
      vertex 22.1157 4.74128 -0.005
      vertex 26.4 0 -0.005
    endloop
  endfacet
  facet normal -0 0 -1
    outer loop
      vertex 22.1157 4.74128 -0.005
      vertex 22.1497 5 -0.005
      vertex 26.4 0 -0.005
    endloop
  endfacet
  facet normal -0 0 -1
    outer loop
      vertex 21.7319 5.92343 -0.005
      vertex 26.4 39.4 -0.005
      vertex 21.7837 5.88368 -0.005
    endloop
  endfacet
  facet normal -0 0 -1
    outer loop
      vertex 21.4645 6.10727 -0.005
      vertex 26.4 39.4 -0.005
      vertex 21.5249 6.08228 -0.005
    endloop
  endfacet
  facet normal -0 0 -1
    outer loop
      vertex 21.2234 6.20713 -0.005
      vertex 26.4 39.4 -0.005
      vertex 21.4645 6.10727 -0.005
    endloop
  endfacet
  facet normal -0 0 -1
    outer loop
      vertex 21.1587 6.21565 -0.005
      vertex 26.4 39.4 -0.005
      vertex 21.2234 6.20713 -0.005
    endloop
  endfacet
  facet normal -0 0 -1
    outer loop
      vertex 20.9 6.24971 -0.005
      vertex 26.4 39.4 -0.005
      vertex 21.1587 6.21565 -0.005
    endloop
  endfacet
  facet normal 0 0 -1
    outer loop
      vertex 20.8353 6.24119 -0.005
      vertex 26.4 39.4 -0.005
      vertex 20.9 6.24971 -0.005
    endloop
  endfacet
  facet normal 0 0 -1
    outer loop
      vertex 20.5766 6.20713 -0.005
      vertex 26.4 39.4 -0.005
      vertex 20.8353 6.24119 -0.005
    endloop
  endfacet
  facet normal 0 0 -1
    outer loop
      vertex 20.5162 6.18215 -0.005
      vertex 26.4 39.4 -0.005
      vertex 20.5766 6.20713 -0.005
    endloop
  endfacet
  facet normal 0 0 -1
    outer loop
      vertex 20.2751 6.08228 -0.005
      vertex 26.4 39.4 -0.005
      vertex 20.5162 6.18215 -0.005
    endloop
  endfacet
  facet normal 0 0 -1
    outer loop
      vertex 20.2233 6.04254 -0.005
      vertex 26.4 39.4 -0.005
      vertex 20.2751 6.08228 -0.005
    endloop
  endfacet
  facet normal 0 0 -1
    outer loop
      vertex 20.0163 5.88368 -0.005
      vertex 26.4 39.4 -0.005
      vertex 20.2233 6.04254 -0.005
    endloop
  endfacet
  facet normal 0 0 -1
    outer loop
      vertex 19.9766 5.83188 -0.005
      vertex 26.4 39.4 -0.005
      vertex 20.0163 5.88368 -0.005
    endloop
  endfacet
  facet normal 0 0 -1
    outer loop
      vertex 19.8177 5.62486 -0.005
      vertex 26.4 39.4 -0.005
      vertex 19.9766 5.83188 -0.005
    endloop
  endfacet
  facet normal 0 0 -1
    outer loop
      vertex 19.7927 5.56454 -0.005
      vertex 26.4 39.4 -0.005
      vertex 19.8177 5.62486 -0.005
    endloop
  endfacet
  facet normal 0 0 -1
    outer loop
      vertex 12.75 5 -0.005
      vertex 26.4 39.4 -0.005
      vertex 19.6929 5.32345 -0.005
    endloop
  endfacet
  facet normal -0 0 -1
    outer loop
      vertex 12.75 5 -0.005
      vertex 19.6929 5.32345 -0.005
      vertex 19.6503 5 -0.005
    endloop
  endfacet
  facet normal 0 0 -8.14235e-08
    outer loop
      vertex 19.6929 5.32345 -0.005
      vertex 19.6843 5.25872 -0.005
      vertex 19.6503 5 -0.005
    endloop
  endfacet
  facet normal 0 0 -1
    outer loop
      vertex 2.65 18.1 -0.005
      vertex 25.4 40.4 -0.005
      vertex 25.9 40.266 -0.005
    endloop
  endfacet
  facet normal 0 0 -1
    outer loop
      vertex 2.65 18.1 -0.005
      vertex 25.9 40.266 -0.005
      vertex 26.266 39.9 -0.005
    endloop
  endfacet
  facet normal 0 0 -1
    outer loop
      vertex 2.65 18.1 -0.005
      vertex 26.266 39.9 -0.005
      vertex 26.4 39.4 -0.005
    endloop
  endfacet
  facet normal -0 0 -1
    outer loop
      vertex 2.65 18.1 -0.005
      vertex 26.4 39.4 -0.005
      vertex 12.75 18.1 -0.005
    endloop
  endfacet
  facet normal -0.965926 0.25882 0
    outer loop
      vertex -1 39.4 -0.005
      vertex -1 39.4 10.15
      vertex -0.866025 39.9 -0.005
    endloop
  endfacet
  facet normal -0.965926 0.25882 0
    outer loop
      vertex -0.866025 39.9 -0.005
      vertex -1 39.4 10.15
      vertex -0.866025 39.9 10.15
    endloop
  endfacet
  facet normal 0 -0 1
    outer loop
      vertex -1 39.4 10.15
      vertex -1 29.4 10.15
      vertex -0.866025 28.9 10.15
    endloop
  endfacet
  facet normal 0 0 1
    outer loop
      vertex 0 28.4 10.15
      vertex -1 39.4 10.15
      vertex -0.5 28.534 10.15
    endloop
  endfacet
  facet normal 0 0 1
    outer loop
      vertex -0.5 28.534 10.15
      vertex -1 39.4 10.15
      vertex -0.866025 28.9 10.15
    endloop
  endfacet
  facet normal -0 0 1
    outer loop
      vertex 2.66856 34.3856 10.15
      vertex -1 39.4 10.15
      vertex 0 28.4 10.15
    endloop
  endfacet
  facet normal 0 0 1
    outer loop
      vertex 6.08771 35.3167 10.15
      vertex 6.26531 34.8879 10.15
      vertex 10 29.4 10.15
    endloop
  endfacet
  facet normal 0 -0 1
    outer loop
      vertex 9.86602 39.9 10.15
      vertex -1 39.4 10.15
      vertex 10 39.4 10.15
    endloop
  endfacet
  facet normal 0 -0 1
    outer loop
      vertex 9.5 40.266 10.15
      vertex -1 39.4 10.15
      vertex 9.86602 39.9 10.15
    endloop
  endfacet
  facet normal 0 -0 1
    outer loop
      vertex 9 40.4 10.15
      vertex -1 39.4 10.15
      vertex 9.5 40.266 10.15
    endloop
  endfacet
  facet normal 0 -0 1
    outer loop
      vertex 0 40.4 10.15
      vertex -1 39.4 10.15
      vertex 9 40.4 10.15
    endloop
  endfacet
  facet normal 0 -0 1
    outer loop
      vertex -0.5 40.266 10.15
      vertex -1 39.4 10.15
      vertex 0 40.4 10.15
    endloop
  endfacet
  facet normal 0 -0 1
    outer loop
      vertex -0.866025 39.9 10.15
      vertex -1 39.4 10.15
      vertex -0.5 40.266 10.15
    endloop
  endfacet
  facet normal -0 0 1
    outer loop
      vertex 2.72914 33.9255 10.15
      vertex 2.66856 34.3856 10.15
      vertex 0 28.4 10.15
    endloop
  endfacet
  facet normal -0 -0 1
    outer loop
      vertex 2.66667 34.4 10.15
      vertex -1 39.4 10.15
      vertex 2.66856 34.3856 10.15
    endloop
  endfacet
  facet normal -0 0 1
    outer loop
      vertex 2.72724 34.8601 10.15
      vertex -1 39.4 10.15
      vertex 2.66667 34.4 10.15
    endloop
  endfacet
  facet normal -0 0 1
    outer loop
      vertex 2.72914 34.8745 10.15
      vertex -1 39.4 10.15
      vertex 2.72724 34.8601 10.15
    endloop
  endfacet
  facet normal -0 0 1
    outer loop
      vertex 2.91229 35.3167 10.15
      vertex -1 39.4 10.15
      vertex 2.90674 35.3033 10.15
    endloop
  endfacet
  facet normal 0 -0 1
    outer loop
      vertex 5.79636 33.1036 10.15
      vertex 5.42817 32.8211 10.15
      vertex 9.86602 28.9 10.15
    endloop
  endfacet
  facet normal -0 0 1
    outer loop
      vertex 3.20364 35.6964 10.15
      vertex -1 39.4 10.15
      vertex 3.19481 35.6849 10.15
    endloop
  endfacet
  facet normal -0 0 1
    outer loop
      vertex 3.57183 35.9789 10.15
      vertex -1 39.4 10.15
      vertex 3.20364 35.6964 10.15
    endloop
  endfacet
  facet normal -0 0 1
    outer loop
      vertex 3.58333 35.9877 10.15
      vertex -1 39.4 10.15
      vertex 3.57183 35.9789 10.15
    endloop
  endfacet
  facet normal 0 0 1
    outer loop
      vertex 10 39.4 10.15
      vertex -1 39.4 10.15
      vertex 3.58333 35.9877 10.15
    endloop
  endfacet
  facet normal 0 0 1
    outer loop
      vertex 10 39.4 10.15
      vertex 4.0121 36.1653 10.15
      vertex 4.0255 36.1709 10.15
    endloop
  endfacet
  facet normal 0 -0 1
    outer loop
      vertex 6.08771 33.4833 10.15
      vertex 5.80519 33.1151 10.15
      vertex 10 29.4 10.15
    endloop
  endfacet
  facet normal 0 0 1
    outer loop
      vertex 5.41667 32.8123 10.15
      vertex 9 28.4 10.15
      vertex 9.5 28.534 10.15
    endloop
  endfacet
  facet normal 0 0 1
    outer loop
      vertex 10 39.4 10.15
      vertex 4.48562 36.2314 10.15
      vertex 4.5 36.2333 10.15
    endloop
  endfacet
  facet normal 0 -0 1
    outer loop
      vertex 5.41667 32.8123 10.15
      vertex 4.9879 32.6347 10.15
      vertex 9 28.4 10.15
    endloop
  endfacet
  facet normal 0 0 1
    outer loop
      vertex 10 39.4 10.15
      vertex 4.5 36.2333 10.15
      vertex 4.96012 36.1728 10.15
    endloop
  endfacet
  facet normal 0 -0 1
    outer loop
      vertex 4.9745 32.6291 10.15
      vertex 4.51438 32.5686 10.15
      vertex 9 28.4 10.15
    endloop
  endfacet
  facet normal 0 0 1
    outer loop
      vertex 10 39.4 10.15
      vertex 4.96012 36.1728 10.15
      vertex 4.9745 36.1709 10.15
    endloop
  endfacet
  facet normal 0 0 1
    outer loop
      vertex 10 39.4 10.15
      vertex 4.9745 36.1709 10.15
      vertex 5.40327 35.9933 10.15
    endloop
  endfacet
  facet normal 0 0 1
    outer loop
      vertex 10 39.4 10.15
      vertex 5.40327 35.9933 10.15
      vertex 5.41667 35.9877 10.15
    endloop
  endfacet
  facet normal 0 0 1
    outer loop
      vertex 10 39.4 10.15
      vertex 5.41667 35.9877 10.15
      vertex 5.78486 35.7052 10.15
    endloop
  endfacet
  facet normal 0 0 1
    outer loop
      vertex 6.27086 34.8745 10.15
      vertex 6.33144 34.4144 10.15
      vertex 10 29.4 10.15
    endloop
  endfacet
  facet normal 0 0 1
    outer loop
      vertex 10 39.4 10.15
      vertex 5.78486 35.7052 10.15
      vertex 5.79636 35.6964 10.15
    endloop
  endfacet
  facet normal 0 0 1
    outer loop
      vertex 10 39.4 10.15
      vertex 5.79636 35.6964 10.15
      vertex 6.07888 35.3282 10.15
    endloop
  endfacet
  facet normal 0 0 1
    outer loop
      vertex 10 39.4 10.15
      vertex 6.08771 35.3167 10.15
      vertex 10 29.4 10.15
    endloop
  endfacet
  facet normal 0 0 1
    outer loop
      vertex 10 39.4 10.15
      vertex 6.07888 35.3282 10.15
      vertex 6.08771 35.3167 10.15
    endloop
  endfacet
  facet normal 0 0 1
    outer loop
      vertex 6.26531 34.8879 10.15
      vertex 6.27086 34.8745 10.15
      vertex 10 29.4 10.15
    endloop
  endfacet
  facet normal 0 0 1
    outer loop
      vertex 6.33144 34.4144 10.15
      vertex 6.33333 34.4 10.15
      vertex 10 29.4 10.15
    endloop
  endfacet
  facet normal 0 -0 1
    outer loop
      vertex 6.27276 33.9399 10.15
      vertex 6.27086 33.9255 10.15
      vertex 10 29.4 10.15
    endloop
  endfacet
  facet normal 0 -0 1
    outer loop
      vertex 6.27086 33.9255 10.15
      vertex 6.09326 33.4967 10.15
      vertex 10 29.4 10.15
    endloop
  endfacet
  facet normal 0 -0 1
    outer loop
      vertex 6.09326 33.4967 10.15
      vertex 6.08771 33.4833 10.15
      vertex 10 29.4 10.15
    endloop
  endfacet
  facet normal -0 0 1
    outer loop
      vertex 10 29.4 10.15
      vertex 5.80519 33.1151 10.15
      vertex 9.86602 28.9 10.15
    endloop
  endfacet
  facet normal 0 0 1
    outer loop
      vertex 3.58333 35.9877 10.15
      vertex 4.0121 36.1653 10.15
      vertex 10 39.4 10.15
    endloop
  endfacet
  facet normal 0 -0 1
    outer loop
      vertex 5.80519 33.1151 10.15
      vertex 5.79636 33.1036 10.15
      vertex 9.86602 28.9 10.15
    endloop
  endfacet
  facet normal 0 0 1
    outer loop
      vertex 4.0255 36.1709 10.15
      vertex 4.48562 36.2314 10.15
      vertex 10 39.4 10.15
    endloop
  endfacet
  facet normal -0 0 1
    outer loop
      vertex 9.86602 28.9 10.15
      vertex 5.42817 32.8211 10.15
      vertex 9.5 28.534 10.15
    endloop
  endfacet
  facet normal 0 -0 1
    outer loop
      vertex 6.33333 34.4 10.15
      vertex 6.27276 33.9399 10.15
      vertex 10 29.4 10.15
    endloop
  endfacet
  facet normal 0 -0 1
    outer loop
      vertex 5.42817 32.8211 10.15
      vertex 5.41667 32.8123 10.15
      vertex 9.5 28.534 10.15
    endloop
  endfacet
  facet normal 0 0 1
    outer loop
      vertex 9 28.4 10.15
      vertex 4.9879 32.6347 10.15
      vertex 4.9745 32.6291 10.15
    endloop
  endfacet
  facet normal -0 0 1
    outer loop
      vertex 9 28.4 10.15
      vertex 4.51438 32.5686 10.15
      vertex 0 28.4 10.15
    endloop
  endfacet
  facet normal 0 0 1
    outer loop
      vertex 4.51438 32.5686 10.15
      vertex 4.5 32.5667 10.15
      vertex 0 28.4 10.15
    endloop
  endfacet
  facet normal -0 0 1
    outer loop
      vertex 4.5 32.5667 10.15
      vertex 4.03988 32.6272 10.15
      vertex 0 28.4 10.15
    endloop
  endfacet
  facet normal -0 0 1
    outer loop
      vertex 4.03988 32.6272 10.15
      vertex 4.0255 32.6291 10.15
      vertex 0 28.4 10.15
    endloop
  endfacet
  facet normal -0 0 1
    outer loop
      vertex 4.0255 32.6291 10.15
      vertex 3.59673 32.8067 10.15
      vertex 0 28.4 10.15
    endloop
  endfacet
  facet normal -0 0 1
    outer loop
      vertex 3.59673 32.8067 10.15
      vertex 3.58333 32.8123 10.15
      vertex 0 28.4 10.15
    endloop
  endfacet
  facet normal -0 0 1
    outer loop
      vertex 3.58333 32.8123 10.15
      vertex 3.21514 33.0948 10.15
      vertex 0 28.4 10.15
    endloop
  endfacet
  facet normal -0 0 1
    outer loop
      vertex 3.21514 33.0948 10.15
      vertex 3.20364 33.1036 10.15
      vertex 0 28.4 10.15
    endloop
  endfacet
  facet normal -0 0 1
    outer loop
      vertex 3.20364 33.1036 10.15
      vertex 2.92112 33.4718 10.15
      vertex 0 28.4 10.15
    endloop
  endfacet
  facet normal -0 0 1
    outer loop
      vertex 2.92112 33.4718 10.15
      vertex 2.91229 33.4833 10.15
      vertex 0 28.4 10.15
    endloop
  endfacet
  facet normal -0 0 1
    outer loop
      vertex 2.91229 33.4833 10.15
      vertex 2.73469 33.9121 10.15
      vertex 0 28.4 10.15
    endloop
  endfacet
  facet normal -0 0 1
    outer loop
      vertex 2.73469 33.9121 10.15
      vertex 2.72914 33.9255 10.15
      vertex 0 28.4 10.15
    endloop
  endfacet
  facet normal 0 0 1
    outer loop
      vertex 2.72914 34.8745 10.15
      vertex 2.90674 35.3033 10.15
      vertex -1 39.4 10.15
    endloop
  endfacet
  facet normal 0 0 1
    outer loop
      vertex 2.91229 35.3167 10.15
      vertex 3.19481 35.6849 10.15
      vertex -1 39.4 10.15
    endloop
  endfacet
  facet normal -0.965926 -0.25882 -0
    outer loop
      vertex -1 29.4 3.005
      vertex -0.866025 28.9 3.005
      vertex -1 29.4 10.15
    endloop
  endfacet
  facet normal -0.965926 -0.25882 0
    outer loop
      vertex -1 29.4 10.15
      vertex -0.866025 28.9 3.005
      vertex -0.866025 28.9 10.15
    endloop
  endfacet
  facet normal 0 -0 1
    outer loop
      vertex -1 29.4 3.005
      vertex -1 0 3.005
      vertex -0.866025 -0.5 3.005
    endloop
  endfacet
  facet normal 0 0 1
    outer loop
      vertex 0 -1 3.005
      vertex -1 29.4 3.005
      vertex -0.5 -0.866025 3.005
    endloop
  endfacet
  facet normal 0 0 1
    outer loop
      vertex -0.5 -0.866025 3.005
      vertex -1 29.4 3.005
      vertex -0.866025 -0.5 3.005
    endloop
  endfacet
  facet normal -0 -0 1
    outer loop
      vertex -0.866025 28.9 3.005
      vertex -1 29.4 3.005
      vertex 0 -1 3.005
    endloop
  endfacet
  facet normal 0 0 1
    outer loop
      vertex 10 39.4 3.005
      vertex 25.9 40.266 3.005
      vertex 25.4 40.4 3.005
    endloop
  endfacet
  facet normal -0 0 1
    outer loop
      vertex 16.4 -1 3.005
      vertex 15.9 -0.866025 3.005
      vertex 0 -1 3.005
    endloop
  endfacet
  facet normal 0 -0 1
    outer loop
      vertex 10 39.4 3.005
      vertex 10 29.4 3.005
      vertex 26.4 39.4 3.005
    endloop
  endfacet
  facet normal -0 0 1
    outer loop
      vertex 15.9 -0.866025 3.005
      vertex 15.534 -0.5 3.005
      vertex 0 -1 3.005
    endloop
  endfacet
  facet normal 0 0 1
    outer loop
      vertex 2.65 18.1 3.005
      vertex 0 28.4 3.005
      vertex -0.5 28.534 3.005
    endloop
  endfacet
  facet normal 0 -0 1
    outer loop
      vertex 12.75 18.1 3.005
      vertex 12.75 5 3.005
      vertex 15.4 10 3.005
    endloop
  endfacet
  facet normal 0 0 1
    outer loop
      vertex 12.75 18.1 3.005
      vertex 15.4 10 3.005
      vertex 15.534 10.5 3.005
    endloop
  endfacet
  facet normal 0 -0 1
    outer loop
      vertex 12.75 5 3.005
      vertex 2.65 5 3.005
      vertex 15.534 -0.5 3.005
    endloop
  endfacet
  facet normal 0 0 1
    outer loop
      vertex 26.4 39.4 3.005
      vertex 25.9 10.866 3.005
      vertex 26.266 10.5 3.005
    endloop
  endfacet
  facet normal 0 0 1
    outer loop
      vertex 26.4 39.4 3.005
      vertex 26.266 10.5 3.005
      vertex 26.4 10 3.005
    endloop
  endfacet
  facet normal 0 0 1
    outer loop
      vertex 9 28.4 3.005
      vertex 25.4 11 3.005
      vertex 25.9 10.866 3.005
    endloop
  endfacet
  facet normal 0 -0 1
    outer loop
      vertex 9 28.4 3.005
      vertex 0 28.4 3.005
      vertex 25.4 11 3.005
    endloop
  endfacet
  facet normal 0 0 1
    outer loop
      vertex 9 40.4 3.005
      vertex 9.5 40.266 3.005
      vertex 25.4 40.4 3.005
    endloop
  endfacet
  facet normal 0 0 1
    outer loop
      vertex 9.5 40.266 3.005
      vertex 9.86602 39.9 3.005
      vertex 25.4 40.4 3.005
    endloop
  endfacet
  facet normal 0 0 1
    outer loop
      vertex 9.86602 39.9 3.005
      vertex 10 39.4 3.005
      vertex 25.4 40.4 3.005
    endloop
  endfacet
  facet normal 0 0 1
    outer loop
      vertex 26.4 39.4 3.005
      vertex 10 29.4 3.005
      vertex 25.9 10.866 3.005
    endloop
  endfacet
  facet normal 0 -0 1
    outer loop
      vertex 10 29.4 3.005
      vertex 9.86602 28.9 3.005
      vertex 25.9 10.866 3.005
    endloop
  endfacet
  facet normal 0 -0 1
    outer loop
      vertex 9.86602 28.9 3.005
      vertex 9.5 28.534 3.005
      vertex 25.9 10.866 3.005
    endloop
  endfacet
  facet normal 0 -0 1
    outer loop
      vertex 9.5 28.534 3.005
      vertex 9 28.4 3.005
      vertex 25.9 10.866 3.005
    endloop
  endfacet
  facet normal -0 0 1
    outer loop
      vertex 2.65 5 3.005
      vertex -0.866025 28.9 3.005
      vertex 0 -1 3.005
    endloop
  endfacet
  facet normal 0 0 1
    outer loop
      vertex 2.65 18.1 3.005
      vertex -0.5 28.534 3.005
      vertex -0.866025 28.9 3.005
    endloop
  endfacet
  facet normal -0 0 1
    outer loop
      vertex 15.534 -0.5 3.005
      vertex 2.65 5 3.005
      vertex 0 -1 3.005
    endloop
  endfacet
  facet normal -0 0 1
    outer loop
      vertex 2.65 18.1 3.005
      vertex -0.866025 28.9 3.005
      vertex 2.65 5 3.005
    endloop
  endfacet
  facet normal 0 0 1
    outer loop
      vertex 12.75 18.1 3.005
      vertex 15.9 10.866 3.005
      vertex 16.4 11 3.005
    endloop
  endfacet
  facet normal 0 0 1
    outer loop
      vertex 12.75 18.1 3.005
      vertex 15.534 10.5 3.005
      vertex 15.9 10.866 3.005
    endloop
  endfacet
  facet normal -0 0 1
    outer loop
      vertex 25.4 11 3.005
      vertex 12.75 18.1 3.005
      vertex 16.4 11 3.005
    endloop
  endfacet
  facet normal 0 0 1
    outer loop
      vertex 25.4 11 3.005
      vertex 0 28.4 3.005
      vertex 12.75 18.1 3.005
    endloop
  endfacet
  facet normal 0 0 1
    outer loop
      vertex 10 39.4 3.005
      vertex 26.4 39.4 3.005
      vertex 26.266 39.9 3.005
    endloop
  endfacet
  facet normal 0 0 1
    outer loop
      vertex 10 39.4 3.005
      vertex 26.266 39.9 3.005
      vertex 25.9 40.266 3.005
    endloop
  endfacet
  facet normal 0 0 1
    outer loop
      vertex 12.75 5 3.005
      vertex 15.534 -0.5 3.005
      vertex 15.4 0 3.005
    endloop
  endfacet
  facet normal 0 0 1
    outer loop
      vertex 15.4 0 3.005
      vertex 15.4 10 3.005
      vertex 12.75 5 3.005
    endloop
  endfacet
  facet normal 0 0 1
    outer loop
      vertex 2.65 18.1 3.005
      vertex 12.75 18.1 3.005
      vertex 0 28.4 3.005
    endloop
  endfacet
  facet normal -0.707107 -0.707107 0
    outer loop
      vertex -0.866025 -0.5 3.005
      vertex -0.866025 -0.5 -0.005
      vertex -0.5 -0.866025 -0.005
    endloop
  endfacet
  facet normal -0.707107 -0.707107 0
    outer loop
      vertex -0.5 -0.866025 3.005
      vertex -0.866025 -0.5 3.005
      vertex -0.5 -0.866025 -0.005
    endloop
  endfacet
  facet normal -0.25882 -0.965926 0
    outer loop
      vertex -0.5 -0.866025 3.005
      vertex -0.5 -0.866025 -0.005
      vertex 0 -1 -0.005
    endloop
  endfacet
  facet normal -0.25882 -0.965926 0
    outer loop
      vertex 0 -1 3.005
      vertex -0.5 -0.866025 3.005
      vertex 0 -1 -0.005
    endloop
  endfacet
  facet normal 0 -1 0
    outer loop
      vertex 0 -1 3.005
      vertex 0 -1 -0.005
      vertex 25.4 -1 -0.005
    endloop
  endfacet
  facet normal 0 -1 0
    outer loop
      vertex 16.4 -1 3.005
      vertex 0 -1 3.005
      vertex 25.4 -1 -0.005
    endloop
  endfacet
  facet normal 0 -1 0
    outer loop
      vertex 25.4 -1 10.15
      vertex 16.4 -1 3.005
      vertex 25.4 -1 -0.005
    endloop
  endfacet
  facet normal 0 -1 0
    outer loop
      vertex 16.4 -1 10.15
      vertex 16.4 -1 3.005
      vertex 25.4 -1 10.15
    endloop
  endfacet
  facet normal 0.25882 -0.965926 0
    outer loop
      vertex 25.4 -1 10.15
      vertex 25.4 -1 -0.005
      vertex 25.9 -0.866025 -0.005
    endloop
  endfacet
  facet normal 0.25882 -0.965926 0
    outer loop
      vertex 25.9 -0.866025 10.15
      vertex 25.4 -1 10.15
      vertex 25.9 -0.866025 -0.005
    endloop
  endfacet
  facet normal 0.707107 -0.707107 0
    outer loop
      vertex 25.9 -0.866025 10.15
      vertex 25.9 -0.866025 -0.005
      vertex 26.266 -0.5 -0.005
    endloop
  endfacet
  facet normal 0.707107 -0.707107 0
    outer loop
      vertex 26.266 -0.5 10.15
      vertex 25.9 -0.866025 10.15
      vertex 26.266 -0.5 -0.005
    endloop
  endfacet
  facet normal 0.965926 -0.25882 0
    outer loop
      vertex 26.266 -0.5 10.15
      vertex 26.266 -0.5 -0.005
      vertex 26.4 0 -0.005
    endloop
  endfacet
  facet normal 0.965926 -0.25882 0
    outer loop
      vertex 26.4 0 10.15
      vertex 26.266 -0.5 10.15
      vertex 26.4 0 -0.005
    endloop
  endfacet
  facet normal 1 0 -0
    outer loop
      vertex 26.4 10 3.005
      vertex 26.4 0 -0.005
      vertex 26.4 39.4 -0.005
    endloop
  endfacet
  facet normal 1 0 0
    outer loop
      vertex 26.4 10 3.005
      vertex 26.4 10 10.15
      vertex 26.4 0 10.15
    endloop
  endfacet
  facet normal 1 0 -0
    outer loop
      vertex 26.4 0 10.15
      vertex 26.4 0 -0.005
      vertex 26.4 10 3.005
    endloop
  endfacet
  facet normal 1 0 0
    outer loop
      vertex 26.4 39.4 3.005
      vertex 26.4 10 3.005
      vertex 26.4 39.4 -0.005
    endloop
  endfacet
  facet normal 0.965926 0.25882 0
    outer loop
      vertex 26.4 39.4 -0.005
      vertex 26.266 39.9 -0.005
      vertex 26.266 39.9 3.005
    endloop
  endfacet
  facet normal 0.965926 0.25882 -0
    outer loop
      vertex 26.4 39.4 3.005
      vertex 26.4 39.4 -0.005
      vertex 26.266 39.9 3.005
    endloop
  endfacet
  facet normal 0.707107 0.707107 0
    outer loop
      vertex 25.9 40.266 -0.005
      vertex 25.9 40.266 3.005
      vertex 26.266 39.9 -0.005
    endloop
  endfacet
  facet normal 0.707107 0.707107 0
    outer loop
      vertex 26.266 39.9 -0.005
      vertex 25.9 40.266 3.005
      vertex 26.266 39.9 3.005
    endloop
  endfacet
  facet normal 0.25882 0.965926 0
    outer loop
      vertex 25.4 40.4 -0.005
      vertex 25.4 40.4 3.005
      vertex 25.9 40.266 -0.005
    endloop
  endfacet
  facet normal 0.25882 0.965926 0
    outer loop
      vertex 25.9 40.266 -0.005
      vertex 25.4 40.4 3.005
      vertex 25.9 40.266 3.005
    endloop
  endfacet
  facet normal 0 1 0
    outer loop
      vertex 25.4 40.4 3.005
      vertex 25.4 40.4 -0.005
      vertex 9 40.4 3.005
    endloop
  endfacet
  facet normal 0 1 0
    outer loop
      vertex 0 40.4 -0.005
      vertex 0 40.4 10.15
      vertex 9 40.4 3.005
    endloop
  endfacet
  facet normal 0 1 0
    outer loop
      vertex 0 40.4 -0.005
      vertex 9 40.4 3.005
      vertex 25.4 40.4 -0.005
    endloop
  endfacet
  facet normal 0 1 0
    outer loop
      vertex 9 40.4 3.005
      vertex 0 40.4 10.15
      vertex 9 40.4 10.15
    endloop
  endfacet
  facet normal -0.25882 0.965926 0
    outer loop
      vertex -0.5 40.266 -0.005
      vertex -0.5 40.266 10.15
      vertex 0 40.4 -0.005
    endloop
  endfacet
  facet normal -0.25882 0.965926 0
    outer loop
      vertex 0 40.4 -0.005
      vertex -0.5 40.266 10.15
      vertex 0 40.4 10.15
    endloop
  endfacet
  facet normal -0.707107 0.707107 0
    outer loop
      vertex -0.866025 39.9 -0.005
      vertex -0.866025 39.9 10.15
      vertex -0.5 40.266 -0.005
    endloop
  endfacet
  facet normal -0.707107 0.707107 0
    outer loop
      vertex -0.5 40.266 -0.005
      vertex -0.866025 39.9 10.15
      vertex -0.5 40.266 10.15
    endloop
  endfacet
  facet normal 1 0 0
    outer loop
      vertex 2.65 18.1 -0.005
      vertex 2.65 18.1 3.005
      vertex 2.65 5 3.005
    endloop
  endfacet
  facet normal 1 0 0
    outer loop
      vertex 2.65 5 -0.005
      vertex 2.65 18.1 -0.005
      vertex 2.65 5 3.005
    endloop
  endfacet
  facet normal 0 -1 0
    outer loop
      vertex 12.75 18.1 -0.005
      vertex 12.75 18.1 3.005
      vertex 2.65 18.1 3.005
    endloop
  endfacet
  facet normal -0 -1 -0
    outer loop
      vertex 2.65 18.1 -0.005
      vertex 12.75 18.1 -0.005
      vertex 2.65 18.1 3.005
    endloop
  endfacet
  facet normal -1 0 0
    outer loop
      vertex 12.75 18.1 3.005
      vertex 12.75 18.1 -0.005
      vertex 12.75 5 3.005
    endloop
  endfacet
  facet normal -1 0 0
    outer loop
      vertex 12.75 5 3.005
      vertex 12.75 18.1 -0.005
      vertex 12.75 5 -0.005
    endloop
  endfacet
  facet normal 0 1 0
    outer loop
      vertex 12.75 5 3.005
      vertex 12.75 5 -0.005
      vertex 2.65 5 3.005
    endloop
  endfacet
  facet normal 0 1 -0
    outer loop
      vertex 2.65 5 3.005
      vertex 12.75 5 -0.005
      vertex 2.65 5 -0.005
    endloop
  endfacet
  facet normal 0.989839 -0.130314 0.0568873
    outer loop
      vertex 3.25029 34.4 -0.005
      vertex 3.28435 34.6587 -0.005
      vertex 2.72724 34.8601 10.15
    endloop
  endfacet
  facet normal 0.989839 -0.130314 0.0568873
    outer loop
      vertex 2.66667 34.4 10.15
      vertex 3.25029 34.4 -0.005
      vertex 2.72724 34.8601 10.15
    endloop
  endfacet
  facet normal 0.989839 0.130314 0.0568873
    outer loop
      vertex 2.66856 34.3856 10.15
      vertex 3.25881 34.3353 -0.005
      vertex 3.25029 34.4 -0.005
    endloop
  endfacet
  facet normal 0.989839 0.130314 0.0568873
    outer loop
      vertex 2.66667 34.4 10.15
      vertex 2.66856 34.3856 10.15
      vertex 3.25029 34.4 -0.005
    endloop
  endfacet
  facet normal 0.989839 -0.130314 0.0568873
    outer loop
      vertex 3.28435 34.6587 -0.005
      vertex 3.29287 34.7234 -0.005
      vertex 2.72914 34.8745 10.15
    endloop
  endfacet
  facet normal 0.989839 -0.130314 0.0568873
    outer loop
      vertex 2.72724 34.8601 10.15
      vertex 3.28435 34.6587 -0.005
      vertex 2.72914 34.8745 10.15
    endloop
  endfacet
  facet normal 0.922383 -0.382064 0.0568873
    outer loop
      vertex 3.29287 34.7234 -0.005
      vertex 3.39273 34.9645 -0.005
      vertex 2.90674 35.3033 10.15
    endloop
  endfacet
  facet normal 0.922383 -0.382064 0.0568873
    outer loop
      vertex 2.72914 34.8745 10.15
      vertex 3.29287 34.7234 -0.005
      vertex 2.90674 35.3033 10.15
    endloop
  endfacet
  facet normal 0.922383 -0.382064 0.0568873
    outer loop
      vertex 3.39273 34.9645 -0.005
      vertex 3.41772 35.0249 -0.005
      vertex 2.91229 35.3167 10.15
    endloop
  endfacet
  facet normal 0.922383 -0.382064 0.0568873
    outer loop
      vertex 2.90674 35.3033 10.15
      vertex 3.39273 34.9645 -0.005
      vertex 2.91229 35.3167 10.15
    endloop
  endfacet
  facet normal 0.792069 -0.607775 0.0568873
    outer loop
      vertex 3.41772 35.0249 -0.005
      vertex 3.57657 35.2319 -0.005
      vertex 3.19481 35.6849 10.15
    endloop
  endfacet
  facet normal 0.792069 -0.607775 0.0568873
    outer loop
      vertex 2.91229 35.3167 10.15
      vertex 3.41772 35.0249 -0.005
      vertex 3.19481 35.6849 10.15
    endloop
  endfacet
  facet normal 0.792065 -0.60778 0.0568874
    outer loop
      vertex 3.57657 35.2319 -0.005
      vertex 3.61632 35.2837 -0.005
      vertex 3.20364 35.6964 10.15
    endloop
  endfacet
  facet normal 0.792065 -0.60778 0.0568874
    outer loop
      vertex 3.19481 35.6849 10.15
      vertex 3.57657 35.2319 -0.005
      vertex 3.20364 35.6964 10.15
    endloop
  endfacet
  facet normal 0.607775 -0.792069 0.0568874
    outer loop
      vertex 3.61632 35.2837 -0.005
      vertex 3.82335 35.4425 -0.005
      vertex 3.57183 35.9789 10.15
    endloop
  endfacet
  facet normal 0.607775 -0.792069 0.0568874
    outer loop
      vertex 3.20364 35.6964 10.15
      vertex 3.61632 35.2837 -0.005
      vertex 3.57183 35.9789 10.15
    endloop
  endfacet
  facet normal 0.60778 -0.792065 0.0568873
    outer loop
      vertex 3.82335 35.4425 -0.005
      vertex 3.87514 35.4823 -0.005
      vertex 3.58333 35.9877 10.15
    endloop
  endfacet
  facet normal 0.60778 -0.792065 0.0568873
    outer loop
      vertex 3.57183 35.9789 10.15
      vertex 3.82335 35.4425 -0.005
      vertex 3.58333 35.9877 10.15
    endloop
  endfacet
  facet normal 0.382064 -0.922383 0.0568873
    outer loop
      vertex 3.87514 35.4823 -0.005
      vertex 4.11623 35.5821 -0.005
      vertex 4.0121 36.1653 10.15
    endloop
  endfacet
  facet normal 0.382064 -0.922383 0.0568873
    outer loop
      vertex 3.58333 35.9877 10.15
      vertex 3.87514 35.4823 -0.005
      vertex 4.0121 36.1653 10.15
    endloop
  endfacet
  facet normal 0.382064 -0.922383 0.0568873
    outer loop
      vertex 4.11623 35.5821 -0.005
      vertex 4.17655 35.6071 -0.005
      vertex 4.0255 36.1709 10.15
    endloop
  endfacet
  facet normal 0.382064 -0.922383 0.0568873
    outer loop
      vertex 4.0121 36.1653 10.15
      vertex 4.11623 35.5821 -0.005
      vertex 4.0255 36.1709 10.15
    endloop
  endfacet
  facet normal 0.130314 -0.989839 0.0568873
    outer loop
      vertex 4.17655 35.6071 -0.005
      vertex 4.43527 35.6412 -0.005
      vertex 4.48562 36.2314 10.15
    endloop
  endfacet
  facet normal 0.130314 -0.989839 0.0568873
    outer loop
      vertex 4.0255 36.1709 10.15
      vertex 4.17655 35.6071 -0.005
      vertex 4.48562 36.2314 10.15
    endloop
  endfacet
  facet normal 0.130314 -0.989839 0.0568873
    outer loop
      vertex 4.5 35.6497 -0.005
      vertex 4.5 36.2333 10.15
      vertex 4.48562 36.2314 10.15
    endloop
  endfacet
  facet normal 0.130314 -0.989839 0.0568873
    outer loop
      vertex 4.43527 35.6412 -0.005
      vertex 4.5 35.6497 -0.005
      vertex 4.48562 36.2314 10.15
    endloop
  endfacet
  facet normal -0.130314 -0.989839 0.0568873
    outer loop
      vertex 4.75872 35.6157 -0.005
      vertex 4.96012 36.1728 10.15
      vertex 4.5 36.2333 10.15
    endloop
  endfacet
  facet normal -0.130314 -0.989839 0.0568873
    outer loop
      vertex 4.5 35.6497 -0.005
      vertex 4.75872 35.6157 -0.005
      vertex 4.5 36.2333 10.15
    endloop
  endfacet
  facet normal -0.130314 -0.989839 0.0568873
    outer loop
      vertex 4.82345 35.6071 -0.005
      vertex 4.9745 36.1709 10.15
      vertex 4.96012 36.1728 10.15
    endloop
  endfacet
  facet normal -0.130314 -0.989839 0.0568873
    outer loop
      vertex 4.75872 35.6157 -0.005
      vertex 4.82345 35.6071 -0.005
      vertex 4.96012 36.1728 10.15
    endloop
  endfacet
  facet normal -0.382064 -0.922383 0.0568873
    outer loop
      vertex 5.06454 35.5073 -0.005
      vertex 5.40327 35.9933 10.15
      vertex 4.9745 36.1709 10.15
    endloop
  endfacet
  facet normal -0.382064 -0.922383 0.0568873
    outer loop
      vertex 4.82345 35.6071 -0.005
      vertex 5.06454 35.5073 -0.005
      vertex 4.9745 36.1709 10.15
    endloop
  endfacet
  facet normal -0.382064 -0.922383 0.0568873
    outer loop
      vertex 5.12486 35.4823 -0.005
      vertex 5.41667 35.9877 10.15
      vertex 5.40327 35.9933 10.15
    endloop
  endfacet
  facet normal -0.382064 -0.922383 0.0568873
    outer loop
      vertex 5.06454 35.5073 -0.005
      vertex 5.12486 35.4823 -0.005
      vertex 5.40327 35.9933 10.15
    endloop
  endfacet
  facet normal -0.607775 -0.792069 0.0568873
    outer loop
      vertex 5.33188 35.3234 -0.005
      vertex 5.78486 35.7052 10.15
      vertex 5.41667 35.9877 10.15
    endloop
  endfacet
  facet normal -0.607775 -0.792069 0.0568873
    outer loop
      vertex 5.12486 35.4823 -0.005
      vertex 5.33188 35.3234 -0.005
      vertex 5.41667 35.9877 10.15
    endloop
  endfacet
  facet normal -0.60778 -0.792065 0.0568874
    outer loop
      vertex 5.38368 35.2837 -0.005
      vertex 5.79636 35.6964 10.15
      vertex 5.78486 35.7052 10.15
    endloop
  endfacet
  facet normal -0.60778 -0.792065 0.0568874
    outer loop
      vertex 5.33188 35.3234 -0.005
      vertex 5.38368 35.2837 -0.005
      vertex 5.78486 35.7052 10.15
    endloop
  endfacet
  facet normal -0.792069 -0.607775 0.0568874
    outer loop
      vertex 6.07888 35.3282 10.15
      vertex 5.79636 35.6964 10.15
      vertex 5.54254 35.0767 -0.005
    endloop
  endfacet
  facet normal -0.792069 -0.607775 0.0568874
    outer loop
      vertex 5.54254 35.0767 -0.005
      vertex 5.79636 35.6964 10.15
      vertex 5.38368 35.2837 -0.005
    endloop
  endfacet
  facet normal -0.792065 -0.60778 0.0568873
    outer loop
      vertex 6.08771 35.3167 10.15
      vertex 6.07888 35.3282 10.15
      vertex 5.58228 35.0249 -0.005
    endloop
  endfacet
  facet normal -0.792065 -0.60778 0.0568873
    outer loop
      vertex 5.58228 35.0249 -0.005
      vertex 6.07888 35.3282 10.15
      vertex 5.54254 35.0767 -0.005
    endloop
  endfacet
  facet normal -0.922383 -0.382064 0.0568873
    outer loop
      vertex 6.26531 34.8879 10.15
      vertex 6.08771 35.3167 10.15
      vertex 5.68215 34.7838 -0.005
    endloop
  endfacet
  facet normal -0.922383 -0.382064 0.0568873
    outer loop
      vertex 5.68215 34.7838 -0.005
      vertex 6.08771 35.3167 10.15
      vertex 5.58228 35.0249 -0.005
    endloop
  endfacet
  facet normal -0.922383 -0.382064 0.0568873
    outer loop
      vertex 6.27086 34.8745 10.15
      vertex 6.26531 34.8879 10.15
      vertex 5.70713 34.7234 -0.005
    endloop
  endfacet
  facet normal -0.922383 -0.382064 0.0568873
    outer loop
      vertex 5.70713 34.7234 -0.005
      vertex 6.26531 34.8879 10.15
      vertex 5.68215 34.7838 -0.005
    endloop
  endfacet
  facet normal -0.989839 -0.130314 0.0568873
    outer loop
      vertex 6.33144 34.4144 10.15
      vertex 6.27086 34.8745 10.15
      vertex 5.74119 34.4647 -0.005
    endloop
  endfacet
  facet normal -0.989839 -0.130314 0.0568873
    outer loop
      vertex 5.74119 34.4647 -0.005
      vertex 6.27086 34.8745 10.15
      vertex 5.70713 34.7234 -0.005
    endloop
  endfacet
  facet normal -0.989839 -0.130314 0.0568873
    outer loop
      vertex 6.33333 34.4 10.15
      vertex 6.33144 34.4144 10.15
      vertex 5.74971 34.4 -0.005
    endloop
  endfacet
  facet normal -0.989839 -0.130314 0.0568873
    outer loop
      vertex 5.74971 34.4 -0.005
      vertex 6.33144 34.4144 10.15
      vertex 5.74119 34.4647 -0.005
    endloop
  endfacet
  facet normal -0.989839 0.130314 0.0568873
    outer loop
      vertex 6.33333 34.4 10.15
      vertex 5.74971 34.4 -0.005
      vertex 6.27276 33.9399 10.15
    endloop
  endfacet
  facet normal -0.989839 0.130314 0.0568873
    outer loop
      vertex 6.27276 33.9399 10.15
      vertex 5.74971 34.4 -0.005
      vertex 5.71565 34.1413 -0.005
    endloop
  endfacet
  facet normal -0.989839 0.130314 0.0568873
    outer loop
      vertex 6.27276 33.9399 10.15
      vertex 5.71565 34.1413 -0.005
      vertex 6.27086 33.9255 10.15
    endloop
  endfacet
  facet normal -0.989839 0.130314 0.0568873
    outer loop
      vertex 6.27086 33.9255 10.15
      vertex 5.71565 34.1413 -0.005
      vertex 5.70713 34.0766 -0.005
    endloop
  endfacet
  facet normal -0.922383 0.382064 0.0568873
    outer loop
      vertex 6.27086 33.9255 10.15
      vertex 5.70713 34.0766 -0.005
      vertex 6.09326 33.4967 10.15
    endloop
  endfacet
  facet normal -0.922383 0.382064 0.0568873
    outer loop
      vertex 6.09326 33.4967 10.15
      vertex 5.70713 34.0766 -0.005
      vertex 5.60727 33.8355 -0.005
    endloop
  endfacet
  facet normal -0.922383 0.382064 0.0568873
    outer loop
      vertex 6.09326 33.4967 10.15
      vertex 5.60727 33.8355 -0.005
      vertex 6.08771 33.4833 10.15
    endloop
  endfacet
  facet normal -0.922383 0.382064 0.0568873
    outer loop
      vertex 6.08771 33.4833 10.15
      vertex 5.60727 33.8355 -0.005
      vertex 5.58228 33.7751 -0.005
    endloop
  endfacet
  facet normal -0.792069 0.607775 0.0568873
    outer loop
      vertex 6.08771 33.4833 10.15
      vertex 5.58228 33.7751 -0.005
      vertex 5.80519 33.1151 10.15
    endloop
  endfacet
  facet normal -0.792069 0.607775 0.0568873
    outer loop
      vertex 5.80519 33.1151 10.15
      vertex 5.58228 33.7751 -0.005
      vertex 5.42343 33.5681 -0.005
    endloop
  endfacet
  facet normal -0.792065 0.60778 0.0568874
    outer loop
      vertex 5.80519 33.1151 10.15
      vertex 5.42343 33.5681 -0.005
      vertex 5.79636 33.1036 10.15
    endloop
  endfacet
  facet normal -0.792065 0.60778 0.0568874
    outer loop
      vertex 5.79636 33.1036 10.15
      vertex 5.42343 33.5681 -0.005
      vertex 5.38368 33.5163 -0.005
    endloop
  endfacet
  facet normal -0.607775 0.792069 0.0568874
    outer loop
      vertex 5.79636 33.1036 10.15
      vertex 5.38368 33.5163 -0.005
      vertex 5.42817 32.8211 10.15
    endloop
  endfacet
  facet normal -0.607775 0.792069 0.0568874
    outer loop
      vertex 5.42817 32.8211 10.15
      vertex 5.38368 33.5163 -0.005
      vertex 5.17665 33.3575 -0.005
    endloop
  endfacet
  facet normal -0.60778 0.792065 0.0568873
    outer loop
      vertex 5.42817 32.8211 10.15
      vertex 5.17665 33.3575 -0.005
      vertex 5.41667 32.8123 10.15
    endloop
  endfacet
  facet normal -0.60778 0.792065 0.0568873
    outer loop
      vertex 5.41667 32.8123 10.15
      vertex 5.17665 33.3575 -0.005
      vertex 5.12486 33.3177 -0.005
    endloop
  endfacet
  facet normal -0.382064 0.922383 0.0568873
    outer loop
      vertex 5.41667 32.8123 10.15
      vertex 5.12486 33.3177 -0.005
      vertex 4.9879 32.6347 10.15
    endloop
  endfacet
  facet normal -0.382064 0.922383 0.0568873
    outer loop
      vertex 4.9879 32.6347 10.15
      vertex 5.12486 33.3177 -0.005
      vertex 4.88377 33.2179 -0.005
    endloop
  endfacet
  facet normal -0.382064 0.922383 0.0568873
    outer loop
      vertex 4.9879 32.6347 10.15
      vertex 4.88377 33.2179 -0.005
      vertex 4.9745 32.6291 10.15
    endloop
  endfacet
  facet normal -0.382064 0.922383 0.0568873
    outer loop
      vertex 4.9745 32.6291 10.15
      vertex 4.88377 33.2179 -0.005
      vertex 4.82345 33.1929 -0.005
    endloop
  endfacet
  facet normal -0.130314 0.989839 0.0568873
    outer loop
      vertex 4.82345 33.1929 -0.005
      vertex 4.56473 33.1588 -0.005
      vertex 4.9745 32.6291 10.15
    endloop
  endfacet
  facet normal -0.130314 0.989839 0.0568873
    outer loop
      vertex 4.9745 32.6291 10.15
      vertex 4.56473 33.1588 -0.005
      vertex 4.51438 32.5686 10.15
    endloop
  endfacet
  facet normal -0.130314 0.989839 0.0568873
    outer loop
      vertex 4.56473 33.1588 -0.005
      vertex 4.5 33.1503 -0.005
      vertex 4.51438 32.5686 10.15
    endloop
  endfacet
  facet normal -0.130314 0.989839 0.0568873
    outer loop
      vertex 4.51438 32.5686 10.15
      vertex 4.5 33.1503 -0.005
      vertex 4.5 32.5667 10.15
    endloop
  endfacet
  facet normal 0.130314 0.989839 0.0568873
    outer loop
      vertex 4.5 33.1503 -0.005
      vertex 4.24128 33.1843 -0.005
      vertex 4.5 32.5667 10.15
    endloop
  endfacet
  facet normal 0.130314 0.989839 0.0568873
    outer loop
      vertex 4.5 32.5667 10.15
      vertex 4.24128 33.1843 -0.005
      vertex 4.03988 32.6272 10.15
    endloop
  endfacet
  facet normal 0.130314 0.989839 0.0568873
    outer loop
      vertex 4.24128 33.1843 -0.005
      vertex 4.17655 33.1929 -0.005
      vertex 4.03988 32.6272 10.15
    endloop
  endfacet
  facet normal 0.130314 0.989839 0.0568873
    outer loop
      vertex 4.03988 32.6272 10.15
      vertex 4.17655 33.1929 -0.005
      vertex 4.0255 32.6291 10.15
    endloop
  endfacet
  facet normal 0.382064 0.922383 0.0568873
    outer loop
      vertex 4.17655 33.1929 -0.005
      vertex 3.93546 33.2927 -0.005
      vertex 4.0255 32.6291 10.15
    endloop
  endfacet
  facet normal 0.382064 0.922383 0.0568873
    outer loop
      vertex 4.0255 32.6291 10.15
      vertex 3.93546 33.2927 -0.005
      vertex 3.59673 32.8067 10.15
    endloop
  endfacet
  facet normal 0.382064 0.922383 0.0568873
    outer loop
      vertex 3.93546 33.2927 -0.005
      vertex 3.87514 33.3177 -0.005
      vertex 3.59673 32.8067 10.15
    endloop
  endfacet
  facet normal 0.382064 0.922383 0.0568873
    outer loop
      vertex 3.59673 32.8067 10.15
      vertex 3.87514 33.3177 -0.005
      vertex 3.58333 32.8123 10.15
    endloop
  endfacet
  facet normal 0.607775 0.792069 0.0568873
    outer loop
      vertex 3.87514 33.3177 -0.005
      vertex 3.66812 33.4766 -0.005
      vertex 3.58333 32.8123 10.15
    endloop
  endfacet
  facet normal 0.607775 0.792069 0.0568873
    outer loop
      vertex 3.58333 32.8123 10.15
      vertex 3.66812 33.4766 -0.005
      vertex 3.21514 33.0948 10.15
    endloop
  endfacet
  facet normal 0.60778 0.792065 0.0568874
    outer loop
      vertex 3.66812 33.4766 -0.005
      vertex 3.61632 33.5163 -0.005
      vertex 3.21514 33.0948 10.15
    endloop
  endfacet
  facet normal 0.60778 0.792065 0.0568874
    outer loop
      vertex 3.21514 33.0948 10.15
      vertex 3.61632 33.5163 -0.005
      vertex 3.20364 33.1036 10.15
    endloop
  endfacet
  facet normal 0.792069 0.607775 0.0568874
    outer loop
      vertex 3.20364 33.1036 10.15
      vertex 3.61632 33.5163 -0.005
      vertex 3.45746 33.7233 -0.005
    endloop
  endfacet
  facet normal 0.792069 0.607775 0.0568874
    outer loop
      vertex 2.92112 33.4718 10.15
      vertex 3.20364 33.1036 10.15
      vertex 3.45746 33.7233 -0.005
    endloop
  endfacet
  facet normal 0.792065 0.60778 0.0568873
    outer loop
      vertex 2.92112 33.4718 10.15
      vertex 3.45746 33.7233 -0.005
      vertex 3.41772 33.7751 -0.005
    endloop
  endfacet
  facet normal 0.792065 0.60778 0.0568873
    outer loop
      vertex 2.91229 33.4833 10.15
      vertex 2.92112 33.4718 10.15
      vertex 3.41772 33.7751 -0.005
    endloop
  endfacet
  facet normal 0.922383 0.382064 0.0568873
    outer loop
      vertex 2.91229 33.4833 10.15
      vertex 3.41772 33.7751 -0.005
      vertex 3.31785 34.0162 -0.005
    endloop
  endfacet
  facet normal 0.922383 0.382064 0.0568873
    outer loop
      vertex 2.73469 33.9121 10.15
      vertex 2.91229 33.4833 10.15
      vertex 3.31785 34.0162 -0.005
    endloop
  endfacet
  facet normal 0.922383 0.382064 0.0568873
    outer loop
      vertex 2.73469 33.9121 10.15
      vertex 3.31785 34.0162 -0.005
      vertex 3.29287 34.0766 -0.005
    endloop
  endfacet
  facet normal 0.922383 0.382064 0.0568873
    outer loop
      vertex 2.72914 33.9255 10.15
      vertex 2.73469 33.9121 10.15
      vertex 3.29287 34.0766 -0.005
    endloop
  endfacet
  facet normal 0.989839 0.130314 0.0568873
    outer loop
      vertex 2.72914 33.9255 10.15
      vertex 3.29287 34.0766 -0.005
      vertex 3.25881 34.3353 -0.005
    endloop
  endfacet
  facet normal 0.989839 0.130314 0.0568873
    outer loop
      vertex 2.66856 34.3856 10.15
      vertex 2.72914 33.9255 10.15
      vertex 3.25881 34.3353 -0.005
    endloop
  endfacet
  facet normal 0.989839 -0.130314 0.0568873
    outer loop
      vertex 19.6503 5 -0.005
      vertex 19.6843 5.25872 -0.005
      vertex 19.1272 5.46012 10.15
    endloop
  endfacet
  facet normal 0.989839 -0.130314 0.0568873
    outer loop
      vertex 19.0667 5 10.15
      vertex 19.6503 5 -0.005
      vertex 19.1272 5.46012 10.15
    endloop
  endfacet
  facet normal 0.989839 0.130314 0.0568873
    outer loop
      vertex 19.0686 4.98562 10.15
      vertex 19.6588 4.93527 -0.005
      vertex 19.6503 5 -0.005
    endloop
  endfacet
  facet normal 0.989839 0.130314 0.0568873
    outer loop
      vertex 19.0667 5 10.15
      vertex 19.0686 4.98562 10.15
      vertex 19.6503 5 -0.005
    endloop
  endfacet
  facet normal 0.989839 -0.130314 0.0568873
    outer loop
      vertex 19.6843 5.25872 -0.005
      vertex 19.6929 5.32345 -0.005
      vertex 19.1291 5.4745 10.15
    endloop
  endfacet
  facet normal 0.989839 -0.130314 0.0568873
    outer loop
      vertex 19.1272 5.46012 10.15
      vertex 19.6843 5.25872 -0.005
      vertex 19.1291 5.4745 10.15
    endloop
  endfacet
  facet normal 0.922383 -0.382064 0.0568873
    outer loop
      vertex 19.6929 5.32345 -0.005
      vertex 19.7927 5.56454 -0.005
      vertex 19.3067 5.90327 10.15
    endloop
  endfacet
  facet normal 0.922383 -0.382064 0.0568873
    outer loop
      vertex 19.1291 5.4745 10.15
      vertex 19.6929 5.32345 -0.005
      vertex 19.3067 5.90327 10.15
    endloop
  endfacet
  facet normal 0.922383 -0.382064 0.0568873
    outer loop
      vertex 19.7927 5.56454 -0.005
      vertex 19.8177 5.62486 -0.005
      vertex 19.3123 5.91667 10.15
    endloop
  endfacet
  facet normal 0.922383 -0.382064 0.0568873
    outer loop
      vertex 19.3067 5.90327 10.15
      vertex 19.7927 5.56454 -0.005
      vertex 19.3123 5.91667 10.15
    endloop
  endfacet
  facet normal 0.792069 -0.607775 0.0568873
    outer loop
      vertex 19.8177 5.62486 -0.005
      vertex 19.9766 5.83188 -0.005
      vertex 19.5948 6.28486 10.15
    endloop
  endfacet
  facet normal 0.792069 -0.607775 0.0568873
    outer loop
      vertex 19.3123 5.91667 10.15
      vertex 19.8177 5.62486 -0.005
      vertex 19.5948 6.28486 10.15
    endloop
  endfacet
  facet normal 0.792065 -0.60778 0.0568874
    outer loop
      vertex 19.9766 5.83188 -0.005
      vertex 20.0163 5.88368 -0.005
      vertex 19.6036 6.29636 10.15
    endloop
  endfacet
  facet normal 0.792065 -0.60778 0.0568874
    outer loop
      vertex 19.5948 6.28486 10.15
      vertex 19.9766 5.83188 -0.005
      vertex 19.6036 6.29636 10.15
    endloop
  endfacet
  facet normal 0.607775 -0.792069 0.0568874
    outer loop
      vertex 20.0163 5.88368 -0.005
      vertex 20.2233 6.04254 -0.005
      vertex 19.9718 6.57888 10.15
    endloop
  endfacet
  facet normal 0.607775 -0.792069 0.0568874
    outer loop
      vertex 19.6036 6.29636 10.15
      vertex 20.0163 5.88368 -0.005
      vertex 19.9718 6.57888 10.15
    endloop
  endfacet
  facet normal 0.60778 -0.792065 0.0568873
    outer loop
      vertex 20.2233 6.04254 -0.005
      vertex 20.2751 6.08228 -0.005
      vertex 19.9833 6.58771 10.15
    endloop
  endfacet
  facet normal 0.60778 -0.792065 0.0568873
    outer loop
      vertex 19.9718 6.57888 10.15
      vertex 20.2233 6.04254 -0.005
      vertex 19.9833 6.58771 10.15
    endloop
  endfacet
  facet normal 0.382064 -0.922383 0.0568873
    outer loop
      vertex 20.2751 6.08228 -0.005
      vertex 20.5162 6.18215 -0.005
      vertex 20.4121 6.76531 10.15
    endloop
  endfacet
  facet normal 0.382064 -0.922383 0.0568873
    outer loop
      vertex 19.9833 6.58771 10.15
      vertex 20.2751 6.08228 -0.005
      vertex 20.4121 6.76531 10.15
    endloop
  endfacet
  facet normal 0.382064 -0.922383 0.0568873
    outer loop
      vertex 20.5162 6.18215 -0.005
      vertex 20.5766 6.20713 -0.005
      vertex 20.4255 6.77086 10.15
    endloop
  endfacet
  facet normal 0.382064 -0.922383 0.0568873
    outer loop
      vertex 20.4121 6.76531 10.15
      vertex 20.5162 6.18215 -0.005
      vertex 20.4255 6.77086 10.15
    endloop
  endfacet
  facet normal 0.130314 -0.989839 0.0568873
    outer loop
      vertex 20.5766 6.20713 -0.005
      vertex 20.8353 6.24119 -0.005
      vertex 20.8856 6.83144 10.15
    endloop
  endfacet
  facet normal 0.130314 -0.989839 0.0568873
    outer loop
      vertex 20.4255 6.77086 10.15
      vertex 20.5766 6.20713 -0.005
      vertex 20.8856 6.83144 10.15
    endloop
  endfacet
  facet normal 0.130314 -0.989839 0.0568873
    outer loop
      vertex 20.9 6.24971 -0.005
      vertex 20.9 6.83333 10.15
      vertex 20.8856 6.83144 10.15
    endloop
  endfacet
  facet normal 0.130314 -0.989839 0.0568873
    outer loop
      vertex 20.8353 6.24119 -0.005
      vertex 20.9 6.24971 -0.005
      vertex 20.8856 6.83144 10.15
    endloop
  endfacet
  facet normal -0.130314 -0.989839 0.0568873
    outer loop
      vertex 21.1587 6.21565 -0.005
      vertex 21.3601 6.77276 10.15
      vertex 20.9 6.83333 10.15
    endloop
  endfacet
  facet normal -0.130314 -0.989839 0.0568873
    outer loop
      vertex 20.9 6.24971 -0.005
      vertex 21.1587 6.21565 -0.005
      vertex 20.9 6.83333 10.15
    endloop
  endfacet
  facet normal -0.130314 -0.989839 0.0568873
    outer loop
      vertex 21.2234 6.20713 -0.005
      vertex 21.3745 6.77086 10.15
      vertex 21.3601 6.77276 10.15
    endloop
  endfacet
  facet normal -0.130314 -0.989839 0.0568873
    outer loop
      vertex 21.1587 6.21565 -0.005
      vertex 21.2234 6.20713 -0.005
      vertex 21.3601 6.77276 10.15
    endloop
  endfacet
  facet normal -0.382064 -0.922383 0.0568873
    outer loop
      vertex 21.4645 6.10727 -0.005
      vertex 21.8033 6.59326 10.15
      vertex 21.3745 6.77086 10.15
    endloop
  endfacet
  facet normal -0.382064 -0.922383 0.0568873
    outer loop
      vertex 21.2234 6.20713 -0.005
      vertex 21.4645 6.10727 -0.005
      vertex 21.3745 6.77086 10.15
    endloop
  endfacet
  facet normal -0.382064 -0.922383 0.0568873
    outer loop
      vertex 21.5249 6.08228 -0.005
      vertex 21.8167 6.58771 10.15
      vertex 21.8033 6.59326 10.15
    endloop
  endfacet
  facet normal -0.382064 -0.922383 0.0568873
    outer loop
      vertex 21.4645 6.10727 -0.005
      vertex 21.5249 6.08228 -0.005
      vertex 21.8033 6.59326 10.15
    endloop
  endfacet
  facet normal -0.607775 -0.792069 0.0568873
    outer loop
      vertex 21.7319 5.92343 -0.005
      vertex 22.1849 6.30519 10.15
      vertex 21.8167 6.58771 10.15
    endloop
  endfacet
  facet normal -0.607775 -0.792069 0.0568873
    outer loop
      vertex 21.5249 6.08228 -0.005
      vertex 21.7319 5.92343 -0.005
      vertex 21.8167 6.58771 10.15
    endloop
  endfacet
  facet normal -0.60778 -0.792065 0.0568874
    outer loop
      vertex 21.7837 5.88368 -0.005
      vertex 22.1964 6.29636 10.15
      vertex 22.1849 6.30519 10.15
    endloop
  endfacet
  facet normal -0.60778 -0.792065 0.0568874
    outer loop
      vertex 21.7319 5.92343 -0.005
      vertex 21.7837 5.88368 -0.005
      vertex 22.1849 6.30519 10.15
    endloop
  endfacet
  facet normal -0.792069 -0.607775 0.0568874
    outer loop
      vertex 22.4789 5.92817 10.15
      vertex 22.1964 6.29636 10.15
      vertex 21.9425 5.67665 -0.005
    endloop
  endfacet
  facet normal -0.792069 -0.607775 0.0568874
    outer loop
      vertex 21.9425 5.67665 -0.005
      vertex 22.1964 6.29636 10.15
      vertex 21.7837 5.88368 -0.005
    endloop
  endfacet
  facet normal -0.792065 -0.60778 0.0568873
    outer loop
      vertex 22.4877 5.91667 10.15
      vertex 22.4789 5.92817 10.15
      vertex 21.9823 5.62486 -0.005
    endloop
  endfacet
  facet normal -0.792065 -0.60778 0.0568873
    outer loop
      vertex 21.9823 5.62486 -0.005
      vertex 22.4789 5.92817 10.15
      vertex 21.9425 5.67665 -0.005
    endloop
  endfacet
  facet normal -0.922383 -0.382064 0.0568873
    outer loop
      vertex 22.6653 5.4879 10.15
      vertex 22.4877 5.91667 10.15
      vertex 22.0821 5.38377 -0.005
    endloop
  endfacet
  facet normal -0.922383 -0.382064 0.0568873
    outer loop
      vertex 22.0821 5.38377 -0.005
      vertex 22.4877 5.91667 10.15
      vertex 21.9823 5.62486 -0.005
    endloop
  endfacet
  facet normal -0.922383 -0.382064 0.0568873
    outer loop
      vertex 22.6709 5.4745 10.15
      vertex 22.6653 5.4879 10.15
      vertex 22.1071 5.32345 -0.005
    endloop
  endfacet
  facet normal -0.922383 -0.382064 0.0568873
    outer loop
      vertex 22.1071 5.32345 -0.005
      vertex 22.6653 5.4879 10.15
      vertex 22.0821 5.38377 -0.005
    endloop
  endfacet
  facet normal -0.989839 -0.130314 0.0568873
    outer loop
      vertex 22.7314 5.01438 10.15
      vertex 22.6709 5.4745 10.15
      vertex 22.1412 5.06473 -0.005
    endloop
  endfacet
  facet normal -0.989839 -0.130314 0.0568873
    outer loop
      vertex 22.1412 5.06473 -0.005
      vertex 22.6709 5.4745 10.15
      vertex 22.1071 5.32345 -0.005
    endloop
  endfacet
  facet normal -0.989839 -0.130314 0.0568873
    outer loop
      vertex 22.7333 5 10.15
      vertex 22.7314 5.01438 10.15
      vertex 22.1497 5 -0.005
    endloop
  endfacet
  facet normal -0.989839 -0.130314 0.0568873
    outer loop
      vertex 22.1497 5 -0.005
      vertex 22.7314 5.01438 10.15
      vertex 22.1412 5.06473 -0.005
    endloop
  endfacet
  facet normal -0.989839 0.130314 0.0568873
    outer loop
      vertex 22.7333 5 10.15
      vertex 22.1497 5 -0.005
      vertex 22.6728 4.53988 10.15
    endloop
  endfacet
  facet normal -0.989839 0.130314 0.0568873
    outer loop
      vertex 22.6728 4.53988 10.15
      vertex 22.1497 5 -0.005
      vertex 22.1157 4.74128 -0.005
    endloop
  endfacet
  facet normal -0.989839 0.130314 0.0568873
    outer loop
      vertex 22.6728 4.53988 10.15
      vertex 22.1157 4.74128 -0.005
      vertex 22.6709 4.5255 10.15
    endloop
  endfacet
  facet normal -0.989839 0.130314 0.0568873
    outer loop
      vertex 22.6709 4.5255 10.15
      vertex 22.1157 4.74128 -0.005
      vertex 22.1071 4.67655 -0.005
    endloop
  endfacet
  facet normal -0.922383 0.382064 0.0568873
    outer loop
      vertex 22.6709 4.5255 10.15
      vertex 22.1071 4.67655 -0.005
      vertex 22.4933 4.09673 10.15
    endloop
  endfacet
  facet normal -0.922383 0.382064 0.0568873
    outer loop
      vertex 22.4933 4.09673 10.15
      vertex 22.1071 4.67655 -0.005
      vertex 22.0073 4.43546 -0.005
    endloop
  endfacet
  facet normal -0.922383 0.382064 0.0568873
    outer loop
      vertex 22.4933 4.09673 10.15
      vertex 22.0073 4.43546 -0.005
      vertex 22.4877 4.08333 10.15
    endloop
  endfacet
  facet normal -0.922383 0.382064 0.0568873
    outer loop
      vertex 22.4877 4.08333 10.15
      vertex 22.0073 4.43546 -0.005
      vertex 21.9823 4.37514 -0.005
    endloop
  endfacet
  facet normal -0.792069 0.607775 0.0568873
    outer loop
      vertex 22.4877 4.08333 10.15
      vertex 21.9823 4.37514 -0.005
      vertex 22.2052 3.71514 10.15
    endloop
  endfacet
  facet normal -0.792069 0.607775 0.0568873
    outer loop
      vertex 22.2052 3.71514 10.15
      vertex 21.9823 4.37514 -0.005
      vertex 21.8234 4.16812 -0.005
    endloop
  endfacet
  facet normal -0.792065 0.60778 0.0568874
    outer loop
      vertex 22.2052 3.71514 10.15
      vertex 21.8234 4.16812 -0.005
      vertex 22.1964 3.70364 10.15
    endloop
  endfacet
  facet normal -0.792065 0.60778 0.0568874
    outer loop
      vertex 22.1964 3.70364 10.15
      vertex 21.8234 4.16812 -0.005
      vertex 21.7837 4.11632 -0.005
    endloop
  endfacet
  facet normal -0.607775 0.792069 0.0568874
    outer loop
      vertex 22.1964 3.70364 10.15
      vertex 21.7837 4.11632 -0.005
      vertex 21.8282 3.42112 10.15
    endloop
  endfacet
  facet normal -0.607775 0.792069 0.0568874
    outer loop
      vertex 21.8282 3.42112 10.15
      vertex 21.7837 4.11632 -0.005
      vertex 21.5767 3.95746 -0.005
    endloop
  endfacet
  facet normal -0.60778 0.792065 0.0568873
    outer loop
      vertex 21.8282 3.42112 10.15
      vertex 21.5767 3.95746 -0.005
      vertex 21.8167 3.41229 10.15
    endloop
  endfacet
  facet normal -0.60778 0.792065 0.0568873
    outer loop
      vertex 21.8167 3.41229 10.15
      vertex 21.5767 3.95746 -0.005
      vertex 21.5249 3.91772 -0.005
    endloop
  endfacet
  facet normal -0.382064 0.922383 0.0568873
    outer loop
      vertex 21.8167 3.41229 10.15
      vertex 21.5249 3.91772 -0.005
      vertex 21.3879 3.23469 10.15
    endloop
  endfacet
  facet normal -0.382064 0.922383 0.0568873
    outer loop
      vertex 21.3879 3.23469 10.15
      vertex 21.5249 3.91772 -0.005
      vertex 21.2838 3.81785 -0.005
    endloop
  endfacet
  facet normal -0.382064 0.922383 0.0568873
    outer loop
      vertex 21.3879 3.23469 10.15
      vertex 21.2838 3.81785 -0.005
      vertex 21.3745 3.22914 10.15
    endloop
  endfacet
  facet normal -0.382064 0.922383 0.0568873
    outer loop
      vertex 21.3745 3.22914 10.15
      vertex 21.2838 3.81785 -0.005
      vertex 21.2234 3.79287 -0.005
    endloop
  endfacet
  facet normal -0.130314 0.989839 0.0568873
    outer loop
      vertex 21.2234 3.79287 -0.005
      vertex 20.9647 3.75881 -0.005
      vertex 21.3745 3.22914 10.15
    endloop
  endfacet
  facet normal -0.130314 0.989839 0.0568873
    outer loop
      vertex 21.3745 3.22914 10.15
      vertex 20.9647 3.75881 -0.005
      vertex 20.9144 3.16856 10.15
    endloop
  endfacet
  facet normal -0.130314 0.989839 0.0568873
    outer loop
      vertex 20.9647 3.75881 -0.005
      vertex 20.9 3.75029 -0.005
      vertex 20.9144 3.16856 10.15
    endloop
  endfacet
  facet normal -0.130314 0.989839 0.0568873
    outer loop
      vertex 20.9144 3.16856 10.15
      vertex 20.9 3.75029 -0.005
      vertex 20.9 3.16667 10.15
    endloop
  endfacet
  facet normal 0.130314 0.989839 0.0568873
    outer loop
      vertex 20.9 3.75029 -0.005
      vertex 20.6413 3.78435 -0.005
      vertex 20.9 3.16667 10.15
    endloop
  endfacet
  facet normal 0.130314 0.989839 0.0568873
    outer loop
      vertex 20.9 3.16667 10.15
      vertex 20.6413 3.78435 -0.005
      vertex 20.4399 3.22724 10.15
    endloop
  endfacet
  facet normal 0.130314 0.989839 0.0568873
    outer loop
      vertex 20.6413 3.78435 -0.005
      vertex 20.5766 3.79287 -0.005
      vertex 20.4399 3.22724 10.15
    endloop
  endfacet
  facet normal 0.130314 0.989839 0.0568873
    outer loop
      vertex 20.4399 3.22724 10.15
      vertex 20.5766 3.79287 -0.005
      vertex 20.4255 3.22914 10.15
    endloop
  endfacet
  facet normal 0.382064 0.922383 0.0568873
    outer loop
      vertex 20.5766 3.79287 -0.005
      vertex 20.3355 3.89273 -0.005
      vertex 20.4255 3.22914 10.15
    endloop
  endfacet
  facet normal 0.382064 0.922383 0.0568873
    outer loop
      vertex 20.4255 3.22914 10.15
      vertex 20.3355 3.89273 -0.005
      vertex 19.9967 3.40674 10.15
    endloop
  endfacet
  facet normal 0.382064 0.922383 0.0568873
    outer loop
      vertex 20.3355 3.89273 -0.005
      vertex 20.2751 3.91772 -0.005
      vertex 19.9967 3.40674 10.15
    endloop
  endfacet
  facet normal 0.382064 0.922383 0.0568873
    outer loop
      vertex 19.9967 3.40674 10.15
      vertex 20.2751 3.91772 -0.005
      vertex 19.9833 3.41229 10.15
    endloop
  endfacet
  facet normal 0.607775 0.792069 0.0568873
    outer loop
      vertex 20.2751 3.91772 -0.005
      vertex 20.0681 4.07657 -0.005
      vertex 19.9833 3.41229 10.15
    endloop
  endfacet
  facet normal 0.607775 0.792069 0.0568873
    outer loop
      vertex 19.9833 3.41229 10.15
      vertex 20.0681 4.07657 -0.005
      vertex 19.6151 3.69481 10.15
    endloop
  endfacet
  facet normal 0.60778 0.792065 0.0568874
    outer loop
      vertex 20.0681 4.07657 -0.005
      vertex 20.0163 4.11632 -0.005
      vertex 19.6151 3.69481 10.15
    endloop
  endfacet
  facet normal 0.60778 0.792065 0.0568874
    outer loop
      vertex 19.6151 3.69481 10.15
      vertex 20.0163 4.11632 -0.005
      vertex 19.6036 3.70364 10.15
    endloop
  endfacet
  facet normal 0.792069 0.607775 0.0568874
    outer loop
      vertex 19.6036 3.70364 10.15
      vertex 20.0163 4.11632 -0.005
      vertex 19.8575 4.32335 -0.005
    endloop
  endfacet
  facet normal 0.792069 0.607775 0.0568874
    outer loop
      vertex 19.3211 4.07183 10.15
      vertex 19.6036 3.70364 10.15
      vertex 19.8575 4.32335 -0.005
    endloop
  endfacet
  facet normal 0.792065 0.60778 0.0568873
    outer loop
      vertex 19.3211 4.07183 10.15
      vertex 19.8575 4.32335 -0.005
      vertex 19.8177 4.37514 -0.005
    endloop
  endfacet
  facet normal 0.792065 0.60778 0.0568873
    outer loop
      vertex 19.3123 4.08333 10.15
      vertex 19.3211 4.07183 10.15
      vertex 19.8177 4.37514 -0.005
    endloop
  endfacet
  facet normal 0.922383 0.382064 0.0568873
    outer loop
      vertex 19.3123 4.08333 10.15
      vertex 19.8177 4.37514 -0.005
      vertex 19.7179 4.61623 -0.005
    endloop
  endfacet
  facet normal 0.922383 0.382064 0.0568873
    outer loop
      vertex 19.1347 4.5121 10.15
      vertex 19.3123 4.08333 10.15
      vertex 19.7179 4.61623 -0.005
    endloop
  endfacet
  facet normal 0.922383 0.382064 0.0568873
    outer loop
      vertex 19.1347 4.5121 10.15
      vertex 19.7179 4.61623 -0.005
      vertex 19.6929 4.67655 -0.005
    endloop
  endfacet
  facet normal 0.922383 0.382064 0.0568873
    outer loop
      vertex 19.1291 4.5255 10.15
      vertex 19.1347 4.5121 10.15
      vertex 19.6929 4.67655 -0.005
    endloop
  endfacet
  facet normal 0.989839 0.130314 0.0568873
    outer loop
      vertex 19.1291 4.5255 10.15
      vertex 19.6929 4.67655 -0.005
      vertex 19.6588 4.93527 -0.005
    endloop
  endfacet
  facet normal 0.989839 0.130314 0.0568873
    outer loop
      vertex 19.0686 4.98562 10.15
      vertex 19.1291 4.5255 10.15
      vertex 19.6588 4.93527 -0.005
    endloop
  endfacet
  facet normal 0.25882 0.965926 0
    outer loop
      vertex 9 40.4 3.005
      vertex 9 40.4 10.15
      vertex 9.5 40.266 3.005
    endloop
  endfacet
  facet normal 0.25882 0.965926 0
    outer loop
      vertex 9.5 40.266 3.005
      vertex 9 40.4 10.15
      vertex 9.5 40.266 10.15
    endloop
  endfacet
  facet normal 0.707107 0.707107 0
    outer loop
      vertex 9.5 40.266 3.005
      vertex 9.5 40.266 10.15
      vertex 9.86602 39.9 3.005
    endloop
  endfacet
  facet normal 0.707107 0.707107 0
    outer loop
      vertex 9.86602 39.9 3.005
      vertex 9.5 40.266 10.15
      vertex 9.86602 39.9 10.15
    endloop
  endfacet
  facet normal 0.965926 0.25882 0
    outer loop
      vertex 10 39.4 3.005
      vertex 9.86602 39.9 3.005
      vertex 9.86602 39.9 10.15
    endloop
  endfacet
  facet normal 0.965926 0.25882 -0
    outer loop
      vertex 10 39.4 10.15
      vertex 10 39.4 3.005
      vertex 9.86602 39.9 10.15
    endloop
  endfacet
  facet normal 1 0 -0
    outer loop
      vertex 10 29.4 10.15
      vertex 10 29.4 3.005
      vertex 10 39.4 3.005
    endloop
  endfacet
  facet normal 1 0 0
    outer loop
      vertex 10 39.4 10.15
      vertex 10 29.4 10.15
      vertex 10 39.4 3.005
    endloop
  endfacet
  facet normal 0.965926 -0.25882 0
    outer loop
      vertex 9.86602 28.9 10.15
      vertex 9.86602 28.9 3.005
      vertex 10 29.4 3.005
    endloop
  endfacet
  facet normal 0.965926 -0.25882 0
    outer loop
      vertex 10 29.4 10.15
      vertex 9.86602 28.9 10.15
      vertex 10 29.4 3.005
    endloop
  endfacet
  facet normal 0.707107 -0.707107 0
    outer loop
      vertex 9.5 28.534 10.15
      vertex 9.5 28.534 3.005
      vertex 9.86602 28.9 3.005
    endloop
  endfacet
  facet normal 0.707107 -0.707107 0
    outer loop
      vertex 9.86602 28.9 10.15
      vertex 9.5 28.534 10.15
      vertex 9.86602 28.9 3.005
    endloop
  endfacet
  facet normal 0.25882 -0.965926 0
    outer loop
      vertex 9 28.4 10.15
      vertex 9 28.4 3.005
      vertex 9.5 28.534 3.005
    endloop
  endfacet
  facet normal 0.25882 -0.965926 0
    outer loop
      vertex 9.5 28.534 10.15
      vertex 9 28.4 10.15
      vertex 9.5 28.534 3.005
    endloop
  endfacet
  facet normal 0 -1 0
    outer loop
      vertex 0 28.4 10.15
      vertex 0 28.4 3.005
      vertex 9 28.4 3.005
    endloop
  endfacet
  facet normal 0 -1 0
    outer loop
      vertex 9 28.4 10.15
      vertex 0 28.4 10.15
      vertex 9 28.4 3.005
    endloop
  endfacet
  facet normal -0.25882 -0.965926 0
    outer loop
      vertex -0.5 28.534 10.15
      vertex -0.5 28.534 3.005
      vertex 0 28.4 3.005
    endloop
  endfacet
  facet normal -0.25882 -0.965926 0
    outer loop
      vertex 0 28.4 10.15
      vertex -0.5 28.534 10.15
      vertex 0 28.4 3.005
    endloop
  endfacet
  facet normal -0.707107 -0.707107 0
    outer loop
      vertex -0.866025 28.9 10.15
      vertex -0.866025 28.9 3.005
      vertex -0.5 28.534 3.005
    endloop
  endfacet
  facet normal -0.707107 -0.707107 0
    outer loop
      vertex -0.5 28.534 10.15
      vertex -0.866025 28.9 10.15
      vertex -0.5 28.534 3.005
    endloop
  endfacet
  facet normal 0.965926 0.25882 0
    outer loop
      vertex 26.4 10 3.005
      vertex 26.266 10.5 3.005
      vertex 26.266 10.5 10.15
    endloop
  endfacet
  facet normal 0.965926 0.25882 -0
    outer loop
      vertex 26.4 10 10.15
      vertex 26.4 10 3.005
      vertex 26.266 10.5 10.15
    endloop
  endfacet
  facet normal 0.707107 0.707107 0
    outer loop
      vertex 25.9 10.866 3.005
      vertex 25.9 10.866 10.15
      vertex 26.266 10.5 3.005
    endloop
  endfacet
  facet normal 0.707107 0.707107 0
    outer loop
      vertex 26.266 10.5 3.005
      vertex 25.9 10.866 10.15
      vertex 26.266 10.5 10.15
    endloop
  endfacet
  facet normal 0.25882 0.965926 0
    outer loop
      vertex 25.4 11 3.005
      vertex 25.4 11 10.15
      vertex 25.9 10.866 3.005
    endloop
  endfacet
  facet normal 0.25882 0.965926 0
    outer loop
      vertex 25.9 10.866 3.005
      vertex 25.4 11 10.15
      vertex 25.9 10.866 10.15
    endloop
  endfacet
  facet normal 0 1 0
    outer loop
      vertex 16.4 11 3.005
      vertex 16.4 11 10.15
      vertex 25.4 11 3.005
    endloop
  endfacet
  facet normal 0 1 0
    outer loop
      vertex 25.4 11 3.005
      vertex 16.4 11 10.15
      vertex 25.4 11 10.15
    endloop
  endfacet
  facet normal -0.25882 0.965926 0
    outer loop
      vertex 15.9 10.866 3.005
      vertex 15.9 10.866 10.15
      vertex 16.4 11 3.005
    endloop
  endfacet
  facet normal -0.25882 0.965926 0
    outer loop
      vertex 16.4 11 3.005
      vertex 15.9 10.866 10.15
      vertex 16.4 11 10.15
    endloop
  endfacet
  facet normal -0.707107 0.707107 0
    outer loop
      vertex 15.534 10.5 3.005
      vertex 15.534 10.5 10.15
      vertex 15.9 10.866 3.005
    endloop
  endfacet
  facet normal -0.707107 0.707107 0
    outer loop
      vertex 15.9 10.866 3.005
      vertex 15.534 10.5 10.15
      vertex 15.9 10.866 10.15
    endloop
  endfacet
  facet normal -0.965926 0.25882 0
    outer loop
      vertex 15.4 10 3.005
      vertex 15.4 10 10.15
      vertex 15.534 10.5 3.005
    endloop
  endfacet
  facet normal -0.965926 0.25882 0
    outer loop
      vertex 15.534 10.5 3.005
      vertex 15.4 10 10.15
      vertex 15.534 10.5 10.15
    endloop
  endfacet
  facet normal -1 -0 -0
    outer loop
      vertex 15.4 0 3.005
      vertex 15.4 0 10.15
      vertex 15.4 10 3.005
    endloop
  endfacet
  facet normal -1 0 0
    outer loop
      vertex 15.4 10 3.005
      vertex 15.4 0 10.15
      vertex 15.4 10 10.15
    endloop
  endfacet
  facet normal -0.965926 -0.25882 -0
    outer loop
      vertex 15.4 0 3.005
      vertex 15.534 -0.5 3.005
      vertex 15.4 0 10.15
    endloop
  endfacet
  facet normal -0.965926 -0.25882 0
    outer loop
      vertex 15.4 0 10.15
      vertex 15.534 -0.5 3.005
      vertex 15.534 -0.5 10.15
    endloop
  endfacet
  facet normal -0.707107 -0.707107 0
    outer loop
      vertex 15.534 -0.5 10.15
      vertex 15.534 -0.5 3.005
      vertex 15.9 -0.866025 3.005
    endloop
  endfacet
  facet normal -0.707107 -0.707107 0
    outer loop
      vertex 15.9 -0.866025 10.15
      vertex 15.534 -0.5 10.15
      vertex 15.9 -0.866025 3.005
    endloop
  endfacet
  facet normal -0.25882 -0.965926 0
    outer loop
      vertex 15.9 -0.866025 10.15
      vertex 15.9 -0.866025 3.005
      vertex 16.4 -1 3.005
    endloop
  endfacet
  facet normal -0.25882 -0.965926 0
    outer loop
      vertex 16.4 -1 10.15
      vertex 15.9 -0.866025 10.15
      vertex 16.4 -1 3.005
    endloop
  endfacet
  facet normal 0 -0 1
    outer loop
      vertex 15.4 10 10.15
      vertex 15.4 0 10.15
      vertex 15.534 -0.5 10.15
    endloop
  endfacet
  facet normal 0 0 1
    outer loop
      vertex 16.4 -1 10.15
      vertex 15.4 10 10.15
      vertex 15.9 -0.866025 10.15
    endloop
  endfacet
  facet normal 0 0 1
    outer loop
      vertex 15.9 -0.866025 10.15
      vertex 15.4 10 10.15
      vertex 15.534 -0.5 10.15
    endloop
  endfacet
  facet normal -0 0 1
    outer loop
      vertex 19.0686 4.98562 10.15
      vertex 15.4 10 10.15
      vertex 16.4 -1 10.15
    endloop
  endfacet
  facet normal 0 0 1
    outer loop
      vertex 22.4877 5.91667 10.15
      vertex 22.6653 5.4879 10.15
      vertex 26.4 0 10.15
    endloop
  endfacet
  facet normal 0 -0 1
    outer loop
      vertex 26.266 10.5 10.15
      vertex 15.4 10 10.15
      vertex 26.4 10 10.15
    endloop
  endfacet
  facet normal 0 -0 1
    outer loop
      vertex 25.9 10.866 10.15
      vertex 15.4 10 10.15
      vertex 26.266 10.5 10.15
    endloop
  endfacet
  facet normal 0 -0 1
    outer loop
      vertex 25.4 11 10.15
      vertex 15.4 10 10.15
      vertex 25.9 10.866 10.15
    endloop
  endfacet
  facet normal 0 -0 1
    outer loop
      vertex 16.4 11 10.15
      vertex 15.4 10 10.15
      vertex 25.4 11 10.15
    endloop
  endfacet
  facet normal 0 -0 1
    outer loop
      vertex 15.9 10.866 10.15
      vertex 15.4 10 10.15
      vertex 16.4 11 10.15
    endloop
  endfacet
  facet normal 0 -0 1
    outer loop
      vertex 15.534 10.5 10.15
      vertex 15.4 10 10.15
      vertex 15.9 10.866 10.15
    endloop
  endfacet
  facet normal -0 0 1
    outer loop
      vertex 19.1291 4.5255 10.15
      vertex 19.0686 4.98562 10.15
      vertex 16.4 -1 10.15
    endloop
  endfacet
  facet normal -0 -0 1
    outer loop
      vertex 19.0667 5 10.15
      vertex 15.4 10 10.15
      vertex 19.0686 4.98562 10.15
    endloop
  endfacet
  facet normal -0 0 1
    outer loop
      vertex 19.1272 5.46012 10.15
      vertex 15.4 10 10.15
      vertex 19.0667 5 10.15
    endloop
  endfacet
  facet normal -0 0 1
    outer loop
      vertex 19.1291 5.4745 10.15
      vertex 15.4 10 10.15
      vertex 19.1272 5.46012 10.15
    endloop
  endfacet
  facet normal -0 0 1
    outer loop
      vertex 19.3123 5.91667 10.15
      vertex 15.4 10 10.15
      vertex 19.3067 5.90327 10.15
    endloop
  endfacet
  facet normal 0 -0 1
    outer loop
      vertex 22.1964 3.70364 10.15
      vertex 21.8282 3.42112 10.15
      vertex 26.266 -0.5 10.15
    endloop
  endfacet
  facet normal -0 0 1
    outer loop
      vertex 19.6036 6.29636 10.15
      vertex 15.4 10 10.15
      vertex 19.5948 6.28486 10.15
    endloop
  endfacet
  facet normal -0 0 1
    outer loop
      vertex 19.9718 6.57888 10.15
      vertex 15.4 10 10.15
      vertex 19.6036 6.29636 10.15
    endloop
  endfacet
  facet normal -0 0 1
    outer loop
      vertex 19.9833 6.58771 10.15
      vertex 15.4 10 10.15
      vertex 19.9718 6.57888 10.15
    endloop
  endfacet
  facet normal 0 0 1
    outer loop
      vertex 26.4 10 10.15
      vertex 15.4 10 10.15
      vertex 19.9833 6.58771 10.15
    endloop
  endfacet
  facet normal 0 0 1
    outer loop
      vertex 26.4 10 10.15
      vertex 20.4121 6.76531 10.15
      vertex 20.4255 6.77086 10.15
    endloop
  endfacet
  facet normal 0 -0 1
    outer loop
      vertex 22.4877 4.08333 10.15
      vertex 22.2052 3.71514 10.15
      vertex 26.4 0 10.15
    endloop
  endfacet
  facet normal 0 0 1
    outer loop
      vertex 21.8167 3.41229 10.15
      vertex 25.4 -1 10.15
      vertex 25.9 -0.866025 10.15
    endloop
  endfacet
  facet normal 0 0 1
    outer loop
      vertex 26.4 10 10.15
      vertex 20.8856 6.83144 10.15
      vertex 20.9 6.83333 10.15
    endloop
  endfacet
  facet normal 0 -0 1
    outer loop
      vertex 21.8167 3.41229 10.15
      vertex 21.3879 3.23469 10.15
      vertex 25.4 -1 10.15
    endloop
  endfacet
  facet normal 0 0 1
    outer loop
      vertex 26.4 10 10.15
      vertex 20.9 6.83333 10.15
      vertex 21.3601 6.77276 10.15
    endloop
  endfacet
  facet normal 0 -0 1
    outer loop
      vertex 21.3745 3.22914 10.15
      vertex 20.9144 3.16856 10.15
      vertex 25.4 -1 10.15
    endloop
  endfacet
  facet normal 0 0 1
    outer loop
      vertex 26.4 10 10.15
      vertex 21.3601 6.77276 10.15
      vertex 21.3745 6.77086 10.15
    endloop
  endfacet
  facet normal 0 0 1
    outer loop
      vertex 26.4 10 10.15
      vertex 21.3745 6.77086 10.15
      vertex 21.8033 6.59326 10.15
    endloop
  endfacet
  facet normal 0 0 1
    outer loop
      vertex 26.4 10 10.15
      vertex 21.8033 6.59326 10.15
      vertex 21.8167 6.58771 10.15
    endloop
  endfacet
  facet normal 0 0 1
    outer loop
      vertex 26.4 10 10.15
      vertex 21.8167 6.58771 10.15
      vertex 22.1849 6.30519 10.15
    endloop
  endfacet
  facet normal 0 0 1
    outer loop
      vertex 22.6709 5.4745 10.15
      vertex 22.7314 5.01438 10.15
      vertex 26.4 0 10.15
    endloop
  endfacet
  facet normal 0 0 1
    outer loop
      vertex 26.4 10 10.15
      vertex 22.1849 6.30519 10.15
      vertex 22.1964 6.29636 10.15
    endloop
  endfacet
  facet normal 0 0 1
    outer loop
      vertex 26.4 10 10.15
      vertex 22.1964 6.29636 10.15
      vertex 22.4789 5.92817 10.15
    endloop
  endfacet
  facet normal 0 0 1
    outer loop
      vertex 26.4 10 10.15
      vertex 22.4877 5.91667 10.15
      vertex 26.4 0 10.15
    endloop
  endfacet
  facet normal 0 0 1
    outer loop
      vertex 26.4 10 10.15
      vertex 22.4789 5.92817 10.15
      vertex 22.4877 5.91667 10.15
    endloop
  endfacet
  facet normal 0 0 1
    outer loop
      vertex 22.6653 5.4879 10.15
      vertex 22.6709 5.4745 10.15
      vertex 26.4 0 10.15
    endloop
  endfacet
  facet normal 0 0 1
    outer loop
      vertex 22.7314 5.01438 10.15
      vertex 22.7333 5 10.15
      vertex 26.4 0 10.15
    endloop
  endfacet
  facet normal 0 -0 1
    outer loop
      vertex 22.6728 4.53988 10.15
      vertex 22.6709 4.5255 10.15
      vertex 26.4 0 10.15
    endloop
  endfacet
  facet normal 0 -0 1
    outer loop
      vertex 22.6709 4.5255 10.15
      vertex 22.4933 4.09673 10.15
      vertex 26.4 0 10.15
    endloop
  endfacet
  facet normal 0 -0 1
    outer loop
      vertex 22.4933 4.09673 10.15
      vertex 22.4877 4.08333 10.15
      vertex 26.4 0 10.15
    endloop
  endfacet
  facet normal -0 0 1
    outer loop
      vertex 26.4 0 10.15
      vertex 22.2052 3.71514 10.15
      vertex 26.266 -0.5 10.15
    endloop
  endfacet
  facet normal 0 0 1
    outer loop
      vertex 19.9833 6.58771 10.15
      vertex 20.4121 6.76531 10.15
      vertex 26.4 10 10.15
    endloop
  endfacet
  facet normal 0 -0 1
    outer loop
      vertex 22.2052 3.71514 10.15
      vertex 22.1964 3.70364 10.15
      vertex 26.266 -0.5 10.15
    endloop
  endfacet
  facet normal 0 0 1
    outer loop
      vertex 20.4255 6.77086 10.15
      vertex 20.8856 6.83144 10.15
      vertex 26.4 10 10.15
    endloop
  endfacet
  facet normal -0 0 1
    outer loop
      vertex 26.266 -0.5 10.15
      vertex 21.8282 3.42112 10.15
      vertex 25.9 -0.866025 10.15
    endloop
  endfacet
  facet normal 0 -0 1
    outer loop
      vertex 22.7333 5 10.15
      vertex 22.6728 4.53988 10.15
      vertex 26.4 0 10.15
    endloop
  endfacet
  facet normal 0 -0 1
    outer loop
      vertex 21.8282 3.42112 10.15
      vertex 21.8167 3.41229 10.15
      vertex 25.9 -0.866025 10.15
    endloop
  endfacet
  facet normal 0 0 1
    outer loop
      vertex 25.4 -1 10.15
      vertex 21.3879 3.23469 10.15
      vertex 21.3745 3.22914 10.15
    endloop
  endfacet
  facet normal -0 0 1
    outer loop
      vertex 25.4 -1 10.15
      vertex 20.9144 3.16856 10.15
      vertex 16.4 -1 10.15
    endloop
  endfacet
  facet normal 0 0 1
    outer loop
      vertex 20.9144 3.16856 10.15
      vertex 20.9 3.16667 10.15
      vertex 16.4 -1 10.15
    endloop
  endfacet
  facet normal -0 0 1
    outer loop
      vertex 20.9 3.16667 10.15
      vertex 20.4399 3.22724 10.15
      vertex 16.4 -1 10.15
    endloop
  endfacet
  facet normal -0 0 1
    outer loop
      vertex 20.4399 3.22724 10.15
      vertex 20.4255 3.22914 10.15
      vertex 16.4 -1 10.15
    endloop
  endfacet
  facet normal -0 0 1
    outer loop
      vertex 20.4255 3.22914 10.15
      vertex 19.9967 3.40674 10.15
      vertex 16.4 -1 10.15
    endloop
  endfacet
  facet normal -0 0 1
    outer loop
      vertex 19.9967 3.40674 10.15
      vertex 19.9833 3.41229 10.15
      vertex 16.4 -1 10.15
    endloop
  endfacet
  facet normal -0 0 1
    outer loop
      vertex 19.9833 3.41229 10.15
      vertex 19.6151 3.69481 10.15
      vertex 16.4 -1 10.15
    endloop
  endfacet
  facet normal -0 0 1
    outer loop
      vertex 19.6151 3.69481 10.15
      vertex 19.6036 3.70364 10.15
      vertex 16.4 -1 10.15
    endloop
  endfacet
  facet normal -0 0 1
    outer loop
      vertex 19.6036 3.70364 10.15
      vertex 19.3211 4.07183 10.15
      vertex 16.4 -1 10.15
    endloop
  endfacet
  facet normal -0 0 1
    outer loop
      vertex 19.3211 4.07183 10.15
      vertex 19.3123 4.08333 10.15
      vertex 16.4 -1 10.15
    endloop
  endfacet
  facet normal -0 0 1
    outer loop
      vertex 19.3123 4.08333 10.15
      vertex 19.1347 4.5121 10.15
      vertex 16.4 -1 10.15
    endloop
  endfacet
  facet normal -0 0 1
    outer loop
      vertex 19.1347 4.5121 10.15
      vertex 19.1291 4.5255 10.15
      vertex 16.4 -1 10.15
    endloop
  endfacet
  facet normal 0 0 1
    outer loop
      vertex 19.1291 5.4745 10.15
      vertex 19.3067 5.90327 10.15
      vertex 15.4 10 10.15
    endloop
  endfacet
  facet normal 0 0 1
    outer loop
      vertex 19.3123 5.91667 10.15
      vertex 19.5948 6.28486 10.15
      vertex 15.4 10 10.15
    endloop
  endfacet
endsolid OpenSCAD_Model
