solid OpenSCAD_Model
  facet normal -1 -0 -0
    outer loop
      vertex -1 0 -0.005
      vertex -1 0 3.255
      vertex -1 49.4 -0.005
    endloop
  endfacet
  facet normal -1 0 0
    outer loop
      vertex -1 49.4 -0.005
      vertex -1 0 3.255
      vertex -1 40.4 3.255
    endloop
  endfacet
  facet normal -1 0 0
    outer loop
      vertex -1 49.4 -0.005
      vertex -1 40.4 3.255
      vertex -1 40.4 14.4
    endloop
  endfacet
  facet normal -1 0 0
    outer loop
      vertex -1 49.4 -0.005
      vertex -1 40.4 14.4
      vertex -1 49.4 14.4
    endloop
  endfacet
  facet normal -0.965926 -0.25882 -0
    outer loop
      vertex -1 0 -0.005
      vertex -0.866025 -0.5 -0.005
      vertex -1 0 3.255
    endloop
  endfacet
  facet normal -0.965926 -0.25882 0
    outer loop
      vertex -1 0 3.255
      vertex -0.866025 -0.5 -0.005
      vertex -0.866025 -0.5 3.255
    endloop
  endfacet
  facet normal -0 -0 -1
    outer loop
      vertex -1 0 -0.005
      vertex -1 49.4 -0.005
      vertex -0.866025 -0.5 -0.005
    endloop
  endfacet
  facet normal 0 0 -1
    outer loop
      vertex -0.866025 -0.5 -0.005
      vertex -1 49.4 -0.005
      vertex -0.866025 49.9 -0.005
    endloop
  endfacet
  facet normal 0 -0 -1
    outer loop
      vertex -0.866025 -0.5 -0.005
      vertex -0.866025 49.9 -0.005
      vertex -0.5 50.266 -0.005
    endloop
  endfacet
  facet normal 0 0 -1
    outer loop
      vertex -0.866025 -0.5 -0.005
      vertex -0.5 50.266 -0.005
      vertex 0 50.4 -0.005
    endloop
  endfacet
  facet normal 0 -0 -1
    outer loop
      vertex 5.38373 45.7837 -0.005
      vertex 0 50.4 -0.005
      vertex 25.4 50.4 -0.005
    endloop
  endfacet
  facet normal -0 0 -1
    outer loop
      vertex 22.1498 9.5 -0.005
      vertex 26.4 49.4 -0.005
      vertex 26.4 0 -0.005
    endloop
  endfacet
  facet normal -0 0 -1
    outer loop
      vertex -0.866025 -0.5 -0.005
      vertex 26.4 0 -0.005
      vertex 26.266 -0.5 -0.005
    endloop
  endfacet
  facet normal 0 0 -1
    outer loop
      vertex -0.866025 -0.5 -0.005
      vertex 26.266 -0.5 -0.005
      vertex 25.9 -0.866025 -0.005
    endloop
  endfacet
  facet normal 0 0 -1
    outer loop
      vertex -0.866025 -0.5 -0.005
      vertex 25.9 -0.866025 -0.005
      vertex 25.4 -1 -0.005
    endloop
  endfacet
  facet normal 0 0 -1
    outer loop
      vertex -0.866025 -0.5 -0.005
      vertex 25.4 -1 -0.005
      vertex 0 -1 -0.005
    endloop
  endfacet
  facet normal 0 0 -1
    outer loop
      vertex -0.866025 -0.5 -0.005
      vertex 0 -1 -0.005
      vertex -0.5 -0.866025 -0.005
    endloop
  endfacet
  facet normal 0 0 -1
    outer loop
      vertex -0.866025 -0.5 -0.005
      vertex 0 50.4 -0.005
      vertex 2.65 28.7 -0.005
    endloop
  endfacet
  facet normal 0 -0 -1
    outer loop
      vertex 9.15 28.7 -0.005
      vertex 2.65 28.7 -0.005
      vertex 25.4 50.4 -0.005
    endloop
  endfacet
  facet normal -0 0 -1
    outer loop
      vertex 9.15 28.7 -0.005
      vertex 26.4 49.4 -0.005
      vertex 9.15 5 -0.005
    endloop
  endfacet
  facet normal 0 0 -1
    outer loop
      vertex -0.866025 -0.5 -0.005
      vertex 2.65 5 -0.005
      vertex 26.4 0 -0.005
    endloop
  endfacet
  facet normal 0 0 -1
    outer loop
      vertex 2.65 5 -0.005
      vertex 9.15 5 -0.005
      vertex 26.4 0 -0.005
    endloop
  endfacet
  facet normal 0 -0 -1
    outer loop
      vertex 2.65 28.7 -0.005
      vertex 0 50.4 -0.005
      vertex 3.25021 44.9 -0.005
    endloop
  endfacet
  facet normal 0 0 -1
    outer loop
      vertex 2.65 28.7 -0.005
      vertex 3.25021 44.9 -0.005
      vertex 3.25873 44.8353 -0.005
    endloop
  endfacet
  facet normal 0 0 -1
    outer loop
      vertex 2.65 28.7 -0.005
      vertex 3.25873 44.8353 -0.005
      vertex 3.2928 44.5765 -0.005
    endloop
  endfacet
  facet normal 0 0 -1
    outer loop
      vertex 2.65 28.7 -0.005
      vertex 3.2928 44.5765 -0.005
      vertex 3.31778 44.5162 -0.005
    endloop
  endfacet
  facet normal 0 0 -1
    outer loop
      vertex 2.65 28.7 -0.005
      vertex 3.31778 44.5162 -0.005
      vertex 3.41765 44.2751 -0.005
    endloop
  endfacet
  facet normal 0 0 -1
    outer loop
      vertex 2.65 28.7 -0.005
      vertex 3.41765 44.2751 -0.005
      vertex 3.45739 44.2233 -0.005
    endloop
  endfacet
  facet normal 0 0 -1
    outer loop
      vertex 2.65 28.7 -0.005
      vertex 3.45739 44.2233 -0.005
      vertex 3.61627 44.0163 -0.005
    endloop
  endfacet
  facet normal 0 0 -1
    outer loop
      vertex 2.65 28.7 -0.005
      vertex 3.61627 44.0163 -0.005
      vertex 3.66806 43.9765 -0.005
    endloop
  endfacet
  facet normal 0 0 -1
    outer loop
      vertex 2.65 28.7 -0.005
      vertex 3.66806 43.9765 -0.005
      vertex 3.87511 43.8177 -0.005
    endloop
  endfacet
  facet normal 0 0 -1
    outer loop
      vertex 2.65 28.7 -0.005
      vertex 3.87511 43.8177 -0.005
      vertex 3.93542 43.7927 -0.005
    endloop
  endfacet
  facet normal 0 0 -1
    outer loop
      vertex 2.65 28.7 -0.005
      vertex 3.93542 43.7927 -0.005
      vertex 4.17653 43.6928 -0.005
    endloop
  endfacet
  facet normal 0 0 -1
    outer loop
      vertex 2.65 28.7 -0.005
      vertex 4.17653 43.6928 -0.005
      vertex 4.24125 43.6843 -0.005
    endloop
  endfacet
  facet normal 0 0 -1
    outer loop
      vertex 2.65 28.7 -0.005
      vertex 4.24125 43.6843 -0.005
      vertex 4.5 43.6502 -0.005
    endloop
  endfacet
  facet normal 0 0 -1
    outer loop
      vertex 2.65 28.7 -0.005
      vertex 4.5 43.6502 -0.005
      vertex 4.56472 43.6587 -0.005
    endloop
  endfacet
  facet normal 0 0 -1
    outer loop
      vertex 2.65 28.7 -0.005
      vertex 4.56472 43.6587 -0.005
      vertex 4.82347 43.6928 -0.005
    endloop
  endfacet
  facet normal 0 0 -1
    outer loop
      vertex 2.65 28.7 -0.005
      vertex 4.82347 43.6928 -0.005
      vertex 25.4 50.4 -0.005
    endloop
  endfacet
  facet normal 0 0 -1
    outer loop
      vertex 4.82347 43.6928 -0.005
      vertex 4.88378 43.7178 -0.005
      vertex 25.4 50.4 -0.005
    endloop
  endfacet
  facet normal 0 0 -1
    outer loop
      vertex 4.88378 43.7178 -0.005
      vertex 5.12489 43.8177 -0.005
      vertex 25.4 50.4 -0.005
    endloop
  endfacet
  facet normal -0 0 -1
    outer loop
      vertex 5.38373 44.0163 -0.005
      vertex 25.4 50.4 -0.005
      vertex 5.17668 43.8574 -0.005
    endloop
  endfacet
  facet normal -0 0 -1
    outer loop
      vertex 5.42347 44.0681 -0.005
      vertex 25.4 50.4 -0.005
      vertex 5.38373 44.0163 -0.005
    endloop
  endfacet
  facet normal -0 0 -1
    outer loop
      vertex 5.58235 44.2751 -0.005
      vertex 25.4 50.4 -0.005
      vertex 5.42347 44.0681 -0.005
    endloop
  endfacet
  facet normal -0 0 -1
    outer loop
      vertex 5.60733 44.3354 -0.005
      vertex 25.4 50.4 -0.005
      vertex 5.58235 44.2751 -0.005
    endloop
  endfacet
  facet normal -0 0 -1
    outer loop
      vertex 5.7072 44.5765 -0.005
      vertex 25.4 50.4 -0.005
      vertex 5.60733 44.3354 -0.005
    endloop
  endfacet
  facet normal -0 0 -1
    outer loop
      vertex 5.71572 44.6413 -0.005
      vertex 25.4 50.4 -0.005
      vertex 5.7072 44.5765 -0.005
    endloop
  endfacet
  facet normal -0 0 -1
    outer loop
      vertex 5.74979 44.9 -0.005
      vertex 25.4 50.4 -0.005
      vertex 5.71572 44.6413 -0.005
    endloop
  endfacet
  facet normal -0 0 -1
    outer loop
      vertex 5.74127 44.9647 -0.005
      vertex 25.4 50.4 -0.005
      vertex 5.74979 44.9 -0.005
    endloop
  endfacet
  facet normal -0 0 -1
    outer loop
      vertex 5.7072 45.2235 -0.005
      vertex 25.4 50.4 -0.005
      vertex 5.74127 44.9647 -0.005
    endloop
  endfacet
  facet normal -0 0 -1
    outer loop
      vertex 5.58235 45.5249 -0.005
      vertex 25.4 50.4 -0.005
      vertex 5.68222 45.2838 -0.005
    endloop
  endfacet
  facet normal 0 -0 -1
    outer loop
      vertex 5.7072 45.2235 -0.005
      vertex 5.68222 45.2838 -0.005
      vertex 25.4 50.4 -0.005
    endloop
  endfacet
  facet normal 0 0 -1
    outer loop
      vertex 20.2751 8.41765 -0.005
      vertex 26.4 0 -0.005
      vertex 20.0681 8.57653 -0.005
    endloop
  endfacet
  facet normal -0 -0 -1
    outer loop
      vertex 4.82347 46.1072 -0.005
      vertex 0 50.4 -0.005
      vertex 5.06458 46.0073 -0.005
    endloop
  endfacet
  facet normal 0 -0 -1
    outer loop
      vertex 5.58235 45.5249 -0.005
      vertex 5.54261 45.5767 -0.005
      vertex 25.4 50.4 -0.005
    endloop
  endfacet
  facet normal -0 -0 -1
    outer loop
      vertex 5.33194 45.8235 -0.005
      vertex 0 50.4 -0.005
      vertex 5.38373 45.7837 -0.005
    endloop
  endfacet
  facet normal 0 -0 -1
    outer loop
      vertex 5.54261 45.5767 -0.005
      vertex 5.38373 45.7837 -0.005
      vertex 25.4 50.4 -0.005
    endloop
  endfacet
  facet normal -0 -0 -1
    outer loop
      vertex 5.12489 45.9823 -0.005
      vertex 0 50.4 -0.005
      vertex 5.33194 45.8235 -0.005
    endloop
  endfacet
  facet normal -0 -0 -1
    outer loop
      vertex 5.06458 46.0073 -0.005
      vertex 0 50.4 -0.005
      vertex 5.12489 45.9823 -0.005
    endloop
  endfacet
  facet normal -0 -0 -1
    outer loop
      vertex 4.75875 46.1157 -0.005
      vertex 0 50.4 -0.005
      vertex 4.82347 46.1072 -0.005
    endloop
  endfacet
  facet normal -0 -0 -1
    outer loop
      vertex 4.5 46.1498 -0.005
      vertex 0 50.4 -0.005
      vertex 4.75875 46.1157 -0.005
    endloop
  endfacet
  facet normal 0 -0 -1
    outer loop
      vertex 4.43528 46.1413 -0.005
      vertex 0 50.4 -0.005
      vertex 4.5 46.1498 -0.005
    endloop
  endfacet
  facet normal 0 -0 -1
    outer loop
      vertex 4.17653 46.1072 -0.005
      vertex 0 50.4 -0.005
      vertex 4.43528 46.1413 -0.005
    endloop
  endfacet
  facet normal 0 -0 -1
    outer loop
      vertex 4.11622 46.0822 -0.005
      vertex 0 50.4 -0.005
      vertex 4.17653 46.1072 -0.005
    endloop
  endfacet
  facet normal 0 -0 -1
    outer loop
      vertex 3.87511 45.9823 -0.005
      vertex 0 50.4 -0.005
      vertex 4.11622 46.0822 -0.005
    endloop
  endfacet
  facet normal 0 -0 -1
    outer loop
      vertex 3.82332 45.9426 -0.005
      vertex 0 50.4 -0.005
      vertex 3.87511 45.9823 -0.005
    endloop
  endfacet
  facet normal 0 -0 -1
    outer loop
      vertex 3.61627 45.7837 -0.005
      vertex 0 50.4 -0.005
      vertex 3.82332 45.9426 -0.005
    endloop
  endfacet
  facet normal 0 -0 -1
    outer loop
      vertex 3.57653 45.7319 -0.005
      vertex 0 50.4 -0.005
      vertex 3.61627 45.7837 -0.005
    endloop
  endfacet
  facet normal 0 -0 -1
    outer loop
      vertex 3.41765 45.5249 -0.005
      vertex 0 50.4 -0.005
      vertex 3.57653 45.7319 -0.005
    endloop
  endfacet
  facet normal 0 -0 -1
    outer loop
      vertex 3.39267 45.4646 -0.005
      vertex 0 50.4 -0.005
      vertex 3.41765 45.5249 -0.005
    endloop
  endfacet
  facet normal 0 -0 -1
    outer loop
      vertex 3.2928 45.2235 -0.005
      vertex 0 50.4 -0.005
      vertex 3.39267 45.4646 -0.005
    endloop
  endfacet
  facet normal 0 -0 -1
    outer loop
      vertex 3.25021 44.9 -0.005
      vertex 0 50.4 -0.005
      vertex 3.2928 45.2235 -0.005
    endloop
  endfacet
  facet normal 0 0 -8.14139e-08
    outer loop
      vertex 3.25021 44.9 -0.005
      vertex 3.2928 45.2235 -0.005
      vertex 3.28428 45.1587 -0.005
    endloop
  endfacet
  facet normal 0 0 -1
    outer loop
      vertex 9.15 5 -0.005
      vertex 19.6502 9.5 -0.005
      vertex 19.6587 9.43528 -0.005
    endloop
  endfacet
  facet normal 0 0 -1
    outer loop
      vertex 9.15 5 -0.005
      vertex 19.6587 9.43528 -0.005
      vertex 19.6928 9.17653 -0.005
    endloop
  endfacet
  facet normal 0 0 -1
    outer loop
      vertex 9.15 5 -0.005
      vertex 19.6928 9.17653 -0.005
      vertex 19.7178 9.11622 -0.005
    endloop
  endfacet
  facet normal 0 0 -1
    outer loop
      vertex 9.15 5 -0.005
      vertex 19.7178 9.11622 -0.005
      vertex 19.8177 8.87511 -0.005
    endloop
  endfacet
  facet normal -0 0 -1
    outer loop
      vertex 9.15 5 -0.005
      vertex 19.8177 8.87511 -0.005
      vertex 26.4 0 -0.005
    endloop
  endfacet
  facet normal 0 0 -1
    outer loop
      vertex 19.8177 8.87511 -0.005
      vertex 19.8574 8.82332 -0.005
      vertex 26.4 0 -0.005
    endloop
  endfacet
  facet normal 0 0 -1
    outer loop
      vertex 19.8574 8.82332 -0.005
      vertex 20.0163 8.61627 -0.005
      vertex 26.4 0 -0.005
    endloop
  endfacet
  facet normal 0 0 -1
    outer loop
      vertex 20.0163 8.61627 -0.005
      vertex 20.0681 8.57653 -0.005
      vertex 26.4 0 -0.005
    endloop
  endfacet
  facet normal 0 0 -1
    outer loop
      vertex 20.5765 8.2928 -0.005
      vertex 26.4 0 -0.005
      vertex 20.3354 8.39267 -0.005
    endloop
  endfacet
  facet normal 0 0 -1
    outer loop
      vertex 20.2751 8.41765 -0.005
      vertex 20.3354 8.39267 -0.005
      vertex 26.4 0 -0.005
    endloop
  endfacet
  facet normal 0 0 -1
    outer loop
      vertex 19.6928 9.82347 -0.005
      vertex 26.4 49.4 -0.005
      vertex 19.7927 10.0646 -0.005
    endloop
  endfacet
  facet normal -0 0 -1
    outer loop
      vertex 22.1413 9.56472 -0.005
      vertex 26.4 49.4 -0.005
      vertex 22.1498 9.5 -0.005
    endloop
  endfacet
  facet normal 0 0 -1
    outer loop
      vertex 20.5765 8.2928 -0.005
      vertex 20.6413 8.28428 -0.005
      vertex 26.4 0 -0.005
    endloop
  endfacet
  facet normal -0 0 -1
    outer loop
      vertex 20.9 10.7498 -0.005
      vertex 26.4 49.4 -0.005
      vertex 21.1587 10.7157 -0.005
    endloop
  endfacet
  facet normal 0 0 -1
    outer loop
      vertex 20.6413 8.28428 -0.005
      vertex 20.9 8.25021 -0.005
      vertex 26.4 0 -0.005
    endloop
  endfacet
  facet normal -0 0 -1
    outer loop
      vertex 20.9 8.25021 -0.005
      vertex 20.9647 8.25873 -0.005
      vertex 26.4 0 -0.005
    endloop
  endfacet
  facet normal -0 0 -1
    outer loop
      vertex 21.2235 10.7072 -0.005
      vertex 26.4 49.4 -0.005
      vertex 21.4646 10.6073 -0.005
    endloop
  endfacet
  facet normal -0 0 -1
    outer loop
      vertex 20.9647 8.25873 -0.005
      vertex 21.2235 8.2928 -0.005
      vertex 26.4 0 -0.005
    endloop
  endfacet
  facet normal -0 0 -1
    outer loop
      vertex 21.4646 10.6073 -0.005
      vertex 26.4 49.4 -0.005
      vertex 21.5249 10.5823 -0.005
    endloop
  endfacet
  facet normal -0 0 -1
    outer loop
      vertex 21.2235 8.2928 -0.005
      vertex 21.2838 8.31778 -0.005
      vertex 26.4 0 -0.005
    endloop
  endfacet
  facet normal -0 0 -1
    outer loop
      vertex 21.5249 10.5823 -0.005
      vertex 26.4 49.4 -0.005
      vertex 21.7319 10.4235 -0.005
    endloop
  endfacet
  facet normal -0 0 -1
    outer loop
      vertex 21.2838 8.31778 -0.005
      vertex 21.5249 8.41765 -0.005
      vertex 26.4 0 -0.005
    endloop
  endfacet
  facet normal -0 0 -1
    outer loop
      vertex 21.7319 10.4235 -0.005
      vertex 26.4 49.4 -0.005
      vertex 21.7837 10.3837 -0.005
    endloop
  endfacet
  facet normal -0 0 -1
    outer loop
      vertex 21.5249 8.41765 -0.005
      vertex 21.5767 8.45739 -0.005
      vertex 26.4 0 -0.005
    endloop
  endfacet
  facet normal -0 0 -1
    outer loop
      vertex 21.7837 10.3837 -0.005
      vertex 26.4 49.4 -0.005
      vertex 21.9426 10.1767 -0.005
    endloop
  endfacet
  facet normal -0 0 -1
    outer loop
      vertex 21.5767 8.45739 -0.005
      vertex 21.7837 8.61627 -0.005
      vertex 26.4 0 -0.005
    endloop
  endfacet
  facet normal -0 0 -1
    outer loop
      vertex 21.9426 10.1767 -0.005
      vertex 26.4 49.4 -0.005
      vertex 21.9823 10.1249 -0.005
    endloop
  endfacet
  facet normal -0 0 -1
    outer loop
      vertex 21.7837 8.61627 -0.005
      vertex 21.8235 8.66806 -0.005
      vertex 26.4 0 -0.005
    endloop
  endfacet
  facet normal -0 0 -1
    outer loop
      vertex 21.9823 10.1249 -0.005
      vertex 26.4 49.4 -0.005
      vertex 22.0822 9.88378 -0.005
    endloop
  endfacet
  facet normal -0 0 -1
    outer loop
      vertex 21.8235 8.66806 -0.005
      vertex 21.9823 8.87511 -0.005
      vertex 26.4 0 -0.005
    endloop
  endfacet
  facet normal -0 0 -1
    outer loop
      vertex 21.9823 8.87511 -0.005
      vertex 22.0073 8.93542 -0.005
      vertex 26.4 0 -0.005
    endloop
  endfacet
  facet normal -0 0 -1
    outer loop
      vertex 22.0822 9.88378 -0.005
      vertex 26.4 49.4 -0.005
      vertex 22.1072 9.82347 -0.005
    endloop
  endfacet
  facet normal -0 0 -1
    outer loop
      vertex 22.0073 8.93542 -0.005
      vertex 22.1072 9.17653 -0.005
      vertex 26.4 0 -0.005
    endloop
  endfacet
  facet normal -0 0 -1
    outer loop
      vertex 22.1072 9.17653 -0.005
      vertex 22.1157 9.24125 -0.005
      vertex 26.4 0 -0.005
    endloop
  endfacet
  facet normal -0 0 -1
    outer loop
      vertex 22.1157 9.24125 -0.005
      vertex 22.1498 9.5 -0.005
      vertex 26.4 0 -0.005
    endloop
  endfacet
  facet normal -0 0 -1
    outer loop
      vertex 22.1072 9.82347 -0.005
      vertex 26.4 49.4 -0.005
      vertex 22.1413 9.56472 -0.005
    endloop
  endfacet
  facet normal -0 0 -1
    outer loop
      vertex 21.1587 10.7157 -0.005
      vertex 26.4 49.4 -0.005
      vertex 21.2235 10.7072 -0.005
    endloop
  endfacet
  facet normal 0 0 -1
    outer loop
      vertex 20.8353 10.7413 -0.005
      vertex 26.4 49.4 -0.005
      vertex 20.9 10.7498 -0.005
    endloop
  endfacet
  facet normal 0 0 -1
    outer loop
      vertex 20.5765 10.7072 -0.005
      vertex 26.4 49.4 -0.005
      vertex 20.8353 10.7413 -0.005
    endloop
  endfacet
  facet normal 0 0 -1
    outer loop
      vertex 20.5162 10.6822 -0.005
      vertex 26.4 49.4 -0.005
      vertex 20.5765 10.7072 -0.005
    endloop
  endfacet
  facet normal 0 0 -1
    outer loop
      vertex 20.2751 10.5823 -0.005
      vertex 26.4 49.4 -0.005
      vertex 20.5162 10.6822 -0.005
    endloop
  endfacet
  facet normal 0 0 -1
    outer loop
      vertex 20.2233 10.5426 -0.005
      vertex 26.4 49.4 -0.005
      vertex 20.2751 10.5823 -0.005
    endloop
  endfacet
  facet normal 0 0 -1
    outer loop
      vertex 20.0163 10.3837 -0.005
      vertex 26.4 49.4 -0.005
      vertex 20.2233 10.5426 -0.005
    endloop
  endfacet
  facet normal 0 0 -1
    outer loop
      vertex 19.9765 10.3319 -0.005
      vertex 26.4 49.4 -0.005
      vertex 20.0163 10.3837 -0.005
    endloop
  endfacet
  facet normal 0 0 -1
    outer loop
      vertex 19.8177 10.1249 -0.005
      vertex 26.4 49.4 -0.005
      vertex 19.9765 10.3319 -0.005
    endloop
  endfacet
  facet normal 0 0 -1
    outer loop
      vertex 19.7927 10.0646 -0.005
      vertex 26.4 49.4 -0.005
      vertex 19.8177 10.1249 -0.005
    endloop
  endfacet
  facet normal 0 0 -1
    outer loop
      vertex 9.15 5 -0.005
      vertex 26.4 49.4 -0.005
      vertex 19.6928 9.82347 -0.005
    endloop
  endfacet
  facet normal 0 0 -1
    outer loop
      vertex 9.15 5 -0.005
      vertex 19.6928 9.82347 -0.005
      vertex 19.6502 9.5 -0.005
    endloop
  endfacet
  facet normal 0 0 -8.14139e-08
    outer loop
      vertex 19.6928 9.82347 -0.005
      vertex 19.6843 9.75875 -0.005
      vertex 19.6502 9.5 -0.005
    endloop
  endfacet
  facet normal 0 0 -1
    outer loop
      vertex 2.65 5 -0.005
      vertex -0.866025 -0.5 -0.005
      vertex 2.65 28.7 -0.005
    endloop
  endfacet
  facet normal 0 0 -1
    outer loop
      vertex 9.15 28.7 -0.005
      vertex 25.4 50.4 -0.005
      vertex 25.9 50.266 -0.005
    endloop
  endfacet
  facet normal 0 0 -1
    outer loop
      vertex 9.15 28.7 -0.005
      vertex 25.9 50.266 -0.005
      vertex 26.266 49.9 -0.005
    endloop
  endfacet
  facet normal 0 0 -1
    outer loop
      vertex 9.15 28.7 -0.005
      vertex 26.266 49.9 -0.005
      vertex 26.4 49.4 -0.005
    endloop
  endfacet
  facet normal -0 0 -1
    outer loop
      vertex 5.17668 43.8574 -0.005
      vertex 25.4 50.4 -0.005
      vertex 5.12489 43.8177 -0.005
    endloop
  endfacet
  facet normal -0.965926 0.25882 0
    outer loop
      vertex -1 49.4 -0.005
      vertex -1 49.4 14.4
      vertex -0.866025 49.9 -0.005
    endloop
  endfacet
  facet normal -0.965926 0.25882 0
    outer loop
      vertex -0.866025 49.9 -0.005
      vertex -1 49.4 14.4
      vertex -0.866025 49.9 14.4
    endloop
  endfacet
  facet normal 0 -0 1
    outer loop
      vertex -1 49.4 14.4
      vertex -1 40.4 14.4
      vertex -0.866025 39.9 14.4
    endloop
  endfacet
  facet normal 0 0 1
    outer loop
      vertex 0 39.4 14.4
      vertex -1 49.4 14.4
      vertex -0.5 39.534 14.4
    endloop
  endfacet
  facet normal 0 0 1
    outer loop
      vertex -0.5 39.534 14.4
      vertex -1 49.4 14.4
      vertex -0.866025 39.9 14.4
    endloop
  endfacet
  facet normal -0 0 1
    outer loop
      vertex 2.63614 44.8884 14.4
      vertex -1 49.4 14.4
      vertex 0 39.4 14.4
    endloop
  endfacet
  facet normal 0 0 1
    outer loop
      vertex 6.11547 45.8327 14.4
      vertex 6.29734 45.3936 14.4
      vertex 10 40.4 14.4
    endloop
  endfacet
  facet normal 0 -0 1
    outer loop
      vertex 9.86602 49.9 14.4
      vertex -1 49.4 14.4
      vertex 10 49.4 14.4
    endloop
  endfacet
  facet normal 0 -0 1
    outer loop
      vertex 9.5 50.266 14.4
      vertex -1 49.4 14.4
      vertex 9.86602 49.9 14.4
    endloop
  endfacet
  facet normal 0 -0 1
    outer loop
      vertex 9 50.4 14.4
      vertex -1 49.4 14.4
      vertex 9.5 50.266 14.4
    endloop
  endfacet
  facet normal 0 -0 1
    outer loop
      vertex 0 50.4 14.4
      vertex -1 49.4 14.4
      vertex 9 50.4 14.4
    endloop
  endfacet
  facet normal 0 -0 1
    outer loop
      vertex -0.5 50.266 14.4
      vertex -1 49.4 14.4
      vertex 0 50.4 14.4
    endloop
  endfacet
  facet normal 0 -0 1
    outer loop
      vertex -0.866025 49.9 14.4
      vertex -1 49.4 14.4
      vertex -0.5 50.266 14.4
    endloop
  endfacet
  facet normal -0 0 1
    outer loop
      vertex 2.69818 44.4172 14.4
      vertex 2.63614 44.8884 14.4
      vertex 0 39.4 14.4
    endloop
  endfacet
  facet normal -0 -0 1
    outer loop
      vertex 2.63462 44.9 14.4
      vertex -1 49.4 14.4
      vertex 2.63614 44.8884 14.4
    endloop
  endfacet
  facet normal -0 0 1
    outer loop
      vertex 2.69665 45.3712 14.4
      vertex -1 49.4 14.4
      vertex 2.63462 44.9 14.4
    endloop
  endfacet
  facet normal -0 0 1
    outer loop
      vertex 2.69818 45.3828 14.4
      vertex -1 49.4 14.4
      vertex 2.69665 45.3712 14.4
    endloop
  endfacet
  facet normal 0 0 1
    outer loop
      vertex 2.88453 45.8327 14.4
      vertex 3.17384 46.2097 14.4
      vertex -1 49.4 14.4
    endloop
  endfacet
  facet normal -0 0 1
    outer loop
      vertex 2.88453 45.8327 14.4
      vertex -1 49.4 14.4
      vertex 2.88005 45.8219 14.4
    endloop
  endfacet
  facet normal 0 0 1
    outer loop
      vertex 6.30182 45.3828 14.4
      vertex 6.36386 44.9116 14.4
      vertex 10 40.4 14.4
    endloop
  endfacet
  facet normal -0 0 1
    outer loop
      vertex 3.18097 46.219 14.4
      vertex -1 49.4 14.4
      vertex 3.17384 46.2097 14.4
    endloop
  endfacet
  facet normal -0 0 1
    outer loop
      vertex 3.55801 46.5083 14.4
      vertex -1 49.4 14.4
      vertex 3.18097 46.219 14.4
    endloop
  endfacet
  facet normal -0 0 1
    outer loop
      vertex 3.56731 46.5155 14.4
      vertex -1 49.4 14.4
      vertex 3.55801 46.5083 14.4
    endloop
  endfacet
  facet normal 0 0 1
    outer loop
      vertex 10 49.4 14.4
      vertex -1 49.4 14.4
      vertex 3.56731 46.5155 14.4
    endloop
  endfacet
  facet normal 0 0 1
    outer loop
      vertex 10 49.4 14.4
      vertex 4.00638 46.6973 14.4
      vertex 4.0172 46.7018 14.4
    endloop
  endfacet
  facet normal 0 -0 1
    outer loop
      vertex 6.11547 43.9673 14.4
      vertex 5.82616 43.5903 14.4
      vertex 10 40.4 14.4
    endloop
  endfacet
  facet normal 0 0 1
    outer loop
      vertex 5.81903 43.581 14.4
      vertex 9.5 39.534 14.4
      vertex 9.86602 39.9 14.4
    endloop
  endfacet
  facet normal 0 0 1
    outer loop
      vertex 10 49.4 14.4
      vertex 4.48839 46.7639 14.4
      vertex 4.5 46.7654 14.4
    endloop
  endfacet
  facet normal 0 0 1
    outer loop
      vertex 10 49.4 14.4
      vertex 4.5 46.7654 14.4
      vertex 4.97118 46.7034 14.4
    endloop
  endfacet
  facet normal 0 -0 1
    outer loop
      vertex 6.36538 44.9 14.4
      vertex 6.30335 44.4288 14.4
      vertex 10 40.4 14.4
    endloop
  endfacet
  facet normal 0 0 1
    outer loop
      vertex 10 49.4 14.4
      vertex 4.97118 46.7034 14.4
      vertex 4.9828 46.7018 14.4
    endloop
  endfacet
  facet normal 0 -0 1
    outer loop
      vertex 5.81903 43.581 14.4
      vertex 5.44199 43.2917 14.4
      vertex 9.5 39.534 14.4
    endloop
  endfacet
  facet normal 0 0 1
    outer loop
      vertex 10 49.4 14.4
      vertex 4.9828 46.7018 14.4
      vertex 5.42187 46.52 14.4
    endloop
  endfacet
  facet normal 0 0 1
    outer loop
      vertex 10 49.4 14.4
      vertex 5.42187 46.52 14.4
      vertex 5.43269 46.5155 14.4
    endloop
  endfacet
  facet normal 0 0 1
    outer loop
      vertex 10 49.4 14.4
      vertex 5.43269 46.5155 14.4
      vertex 5.80973 46.2262 14.4
    endloop
  endfacet
  facet normal 0 0 1
    outer loop
      vertex 10 49.4 14.4
      vertex 5.80973 46.2262 14.4
      vertex 5.81903 46.219 14.4
    endloop
  endfacet
  facet normal 0 0 1
    outer loop
      vertex 10 49.4 14.4
      vertex 5.81903 46.219 14.4
      vertex 6.10834 45.842 14.4
    endloop
  endfacet
  facet normal 0 0 1
    outer loop
      vertex 10 49.4 14.4
      vertex 6.11547 45.8327 14.4
      vertex 10 40.4 14.4
    endloop
  endfacet
  facet normal 0 0 1
    outer loop
      vertex 10 49.4 14.4
      vertex 6.10834 45.842 14.4
      vertex 6.11547 45.8327 14.4
    endloop
  endfacet
  facet normal 0 0 1
    outer loop
      vertex 6.29734 45.3936 14.4
      vertex 6.30182 45.3828 14.4
      vertex 10 40.4 14.4
    endloop
  endfacet
  facet normal 0 0 1
    outer loop
      vertex 6.36386 44.9116 14.4
      vertex 6.36538 44.9 14.4
      vertex 10 40.4 14.4
    endloop
  endfacet
  facet normal 0 -0 1
    outer loop
      vertex 6.30335 44.4288 14.4
      vertex 6.30182 44.4172 14.4
      vertex 10 40.4 14.4
    endloop
  endfacet
  facet normal 0 -0 1
    outer loop
      vertex 6.30182 44.4172 14.4
      vertex 6.11995 43.9781 14.4
      vertex 10 40.4 14.4
    endloop
  endfacet
  facet normal 0 -0 1
    outer loop
      vertex 6.11995 43.9781 14.4
      vertex 6.11547 43.9673 14.4
      vertex 10 40.4 14.4
    endloop
  endfacet
  facet normal -0 0 1
    outer loop
      vertex 10 40.4 14.4
      vertex 5.82616 43.5903 14.4
      vertex 9.86602 39.9 14.4
    endloop
  endfacet
  facet normal 0 0 1
    outer loop
      vertex 3.56731 46.5155 14.4
      vertex 4.00638 46.6973 14.4
      vertex 10 49.4 14.4
    endloop
  endfacet
  facet normal 0 -0 1
    outer loop
      vertex 5.82616 43.5903 14.4
      vertex 5.81903 43.581 14.4
      vertex 9.86602 39.9 14.4
    endloop
  endfacet
  facet normal 0 0 1
    outer loop
      vertex 4.0172 46.7018 14.4
      vertex 4.48839 46.7639 14.4
      vertex 10 49.4 14.4
    endloop
  endfacet
  facet normal -0 0 1
    outer loop
      vertex 9.5 39.534 14.4
      vertex 5.44199 43.2917 14.4
      vertex 9 39.4 14.4
    endloop
  endfacet
  facet normal 0 -0 1
    outer loop
      vertex 5.44199 43.2917 14.4
      vertex 5.43269 43.2845 14.4
      vertex 9 39.4 14.4
    endloop
  endfacet
  facet normal 0 -0 1
    outer loop
      vertex 5.43269 43.2845 14.4
      vertex 4.99362 43.1027 14.4
      vertex 9 39.4 14.4
    endloop
  endfacet
  facet normal 0 0 1
    outer loop
      vertex 9 39.4 14.4
      vertex 4.99362 43.1027 14.4
      vertex 4.9828 43.0982 14.4
    endloop
  endfacet
  facet normal -0 0 1
    outer loop
      vertex 9 39.4 14.4
      vertex 4.51161 43.0361 14.4
      vertex 0 39.4 14.4
    endloop
  endfacet
  facet normal 0 0 1
    outer loop
      vertex 4.51161 43.0361 14.4
      vertex 4.5 43.0346 14.4
      vertex 0 39.4 14.4
    endloop
  endfacet
  facet normal -0 0 1
    outer loop
      vertex 4.5 43.0346 14.4
      vertex 4.02882 43.0966 14.4
      vertex 0 39.4 14.4
    endloop
  endfacet
  facet normal -0 0 1
    outer loop
      vertex 4.02882 43.0966 14.4
      vertex 4.0172 43.0982 14.4
      vertex 0 39.4 14.4
    endloop
  endfacet
  facet normal -0 0 1
    outer loop
      vertex 4.0172 43.0982 14.4
      vertex 3.57813 43.28 14.4
      vertex 0 39.4 14.4
    endloop
  endfacet
  facet normal -0 0 1
    outer loop
      vertex 3.57813 43.28 14.4
      vertex 3.56731 43.2845 14.4
      vertex 0 39.4 14.4
    endloop
  endfacet
  facet normal -0 0 1
    outer loop
      vertex 3.56731 43.2845 14.4
      vertex 3.19027 43.5738 14.4
      vertex 0 39.4 14.4
    endloop
  endfacet
  facet normal -0 0 1
    outer loop
      vertex 3.19027 43.5738 14.4
      vertex 3.18097 43.581 14.4
      vertex 0 39.4 14.4
    endloop
  endfacet
  facet normal -0 0 1
    outer loop
      vertex 3.18097 43.581 14.4
      vertex 2.89166 43.958 14.4
      vertex 0 39.4 14.4
    endloop
  endfacet
  facet normal -0 0 1
    outer loop
      vertex 2.89166 43.958 14.4
      vertex 2.88453 43.9673 14.4
      vertex 0 39.4 14.4
    endloop
  endfacet
  facet normal -0 0 1
    outer loop
      vertex 2.88453 43.9673 14.4
      vertex 2.70266 44.4064 14.4
      vertex 0 39.4 14.4
    endloop
  endfacet
  facet normal -0 0 1
    outer loop
      vertex 2.70266 44.4064 14.4
      vertex 2.69818 44.4172 14.4
      vertex 0 39.4 14.4
    endloop
  endfacet
  facet normal 0 -0 1
    outer loop
      vertex 4.9828 43.0982 14.4
      vertex 4.51161 43.0361 14.4
      vertex 9 39.4 14.4
    endloop
  endfacet
  facet normal 0 0 1
    outer loop
      vertex 2.69818 45.3828 14.4
      vertex 2.88005 45.8219 14.4
      vertex -1 49.4 14.4
    endloop
  endfacet
  facet normal -0.965926 -0.25882 -0
    outer loop
      vertex -1 40.4 3.255
      vertex -0.866025 39.9 3.255
      vertex -1 40.4 14.4
    endloop
  endfacet
  facet normal -0.965926 -0.25882 0
    outer loop
      vertex -1 40.4 14.4
      vertex -0.866025 39.9 3.255
      vertex -0.866025 39.9 14.4
    endloop
  endfacet
  facet normal 0 -0 1
    outer loop
      vertex -1 40.4 3.255
      vertex -1 0 3.255
      vertex -0.866025 -0.5 3.255
    endloop
  endfacet
  facet normal 0 0 1
    outer loop
      vertex 0 -1 3.255
      vertex -1 40.4 3.255
      vertex -0.5 -0.866025 3.255
    endloop
  endfacet
  facet normal 0 0 1
    outer loop
      vertex -0.5 -0.866025 3.255
      vertex -1 40.4 3.255
      vertex -0.866025 -0.5 3.255
    endloop
  endfacet
  facet normal -0 -0 1
    outer loop
      vertex -0.866025 39.9 3.255
      vertex -1 40.4 3.255
      vertex 0 -1 3.255
    endloop
  endfacet
  facet normal 0 0 1
    outer loop
      vertex 9.15 28.7 3.255
      vertex 15.4 14 3.255
      vertex 15.534 14.5 3.255
    endloop
  endfacet
  facet normal 0 0 1
    outer loop
      vertex 2.65 28.7 3.255
      vertex 9.15 28.7 3.255
      vertex 0 39.4 3.255
    endloop
  endfacet
  facet normal 0 0 1
    outer loop
      vertex 10 49.4 3.255
      vertex 26.266 49.9 3.255
      vertex 25.9 50.266 3.255
    endloop
  endfacet
  facet normal 0 0 1
    outer loop
      vertex 26.4 5 3.255
      vertex 26.266 4.5 3.255
      vertex 26.4 0 3.255
    endloop
  endfacet
  facet normal 0 0 1
    outer loop
      vertex 10 49.4 3.255
      vertex 26.4 49.4 3.255
      vertex 26.266 49.9 3.255
    endloop
  endfacet
  facet normal 0 -0 1
    outer loop
      vertex 26.266 4.5 3.255
      vertex 25.9 4.13397 3.255
      vertex 26.4 0 3.255
    endloop
  endfacet
  facet normal 0 -0 1
    outer loop
      vertex 10 49.4 3.255
      vertex 10 40.4 3.255
      vertex 26.4 49.4 3.255
    endloop
  endfacet
  facet normal 0 -0 1
    outer loop
      vertex 25.9 4.13397 3.255
      vertex 25.4 4 3.255
      vertex 26.4 0 3.255
    endloop
  endfacet
  facet normal -0 0 1
    outer loop
      vertex 25.4 -1 3.255
      vertex 16.4 4 3.255
      vertex 0 -1 3.255
    endloop
  endfacet
  facet normal -0 0 1
    outer loop
      vertex 16.4 4 3.255
      vertex 15.9 4.13397 3.255
      vertex 0 -1 3.255
    endloop
  endfacet
  facet normal -0 0 1
    outer loop
      vertex 15.9 4.13397 3.255
      vertex 15.534 4.5 3.255
      vertex 0 -1 3.255
    endloop
  endfacet
  facet normal 0 0 1
    outer loop
      vertex 9.15 28.7 3.255
      vertex 15.534 14.5 3.255
      vertex 15.9 14.866 3.255
    endloop
  endfacet
  facet normal 0 0 1
    outer loop
      vertex 16.4 15 3.255
      vertex 25.4 15 3.255
      vertex 9.15 28.7 3.255
    endloop
  endfacet
  facet normal 0 0 1
    outer loop
      vertex 2.65 28.7 3.255
      vertex 0 39.4 3.255
      vertex -0.5 39.534 3.255
    endloop
  endfacet
  facet normal 0 0 1
    outer loop
      vertex 2.65 28.7 3.255
      vertex -0.5 39.534 3.255
      vertex -0.866025 39.9 3.255
    endloop
  endfacet
  facet normal 0 -0 1
    outer loop
      vertex 15.4 5 3.255
      vertex 9.15 5 3.255
      vertex 15.534 4.5 3.255
    endloop
  endfacet
  facet normal 0 -0 1
    outer loop
      vertex 9.15 28.7 3.255
      vertex 9.15 5 3.255
      vertex 15.4 5 3.255
    endloop
  endfacet
  facet normal 0 0 1
    outer loop
      vertex 26.4 49.4 3.255
      vertex 25.9 14.866 3.255
      vertex 26.266 14.5 3.255
    endloop
  endfacet
  facet normal 0 0 1
    outer loop
      vertex 26.4 49.4 3.255
      vertex 26.266 14.5 3.255
      vertex 26.4 14 3.255
    endloop
  endfacet
  facet normal 0 0 1
    outer loop
      vertex 9 39.4 3.255
      vertex 25.4 15 3.255
      vertex 25.9 14.866 3.255
    endloop
  endfacet
  facet normal 0 -0 1
    outer loop
      vertex 9 39.4 3.255
      vertex 0 39.4 3.255
      vertex 25.4 15 3.255
    endloop
  endfacet
  facet normal 0 0 1
    outer loop
      vertex 9 50.4 3.255
      vertex 9.5 50.266 3.255
      vertex 25.4 50.4 3.255
    endloop
  endfacet
  facet normal 0 0 1
    outer loop
      vertex 9.5 50.266 3.255
      vertex 9.86602 49.9 3.255
      vertex 25.4 50.4 3.255
    endloop
  endfacet
  facet normal 0 0 1
    outer loop
      vertex 9.86602 49.9 3.255
      vertex 10 49.4 3.255
      vertex 25.4 50.4 3.255
    endloop
  endfacet
  facet normal 0 0 1
    outer loop
      vertex 26.4 49.4 3.255
      vertex 10 40.4 3.255
      vertex 25.9 14.866 3.255
    endloop
  endfacet
  facet normal 0 -0 1
    outer loop
      vertex 10 40.4 3.255
      vertex 9.86602 39.9 3.255
      vertex 25.9 14.866 3.255
    endloop
  endfacet
  facet normal 0 -0 1
    outer loop
      vertex 9.86602 39.9 3.255
      vertex 9.5 39.534 3.255
      vertex 25.9 14.866 3.255
    endloop
  endfacet
  facet normal 0 -0 1
    outer loop
      vertex 9.5 39.534 3.255
      vertex 9 39.4 3.255
      vertex 25.9 14.866 3.255
    endloop
  endfacet
  facet normal 0 0 1
    outer loop
      vertex 10 49.4 3.255
      vertex 25.9 50.266 3.255
      vertex 25.4 50.4 3.255
    endloop
  endfacet
  facet normal -0 0 1
    outer loop
      vertex 2.65 5 3.255
      vertex -0.866025 39.9 3.255
      vertex 0 -1 3.255
    endloop
  endfacet
  facet normal 0 0 1
    outer loop
      vertex 9.15 28.7 3.255
      vertex 15.9 14.866 3.255
      vertex 16.4 15 3.255
    endloop
  endfacet
  facet normal -0 0 1
    outer loop
      vertex 15.534 4.5 3.255
      vertex 2.65 5 3.255
      vertex 0 -1 3.255
    endloop
  endfacet
  facet normal -0 0 1
    outer loop
      vertex 2.65 28.7 3.255
      vertex -0.866025 39.9 3.255
      vertex 2.65 5 3.255
    endloop
  endfacet
  facet normal 0 0 1
    outer loop
      vertex 25.4 15 3.255
      vertex 0 39.4 3.255
      vertex 9.15 28.7 3.255
    endloop
  endfacet
  facet normal 0 0 1
    outer loop
      vertex 15.534 4.5 3.255
      vertex 9.15 5 3.255
      vertex 2.65 5 3.255
    endloop
  endfacet
  facet normal 0 0 1
    outer loop
      vertex 9.15 28.7 3.255
      vertex 15.4 5 3.255
      vertex 15.4 14 3.255
    endloop
  endfacet
  facet normal 0 0 1
    outer loop
      vertex 25.4 4 3.255
      vertex 26.266 -0.5 3.255
      vertex 26.4 0 3.255
    endloop
  endfacet
  facet normal 0 0 1
    outer loop
      vertex 25.4 4 3.255
      vertex 25.9 -0.866025 3.255
      vertex 26.266 -0.5 3.255
    endloop
  endfacet
  facet normal 0 -0 1
    outer loop
      vertex 25.4 4 3.255
      vertex 25.4 -1 3.255
      vertex 25.9 -0.866025 3.255
    endloop
  endfacet
  facet normal 0 0 1
    outer loop
      vertex 25.4 4 3.255
      vertex 16.4 4 3.255
      vertex 25.4 -1 3.255
    endloop
  endfacet
  facet normal -0.707107 -0.707107 0
    outer loop
      vertex -0.866025 -0.5 3.255
      vertex -0.866025 -0.5 -0.005
      vertex -0.5 -0.866025 -0.005
    endloop
  endfacet
  facet normal -0.707107 -0.707107 0
    outer loop
      vertex -0.5 -0.866025 3.255
      vertex -0.866025 -0.5 3.255
      vertex -0.5 -0.866025 -0.005
    endloop
  endfacet
  facet normal -0.25882 -0.965926 0
    outer loop
      vertex -0.5 -0.866025 3.255
      vertex -0.5 -0.866025 -0.005
      vertex 0 -1 -0.005
    endloop
  endfacet
  facet normal -0.25882 -0.965926 0
    outer loop
      vertex 0 -1 3.255
      vertex -0.5 -0.866025 3.255
      vertex 0 -1 -0.005
    endloop
  endfacet
  facet normal 0 -1 0
    outer loop
      vertex 0 -1 3.255
      vertex 0 -1 -0.005
      vertex 25.4 -1 -0.005
    endloop
  endfacet
  facet normal 0 -1 0
    outer loop
      vertex 25.4 -1 3.255
      vertex 0 -1 3.255
      vertex 25.4 -1 -0.005
    endloop
  endfacet
  facet normal 0.25882 -0.965926 0
    outer loop
      vertex 25.4 -1 3.255
      vertex 25.4 -1 -0.005
      vertex 25.9 -0.866025 -0.005
    endloop
  endfacet
  facet normal 0.25882 -0.965926 0
    outer loop
      vertex 25.9 -0.866025 3.255
      vertex 25.4 -1 3.255
      vertex 25.9 -0.866025 -0.005
    endloop
  endfacet
  facet normal 0.707107 -0.707107 0
    outer loop
      vertex 25.9 -0.866025 3.255
      vertex 25.9 -0.866025 -0.005
      vertex 26.266 -0.5 -0.005
    endloop
  endfacet
  facet normal 0.707107 -0.707107 0
    outer loop
      vertex 26.266 -0.5 3.255
      vertex 25.9 -0.866025 3.255
      vertex 26.266 -0.5 -0.005
    endloop
  endfacet
  facet normal 0.965926 -0.25882 0
    outer loop
      vertex 26.266 -0.5 3.255
      vertex 26.266 -0.5 -0.005
      vertex 26.4 0 -0.005
    endloop
  endfacet
  facet normal 0.965926 -0.25882 0
    outer loop
      vertex 26.4 0 3.255
      vertex 26.266 -0.5 3.255
      vertex 26.4 0 -0.005
    endloop
  endfacet
  facet normal 1 0 -0
    outer loop
      vertex 26.4 0 3.255
      vertex 26.4 0 -0.005
      vertex 26.4 49.4 -0.005
    endloop
  endfacet
  facet normal 1 0 -0
    outer loop
      vertex 26.4 5 3.255
      vertex 26.4 0 3.255
      vertex 26.4 49.4 -0.005
    endloop
  endfacet
  facet normal 1 0 -0
    outer loop
      vertex 26.4 14 3.255
      vertex 26.4 5 3.255
      vertex 26.4 49.4 -0.005
    endloop
  endfacet
  facet normal 1 0 0
    outer loop
      vertex 26.4 49.4 3.255
      vertex 26.4 14 3.255
      vertex 26.4 49.4 -0.005
    endloop
  endfacet
  facet normal 1 0 0
    outer loop
      vertex 26.4 14 14.4
      vertex 26.4 5 3.255
      vertex 26.4 14 3.255
    endloop
  endfacet
  facet normal 1 0 -0
    outer loop
      vertex 26.4 5 14.4
      vertex 26.4 5 3.255
      vertex 26.4 14 14.4
    endloop
  endfacet
  facet normal 0.965926 0.25882 0
    outer loop
      vertex 26.4 49.4 -0.005
      vertex 26.266 49.9 -0.005
      vertex 26.266 49.9 3.255
    endloop
  endfacet
  facet normal 0.965926 0.25882 -0
    outer loop
      vertex 26.4 49.4 3.255
      vertex 26.4 49.4 -0.005
      vertex 26.266 49.9 3.255
    endloop
  endfacet
  facet normal 0.707107 0.707107 0
    outer loop
      vertex 25.9 50.266 -0.005
      vertex 25.9 50.266 3.255
      vertex 26.266 49.9 -0.005
    endloop
  endfacet
  facet normal 0.707107 0.707107 0
    outer loop
      vertex 26.266 49.9 -0.005
      vertex 25.9 50.266 3.255
      vertex 26.266 49.9 3.255
    endloop
  endfacet
  facet normal 0.25882 0.965926 0
    outer loop
      vertex 25.4 50.4 -0.005
      vertex 25.4 50.4 3.255
      vertex 25.9 50.266 -0.005
    endloop
  endfacet
  facet normal 0.25882 0.965926 0
    outer loop
      vertex 25.9 50.266 -0.005
      vertex 25.4 50.4 3.255
      vertex 25.9 50.266 3.255
    endloop
  endfacet
  facet normal 0 1 0
    outer loop
      vertex 25.4 50.4 3.255
      vertex 25.4 50.4 -0.005
      vertex 9 50.4 3.255
    endloop
  endfacet
  facet normal 0 1 0
    outer loop
      vertex 0 50.4 -0.005
      vertex 0 50.4 14.4
      vertex 9 50.4 3.255
    endloop
  endfacet
  facet normal 0 1 0
    outer loop
      vertex 0 50.4 -0.005
      vertex 9 50.4 3.255
      vertex 25.4 50.4 -0.005
    endloop
  endfacet
  facet normal 0 1 0
    outer loop
      vertex 9 50.4 3.255
      vertex 0 50.4 14.4
      vertex 9 50.4 14.4
    endloop
  endfacet
  facet normal -0.25882 0.965926 0
    outer loop
      vertex -0.5 50.266 -0.005
      vertex -0.5 50.266 14.4
      vertex 0 50.4 -0.005
    endloop
  endfacet
  facet normal -0.25882 0.965926 0
    outer loop
      vertex 0 50.4 -0.005
      vertex -0.5 50.266 14.4
      vertex 0 50.4 14.4
    endloop
  endfacet
  facet normal -0.707107 0.707107 0
    outer loop
      vertex -0.866025 49.9 -0.005
      vertex -0.866025 49.9 14.4
      vertex -0.5 50.266 -0.005
    endloop
  endfacet
  facet normal -0.707107 0.707107 0
    outer loop
      vertex -0.5 50.266 -0.005
      vertex -0.866025 49.9 14.4
      vertex -0.5 50.266 14.4
    endloop
  endfacet
  facet normal 1 0 0
    outer loop
      vertex 2.65 28.7 -0.005
      vertex 2.65 28.7 3.255
      vertex 2.65 5 3.255
    endloop
  endfacet
  facet normal 1 0 0
    outer loop
      vertex 2.65 5 -0.005
      vertex 2.65 28.7 -0.005
      vertex 2.65 5 3.255
    endloop
  endfacet
  facet normal 0 -1 0
    outer loop
      vertex 9.15 28.7 -0.005
      vertex 9.15 28.7 3.255
      vertex 2.65 28.7 3.255
    endloop
  endfacet
  facet normal -0 -1 -0
    outer loop
      vertex 2.65 28.7 -0.005
      vertex 9.15 28.7 -0.005
      vertex 2.65 28.7 3.255
    endloop
  endfacet
  facet normal -1 0 0
    outer loop
      vertex 9.15 28.7 3.255
      vertex 9.15 28.7 -0.005
      vertex 9.15 5 3.255
    endloop
  endfacet
  facet normal -1 0 0
    outer loop
      vertex 9.15 5 3.255
      vertex 9.15 28.7 -0.005
      vertex 9.15 5 -0.005
    endloop
  endfacet
  facet normal 0 1 0
    outer loop
      vertex 9.15 5 3.255
      vertex 9.15 5 -0.005
      vertex 2.65 5 3.255
    endloop
  endfacet
  facet normal 0 1 -0
    outer loop
      vertex 2.65 5 3.255
      vertex 9.15 5 -0.005
      vertex 2.65 5 -0.005
    endloop
  endfacet
  facet normal 0.990556 -0.130409 0.0423315
    outer loop
      vertex 3.25021 44.9 -0.005
      vertex 3.28428 45.1587 -0.005
      vertex 2.69665 45.3712 14.4
    endloop
  endfacet
  facet normal 0.990556 -0.130409 0.0423315
    outer loop
      vertex 2.63462 44.9 14.4
      vertex 3.25021 44.9 -0.005
      vertex 2.69665 45.3712 14.4
    endloop
  endfacet
  facet normal 0.990556 0.130408 0.0423315
    outer loop
      vertex 2.63614 44.8884 14.4
      vertex 3.25873 44.8353 -0.005
      vertex 3.25021 44.9 -0.005
    endloop
  endfacet
  facet normal 0.990556 0.130408 0.0423315
    outer loop
      vertex 2.63462 44.9 14.4
      vertex 2.63614 44.8884 14.4
      vertex 3.25021 44.9 -0.005
    endloop
  endfacet
  facet normal 0.990556 -0.130408 0.0423315
    outer loop
      vertex 3.28428 45.1587 -0.005
      vertex 3.2928 45.2235 -0.005
      vertex 2.69818 45.3828 14.4
    endloop
  endfacet
  facet normal 0.990556 -0.130408 0.0423315
    outer loop
      vertex 2.69665 45.3712 14.4
      vertex 3.28428 45.1587 -0.005
      vertex 2.69818 45.3828 14.4
    endloop
  endfacet
  facet normal 0.923051 -0.382341 0.0423315
    outer loop
      vertex 3.2928 45.2235 -0.005
      vertex 3.39267 45.4646 -0.005
      vertex 2.88005 45.8219 14.4
    endloop
  endfacet
  facet normal 0.923051 -0.382341 0.0423315
    outer loop
      vertex 2.69818 45.3828 14.4
      vertex 3.2928 45.2235 -0.005
      vertex 2.88005 45.8219 14.4
    endloop
  endfacet
  facet normal 0.923051 -0.38234 0.0423315
    outer loop
      vertex 3.39267 45.4646 -0.005
      vertex 3.41765 45.5249 -0.005
      vertex 2.88453 45.8327 14.4
    endloop
  endfacet
  facet normal 0.923051 -0.38234 0.0423315
    outer loop
      vertex 2.88005 45.8219 14.4
      vertex 3.39267 45.4646 -0.005
      vertex 2.88453 45.8327 14.4
    endloop
  endfacet
  facet normal 0.792643 -0.608215 0.0423315
    outer loop
      vertex 3.41765 45.5249 -0.005
      vertex 3.57653 45.7319 -0.005
      vertex 3.17384 46.2097 14.4
    endloop
  endfacet
  facet normal 0.792643 -0.608215 0.0423315
    outer loop
      vertex 2.88453 45.8327 14.4
      vertex 3.41765 45.5249 -0.005
      vertex 3.17384 46.2097 14.4
    endloop
  endfacet
  facet normal 0.792639 -0.608221 0.0423315
    outer loop
      vertex 3.57653 45.7319 -0.005
      vertex 3.61627 45.7837 -0.005
      vertex 3.18097 46.219 14.4
    endloop
  endfacet
  facet normal 0.792639 -0.608221 0.0423315
    outer loop
      vertex 3.17384 46.2097 14.4
      vertex 3.57653 45.7319 -0.005
      vertex 3.18097 46.219 14.4
    endloop
  endfacet
  facet normal 0.608215 -0.792643 0.0423315
    outer loop
      vertex 3.61627 45.7837 -0.005
      vertex 3.82332 45.9426 -0.005
      vertex 3.55801 46.5083 14.4
    endloop
  endfacet
  facet normal 0.608215 -0.792643 0.0423315
    outer loop
      vertex 3.18097 46.219 14.4
      vertex 3.61627 45.7837 -0.005
      vertex 3.55801 46.5083 14.4
    endloop
  endfacet
  facet normal 0.608221 -0.792639 0.0423314
    outer loop
      vertex 3.82332 45.9426 -0.005
      vertex 3.87511 45.9823 -0.005
      vertex 3.56731 46.5155 14.4
    endloop
  endfacet
  facet normal 0.608221 -0.792639 0.0423314
    outer loop
      vertex 3.55801 46.5083 14.4
      vertex 3.82332 45.9426 -0.005
      vertex 3.56731 46.5155 14.4
    endloop
  endfacet
  facet normal 0.382341 -0.923051 0.0423315
    outer loop
      vertex 3.87511 45.9823 -0.005
      vertex 4.11622 46.0822 -0.005
      vertex 4.00638 46.6973 14.4
    endloop
  endfacet
  facet normal 0.382341 -0.923051 0.0423315
    outer loop
      vertex 3.56731 46.5155 14.4
      vertex 3.87511 45.9823 -0.005
      vertex 4.00638 46.6973 14.4
    endloop
  endfacet
  facet normal 0.38234 -0.923051 0.0423315
    outer loop
      vertex 4.11622 46.0822 -0.005
      vertex 4.17653 46.1072 -0.005
      vertex 4.0172 46.7018 14.4
    endloop
  endfacet
  facet normal 0.38234 -0.923051 0.0423315
    outer loop
      vertex 4.00638 46.6973 14.4
      vertex 4.11622 46.0822 -0.005
      vertex 4.0172 46.7018 14.4
    endloop
  endfacet
  facet normal 0.130409 -0.990556 0.0423315
    outer loop
      vertex 4.17653 46.1072 -0.005
      vertex 4.43528 46.1413 -0.005
      vertex 4.48839 46.7639 14.4
    endloop
  endfacet
  facet normal 0.130409 -0.990556 0.0423315
    outer loop
      vertex 4.0172 46.7018 14.4
      vertex 4.17653 46.1072 -0.005
      vertex 4.48839 46.7639 14.4
    endloop
  endfacet
  facet normal 0.130408 -0.990556 0.0423315
    outer loop
      vertex 4.5 46.1498 -0.005
      vertex 4.5 46.7654 14.4
      vertex 4.48839 46.7639 14.4
    endloop
  endfacet
  facet normal 0.130408 -0.990556 0.0423315
    outer loop
      vertex 4.43528 46.1413 -0.005
      vertex 4.5 46.1498 -0.005
      vertex 4.48839 46.7639 14.4
    endloop
  endfacet
  facet normal -0.130409 -0.990556 0.0423315
    outer loop
      vertex 4.75875 46.1157 -0.005
      vertex 4.97118 46.7034 14.4
      vertex 4.5 46.7654 14.4
    endloop
  endfacet
  facet normal -0.130409 -0.990556 0.0423315
    outer loop
      vertex 4.5 46.1498 -0.005
      vertex 4.75875 46.1157 -0.005
      vertex 4.5 46.7654 14.4
    endloop
  endfacet
  facet normal -0.130408 -0.990556 0.0423315
    outer loop
      vertex 4.82347 46.1072 -0.005
      vertex 4.9828 46.7018 14.4
      vertex 4.97118 46.7034 14.4
    endloop
  endfacet
  facet normal -0.130408 -0.990556 0.0423315
    outer loop
      vertex 4.75875 46.1157 -0.005
      vertex 4.82347 46.1072 -0.005
      vertex 4.97118 46.7034 14.4
    endloop
  endfacet
  facet normal -0.382341 -0.923051 0.0423315
    outer loop
      vertex 5.06458 46.0073 -0.005
      vertex 5.42187 46.52 14.4
      vertex 4.9828 46.7018 14.4
    endloop
  endfacet
  facet normal -0.382341 -0.923051 0.0423315
    outer loop
      vertex 4.82347 46.1072 -0.005
      vertex 5.06458 46.0073 -0.005
      vertex 4.9828 46.7018 14.4
    endloop
  endfacet
  facet normal -0.38234 -0.923051 0.0423315
    outer loop
      vertex 5.12489 45.9823 -0.005
      vertex 5.43269 46.5155 14.4
      vertex 5.42187 46.52 14.4
    endloop
  endfacet
  facet normal -0.38234 -0.923051 0.0423315
    outer loop
      vertex 5.06458 46.0073 -0.005
      vertex 5.12489 45.9823 -0.005
      vertex 5.42187 46.52 14.4
    endloop
  endfacet
  facet normal -0.608215 -0.792643 0.0423315
    outer loop
      vertex 5.33194 45.8235 -0.005
      vertex 5.80973 46.2262 14.4
      vertex 5.43269 46.5155 14.4
    endloop
  endfacet
  facet normal -0.608215 -0.792643 0.0423315
    outer loop
      vertex 5.12489 45.9823 -0.005
      vertex 5.33194 45.8235 -0.005
      vertex 5.43269 46.5155 14.4
    endloop
  endfacet
  facet normal -0.608221 -0.792639 0.0423315
    outer loop
      vertex 5.38373 45.7837 -0.005
      vertex 5.81903 46.219 14.4
      vertex 5.80973 46.2262 14.4
    endloop
  endfacet
  facet normal -0.608221 -0.792639 0.0423315
    outer loop
      vertex 5.33194 45.8235 -0.005
      vertex 5.38373 45.7837 -0.005
      vertex 5.80973 46.2262 14.4
    endloop
  endfacet
  facet normal -0.792643 -0.608215 0.0423315
    outer loop
      vertex 6.10834 45.842 14.4
      vertex 5.81903 46.219 14.4
      vertex 5.54261 45.5767 -0.005
    endloop
  endfacet
  facet normal -0.792643 -0.608215 0.0423315
    outer loop
      vertex 5.54261 45.5767 -0.005
      vertex 5.81903 46.219 14.4
      vertex 5.38373 45.7837 -0.005
    endloop
  endfacet
  facet normal -0.792639 -0.608221 0.0423314
    outer loop
      vertex 6.11547 45.8327 14.4
      vertex 6.10834 45.842 14.4
      vertex 5.58235 45.5249 -0.005
    endloop
  endfacet
  facet normal -0.792639 -0.608221 0.0423314
    outer loop
      vertex 5.58235 45.5249 -0.005
      vertex 6.10834 45.842 14.4
      vertex 5.54261 45.5767 -0.005
    endloop
  endfacet
  facet normal -0.923051 -0.382341 0.0423315
    outer loop
      vertex 6.29734 45.3936 14.4
      vertex 6.11547 45.8327 14.4
      vertex 5.68222 45.2838 -0.005
    endloop
  endfacet
  facet normal -0.923051 -0.382341 0.0423315
    outer loop
      vertex 5.68222 45.2838 -0.005
      vertex 6.11547 45.8327 14.4
      vertex 5.58235 45.5249 -0.005
    endloop
  endfacet
  facet normal -0.923051 -0.38234 0.0423315
    outer loop
      vertex 6.30182 45.3828 14.4
      vertex 6.29734 45.3936 14.4
      vertex 5.7072 45.2235 -0.005
    endloop
  endfacet
  facet normal -0.923051 -0.38234 0.0423315
    outer loop
      vertex 5.7072 45.2235 -0.005
      vertex 6.29734 45.3936 14.4
      vertex 5.68222 45.2838 -0.005
    endloop
  endfacet
  facet normal -0.990556 -0.130409 0.0423315
    outer loop
      vertex 6.36386 44.9116 14.4
      vertex 6.30182 45.3828 14.4
      vertex 5.74127 44.9647 -0.005
    endloop
  endfacet
  facet normal -0.990556 -0.130409 0.0423315
    outer loop
      vertex 5.74127 44.9647 -0.005
      vertex 6.30182 45.3828 14.4
      vertex 5.7072 45.2235 -0.005
    endloop
  endfacet
  facet normal -0.990556 -0.130408 0.0423315
    outer loop
      vertex 6.36538 44.9 14.4
      vertex 6.36386 44.9116 14.4
      vertex 5.74979 44.9 -0.005
    endloop
  endfacet
  facet normal -0.990556 -0.130408 0.0423315
    outer loop
      vertex 5.74979 44.9 -0.005
      vertex 6.36386 44.9116 14.4
      vertex 5.74127 44.9647 -0.005
    endloop
  endfacet
  facet normal -0.990556 0.130409 0.0423315
    outer loop
      vertex 6.36538 44.9 14.4
      vertex 5.74979 44.9 -0.005
      vertex 6.30335 44.4288 14.4
    endloop
  endfacet
  facet normal -0.990556 0.130409 0.0423315
    outer loop
      vertex 6.30335 44.4288 14.4
      vertex 5.74979 44.9 -0.005
      vertex 5.71572 44.6413 -0.005
    endloop
  endfacet
  facet normal -0.990556 0.130408 0.0423315
    outer loop
      vertex 6.30335 44.4288 14.4
      vertex 5.71572 44.6413 -0.005
      vertex 6.30182 44.4172 14.4
    endloop
  endfacet
  facet normal -0.990556 0.130408 0.0423315
    outer loop
      vertex 6.30182 44.4172 14.4
      vertex 5.71572 44.6413 -0.005
      vertex 5.7072 44.5765 -0.005
    endloop
  endfacet
  facet normal -0.923051 0.382341 0.0423315
    outer loop
      vertex 6.30182 44.4172 14.4
      vertex 5.7072 44.5765 -0.005
      vertex 6.11995 43.9781 14.4
    endloop
  endfacet
  facet normal -0.923051 0.382341 0.0423315
    outer loop
      vertex 6.11995 43.9781 14.4
      vertex 5.7072 44.5765 -0.005
      vertex 5.60733 44.3354 -0.005
    endloop
  endfacet
  facet normal -0.923051 0.38234 0.0423315
    outer loop
      vertex 6.11995 43.9781 14.4
      vertex 5.60733 44.3354 -0.005
      vertex 6.11547 43.9673 14.4
    endloop
  endfacet
  facet normal -0.923051 0.38234 0.0423315
    outer loop
      vertex 6.11547 43.9673 14.4
      vertex 5.60733 44.3354 -0.005
      vertex 5.58235 44.2751 -0.005
    endloop
  endfacet
  facet normal -0.792643 0.608215 0.0423315
    outer loop
      vertex 6.11547 43.9673 14.4
      vertex 5.58235 44.2751 -0.005
      vertex 5.82616 43.5903 14.4
    endloop
  endfacet
  facet normal -0.792643 0.608215 0.0423315
    outer loop
      vertex 5.82616 43.5903 14.4
      vertex 5.58235 44.2751 -0.005
      vertex 5.42347 44.0681 -0.005
    endloop
  endfacet
  facet normal -0.792639 0.608221 0.0423315
    outer loop
      vertex 5.82616 43.5903 14.4
      vertex 5.42347 44.0681 -0.005
      vertex 5.81903 43.581 14.4
    endloop
  endfacet
  facet normal -0.792639 0.608221 0.0423315
    outer loop
      vertex 5.81903 43.581 14.4
      vertex 5.42347 44.0681 -0.005
      vertex 5.38373 44.0163 -0.005
    endloop
  endfacet
  facet normal -0.608215 0.792643 0.0423315
    outer loop
      vertex 5.81903 43.581 14.4
      vertex 5.38373 44.0163 -0.005
      vertex 5.44199 43.2917 14.4
    endloop
  endfacet
  facet normal -0.608215 0.792643 0.0423315
    outer loop
      vertex 5.44199 43.2917 14.4
      vertex 5.38373 44.0163 -0.005
      vertex 5.17668 43.8574 -0.005
    endloop
  endfacet
  facet normal -0.608221 0.792639 0.0423314
    outer loop
      vertex 5.44199 43.2917 14.4
      vertex 5.17668 43.8574 -0.005
      vertex 5.43269 43.2845 14.4
    endloop
  endfacet
  facet normal -0.608221 0.792639 0.0423314
    outer loop
      vertex 5.43269 43.2845 14.4
      vertex 5.17668 43.8574 -0.005
      vertex 5.12489 43.8177 -0.005
    endloop
  endfacet
  facet normal -0.382341 0.923051 0.0423315
    outer loop
      vertex 5.43269 43.2845 14.4
      vertex 5.12489 43.8177 -0.005
      vertex 4.99362 43.1027 14.4
    endloop
  endfacet
  facet normal -0.382341 0.923051 0.0423315
    outer loop
      vertex 4.99362 43.1027 14.4
      vertex 5.12489 43.8177 -0.005
      vertex 4.88378 43.7178 -0.005
    endloop
  endfacet
  facet normal -0.38234 0.923051 0.0423315
    outer loop
      vertex 4.99362 43.1027 14.4
      vertex 4.88378 43.7178 -0.005
      vertex 4.9828 43.0982 14.4
    endloop
  endfacet
  facet normal -0.38234 0.923051 0.0423315
    outer loop
      vertex 4.9828 43.0982 14.4
      vertex 4.88378 43.7178 -0.005
      vertex 4.82347 43.6928 -0.005
    endloop
  endfacet
  facet normal -0.130409 0.990556 0.0423315
    outer loop
      vertex 4.82347 43.6928 -0.005
      vertex 4.56472 43.6587 -0.005
      vertex 4.9828 43.0982 14.4
    endloop
  endfacet
  facet normal -0.130409 0.990556 0.0423315
    outer loop
      vertex 4.9828 43.0982 14.4
      vertex 4.56472 43.6587 -0.005
      vertex 4.51161 43.0361 14.4
    endloop
  endfacet
  facet normal -0.130408 0.990556 0.0423315
    outer loop
      vertex 4.56472 43.6587 -0.005
      vertex 4.5 43.6502 -0.005
      vertex 4.51161 43.0361 14.4
    endloop
  endfacet
  facet normal -0.130408 0.990556 0.0423315
    outer loop
      vertex 4.51161 43.0361 14.4
      vertex 4.5 43.6502 -0.005
      vertex 4.5 43.0346 14.4
    endloop
  endfacet
  facet normal 0.130409 0.990556 0.0423315
    outer loop
      vertex 4.5 43.6502 -0.005
      vertex 4.24125 43.6843 -0.005
      vertex 4.5 43.0346 14.4
    endloop
  endfacet
  facet normal 0.130409 0.990556 0.0423315
    outer loop
      vertex 4.5 43.0346 14.4
      vertex 4.24125 43.6843 -0.005
      vertex 4.02882 43.0966 14.4
    endloop
  endfacet
  facet normal 0.130408 0.990556 0.0423315
    outer loop
      vertex 4.24125 43.6843 -0.005
      vertex 4.17653 43.6928 -0.005
      vertex 4.02882 43.0966 14.4
    endloop
  endfacet
  facet normal 0.130408 0.990556 0.0423315
    outer loop
      vertex 4.02882 43.0966 14.4
      vertex 4.17653 43.6928 -0.005
      vertex 4.0172 43.0982 14.4
    endloop
  endfacet
  facet normal 0.382341 0.923051 0.0423315
    outer loop
      vertex 4.17653 43.6928 -0.005
      vertex 3.93542 43.7927 -0.005
      vertex 4.0172 43.0982 14.4
    endloop
  endfacet
  facet normal 0.382341 0.923051 0.0423315
    outer loop
      vertex 4.0172 43.0982 14.4
      vertex 3.93542 43.7927 -0.005
      vertex 3.57813 43.28 14.4
    endloop
  endfacet
  facet normal 0.38234 0.923051 0.0423315
    outer loop
      vertex 3.93542 43.7927 -0.005
      vertex 3.87511 43.8177 -0.005
      vertex 3.57813 43.28 14.4
    endloop
  endfacet
  facet normal 0.38234 0.923051 0.0423315
    outer loop
      vertex 3.57813 43.28 14.4
      vertex 3.87511 43.8177 -0.005
      vertex 3.56731 43.2845 14.4
    endloop
  endfacet
  facet normal 0.608215 0.792643 0.0423315
    outer loop
      vertex 3.87511 43.8177 -0.005
      vertex 3.66806 43.9765 -0.005
      vertex 3.56731 43.2845 14.4
    endloop
  endfacet
  facet normal 0.608215 0.792643 0.0423315
    outer loop
      vertex 3.56731 43.2845 14.4
      vertex 3.66806 43.9765 -0.005
      vertex 3.19027 43.5738 14.4
    endloop
  endfacet
  facet normal 0.608221 0.792639 0.0423315
    outer loop
      vertex 3.66806 43.9765 -0.005
      vertex 3.61627 44.0163 -0.005
      vertex 3.19027 43.5738 14.4
    endloop
  endfacet
  facet normal 0.608221 0.792639 0.0423315
    outer loop
      vertex 3.19027 43.5738 14.4
      vertex 3.61627 44.0163 -0.005
      vertex 3.18097 43.581 14.4
    endloop
  endfacet
  facet normal 0.792643 0.608215 0.0423315
    outer loop
      vertex 3.18097 43.581 14.4
      vertex 3.61627 44.0163 -0.005
      vertex 3.45739 44.2233 -0.005
    endloop
  endfacet
  facet normal 0.792643 0.608215 0.0423315
    outer loop
      vertex 2.89166 43.958 14.4
      vertex 3.18097 43.581 14.4
      vertex 3.45739 44.2233 -0.005
    endloop
  endfacet
  facet normal 0.792639 0.608221 0.0423314
    outer loop
      vertex 2.89166 43.958 14.4
      vertex 3.45739 44.2233 -0.005
      vertex 3.41765 44.2751 -0.005
    endloop
  endfacet
  facet normal 0.792639 0.608221 0.0423314
    outer loop
      vertex 2.88453 43.9673 14.4
      vertex 2.89166 43.958 14.4
      vertex 3.41765 44.2751 -0.005
    endloop
  endfacet
  facet normal 0.923051 0.382341 0.0423315
    outer loop
      vertex 2.88453 43.9673 14.4
      vertex 3.41765 44.2751 -0.005
      vertex 3.31778 44.5162 -0.005
    endloop
  endfacet
  facet normal 0.923051 0.382341 0.0423315
    outer loop
      vertex 2.70266 44.4064 14.4
      vertex 2.88453 43.9673 14.4
      vertex 3.31778 44.5162 -0.005
    endloop
  endfacet
  facet normal 0.923051 0.38234 0.0423315
    outer loop
      vertex 2.70266 44.4064 14.4
      vertex 3.31778 44.5162 -0.005
      vertex 3.2928 44.5765 -0.005
    endloop
  endfacet
  facet normal 0.923051 0.38234 0.0423315
    outer loop
      vertex 2.69818 44.4172 14.4
      vertex 2.70266 44.4064 14.4
      vertex 3.2928 44.5765 -0.005
    endloop
  endfacet
  facet normal 0.990556 0.130409 0.0423315
    outer loop
      vertex 2.69818 44.4172 14.4
      vertex 3.2928 44.5765 -0.005
      vertex 3.25873 44.8353 -0.005
    endloop
  endfacet
  facet normal 0.990556 0.130409 0.0423315
    outer loop
      vertex 2.63614 44.8884 14.4
      vertex 2.69818 44.4172 14.4
      vertex 3.25873 44.8353 -0.005
    endloop
  endfacet
  facet normal 0.990556 -0.130409 0.0423315
    outer loop
      vertex 19.6502 9.5 -0.005
      vertex 19.6843 9.75875 -0.005
      vertex 19.0966 9.97118 14.4
    endloop
  endfacet
  facet normal 0.990556 -0.130409 0.0423315
    outer loop
      vertex 19.0346 9.5 14.4
      vertex 19.6502 9.5 -0.005
      vertex 19.0966 9.97118 14.4
    endloop
  endfacet
  facet normal 0.990556 0.130408 0.0423315
    outer loop
      vertex 19.0361 9.48839 14.4
      vertex 19.6587 9.43528 -0.005
      vertex 19.6502 9.5 -0.005
    endloop
  endfacet
  facet normal 0.990556 0.130408 0.0423315
    outer loop
      vertex 19.0346 9.5 14.4
      vertex 19.0361 9.48839 14.4
      vertex 19.6502 9.5 -0.005
    endloop
  endfacet
  facet normal 0.990556 -0.130408 0.0423315
    outer loop
      vertex 19.6843 9.75875 -0.005
      vertex 19.6928 9.82347 -0.005
      vertex 19.0982 9.9828 14.4
    endloop
  endfacet
  facet normal 0.990556 -0.130408 0.0423315
    outer loop
      vertex 19.0966 9.97118 14.4
      vertex 19.6843 9.75875 -0.005
      vertex 19.0982 9.9828 14.4
    endloop
  endfacet
  facet normal 0.923051 -0.382341 0.0423315
    outer loop
      vertex 19.6928 9.82347 -0.005
      vertex 19.7927 10.0646 -0.005
      vertex 19.28 10.4219 14.4
    endloop
  endfacet
  facet normal 0.923051 -0.382341 0.0423315
    outer loop
      vertex 19.0982 9.9828 14.4
      vertex 19.6928 9.82347 -0.005
      vertex 19.28 10.4219 14.4
    endloop
  endfacet
  facet normal 0.923051 -0.38234 0.0423315
    outer loop
      vertex 19.7927 10.0646 -0.005
      vertex 19.8177 10.1249 -0.005
      vertex 19.2845 10.4327 14.4
    endloop
  endfacet
  facet normal 0.923051 -0.38234 0.0423315
    outer loop
      vertex 19.28 10.4219 14.4
      vertex 19.7927 10.0646 -0.005
      vertex 19.2845 10.4327 14.4
    endloop
  endfacet
  facet normal 0.792643 -0.608215 0.0423315
    outer loop
      vertex 19.8177 10.1249 -0.005
      vertex 19.9765 10.3319 -0.005
      vertex 19.5738 10.8097 14.4
    endloop
  endfacet
  facet normal 0.792643 -0.608215 0.0423315
    outer loop
      vertex 19.2845 10.4327 14.4
      vertex 19.8177 10.1249 -0.005
      vertex 19.5738 10.8097 14.4
    endloop
  endfacet
  facet normal 0.792639 -0.608221 0.0423315
    outer loop
      vertex 19.9765 10.3319 -0.005
      vertex 20.0163 10.3837 -0.005
      vertex 19.581 10.819 14.4
    endloop
  endfacet
  facet normal 0.792639 -0.608221 0.0423315
    outer loop
      vertex 19.5738 10.8097 14.4
      vertex 19.9765 10.3319 -0.005
      vertex 19.581 10.819 14.4
    endloop
  endfacet
  facet normal 0.608215 -0.792643 0.0423315
    outer loop
      vertex 20.0163 10.3837 -0.005
      vertex 20.2233 10.5426 -0.005
      vertex 19.958 11.1083 14.4
    endloop
  endfacet
  facet normal 0.608215 -0.792643 0.0423315
    outer loop
      vertex 19.581 10.819 14.4
      vertex 20.0163 10.3837 -0.005
      vertex 19.958 11.1083 14.4
    endloop
  endfacet
  facet normal 0.608221 -0.792639 0.0423314
    outer loop
      vertex 20.2233 10.5426 -0.005
      vertex 20.2751 10.5823 -0.005
      vertex 19.9673 11.1155 14.4
    endloop
  endfacet
  facet normal 0.608221 -0.792639 0.0423314
    outer loop
      vertex 19.958 11.1083 14.4
      vertex 20.2233 10.5426 -0.005
      vertex 19.9673 11.1155 14.4
    endloop
  endfacet
  facet normal 0.382341 -0.923051 0.0423315
    outer loop
      vertex 20.2751 10.5823 -0.005
      vertex 20.5162 10.6822 -0.005
      vertex 20.4064 11.2973 14.4
    endloop
  endfacet
  facet normal 0.382341 -0.923051 0.0423315
    outer loop
      vertex 19.9673 11.1155 14.4
      vertex 20.2751 10.5823 -0.005
      vertex 20.4064 11.2973 14.4
    endloop
  endfacet
  facet normal 0.38234 -0.923051 0.0423315
    outer loop
      vertex 20.5162 10.6822 -0.005
      vertex 20.5765 10.7072 -0.005
      vertex 20.4172 11.3018 14.4
    endloop
  endfacet
  facet normal 0.38234 -0.923051 0.0423315
    outer loop
      vertex 20.4064 11.2973 14.4
      vertex 20.5162 10.6822 -0.005
      vertex 20.4172 11.3018 14.4
    endloop
  endfacet
  facet normal 0.130409 -0.990556 0.0423315
    outer loop
      vertex 20.5765 10.7072 -0.005
      vertex 20.8353 10.7413 -0.005
      vertex 20.8884 11.3639 14.4
    endloop
  endfacet
  facet normal 0.130409 -0.990556 0.0423315
    outer loop
      vertex 20.4172 11.3018 14.4
      vertex 20.5765 10.7072 -0.005
      vertex 20.8884 11.3639 14.4
    endloop
  endfacet
  facet normal 0.130408 -0.990556 0.0423315
    outer loop
      vertex 20.9 10.7498 -0.005
      vertex 20.9 11.3654 14.4
      vertex 20.8884 11.3639 14.4
    endloop
  endfacet
  facet normal 0.130408 -0.990556 0.0423315
    outer loop
      vertex 20.8353 10.7413 -0.005
      vertex 20.9 10.7498 -0.005
      vertex 20.8884 11.3639 14.4
    endloop
  endfacet
  facet normal -0.130409 -0.990556 0.0423315
    outer loop
      vertex 21.1587 10.7157 -0.005
      vertex 21.3712 11.3034 14.4
      vertex 20.9 11.3654 14.4
    endloop
  endfacet
  facet normal -0.130409 -0.990556 0.0423315
    outer loop
      vertex 20.9 10.7498 -0.005
      vertex 21.1587 10.7157 -0.005
      vertex 20.9 11.3654 14.4
    endloop
  endfacet
  facet normal -0.130408 -0.990556 0.0423315
    outer loop
      vertex 21.2235 10.7072 -0.005
      vertex 21.3828 11.3018 14.4
      vertex 21.3712 11.3034 14.4
    endloop
  endfacet
  facet normal -0.130408 -0.990556 0.0423315
    outer loop
      vertex 21.1587 10.7157 -0.005
      vertex 21.2235 10.7072 -0.005
      vertex 21.3712 11.3034 14.4
    endloop
  endfacet
  facet normal -0.382341 -0.923051 0.0423315
    outer loop
      vertex 21.4646 10.6073 -0.005
      vertex 21.8219 11.12 14.4
      vertex 21.3828 11.3018 14.4
    endloop
  endfacet
  facet normal -0.382341 -0.923051 0.0423315
    outer loop
      vertex 21.2235 10.7072 -0.005
      vertex 21.4646 10.6073 -0.005
      vertex 21.3828 11.3018 14.4
    endloop
  endfacet
  facet normal -0.38234 -0.923051 0.0423315
    outer loop
      vertex 21.5249 10.5823 -0.005
      vertex 21.8327 11.1155 14.4
      vertex 21.8219 11.12 14.4
    endloop
  endfacet
  facet normal -0.38234 -0.923051 0.0423315
    outer loop
      vertex 21.4646 10.6073 -0.005
      vertex 21.5249 10.5823 -0.005
      vertex 21.8219 11.12 14.4
    endloop
  endfacet
  facet normal -0.608215 -0.792643 0.0423315
    outer loop
      vertex 21.7319 10.4235 -0.005
      vertex 22.2097 10.8262 14.4
      vertex 21.8327 11.1155 14.4
    endloop
  endfacet
  facet normal -0.608215 -0.792643 0.0423315
    outer loop
      vertex 21.5249 10.5823 -0.005
      vertex 21.7319 10.4235 -0.005
      vertex 21.8327 11.1155 14.4
    endloop
  endfacet
  facet normal -0.608221 -0.792639 0.0423315
    outer loop
      vertex 21.7837 10.3837 -0.005
      vertex 22.219 10.819 14.4
      vertex 22.2097 10.8262 14.4
    endloop
  endfacet
  facet normal -0.608221 -0.792639 0.0423315
    outer loop
      vertex 21.7319 10.4235 -0.005
      vertex 21.7837 10.3837 -0.005
      vertex 22.2097 10.8262 14.4
    endloop
  endfacet
  facet normal -0.792643 -0.608215 0.0423315
    outer loop
      vertex 22.5083 10.442 14.4
      vertex 22.219 10.819 14.4
      vertex 21.9426 10.1767 -0.005
    endloop
  endfacet
  facet normal -0.792643 -0.608215 0.0423315
    outer loop
      vertex 21.9426 10.1767 -0.005
      vertex 22.219 10.819 14.4
      vertex 21.7837 10.3837 -0.005
    endloop
  endfacet
  facet normal -0.792639 -0.608221 0.0423314
    outer loop
      vertex 22.5155 10.4327 14.4
      vertex 22.5083 10.442 14.4
      vertex 21.9823 10.1249 -0.005
    endloop
  endfacet
  facet normal -0.792639 -0.608221 0.0423314
    outer loop
      vertex 21.9823 10.1249 -0.005
      vertex 22.5083 10.442 14.4
      vertex 21.9426 10.1767 -0.005
    endloop
  endfacet
  facet normal -0.923051 -0.382341 0.0423315
    outer loop
      vertex 22.6973 9.99362 14.4
      vertex 22.5155 10.4327 14.4
      vertex 22.0822 9.88378 -0.005
    endloop
  endfacet
  facet normal -0.923051 -0.382341 0.0423315
    outer loop
      vertex 22.0822 9.88378 -0.005
      vertex 22.5155 10.4327 14.4
      vertex 21.9823 10.1249 -0.005
    endloop
  endfacet
  facet normal -0.923051 -0.38234 0.0423315
    outer loop
      vertex 22.7018 9.9828 14.4
      vertex 22.6973 9.99362 14.4
      vertex 22.1072 9.82347 -0.005
    endloop
  endfacet
  facet normal -0.923051 -0.38234 0.0423315
    outer loop
      vertex 22.1072 9.82347 -0.005
      vertex 22.6973 9.99362 14.4
      vertex 22.0822 9.88378 -0.005
    endloop
  endfacet
  facet normal -0.990556 -0.130409 0.0423315
    outer loop
      vertex 22.7639 9.51161 14.4
      vertex 22.7018 9.9828 14.4
      vertex 22.1413 9.56472 -0.005
    endloop
  endfacet
  facet normal -0.990556 -0.130409 0.0423315
    outer loop
      vertex 22.1413 9.56472 -0.005
      vertex 22.7018 9.9828 14.4
      vertex 22.1072 9.82347 -0.005
    endloop
  endfacet
  facet normal -0.990556 -0.130408 0.0423315
    outer loop
      vertex 22.7654 9.5 14.4
      vertex 22.7639 9.51161 14.4
      vertex 22.1498 9.5 -0.005
    endloop
  endfacet
  facet normal -0.990556 -0.130408 0.0423315
    outer loop
      vertex 22.1498 9.5 -0.005
      vertex 22.7639 9.51161 14.4
      vertex 22.1413 9.56472 -0.005
    endloop
  endfacet
  facet normal -0.990556 0.130409 0.0423315
    outer loop
      vertex 22.7654 9.5 14.4
      vertex 22.1498 9.5 -0.005
      vertex 22.7034 9.02882 14.4
    endloop
  endfacet
  facet normal -0.990556 0.130409 0.0423315
    outer loop
      vertex 22.7034 9.02882 14.4
      vertex 22.1498 9.5 -0.005
      vertex 22.1157 9.24125 -0.005
    endloop
  endfacet
  facet normal -0.990556 0.130408 0.0423315
    outer loop
      vertex 22.7034 9.02882 14.4
      vertex 22.1157 9.24125 -0.005
      vertex 22.7018 9.0172 14.4
    endloop
  endfacet
  facet normal -0.990556 0.130408 0.0423315
    outer loop
      vertex 22.7018 9.0172 14.4
      vertex 22.1157 9.24125 -0.005
      vertex 22.1072 9.17653 -0.005
    endloop
  endfacet
  facet normal -0.923051 0.382341 0.0423315
    outer loop
      vertex 22.7018 9.0172 14.4
      vertex 22.1072 9.17653 -0.005
      vertex 22.52 8.57813 14.4
    endloop
  endfacet
  facet normal -0.923051 0.382341 0.0423315
    outer loop
      vertex 22.52 8.57813 14.4
      vertex 22.1072 9.17653 -0.005
      vertex 22.0073 8.93542 -0.005
    endloop
  endfacet
  facet normal -0.923051 0.38234 0.0423315
    outer loop
      vertex 22.52 8.57813 14.4
      vertex 22.0073 8.93542 -0.005
      vertex 22.5155 8.56731 14.4
    endloop
  endfacet
  facet normal -0.923051 0.38234 0.0423315
    outer loop
      vertex 22.5155 8.56731 14.4
      vertex 22.0073 8.93542 -0.005
      vertex 21.9823 8.87511 -0.005
    endloop
  endfacet
  facet normal -0.792643 0.608215 0.0423315
    outer loop
      vertex 22.5155 8.56731 14.4
      vertex 21.9823 8.87511 -0.005
      vertex 22.2262 8.19027 14.4
    endloop
  endfacet
  facet normal -0.792643 0.608215 0.0423315
    outer loop
      vertex 22.2262 8.19027 14.4
      vertex 21.9823 8.87511 -0.005
      vertex 21.8235 8.66806 -0.005
    endloop
  endfacet
  facet normal -0.792639 0.608221 0.0423315
    outer loop
      vertex 22.2262 8.19027 14.4
      vertex 21.8235 8.66806 -0.005
      vertex 22.219 8.18097 14.4
    endloop
  endfacet
  facet normal -0.792639 0.608221 0.0423315
    outer loop
      vertex 22.219 8.18097 14.4
      vertex 21.8235 8.66806 -0.005
      vertex 21.7837 8.61627 -0.005
    endloop
  endfacet
  facet normal -0.608215 0.792643 0.0423315
    outer loop
      vertex 22.219 8.18097 14.4
      vertex 21.7837 8.61627 -0.005
      vertex 21.842 7.89166 14.4
    endloop
  endfacet
  facet normal -0.608215 0.792643 0.0423315
    outer loop
      vertex 21.842 7.89166 14.4
      vertex 21.7837 8.61627 -0.005
      vertex 21.5767 8.45739 -0.005
    endloop
  endfacet
  facet normal -0.608221 0.792639 0.0423314
    outer loop
      vertex 21.842 7.89166 14.4
      vertex 21.5767 8.45739 -0.005
      vertex 21.8327 7.88453 14.4
    endloop
  endfacet
  facet normal -0.608221 0.792639 0.0423314
    outer loop
      vertex 21.8327 7.88453 14.4
      vertex 21.5767 8.45739 -0.005
      vertex 21.5249 8.41765 -0.005
    endloop
  endfacet
  facet normal -0.382341 0.923051 0.0423315
    outer loop
      vertex 21.8327 7.88453 14.4
      vertex 21.5249 8.41765 -0.005
      vertex 21.3936 7.70266 14.4
    endloop
  endfacet
  facet normal -0.382341 0.923051 0.0423315
    outer loop
      vertex 21.3936 7.70266 14.4
      vertex 21.5249 8.41765 -0.005
      vertex 21.2838 8.31778 -0.005
    endloop
  endfacet
  facet normal -0.38234 0.923051 0.0423315
    outer loop
      vertex 21.3936 7.70266 14.4
      vertex 21.2838 8.31778 -0.005
      vertex 21.3828 7.69818 14.4
    endloop
  endfacet
  facet normal -0.38234 0.923051 0.0423315
    outer loop
      vertex 21.3828 7.69818 14.4
      vertex 21.2838 8.31778 -0.005
      vertex 21.2235 8.2928 -0.005
    endloop
  endfacet
  facet normal -0.130409 0.990556 0.0423315
    outer loop
      vertex 21.2235 8.2928 -0.005
      vertex 20.9647 8.25873 -0.005
      vertex 21.3828 7.69818 14.4
    endloop
  endfacet
  facet normal -0.130409 0.990556 0.0423315
    outer loop
      vertex 21.3828 7.69818 14.4
      vertex 20.9647 8.25873 -0.005
      vertex 20.9116 7.63614 14.4
    endloop
  endfacet
  facet normal -0.130408 0.990556 0.0423315
    outer loop
      vertex 20.9647 8.25873 -0.005
      vertex 20.9 8.25021 -0.005
      vertex 20.9116 7.63614 14.4
    endloop
  endfacet
  facet normal -0.130408 0.990556 0.0423315
    outer loop
      vertex 20.9116 7.63614 14.4
      vertex 20.9 8.25021 -0.005
      vertex 20.9 7.63462 14.4
    endloop
  endfacet
  facet normal 0.130409 0.990556 0.0423315
    outer loop
      vertex 20.9 8.25021 -0.005
      vertex 20.6413 8.28428 -0.005
      vertex 20.9 7.63462 14.4
    endloop
  endfacet
  facet normal 0.130409 0.990556 0.0423315
    outer loop
      vertex 20.9 7.63462 14.4
      vertex 20.6413 8.28428 -0.005
      vertex 20.4288 7.69665 14.4
    endloop
  endfacet
  facet normal 0.130408 0.990556 0.0423315
    outer loop
      vertex 20.6413 8.28428 -0.005
      vertex 20.5765 8.2928 -0.005
      vertex 20.4288 7.69665 14.4
    endloop
  endfacet
  facet normal 0.130408 0.990556 0.0423315
    outer loop
      vertex 20.4288 7.69665 14.4
      vertex 20.5765 8.2928 -0.005
      vertex 20.4172 7.69818 14.4
    endloop
  endfacet
  facet normal 0.382341 0.923051 0.0423315
    outer loop
      vertex 20.5765 8.2928 -0.005
      vertex 20.3354 8.39267 -0.005
      vertex 20.4172 7.69818 14.4
    endloop
  endfacet
  facet normal 0.382341 0.923051 0.0423315
    outer loop
      vertex 20.4172 7.69818 14.4
      vertex 20.3354 8.39267 -0.005
      vertex 19.9781 7.88005 14.4
    endloop
  endfacet
  facet normal 0.38234 0.923051 0.0423315
    outer loop
      vertex 20.3354 8.39267 -0.005
      vertex 20.2751 8.41765 -0.005
      vertex 19.9781 7.88005 14.4
    endloop
  endfacet
  facet normal 0.38234 0.923051 0.0423315
    outer loop
      vertex 19.9781 7.88005 14.4
      vertex 20.2751 8.41765 -0.005
      vertex 19.9673 7.88453 14.4
    endloop
  endfacet
  facet normal 0.608215 0.792643 0.0423315
    outer loop
      vertex 20.2751 8.41765 -0.005
      vertex 20.0681 8.57653 -0.005
      vertex 19.9673 7.88453 14.4
    endloop
  endfacet
  facet normal 0.608215 0.792643 0.0423315
    outer loop
      vertex 19.9673 7.88453 14.4
      vertex 20.0681 8.57653 -0.005
      vertex 19.5903 8.17384 14.4
    endloop
  endfacet
  facet normal 0.608221 0.792639 0.0423315
    outer loop
      vertex 20.0681 8.57653 -0.005
      vertex 20.0163 8.61627 -0.005
      vertex 19.5903 8.17384 14.4
    endloop
  endfacet
  facet normal 0.608221 0.792639 0.0423315
    outer loop
      vertex 19.5903 8.17384 14.4
      vertex 20.0163 8.61627 -0.005
      vertex 19.581 8.18097 14.4
    endloop
  endfacet
  facet normal 0.792643 0.608215 0.0423315
    outer loop
      vertex 19.581 8.18097 14.4
      vertex 20.0163 8.61627 -0.005
      vertex 19.8574 8.82332 -0.005
    endloop
  endfacet
  facet normal 0.792643 0.608215 0.0423315
    outer loop
      vertex 19.2917 8.55801 14.4
      vertex 19.581 8.18097 14.4
      vertex 19.8574 8.82332 -0.005
    endloop
  endfacet
  facet normal 0.792639 0.608221 0.0423314
    outer loop
      vertex 19.2917 8.55801 14.4
      vertex 19.8574 8.82332 -0.005
      vertex 19.8177 8.87511 -0.005
    endloop
  endfacet
  facet normal 0.792639 0.608221 0.0423314
    outer loop
      vertex 19.2845 8.56731 14.4
      vertex 19.2917 8.55801 14.4
      vertex 19.8177 8.87511 -0.005
    endloop
  endfacet
  facet normal 0.923051 0.382341 0.0423315
    outer loop
      vertex 19.2845 8.56731 14.4
      vertex 19.8177 8.87511 -0.005
      vertex 19.7178 9.11622 -0.005
    endloop
  endfacet
  facet normal 0.923051 0.382341 0.0423315
    outer loop
      vertex 19.1027 9.00638 14.4
      vertex 19.2845 8.56731 14.4
      vertex 19.7178 9.11622 -0.005
    endloop
  endfacet
  facet normal 0.923051 0.38234 0.0423315
    outer loop
      vertex 19.1027 9.00638 14.4
      vertex 19.7178 9.11622 -0.005
      vertex 19.6928 9.17653 -0.005
    endloop
  endfacet
  facet normal 0.923051 0.38234 0.0423315
    outer loop
      vertex 19.0982 9.0172 14.4
      vertex 19.1027 9.00638 14.4
      vertex 19.6928 9.17653 -0.005
    endloop
  endfacet
  facet normal 0.990556 0.130409 0.0423315
    outer loop
      vertex 19.0982 9.0172 14.4
      vertex 19.6928 9.17653 -0.005
      vertex 19.6587 9.43528 -0.005
    endloop
  endfacet
  facet normal 0.990556 0.130409 0.0423315
    outer loop
      vertex 19.0361 9.48839 14.4
      vertex 19.0982 9.0172 14.4
      vertex 19.6587 9.43528 -0.005
    endloop
  endfacet
  facet normal 0.25882 0.965926 0
    outer loop
      vertex 9 50.4 3.255
      vertex 9 50.4 14.4
      vertex 9.5 50.266 3.255
    endloop
  endfacet
  facet normal 0.25882 0.965926 0
    outer loop
      vertex 9.5 50.266 3.255
      vertex 9 50.4 14.4
      vertex 9.5 50.266 14.4
    endloop
  endfacet
  facet normal 0.707107 0.707107 0
    outer loop
      vertex 9.5 50.266 3.255
      vertex 9.5 50.266 14.4
      vertex 9.86602 49.9 3.255
    endloop
  endfacet
  facet normal 0.707107 0.707107 0
    outer loop
      vertex 9.86602 49.9 3.255
      vertex 9.5 50.266 14.4
      vertex 9.86602 49.9 14.4
    endloop
  endfacet
  facet normal 0.965926 0.25882 0
    outer loop
      vertex 10 49.4 3.255
      vertex 9.86602 49.9 3.255
      vertex 9.86602 49.9 14.4
    endloop
  endfacet
  facet normal 0.965926 0.25882 -0
    outer loop
      vertex 10 49.4 14.4
      vertex 10 49.4 3.255
      vertex 9.86602 49.9 14.4
    endloop
  endfacet
  facet normal 1 0 -0
    outer loop
      vertex 10 40.4 14.4
      vertex 10 40.4 3.255
      vertex 10 49.4 3.255
    endloop
  endfacet
  facet normal 1 0 0
    outer loop
      vertex 10 49.4 14.4
      vertex 10 40.4 14.4
      vertex 10 49.4 3.255
    endloop
  endfacet
  facet normal 0.965926 -0.25882 0
    outer loop
      vertex 9.86602 39.9 14.4
      vertex 9.86602 39.9 3.255
      vertex 10 40.4 3.255
    endloop
  endfacet
  facet normal 0.965926 -0.25882 0
    outer loop
      vertex 10 40.4 14.4
      vertex 9.86602 39.9 14.4
      vertex 10 40.4 3.255
    endloop
  endfacet
  facet normal 0.707107 -0.707107 0
    outer loop
      vertex 9.5 39.534 14.4
      vertex 9.5 39.534 3.255
      vertex 9.86602 39.9 3.255
    endloop
  endfacet
  facet normal 0.707107 -0.707107 0
    outer loop
      vertex 9.86602 39.9 14.4
      vertex 9.5 39.534 14.4
      vertex 9.86602 39.9 3.255
    endloop
  endfacet
  facet normal 0.25882 -0.965926 0
    outer loop
      vertex 9 39.4 14.4
      vertex 9 39.4 3.255
      vertex 9.5 39.534 3.255
    endloop
  endfacet
  facet normal 0.25882 -0.965926 0
    outer loop
      vertex 9.5 39.534 14.4
      vertex 9 39.4 14.4
      vertex 9.5 39.534 3.255
    endloop
  endfacet
  facet normal 0 -1 0
    outer loop
      vertex 0 39.4 14.4
      vertex 0 39.4 3.255
      vertex 9 39.4 3.255
    endloop
  endfacet
  facet normal 0 -1 0
    outer loop
      vertex 9 39.4 14.4
      vertex 0 39.4 14.4
      vertex 9 39.4 3.255
    endloop
  endfacet
  facet normal -0.25882 -0.965926 0
    outer loop
      vertex -0.5 39.534 14.4
      vertex -0.5 39.534 3.255
      vertex 0 39.4 3.255
    endloop
  endfacet
  facet normal -0.25882 -0.965926 0
    outer loop
      vertex 0 39.4 14.4
      vertex -0.5 39.534 14.4
      vertex 0 39.4 3.255
    endloop
  endfacet
  facet normal -0.707107 -0.707107 0
    outer loop
      vertex -0.866025 39.9 14.4
      vertex -0.866025 39.9 3.255
      vertex -0.5 39.534 3.255
    endloop
  endfacet
  facet normal -0.707107 -0.707107 0
    outer loop
      vertex -0.5 39.534 14.4
      vertex -0.866025 39.9 14.4
      vertex -0.5 39.534 3.255
    endloop
  endfacet
  facet normal 0.965926 0.25882 0
    outer loop
      vertex 26.4 14 3.255
      vertex 26.266 14.5 3.255
      vertex 26.266 14.5 14.4
    endloop
  endfacet
  facet normal 0.965926 0.25882 -0
    outer loop
      vertex 26.4 14 14.4
      vertex 26.4 14 3.255
      vertex 26.266 14.5 14.4
    endloop
  endfacet
  facet normal 0.707107 0.707107 0
    outer loop
      vertex 25.9 14.866 3.255
      vertex 25.9 14.866 14.4
      vertex 26.266 14.5 3.255
    endloop
  endfacet
  facet normal 0.707107 0.707107 0
    outer loop
      vertex 26.266 14.5 3.255
      vertex 25.9 14.866 14.4
      vertex 26.266 14.5 14.4
    endloop
  endfacet
  facet normal 0.25882 0.965926 0
    outer loop
      vertex 25.4 15 3.255
      vertex 25.4 15 14.4
      vertex 25.9 14.866 3.255
    endloop
  endfacet
  facet normal 0.25882 0.965926 0
    outer loop
      vertex 25.9 14.866 3.255
      vertex 25.4 15 14.4
      vertex 25.9 14.866 14.4
    endloop
  endfacet
  facet normal 0 1 0
    outer loop
      vertex 16.4 15 3.255
      vertex 16.4 15 14.4
      vertex 25.4 15 3.255
    endloop
  endfacet
  facet normal 0 1 0
    outer loop
      vertex 25.4 15 3.255
      vertex 16.4 15 14.4
      vertex 25.4 15 14.4
    endloop
  endfacet
  facet normal -0.25882 0.965926 0
    outer loop
      vertex 15.9 14.866 3.255
      vertex 15.9 14.866 14.4
      vertex 16.4 15 3.255
    endloop
  endfacet
  facet normal -0.25882 0.965926 0
    outer loop
      vertex 16.4 15 3.255
      vertex 15.9 14.866 14.4
      vertex 16.4 15 14.4
    endloop
  endfacet
  facet normal -0.707107 0.707107 0
    outer loop
      vertex 15.534 14.5 3.255
      vertex 15.534 14.5 14.4
      vertex 15.9 14.866 3.255
    endloop
  endfacet
  facet normal -0.707107 0.707107 0
    outer loop
      vertex 15.9 14.866 3.255
      vertex 15.534 14.5 14.4
      vertex 15.9 14.866 14.4
    endloop
  endfacet
  facet normal -0.965926 0.25882 0
    outer loop
      vertex 15.4 14 3.255
      vertex 15.4 14 14.4
      vertex 15.534 14.5 3.255
    endloop
  endfacet
  facet normal -0.965926 0.25882 0
    outer loop
      vertex 15.534 14.5 3.255
      vertex 15.4 14 14.4
      vertex 15.534 14.5 14.4
    endloop
  endfacet
  facet normal -1 -0 -0
    outer loop
      vertex 15.4 5 3.255
      vertex 15.4 5 14.4
      vertex 15.4 14 3.255
    endloop
  endfacet
  facet normal -1 0 0
    outer loop
      vertex 15.4 14 3.255
      vertex 15.4 5 14.4
      vertex 15.4 14 14.4
    endloop
  endfacet
  facet normal -0.965926 -0.25882 -0
    outer loop
      vertex 15.4 5 3.255
      vertex 15.534 4.5 3.255
      vertex 15.4 5 14.4
    endloop
  endfacet
  facet normal -0.965926 -0.25882 0
    outer loop
      vertex 15.4 5 14.4
      vertex 15.534 4.5 3.255
      vertex 15.534 4.5 14.4
    endloop
  endfacet
  facet normal -0.707107 -0.707107 0
    outer loop
      vertex 15.534 4.5 14.4
      vertex 15.534 4.5 3.255
      vertex 15.9 4.13397 3.255
    endloop
  endfacet
  facet normal -0.707107 -0.707107 0
    outer loop
      vertex 15.9 4.13397 14.4
      vertex 15.534 4.5 14.4
      vertex 15.9 4.13397 3.255
    endloop
  endfacet
  facet normal -0.25882 -0.965926 0
    outer loop
      vertex 15.9 4.13397 14.4
      vertex 15.9 4.13397 3.255
      vertex 16.4 4 3.255
    endloop
  endfacet
  facet normal -0.25882 -0.965926 0
    outer loop
      vertex 16.4 4 14.4
      vertex 15.9 4.13397 14.4
      vertex 16.4 4 3.255
    endloop
  endfacet
  facet normal 0 -1 0
    outer loop
      vertex 16.4 4 14.4
      vertex 16.4 4 3.255
      vertex 25.4 4 3.255
    endloop
  endfacet
  facet normal 0 -1 0
    outer loop
      vertex 25.4 4 14.4
      vertex 16.4 4 14.4
      vertex 25.4 4 3.255
    endloop
  endfacet
  facet normal 0.25882 -0.965926 0
    outer loop
      vertex 25.4 4 14.4
      vertex 25.4 4 3.255
      vertex 25.9 4.13397 3.255
    endloop
  endfacet
  facet normal 0.25882 -0.965926 0
    outer loop
      vertex 25.9 4.13397 14.4
      vertex 25.4 4 14.4
      vertex 25.9 4.13397 3.255
    endloop
  endfacet
  facet normal 0.707107 -0.707107 0
    outer loop
      vertex 25.9 4.13397 14.4
      vertex 25.9 4.13397 3.255
      vertex 26.266 4.5 3.255
    endloop
  endfacet
  facet normal 0.707107 -0.707107 0
    outer loop
      vertex 26.266 4.5 14.4
      vertex 25.9 4.13397 14.4
      vertex 26.266 4.5 3.255
    endloop
  endfacet
  facet normal 0.965926 -0.25882 0
    outer loop
      vertex 26.266 4.5 14.4
      vertex 26.266 4.5 3.255
      vertex 26.4 5 3.255
    endloop
  endfacet
  facet normal 0.965926 -0.25882 0
    outer loop
      vertex 26.4 5 14.4
      vertex 26.266 4.5 14.4
      vertex 26.4 5 3.255
    endloop
  endfacet
  facet normal 0 -0 1
    outer loop
      vertex 15.4 14 14.4
      vertex 15.4 5 14.4
      vertex 15.534 4.5 14.4
    endloop
  endfacet
  facet normal 0 0 1
    outer loop
      vertex 16.4 4 14.4
      vertex 15.4 14 14.4
      vertex 15.9 4.13397 14.4
    endloop
  endfacet
  facet normal 0 0 1
    outer loop
      vertex 15.9 4.13397 14.4
      vertex 15.4 14 14.4
      vertex 15.534 4.5 14.4
    endloop
  endfacet
  facet normal -0 0 1
    outer loop
      vertex 19.0361 9.48839 14.4
      vertex 15.4 14 14.4
      vertex 16.4 4 14.4
    endloop
  endfacet
  facet normal 0 0 1
    outer loop
      vertex 22.5155 10.4327 14.4
      vertex 22.6973 9.99362 14.4
      vertex 26.4 5 14.4
    endloop
  endfacet
  facet normal 0 -0 1
    outer loop
      vertex 26.266 14.5 14.4
      vertex 15.4 14 14.4
      vertex 26.4 14 14.4
    endloop
  endfacet
  facet normal 0 -0 1
    outer loop
      vertex 25.9 14.866 14.4
      vertex 15.4 14 14.4
      vertex 26.266 14.5 14.4
    endloop
  endfacet
  facet normal 0 -0 1
    outer loop
      vertex 25.4 15 14.4
      vertex 15.4 14 14.4
      vertex 25.9 14.866 14.4
    endloop
  endfacet
  facet normal 0 -0 1
    outer loop
      vertex 16.4 15 14.4
      vertex 15.4 14 14.4
      vertex 25.4 15 14.4
    endloop
  endfacet
  facet normal 0 -0 1
    outer loop
      vertex 15.9 14.866 14.4
      vertex 15.4 14 14.4
      vertex 16.4 15 14.4
    endloop
  endfacet
  facet normal 0 -0 1
    outer loop
      vertex 15.534 14.5 14.4
      vertex 15.4 14 14.4
      vertex 15.9 14.866 14.4
    endloop
  endfacet
  facet normal -0 0 1
    outer loop
      vertex 19.0982 9.0172 14.4
      vertex 19.0361 9.48839 14.4
      vertex 16.4 4 14.4
    endloop
  endfacet
  facet normal -0 -0 1
    outer loop
      vertex 19.0346 9.5 14.4
      vertex 15.4 14 14.4
      vertex 19.0361 9.48839 14.4
    endloop
  endfacet
  facet normal -0 0 1
    outer loop
      vertex 19.0966 9.97118 14.4
      vertex 15.4 14 14.4
      vertex 19.0346 9.5 14.4
    endloop
  endfacet
  facet normal -0 0 1
    outer loop
      vertex 19.0982 9.9828 14.4
      vertex 15.4 14 14.4
      vertex 19.0966 9.97118 14.4
    endloop
  endfacet
  facet normal 0 0 1
    outer loop
      vertex 19.2845 10.4327 14.4
      vertex 19.5738 10.8097 14.4
      vertex 15.4 14 14.4
    endloop
  endfacet
  facet normal -0 0 1
    outer loop
      vertex 19.2845 10.4327 14.4
      vertex 15.4 14 14.4
      vertex 19.28 10.4219 14.4
    endloop
  endfacet
  facet normal 0 0 1
    outer loop
      vertex 22.7018 9.9828 14.4
      vertex 22.7639 9.51161 14.4
      vertex 26.4 5 14.4
    endloop
  endfacet
  facet normal -0 0 1
    outer loop
      vertex 19.581 10.819 14.4
      vertex 15.4 14 14.4
      vertex 19.5738 10.8097 14.4
    endloop
  endfacet
  facet normal -0 0 1
    outer loop
      vertex 19.958 11.1083 14.4
      vertex 15.4 14 14.4
      vertex 19.581 10.819 14.4
    endloop
  endfacet
  facet normal -0 0 1
    outer loop
      vertex 19.9673 11.1155 14.4
      vertex 15.4 14 14.4
      vertex 19.958 11.1083 14.4
    endloop
  endfacet
  facet normal 0 0 1
    outer loop
      vertex 26.4 14 14.4
      vertex 15.4 14 14.4
      vertex 19.9673 11.1155 14.4
    endloop
  endfacet
  facet normal 0 0 1
    outer loop
      vertex 26.4 14 14.4
      vertex 20.4064 11.2973 14.4
      vertex 20.4172 11.3018 14.4
    endloop
  endfacet
  facet normal 0 -0 1
    outer loop
      vertex 22.5155 8.56731 14.4
      vertex 22.2262 8.19027 14.4
      vertex 26.4 5 14.4
    endloop
  endfacet
  facet normal 0 0 1
    outer loop
      vertex 22.219 8.18097 14.4
      vertex 25.9 4.13397 14.4
      vertex 26.266 4.5 14.4
    endloop
  endfacet
  facet normal 0 0 1
    outer loop
      vertex 26.4 14 14.4
      vertex 20.8884 11.3639 14.4
      vertex 20.9 11.3654 14.4
    endloop
  endfacet
  facet normal 0 0 1
    outer loop
      vertex 26.4 14 14.4
      vertex 20.9 11.3654 14.4
      vertex 21.3712 11.3034 14.4
    endloop
  endfacet
  facet normal 0 -0 1
    outer loop
      vertex 22.7654 9.5 14.4
      vertex 22.7034 9.02882 14.4
      vertex 26.4 5 14.4
    endloop
  endfacet
  facet normal 0 0 1
    outer loop
      vertex 26.4 14 14.4
      vertex 21.3712 11.3034 14.4
      vertex 21.3828 11.3018 14.4
    endloop
  endfacet
  facet normal 0 -0 1
    outer loop
      vertex 22.219 8.18097 14.4
      vertex 21.842 7.89166 14.4
      vertex 25.9 4.13397 14.4
    endloop
  endfacet
  facet normal 0 0 1
    outer loop
      vertex 26.4 14 14.4
      vertex 21.3828 11.3018 14.4
      vertex 21.8219 11.12 14.4
    endloop
  endfacet
  facet normal 0 0 1
    outer loop
      vertex 26.4 14 14.4
      vertex 21.8219 11.12 14.4
      vertex 21.8327 11.1155 14.4
    endloop
  endfacet
  facet normal 0 0 1
    outer loop
      vertex 26.4 14 14.4
      vertex 21.8327 11.1155 14.4
      vertex 22.2097 10.8262 14.4
    endloop
  endfacet
  facet normal 0 0 1
    outer loop
      vertex 26.4 14 14.4
      vertex 22.2097 10.8262 14.4
      vertex 22.219 10.819 14.4
    endloop
  endfacet
  facet normal 0 0 1
    outer loop
      vertex 26.4 14 14.4
      vertex 22.219 10.819 14.4
      vertex 22.5083 10.442 14.4
    endloop
  endfacet
  facet normal 0 0 1
    outer loop
      vertex 26.4 14 14.4
      vertex 22.5155 10.4327 14.4
      vertex 26.4 5 14.4
    endloop
  endfacet
  facet normal 0 0 1
    outer loop
      vertex 26.4 14 14.4
      vertex 22.5083 10.442 14.4
      vertex 22.5155 10.4327 14.4
    endloop
  endfacet
  facet normal 0 0 1
    outer loop
      vertex 22.6973 9.99362 14.4
      vertex 22.7018 9.9828 14.4
      vertex 26.4 5 14.4
    endloop
  endfacet
  facet normal 0 0 1
    outer loop
      vertex 22.7639 9.51161 14.4
      vertex 22.7654 9.5 14.4
      vertex 26.4 5 14.4
    endloop
  endfacet
  facet normal 0 -0 1
    outer loop
      vertex 22.7034 9.02882 14.4
      vertex 22.7018 9.0172 14.4
      vertex 26.4 5 14.4
    endloop
  endfacet
  facet normal 0 -0 1
    outer loop
      vertex 22.7018 9.0172 14.4
      vertex 22.52 8.57813 14.4
      vertex 26.4 5 14.4
    endloop
  endfacet
  facet normal 0 -0 1
    outer loop
      vertex 22.52 8.57813 14.4
      vertex 22.5155 8.56731 14.4
      vertex 26.4 5 14.4
    endloop
  endfacet
  facet normal -0 0 1
    outer loop
      vertex 26.4 5 14.4
      vertex 22.2262 8.19027 14.4
      vertex 26.266 4.5 14.4
    endloop
  endfacet
  facet normal 0 0 1
    outer loop
      vertex 19.9673 11.1155 14.4
      vertex 20.4064 11.2973 14.4
      vertex 26.4 14 14.4
    endloop
  endfacet
  facet normal 0 -0 1
    outer loop
      vertex 22.2262 8.19027 14.4
      vertex 22.219 8.18097 14.4
      vertex 26.266 4.5 14.4
    endloop
  endfacet
  facet normal 0 0 1
    outer loop
      vertex 20.4172 11.3018 14.4
      vertex 20.8884 11.3639 14.4
      vertex 26.4 14 14.4
    endloop
  endfacet
  facet normal -0 0 1
    outer loop
      vertex 25.9 4.13397 14.4
      vertex 21.842 7.89166 14.4
      vertex 25.4 4 14.4
    endloop
  endfacet
  facet normal 0 -0 1
    outer loop
      vertex 21.842 7.89166 14.4
      vertex 21.8327 7.88453 14.4
      vertex 25.4 4 14.4
    endloop
  endfacet
  facet normal 0 -0 1
    outer loop
      vertex 21.8327 7.88453 14.4
      vertex 21.3936 7.70266 14.4
      vertex 25.4 4 14.4
    endloop
  endfacet
  facet normal 0 0 1
    outer loop
      vertex 25.4 4 14.4
      vertex 21.3936 7.70266 14.4
      vertex 21.3828 7.69818 14.4
    endloop
  endfacet
  facet normal -0 0 1
    outer loop
      vertex 25.4 4 14.4
      vertex 20.9116 7.63614 14.4
      vertex 16.4 4 14.4
    endloop
  endfacet
  facet normal 0 0 1
    outer loop
      vertex 20.9116 7.63614 14.4
      vertex 20.9 7.63462 14.4
      vertex 16.4 4 14.4
    endloop
  endfacet
  facet normal -0 0 1
    outer loop
      vertex 20.9 7.63462 14.4
      vertex 20.4288 7.69665 14.4
      vertex 16.4 4 14.4
    endloop
  endfacet
  facet normal -0 0 1
    outer loop
      vertex 20.4288 7.69665 14.4
      vertex 20.4172 7.69818 14.4
      vertex 16.4 4 14.4
    endloop
  endfacet
  facet normal -0 0 1
    outer loop
      vertex 20.4172 7.69818 14.4
      vertex 19.9781 7.88005 14.4
      vertex 16.4 4 14.4
    endloop
  endfacet
  facet normal -0 0 1
    outer loop
      vertex 19.9781 7.88005 14.4
      vertex 19.9673 7.88453 14.4
      vertex 16.4 4 14.4
    endloop
  endfacet
  facet normal -0 0 1
    outer loop
      vertex 19.9673 7.88453 14.4
      vertex 19.5903 8.17384 14.4
      vertex 16.4 4 14.4
    endloop
  endfacet
  facet normal -0 0 1
    outer loop
      vertex 19.5903 8.17384 14.4
      vertex 19.581 8.18097 14.4
      vertex 16.4 4 14.4
    endloop
  endfacet
  facet normal -0 0 1
    outer loop
      vertex 19.581 8.18097 14.4
      vertex 19.2917 8.55801 14.4
      vertex 16.4 4 14.4
    endloop
  endfacet
  facet normal -0 0 1
    outer loop
      vertex 19.2917 8.55801 14.4
      vertex 19.2845 8.56731 14.4
      vertex 16.4 4 14.4
    endloop
  endfacet
  facet normal -0 0 1
    outer loop
      vertex 19.2845 8.56731 14.4
      vertex 19.1027 9.00638 14.4
      vertex 16.4 4 14.4
    endloop
  endfacet
  facet normal -0 0 1
    outer loop
      vertex 19.1027 9.00638 14.4
      vertex 19.0982 9.0172 14.4
      vertex 16.4 4 14.4
    endloop
  endfacet
  facet normal 0 -0 1
    outer loop
      vertex 21.3828 7.69818 14.4
      vertex 20.9116 7.63614 14.4
      vertex 25.4 4 14.4
    endloop
  endfacet
  facet normal 0 0 1
    outer loop
      vertex 19.0982 9.9828 14.4
      vertex 19.28 10.4219 14.4
      vertex 15.4 14 14.4
    endloop
  endfacet
endsolid OpenSCAD_Model
